<?xml version="1.0" encoding="utf-8"?>
<svg width="47px" height="55px" viewBox="0 0 47 55" version="1.1" xmlns:xlink="http://www.w3.org/1999/xlink" xmlns="http://www.w3.org/2000/svg">
  <desc>Created with Lunacy</desc>
  <g id="Без-названия-(5)">
    <path d="M-1.73489e-12 -6.91706e-13L1.88384 -6.88388e-13L1.88384 5.97634L-1.74446e-12 5.97634L-1.73489e-12 -6.91706e-13Z" transform="matrix(0.9604067 -0.2786019 0.2786019 0.9604067 27.35901 23.38277)" id="Rectangle" fill="#E0141F" stroke="none" />
    <path d="M10.6535 1.75394L12.7323 8.83465C12.8622 9.22441 12.6024 9.54921 12.2776 9.67913L9.15945 10.5886C8.76968 10.7185 8.44488 10.4587 8.31496 10.1339L6.23622 3.05315C6.23622 3.05315 6.23622 3.05315 6.23622 3.05315L0 4.87205L4.93701 21.6968L21.7618 16.8248L16.8898 0L10.6535 1.75394C10.6535 1.75394 10.6535 1.75394 10.6535 1.75394Z" transform="translate(19.65161 20.07288)" id="Path" fill="#415AB7" stroke="none" />
    <path d="M1.04574e-16 -6.91643e-13L1.88384 -6.8986e-13L1.88384 5.97634L1.6209e-15 5.97634L1.04574e-16 -6.91643e-13Z" transform="matrix(0.9604067 -0.2786019 0.2786019 0.9604067 21.45276 3.369987)" id="Rectangle" fill="#E0141F" stroke="none" />
    <path d="M21.6968 16.8248L16.8248 0L10.6535 1.8189C10.6535 1.8189 10.6535 1.8189 10.6535 1.8189L12.7323 8.89961C12.8622 9.28937 12.6024 9.61417 12.2776 9.74409L9.15945 10.6535C8.76968 10.7835 8.44488 10.5236 8.31496 10.1988L6.23622 3.11811C6.23622 3.11811 6.23622 3.11811 6.23622 3.11811L0 4.93701L4.87205 21.7618L21.6968 16.8248Z" transform="translate(13.74023 3.814697E-05)" id="Path" fill="#415AB7" stroke="none" />
    <path d="M45.4409 35.0508C45.8956 34.9208 46.3504 35.1807 46.4803 35.6354C46.5453 36.0901 46.2854 36.6098 45.8956 36.7397L24.4586 42.7161C24.7185 44.2102 24.4586 45.7043 23.6791 47.0035C22.8346 48.5626 21.4055 49.6669 19.6516 50.1866C19.0669 50.3815 18.4173 50.4464 17.8327 50.4464C14.8445 50.4464 12.1811 48.4976 11.3366 45.5094C10.8169 43.7555 11.0768 41.9366 11.9212 40.3775Q13.0905 38.3313 15.2342 37.4543L6.46455 6.07833C3.86612 4.12951 1.07281 1.98581 0.553129 1.66101C0.293287 1.53109 0.0984048 1.3362 0.0334441 1.07636C-0.0964771 0.621636 0.163365 0.166912 0.61809 0.0369905C0.621841 0.0360528 0.625568 0.0351184 0.629274 0.0341894C1.13905 -0.0936011 1.24962 -0.12132 7.6988 4.90904C7.89368 5.03896 7.95864 5.16888 8.0236 5.36376L16.8582 36.9996C19.8464 36.5449 22.7697 38.2338 23.939 41.0271L45.4409 35.0508ZM14.8445 43.9504C14.8445 45.5094 16.0787 46.8086 17.7027 46.8086C19.3268 46.8086 20.626 45.5094 20.561 43.9504C20.561 42.3913 19.2618 41.0921 17.7027 41.0921C16.1437 41.0921 14.8445 42.3264 14.8445 43.9504Z" transform="translate(0 4.25045)" id="Shape" fill="#415AB7" fill-rule="evenodd" stroke="none" />
  </g>
</svg>