<svg xmlns="http://www.w3.org/2000/svg" width="16" height="17" viewBox="0 0 16 17">
    <path fill="#2F3137" d="M7.064.75C7.59.23 8.411.232 8.936.75l.942.934c.102.1.24.146.38.126l1.299-.188c.722-.105 1.388.39 1.514 1.126l.226 1.322c.025.142.11.263.235.33l1.158.63c.645.35.9 1.15.579 1.822l-.576 1.205c-.062.13-.062.28 0 .41l.576 1.205c.32.672.066 1.472-.579 1.822l-1.158.629c-.125.068-.21.188-.235.331l-.226 1.322c-.126.736-.791 1.23-1.514 1.126l-1.299-.188c-.14-.02-.278.026-.38.126l-.942.933c-.263.26-.6.39-.936.39-.337 0-.673-.13-.936-.39l-.942-.933c-.102-.1-.24-.147-.38-.126l-1.299.188c-.064.01-.129.014-.192.014-.646 0-1.207-.47-1.322-1.14l-.226-1.322c-.025-.143-.11-.263-.235-.331l-1.158-.63c-.645-.35-.9-1.15-.579-1.82l.576-1.206c.062-.13.062-.28 0-.41L.731 6.852C.411 6.18.665 5.38 1.31 5.03l1.158-.629c.125-.068.21-.189.235-.331l.226-1.322c.126-.736.791-1.23 1.514-1.126l1.299.188c.14.02.278-.026.38-.126zm2.717 8.271c-.9 0-1.633.75-1.633 1.671 0 .922.733 1.671 1.633 1.671s1.632-.75 1.632-1.67c0-.922-.732-1.672-1.632-1.672zm1.472-4.089c-.174-.178-.456-.178-.63 0l-5.876 6.015c-.174.178-.174.467 0 .645.087.089.2.133.315.133.114 0 .227-.044.314-.133l5.877-6.015c.174-.178.174-.467 0-.645zm-1.472 5c.41 0 .742.342.742.76 0 .42-.333.76-.742.76-.41 0-.742-.34-.742-.76 0-.418.333-.76.742-.76zM6.219 4.162c-.9 0-1.632.75-1.632 1.67 0 .922.732 1.671 1.632 1.671.9 0 1.633-.75 1.633-1.67 0-.922-.733-1.671-1.633-1.671zm0 .911c.41 0 .742.34.742.76 0 .418-.333.759-.742.759-.41 0-.742-.34-.742-.76 0-.418.333-.759.742-.759z"/>
</svg>
