<?xml version="1.0" encoding="utf-8"?>
<svg width="1137px" height="145px" viewBox="0 0 1137 145" version="1.1" xmlns:xlink="http://www.w3.org/1999/xlink" xmlns="http://www.w3.org/2000/svg">
  <desc>Created with Lunacy</desc>
  <defs>
    <linearGradient x1="1.15202475" y1="0.05309501" x2="0" y2="1" id="gradient_1">
      <stop offset="0" stop-color="#697A96" />
      <stop offset="1" stop-color="#5B6D8B" />
    </linearGradient>
    <linearGradient x1="0.691680431" y1="0.09275846" x2="0.1081626" y2="0.7817619" id="gradient_2">
      <stop offset="0" stop-color="#7488AC" />
      <stop offset="1" stop-color="#7385A4" />
    </linearGradient>
    <linearGradient x1="0.819327652" y1="0.36787343" x2="0.03268249" y2="0.395882815" id="gradient_3">
      <stop offset="0" stop-color="#BBCDFF" stop-opacity="0.4117647" />
      <stop offset="1" stop-color="#DEE9FF" />
    </linearGradient>
    <linearGradient x1="0.6964412" y1="0.313818038" x2="0.107222833" y2="0.714075565" id="gradient_4">
      <stop offset="0" stop-color="#CCD5EE" stop-opacity="0.41568628" />
      <stop offset="1" stop-color="#DCE3F1" />
    </linearGradient>
    <path d="M3.999 0L1132 0Q1132.2 0 1132.39 0.0192563Q1132.59 0.0385126 1132.78 0.0768396Q1132.97 0.115167 1133.16 0.172196Q1133.35 0.229224 1133.53 0.304406Q1133.71 0.379587 1133.89 0.472197Q1134.06 0.564807 1134.22 0.673953Q1134.39 0.783099 1134.54 0.907731Q1134.69 1.03236 1134.83 1.17128Q1134.97 1.3102 1135.09 1.46206Q1135.22 1.61393 1135.33 1.77727Q1135.44 1.94062 1135.53 2.11388Q1135.62 2.28715 1135.7 2.46865Q1135.77 2.65015 1135.83 2.83815Q1135.88 3.02615 1135.92 3.21883Q1135.96 3.41152 1135.98 3.60703Q1136 3.80254 1136 3.999L1136 140.001Q1136 140.197 1135.98 140.393Q1135.96 140.589 1135.92 140.781Q1135.88 140.974 1135.83 141.162Q1135.77 141.35 1135.7 141.531Q1135.62 141.713 1135.53 141.886Q1135.44 142.059 1135.33 142.223Q1135.22 142.386 1135.09 142.538Q1134.97 142.69 1134.83 142.829Q1134.69 142.968 1134.54 143.092Q1134.39 143.217 1134.22 143.326Q1134.06 143.435 1133.89 143.528Q1133.71 143.62 1133.53 143.696Q1133.35 143.771 1133.16 143.828Q1132.97 143.885 1132.78 143.923Q1132.59 143.961 1132.39 143.981Q1132.2 144 1132 144L3.999 144Q3.80254 144 3.60703 143.981Q3.41152 143.961 3.21883 143.923Q3.02615 143.885 2.83815 143.828Q2.65015 143.771 2.46865 143.696Q2.28715 143.62 2.11388 143.528Q1.94062 143.435 1.77727 143.326Q1.61393 143.217 1.46206 143.092Q1.3102 142.968 1.17128 142.829Q1.03236 142.69 0.907731 142.538Q0.783099 142.386 0.673953 142.223Q0.564807 142.059 0.472197 141.886Q0.379587 141.713 0.304406 141.531Q0.229224 141.35 0.172196 141.162Q0.115167 140.974 0.0768396 140.781Q0.0385126 140.589 0.0192563 140.393Q0 140.197 0 140.001L0 3.999Q0 3.80254 0.0192563 3.60703Q0.0385126 3.41152 0.0768396 3.21883Q0.115167 3.02615 0.172196 2.83815Q0.229224 2.65015 0.304406 2.46865Q0.379587 2.28715 0.472197 2.11388Q0.564807 1.94062 0.673953 1.77727Q0.783099 1.61393 0.907731 1.46206Q1.03236 1.3102 1.17128 1.17128Q1.3102 1.03236 1.46206 0.907731Q1.61393 0.783099 1.77727 0.673953Q1.94062 0.564807 2.11388 0.472197Q2.28715 0.379587 2.46865 0.304406Q2.65015 0.229224 2.83815 0.172196Q3.02615 0.115167 3.21883 0.0768396Q3.41152 0.0385126 3.60703 0.0192563Q3.80254 0 3.999 0Z" id="path_1" />
    <path d="M152.737 303C237.091 303 305.473 235.171 305.473 151.5C305.473 67.8289 237.091 0 152.737 0C68.3826 0 0 67.8289 0 151.5C0 235.171 68.3826 303 152.737 303Z" transform="translate(988.9843 -11.37231)" id="path_2" />
    <clipPath id="clip_1">
      <use xlink:href="#path_2" />
    </clipPath>
    <clipPath id="mask_1">
      <use xlink:href="#path_1" />
    </clipPath>
  </defs>
  <g id="Group-15" transform="translate(0.5 0.5)">
    <path d="M3.999 0L1132 0Q1132.2 0 1132.39 0.0192563Q1132.59 0.0385126 1132.78 0.0768396Q1132.97 0.115167 1133.16 0.172196Q1133.35 0.229224 1133.53 0.304406Q1133.71 0.379587 1133.89 0.472197Q1134.06 0.564807 1134.22 0.673953Q1134.39 0.783099 1134.54 0.907731Q1134.69 1.03236 1134.83 1.17128Q1134.97 1.3102 1135.09 1.46206Q1135.22 1.61393 1135.33 1.77727Q1135.44 1.94062 1135.53 2.11388Q1135.62 2.28715 1135.7 2.46865Q1135.77 2.65015 1135.83 2.83815Q1135.88 3.02615 1135.92 3.21883Q1135.96 3.41152 1135.98 3.60703Q1136 3.80254 1136 3.999L1136 140.001Q1136 140.197 1135.98 140.393Q1135.96 140.589 1135.92 140.781Q1135.88 140.974 1135.83 141.162Q1135.77 141.35 1135.7 141.531Q1135.62 141.713 1135.53 141.886Q1135.44 142.059 1135.33 142.223Q1135.22 142.386 1135.09 142.538Q1134.97 142.69 1134.83 142.829Q1134.69 142.968 1134.54 143.092Q1134.39 143.217 1134.22 143.326Q1134.06 143.435 1133.89 143.528Q1133.71 143.62 1133.53 143.696Q1133.35 143.771 1133.16 143.828Q1132.97 143.885 1132.78 143.923Q1132.59 143.961 1132.39 143.981Q1132.2 144 1132 144L3.999 144Q3.80254 144 3.60703 143.981Q3.41152 143.961 3.21883 143.923Q3.02615 143.885 2.83815 143.828Q2.65015 143.771 2.46865 143.696Q2.28715 143.62 2.11388 143.528Q1.94062 143.435 1.77727 143.326Q1.61393 143.217 1.46206 143.092Q1.3102 142.968 1.17128 142.829Q1.03236 142.69 0.907731 142.538Q0.783099 142.386 0.673953 142.223Q0.564807 142.059 0.472197 141.886Q0.379587 141.713 0.304406 141.531Q0.229224 141.35 0.172196 141.162Q0.115167 140.974 0.0768396 140.781Q0.0385126 140.589 0.0192563 140.393Q0 140.197 0 140.001L0 3.999Q0 3.80254 0.0192563 3.60703Q0.0385126 3.41152 0.0768396 3.21883Q0.115167 3.02615 0.172196 2.83815Q0.229224 2.65015 0.304406 2.46865Q0.379587 2.28715 0.472197 2.11388Q0.564807 1.94062 0.673953 1.77727Q0.783099 1.61393 0.907731 1.46206Q1.03236 1.3102 1.17128 1.17128Q1.3102 1.03236 1.46206 0.907731Q1.61393 0.783099 1.77727 0.673953Q1.94062 0.564807 2.11388 0.472197Q2.28715 0.379587 2.46865 0.304406Q2.65015 0.229224 2.83815 0.172196Q3.02615 0.115167 3.21883 0.0768396Q3.41152 0.0385126 3.60703 0.0192563Q3.80254 0 3.999 0Z" id="Rectangle" fill="url(#gradient_1)" stroke="none" />
    <g clip-path="url(#mask_1)">
      <g id="Oval">
        <g clip-path="url(#clip_1)">
          <use xlink:href="#path_2" fill="none" stroke="url(#gradient_2)" stroke-opacity="0.7655088" stroke-width="144" />
        </g>
      </g>
      <path d="M11.9152 15.4366L9.76908 19.3361Q9.49865 19.8274 9.24618 20.3282Q8.99371 20.829 8.75952 21.3387Q8.52533 21.8483 8.30973 22.366Q8.09412 22.8838 7.89739 23.409Q7.70066 23.9342 7.52305 24.4662Q7.34545 24.9982 7.1872 25.5363Q7.02896 26.0743 6.89028 26.6178Q6.75161 27.1612 6.63268 27.7093Q6.51375 28.2574 6.41473 28.8095Q6.3157 29.3615 6.23671 29.9168Q6.15772 30.472 6.09887 31.0298Q6.04002 31.5876 6.00138 32.1471Q5.96274 32.7066 5.94437 33.2672Q5.926 33.8277 5.92792 34.3886Q5.92983 34.9494 5.95204 35.5098Q5.97424 36.0702 6.0167 36.6295Q6.05917 37.1887 6.12183 37.7461Q6.18449 38.3034 6.26727 38.8581Q6.35006 39.4128 6.45285 39.9642Q6.55565 40.5156 6.67832 41.0628Q6.80099 41.6101 6.94338 42.1526Q7.08577 42.6951 7.24769 43.232Q7.40961 43.769 7.59085 44.2998Q7.77208 44.8305 7.9724 45.3544Q8.17272 45.8783 8.39186 46.3945Q8.61099 46.9108 8.84866 47.4188Q9.08633 47.9268 9.34222 48.4259Q9.59811 48.925 9.87188 49.4145Q10.1457 49.904 10.437 50.3832Q10.7283 50.8625 11.0367 51.3309Q11.3452 51.7993 11.6704 52.2563Q11.9955 52.7133 12.3371 53.1581L115.364 187.374Q115.547 187.612 115.738 187.843Q115.93 188.075 116.131 188.299Q116.331 188.523 116.54 188.739Q116.748 188.955 116.965 189.164Q117.181 189.372 117.406 189.572Q117.63 189.772 117.861 189.963Q118.093 190.155 118.332 190.337Q118.57 190.52 118.816 190.694Q119.061 190.867 119.313 191.031Q119.564 191.195 119.822 191.35Q120.08 191.505 120.343 191.65Q120.606 191.794 120.875 191.929Q121.143 192.064 121.417 192.189Q121.69 192.313 121.968 192.428Q122.246 192.542 122.528 192.646Q122.81 192.75 123.096 192.843Q123.381 192.936 123.67 193.018Q123.959 193.101 124.251 193.172Q124.543 193.244 124.837 193.304Q125.132 193.364 125.428 193.414Q125.725 193.463 126.023 193.501Q126.321 193.539 126.62 193.566Q126.919 193.593 127.219 193.609Q127.519 193.625 127.82 193.629Q128.12 193.634 128.421 193.627Q128.721 193.62 129.021 193.602Q129.321 193.584 129.62 193.554Q129.919 193.525 130.217 193.484Q130.515 193.443 130.811 193.392Q131.107 193.34 131.4 193.277Q131.694 193.214 131.986 193.14Q132.277 193.067 132.565 192.982L553.052 69.4269Q553.291 69.3568 553.524 69.2724Q553.758 69.1879 553.986 69.0894Q554.214 68.9908 554.436 68.8786Q554.658 68.7663 554.872 68.6408Q555.087 68.5153 555.293 68.3769Q555.5 68.2385 555.697 68.0878Q555.895 67.9371 556.083 67.7747Q556.271 67.6123 556.449 67.4387Q556.627 67.2651 556.794 67.081Q556.961 66.8969 557.116 66.7029Q557.272 66.509 557.415 66.306Q557.558 66.1029 557.689 65.8915Q557.82 65.6802 557.937 65.4612Q558.055 65.2422 558.159 65.0165Q558.263 64.7908 558.353 64.5592Q558.443 64.3276 558.519 64.0909Q558.595 63.8542 558.656 63.6134Q558.717 63.3725 558.764 63.1283Q558.81 62.8842 558.842 62.6377Q558.873 62.3912 558.89 62.1432Q558.906 61.8952 558.908 61.6467Q558.909 61.3981 558.895 61.15Q558.881 60.9018 558.852 60.655Q558.824 60.4081 558.78 60.1635Q558.736 59.9189 558.677 59.6774Q558.618 59.4359 558.545 59.1984Q558.472 58.9609 558.384 58.7284Q558.297 58.4958 558.195 58.269Q558.093 58.0422 557.978 57.822Q557.863 57.6018 557.734 57.389Q557.606 57.1762 557.465 56.9717Q557.324 56.7671 557.17 56.5715L549.748 47.1046L37.9616 1.5618Q37.4757 1.51856 36.9884 1.4929Q36.5012 1.46724 36.0134 1.4592Q35.5255 1.45116 35.0377 1.46075Q34.5499 1.47034 34.0628 1.49755Q33.5756 1.52476 33.0898 1.56956Q32.6039 1.61435 32.12 1.67667Q31.6361 1.73899 31.1548 1.81875Q30.6734 1.89851 30.1953 1.99561Q29.7172 2.09271 29.2428 2.20702Q28.7685 2.32134 28.2986 2.45271Q27.8287 2.58409 27.3639 2.73235Q26.8991 2.88062 26.4399 3.04558Q25.9807 3.21055 25.5278 3.392Q25.0749 3.57344 24.6289 3.77113Q24.1828 3.96883 23.7442 4.18251Q23.3056 4.39619 22.8749 4.62557Q22.4443 4.85496 22.0223 5.09976Q21.6002 5.34455 21.1873 5.60444Q20.7744 5.86433 20.3711 6.13896Q19.9678 6.4136 19.5748 6.70262Q19.1817 6.99165 18.7993 7.29469Q18.4169 7.59773 18.0457 7.91438Q17.6745 8.23104 17.315 8.5609Q16.9555 8.89076 16.6082 9.2334Q16.2608 9.57604 15.9261 9.931Q15.5914 10.286 15.2697 10.6528Q14.948 11.0196 14.6397 11.3978Q14.3315 11.776 14.0371 12.1651Q13.7427 12.5542 13.4626 12.9537Q13.1825 13.3532 12.917 13.7625Q12.6515 14.1719 12.401 14.5905Q12.1504 15.0092 11.9152 15.4366L11.9152 15.4366Z" transform="translate(557 0.9334106)" id="Path-5" fill="url(#gradient_3)" fill-opacity="0.12860398" stroke="none" />
      <path d="M24.7768 92.2371L14.0095 114.683Q13.6712 115.388 13.3688 116.109Q13.0665 116.831 12.8009 117.567Q12.5354 118.302 12.3073 119.051Q12.0792 119.799 11.8891 120.558Q11.699 121.317 11.5474 122.084Q11.3959 122.851 11.2832 123.626Q11.1705 124.4 11.0971 125.178Q11.0236 125.957 10.9895 126.739Q10.9554 127.52 10.9607 128.303Q10.9661 129.085 11.0109 129.866Q11.0557 130.647 11.1398 131.424Q11.224 132.202 11.3472 132.975Q11.4705 133.747 11.6326 134.512Q11.7946 135.278 11.9951 136.034Q12.1956 136.79 12.4339 137.535Q12.6722 138.28 12.9479 139.012Q13.2235 139.744 13.5357 140.462Q13.8479 141.179 14.1958 141.879Q14.5438 142.58 14.9267 143.262Q15.3095 143.944 15.7263 144.606Q16.1431 145.268 16.5927 145.908Q17.0424 146.549 17.5237 147.165Q18.0051 147.782 18.5169 148.373Q19.0288 148.965 19.5698 149.53Q20.1108 150.095 20.6797 150.632Q21.2485 151.169 21.8437 151.677Q22.4389 152.184 23.059 152.661Q23.679 153.138 24.3223 153.583Q24.9656 154.028 25.6306 154.44Q26.2955 154.852 26.9804 155.23Q27.6653 155.608 28.3684 155.951Q29.0714 156.294 29.7909 156.601L157.151 210.957Q157.451 211.085 157.755 211.2Q158.06 211.316 158.37 211.419Q158.679 211.522 158.992 211.613Q159.305 211.703 159.622 211.781Q159.939 211.858 160.258 211.923Q160.578 211.988 160.9 212.039Q161.222 212.091 161.546 212.129Q161.87 212.168 162.195 212.193Q162.52 212.218 162.846 212.23Q163.172 212.242 163.498 212.241Q163.824 212.239 164.149 212.225Q164.475 212.21 164.8 212.182Q165.125 212.154 165.448 212.113Q165.772 212.072 166.093 212.018Q166.415 211.963 166.734 211.896Q167.053 211.829 167.369 211.748Q167.685 211.668 167.998 211.575Q168.31 211.482 168.619 211.376Q168.927 211.271 169.231 211.152Q169.535 211.034 169.834 210.904Q170.133 210.773 170.426 210.631Q170.719 210.488 171.006 210.334Q171.293 210.179 171.574 210.013Q171.855 209.847 172.128 209.67Q172.402 209.493 172.668 209.304Q172.935 209.116 173.193 208.917Q173.451 208.718 173.701 208.509Q173.951 208.3 174.193 208.08Q174.434 207.861 174.666 207.632Q174.898 207.403 175.121 207.165Q175.343 206.926 175.556 206.679Q175.769 206.432 175.971 206.177L309.56 37.5494Q309.948 37.0599 310.296 36.5416Q310.645 36.0234 310.952 35.4795Q311.259 34.9357 311.523 34.3696Q311.786 33.8034 312.005 33.2185Q312.224 32.6335 312.396 32.0333Q312.569 31.4331 312.694 30.8213Q312.819 30.2094 312.896 29.5897Q312.973 28.97 313.002 28.3461Q313.03 27.7222 313.01 27.0981Q312.99 26.4739 312.921 25.8532Q312.853 25.2324 312.736 24.619Q312.619 24.0055 312.454 23.403Q312.29 22.8005 312.079 22.2127Q311.868 21.6249 311.612 21.0553Q311.356 20.4856 311.057 19.9377Q310.757 19.3898 310.415 18.8669Q310.074 18.344 309.693 17.8493Q309.312 17.3546 308.893 16.8912Q308.474 16.4277 308.021 15.9983Q307.568 15.5688 307.082 15.176Q306.596 14.7833 306.082 14.4295Q305.567 14.0758 305.027 13.7632Q304.486 13.4507 303.922 13.1813Q303.359 12.9118 302.776 12.6871Q302.194 12.4624 301.595 12.2838Q300.997 12.1052 300.386 11.9738Q299.776 11.8424 299.157 11.7589Q298.538 11.6755 297.914 11.6406Q297.291 11.6057 296.667 11.6194Q296.042 11.6332 295.421 11.6956Q294.799 11.758 294.185 11.8687Q293.57 11.9794 292.966 12.1376L42.279 77.7967Q41.571 77.9821 40.874 78.2057Q40.1769 78.4293 39.4931 78.6902Q38.8092 78.9512 38.1405 79.2489Q37.4718 79.5466 36.8201 79.88Q36.1685 80.2135 35.5359 80.5818Q34.9034 80.95 34.2917 81.3521Q33.68 81.7541 33.0909 82.1886Q32.5019 82.6232 31.9373 83.089Q31.3727 83.5549 30.8341 84.0506Q30.2956 84.5464 29.7847 85.0706Q29.2738 85.5948 28.7921 86.1459Q28.3104 86.697 27.8592 87.2734Q27.408 87.8498 26.9887 88.4498Q26.5695 89.0498 26.1833 89.6716Q25.7972 90.2935 25.4453 90.9353Q25.0934 91.5772 24.7768 92.2371Z" transform="translate(656.7328 -51)" id="Path-5-Copy-3" fill="url(#gradient_4)" fill-opacity="0.1586914" stroke="none" />
    </g>
  </g>
</svg>