<svg xmlns="http://www.w3.org/2000/svg" width="24" height="25" viewBox="0 0 24 25">
    <path fill="#2F3137" d="M11.901 1.5c2.95 0 5.6 1.389 7.273 3.81 1.665 2.408 2.049 5.458 1.028 8.157-.27.73-.703 1.443-1.284 2.117l-6.433 7.557c-.146.171-.36.27-.584.27-.224 0-.437-.1-.583-.27l-6.435-7.559c-.579-.67-1.012-1.385-1.284-2.12-1.019-2.694-.635-5.744 1.03-8.152C6.3 2.889 8.952 1.5 11.9 1.5zm0 1.532c-2.438 0-4.63 1.148-6.012 3.149-1.378 1.995-1.698 4.516-.855 6.744.21.568.55 1.125 1.012 1.66l5.855 6.878 5.852-6.874c.466-.54.806-1.096 1.014-1.659.845-2.233.525-4.754-.853-6.75-1.383-2-3.574-3.148-6.013-3.148zm0 3.014c2.366 0 4.29 1.924 4.29 4.29 0 2.365-1.924 4.29-4.29 4.29-2.365 0-4.29-1.925-4.29-4.29 0-2.366 1.925-4.29 4.29-4.29zm0 1.532c-1.52 0-2.758 1.237-2.758 2.758 0 1.52 1.238 2.758 2.758 2.758 1.521 0 2.758-1.238 2.758-2.758 0-1.521-1.237-2.758-2.758-2.758z"/>
</svg>
