<svg xmlns="http://www.w3.org/2000/svg" width="24" height="24" viewBox="0 0 24 24">
    <g fill="none" fill-rule="evenodd">
        <path fill="#415AB7" d="M15.399 20.286h4.273V6.789h-4.273v13.497zm-5.535 0h4.272V10.48H9.864v9.806zm-5.535 0h4.273V3.714H4.329v16.572zm15.973-14.76h-5.534c-.349 0-.632.283-.632.631v3.058H9.864V3.082c0-.349-.284-.632-.632-.632H3.697c-.348 0-.632.283-.632.632V20.92c0 .348.284.631.632.631h16.605c.35 0 .633-.283.633-.631V6.157c0-.348-.284-.631-.633-.631z"/>
        <path fill="#415AB7" d="M4 3H9V21H4z"/>
        <rect width="4.308" height="12.297" x="9.85" y="9.231" fill="#5973D4" rx=".5"/>
        <path fill="#6B85E5" d="M14.64 5.528h5.778c.276 0 .5.224.5.5l.02 15.012c0 .276-.224.5-.5.5H14.16L14.14 6.03c0-.276.223-.5.5-.5z"/>
    </g>
</svg>
