<svg xmlns="http://www.w3.org/2000/svg" width="137" height="40" viewBox="0 0 137 40">
    <path fill="#FFECDE" d="M136.104 10.833V3.097c-.003-1.656-1.344-2.999-3-3.002L3 .002C1.343 0-.001 1.341-.002 2.998L0 3v7.737c4.736.658 8.252 4.585 8.252 9.217 0 4.632-3.516 8.56-8.252 9.217v7.737c.002 1.656 1.344 2.999 3 3.002l130.104.092c1.656.004 3-1.338 3.002-2.995 0 0 0-.002-.002-.002v-7.737c-4.736-.658-8.253-4.586-8.253-9.217 0-4.632 3.517-8.56 8.253-9.218zM22.602 34.363H19.92v-2.597h2.683v2.597zm.084 4.835h-2.684v-2.597h2.684v2.597zm-.084-10.03H19.92v-2.597h2.683v2.597zm0-5.195H19.92v-2.597h2.683v2.597zm0-5.195H19.92V16.18h2.683v2.598zm0-5.195H19.92v-2.598h2.683v2.598zm0-5.195H19.92V5.79h2.683v2.598zm0-5.195H19.92V.595h2.683v2.598z"/>
</svg>
