<svg xmlns="http://www.w3.org/2000/svg" width="16" height="16" viewBox="0 0 16 16">
    <path fill="#2F3137" fill-rule="evenodd" d="M11.242 11.142c-.028.023-.046.038-.062.056-.02.019-.036.037-.049.054-1.076 1.044-2.477 1.613-3.956 1.613-3.127 0-5.67-2.543-5.67-5.67 0-3.125 2.543-5.668 5.67-5.668 3.126 0 5.67 2.543 5.67 5.669 0 1.479-.57 2.88-1.603 3.946m4.292 3.493L12.54 11.64l.057-.07c1-1.236 1.548-2.79 1.548-4.375 0-3.843-3.127-6.97-6.969-6.97-3.844 0-6.97 3.127-6.97 6.97 0 3.842 3.126 6.969 6.97 6.969 1.586 0 3.14-.55 4.376-1.548l.07-.057.062.064 2.931 2.93c.246.245.674.245.92 0 .122-.122.19-.285.19-.46 0-.173-.068-.336-.19-.46"/>
</svg>
