<svg xmlns="http://www.w3.org/2000/svg" xmlns:xlink="http://www.w3.org/1999/xlink" width="1089" height="161" viewBox="0 0 1089 161">
    <defs>
        <path id="bl2ba5l3ka" d="M4 0l1080.151.12c2.21 0 4 1.791 4 4v152c0 2.21-1.79 4-4 4L4 160c-2.209 0-4-1.791-4-4V4c0-2.21 1.79-4 4-4z"/>
        <path id="3p1ho008ic" d="M0.271 500.52L164.271 500.52 630.271 500.52 750.271 500.52 750.271 393.52 750.271 119.52 750.271 0.52 630.271 0.52 164.271 0.52 0.271 0.52 0.271 119.52 0.271 393.52z"/>
        <path id="r8hiq8fl6e" d="M0 696L851.78 696 851.78 0.716 0 0.716z"/>
    </defs>
    <g fill="none" fill-rule="evenodd">
        <mask id="p6ruc21xxb" fill="#fff">
            <use xlink:href="#bl2ba5l3ka"/>
        </mask>
        <use fill="#415AB7" xlink:href="#bl2ba5l3ka"/>
        <g mask="url(#p6ruc21xxb)">
            <g>
                <g transform="translate(452 -168) translate(37 77.284)">
                    <mask id="9u2oy24tsd" fill="#fff">
                        <use xlink:href="#3p1ho008ic"/>
                    </mask>
                    <path d="M0.271 500.52L164.271 500.52 630.271 500.52 750.271 500.52 750.271 393.52 750.271 119.52 750.271 0.52 630.271 0.52 164.271 0.52 0.271 0.52 0.271 119.52 0.271 393.52z" mask="url(#9u2oy24tsd)"/>
                </g>
                <path fill="#233EA0" fill-opacity=".648" d="M607.504 378.261L262.75 454.874 221.076 267.344 565.829 190.73z" transform="translate(452 -168)"/>
                <g transform="translate(452 -168) translate(0 .284)">
                    <path fill="#E0141F" d="M699.675 306.518c-82.123 0-148.697-66.573-148.697-148.696S617.552 9.125 699.675 9.125 848.371 75.7 848.371 157.822s-66.573 148.696-148.696 148.696z" opacity=".836"/>
                    <mask id="q97xwkt55f" fill="#fff">
                        <use xlink:href="#r8hiq8fl6e"/>
                    </mask>
                    <path fill="#FFF" d="M543.684 199.416c-1.317 0-2.385-1.068-2.385-2.386s1.068-2.386 2.385-2.386c1.32 0 2.387 1.068 2.387 2.386s-1.068 2.386-2.387 2.386zM561.1 197.03c0 1.318-1.068 2.386-2.387 2.386-1.317 0-2.385-1.068-2.385-2.386s1.067-2.386 2.385-2.386c1.319 0 2.387 1.068 2.387 2.386M576.129 197.03c0 1.318-1.068 2.386-2.386 2.386s-2.386-1.068-2.386-2.386 1.068-2.386 2.386-2.386 2.386 1.068 2.386 2.386M591.158 197.03c0 1.318-1.068 2.386-2.387 2.386-1.317 0-2.385-1.068-2.385-2.386s1.068-2.386 2.385-2.386c1.32 0 2.387 1.068 2.387 2.386M606.187 197.03c0 1.318-1.068 2.386-2.386 2.386-1.319 0-2.387-1.068-2.387-2.386s1.068-2.386 2.387-2.386c1.317 0 2.385 1.068 2.385 2.386M621.216 197.03c0 1.318-1.068 2.386-2.386 2.386s-2.386-1.068-2.386-2.386 1.068-2.386 2.386-2.386 2.386 1.068 2.386 2.386M636.245 197.03c0 1.318-1.068 2.386-2.387 2.386-1.317 0-2.385-1.068-2.385-2.386s1.068-2.386 2.385-2.386c1.32 0 2.387 1.068 2.387 2.386M546.071 210.105c0 1.318-1.068 2.386-2.387 2.386-1.317 0-2.385-1.068-2.385-2.386s1.068-2.386 2.385-2.386c1.32 0 2.387 1.068 2.387 2.386M561.1 210.105c0 1.318-1.068 2.386-2.387 2.386-1.317 0-2.385-1.068-2.385-2.386s1.067-2.386 2.385-2.386c1.319 0 2.387 1.068 2.387 2.386M573.743 212.491c-1.318 0-2.386-1.068-2.386-2.386s1.068-2.386 2.386-2.386 2.386 1.068 2.386 2.386-1.068 2.386-2.386 2.386zM591.158 210.105c0 1.318-1.068 2.386-2.387 2.386-1.317 0-2.385-1.068-2.385-2.386s1.068-2.386 2.385-2.386c1.32 0 2.387 1.068 2.387 2.386M606.187 210.105c0 1.318-1.068 2.386-2.386 2.386-1.319 0-2.387-1.068-2.387-2.386s1.068-2.386 2.387-2.386c1.317 0 2.385 1.068 2.385 2.386M621.216 210.105c0 1.318-1.068 2.386-2.386 2.386s-2.386-1.068-2.386-2.386 1.068-2.386 2.386-2.386 2.386 1.068 2.386 2.386M636.245 210.105c0 1.318-1.068 2.386-2.387 2.386-1.317 0-2.385-1.068-2.385-2.386s1.068-2.386 2.385-2.386c1.32 0 2.387 1.068 2.387 2.386M546.071 223.18c0 1.318-1.068 2.386-2.387 2.386-1.317 0-2.385-1.068-2.385-2.386s1.068-2.386 2.385-2.386c1.32 0 2.387 1.068 2.387 2.386M561.1 223.18c0 1.318-1.068 2.386-2.387 2.386-1.317 0-2.385-1.068-2.385-2.386s1.067-2.386 2.385-2.386c1.319 0 2.387 1.068 2.387 2.386M576.129 223.18c0 1.318-1.068 2.386-2.386 2.386s-2.386-1.068-2.386-2.386 1.068-2.386 2.386-2.386 2.386 1.068 2.386 2.386M591.158 223.18c0 1.318-1.068 2.386-2.387 2.386-1.317 0-2.385-1.068-2.385-2.386s1.068-2.386 2.385-2.386c1.32 0 2.387 1.068 2.387 2.386M606.187 223.18c0 1.318-1.068 2.386-2.386 2.386-1.319 0-2.387-1.068-2.387-2.386s1.068-2.386 2.387-2.386c1.317 0 2.385 1.068 2.385 2.386M621.216 223.18c0 1.318-1.068 2.386-2.386 2.386s-2.386-1.068-2.386-2.386 1.068-2.386 2.386-2.386 2.386 1.068 2.386 2.386M636.245 223.18c0 1.318-1.068 2.386-2.387 2.386-1.317 0-2.385-1.068-2.385-2.386s1.068-2.386 2.385-2.386c1.32 0 2.387 1.068 2.387 2.386M546.071 236.255c0 1.318-1.068 2.386-2.387 2.386-1.317 0-2.385-1.068-2.385-2.386s1.068-2.386 2.385-2.386c1.32 0 2.387 1.068 2.387 2.386M561.1 236.255c0 1.318-1.068 2.386-2.387 2.386-1.317 0-2.385-1.068-2.385-2.386s1.067-2.386 2.385-2.386c1.319 0 2.387 1.068 2.387 2.386M576.129 236.255c0 1.318-1.068 2.386-2.386 2.386s-2.386-1.068-2.386-2.386 1.068-2.386 2.386-2.386 2.386 1.068 2.386 2.386M591.158 236.255c0 1.318-1.068 2.386-2.387 2.386-1.317 0-2.385-1.068-2.385-2.386s1.068-2.386 2.385-2.386c1.32 0 2.387 1.068 2.387 2.386M606.187 236.255c0 1.318-1.068 2.386-2.386 2.386-1.319 0-2.387-1.068-2.387-2.386s1.068-2.386 2.387-2.386c1.317 0 2.385 1.068 2.385 2.386M621.216 236.255c0 1.318-1.068 2.386-2.386 2.386s-2.386-1.068-2.386-2.386 1.068-2.386 2.386-2.386 2.386 1.068 2.386 2.386M636.245 236.255c0 1.318-1.068 2.386-2.387 2.386-1.317 0-2.385-1.068-2.385-2.386s1.068-2.386 2.385-2.386c1.32 0 2.387 1.068 2.387 2.386M546.071 249.33c0 1.318-1.068 2.386-2.387 2.386-1.317 0-2.385-1.068-2.385-2.386s1.068-2.386 2.385-2.386c1.32 0 2.387 1.068 2.387 2.386M561.1 249.33c0 1.318-1.068 2.386-2.387 2.386-1.317 0-2.385-1.068-2.385-2.386s1.067-2.386 2.385-2.386c1.319 0 2.387 1.068 2.387 2.386M576.129 249.33c0 1.318-1.068 2.386-2.386 2.386s-2.386-1.068-2.386-2.386 1.068-2.386 2.386-2.386 2.386 1.068 2.386 2.386M591.158 249.33c0 1.318-1.068 2.386-2.387 2.386-1.317 0-2.385-1.068-2.385-2.386s1.068-2.386 2.385-2.386c1.32 0 2.387 1.068 2.387 2.386M606.187 249.33c0 1.318-1.068 2.386-2.386 2.386-1.319 0-2.387-1.068-2.387-2.386s1.068-2.386 2.387-2.386c1.317 0 2.385 1.068 2.385 2.386M621.216 249.33c0 1.318-1.068 2.386-2.386 2.386s-2.386-1.068-2.386-2.386 1.068-2.386 2.386-2.386 2.386 1.068 2.386 2.386M636.245 249.33c0 1.318-1.068 2.386-2.387 2.386-1.317 0-2.385-1.068-2.385-2.386s1.068-2.386 2.385-2.386c1.32 0 2.387 1.068 2.387 2.386M546.071 262.405c0 1.318-1.068 2.386-2.387 2.386-1.317 0-2.385-1.068-2.385-2.386s1.068-2.386 2.385-2.386c1.32 0 2.387 1.068 2.387 2.386M561.1 262.405c0 1.318-1.068 2.386-2.387 2.386-1.317 0-2.385-1.068-2.385-2.386s1.067-2.386 2.385-2.386c1.319 0 2.387 1.068 2.387 2.386M576.129 262.405c0 1.318-1.068 2.386-2.386 2.386s-2.386-1.068-2.386-2.386 1.068-2.386 2.386-2.386 2.386 1.068 2.386 2.386M591.158 262.405c0 1.318-1.068 2.386-2.387 2.386-1.317 0-2.385-1.068-2.385-2.386s1.068-2.386 2.385-2.386c1.32 0 2.387 1.068 2.387 2.386M606.187 262.405c0 1.318-1.068 2.386-2.386 2.386-1.319 0-2.387-1.068-2.387-2.386s1.068-2.386 2.387-2.386c1.317 0 2.385 1.068 2.385 2.386M621.216 262.405c0 1.318-1.068 2.386-2.386 2.386s-2.386-1.068-2.386-2.386 1.068-2.386 2.386-2.386 2.386 1.068 2.386 2.386M636.245 262.405c0 1.318-1.068 2.386-2.387 2.386-1.317 0-2.385-1.068-2.385-2.386s1.068-2.386 2.385-2.386c1.32 0 2.387 1.068 2.387 2.386M546.071 275.48c0 1.318-1.068 2.386-2.387 2.386-1.317 0-2.385-1.067-2.385-2.385 0-1.318 1.068-2.387 2.385-2.387 1.32 0 2.387 1.069 2.387 2.387M561.1 275.48c0 1.318-1.068 2.386-2.387 2.386-1.317 0-2.385-1.067-2.385-2.385 0-1.318 1.067-2.387 2.385-2.387 1.319 0 2.387 1.069 2.387 2.387M576.129 275.48c0 1.318-1.068 2.386-2.386 2.386s-2.386-1.067-2.386-2.385c0-1.318 1.068-2.387 2.386-2.387s2.386 1.069 2.386 2.387M591.158 275.48c0 1.318-1.068 2.386-2.387 2.386-1.317 0-2.385-1.067-2.385-2.385 0-1.318 1.068-2.387 2.385-2.387 1.32 0 2.387 1.069 2.387 2.387M606.187 275.48c0 1.318-1.068 2.386-2.386 2.386-1.319 0-2.387-1.067-2.387-2.385 0-1.318 1.068-2.387 2.387-2.387 1.317 0 2.385 1.069 2.385 2.387M621.216 275.48c0 1.318-1.068 2.386-2.386 2.386s-2.386-1.067-2.386-2.385c0-1.318 1.068-2.387 2.386-2.387s2.386 1.069 2.386 2.387M636.245 275.48c0 1.318-1.068 2.386-2.387 2.386-1.317 0-2.385-1.067-2.385-2.385 0-1.318 1.068-2.387 2.385-2.387 1.32 0 2.387 1.069 2.387 2.387" mask="url(#q97xwkt55f)"/>
                    <path fill="#122D93" d="M319.789 183.514L46.161 252.612 0 69.814 273.627 0.716z" mask="url(#q97xwkt55f)" opacity=".411"/>
                    <path stroke="#FFF" stroke-width="5" d="M363.858 467.228L181.67 521.482 130 347.97 312.187 293.716z" mask="url(#q97xwkt55f)" opacity=".764"/>
                    <path fill="#314BA9" d="M484.998 157.716c0 14.911-10.745 27-23.999 27S437 172.627 437 157.716s10.745-27 23.999-27 23.999 12.089 23.999 27" mask="url(#q97xwkt55f)"/>
                    <path stroke="#F44336" stroke-width="5" d="M512.27 328.851c0 34.316-27.818 62.135-62.135 62.135-34.316 0-62.135-27.819-62.135-62.135s27.819-62.135 62.135-62.135c34.317 0 62.135 27.819 62.135 62.135z" mask="url(#q97xwkt55f)" opacity=".881"/>
                    <path fill="#F44336" d="M250.335 224.966L307.549 252.297 302.61 189.083z" mask="url(#q97xwkt55f)" opacity=".76"/>
                    <path stroke="#FFF" stroke-linecap="round" stroke-width="5" d="M274.97 225.134L332.184 252.465 327.245 189.251z" mask="url(#q97xwkt55f)" opacity=".707"/>
                </g>
            </g>
        </g>
        <g mask="url(#p6ruc21xxb)">
            <g>
                <path fill="#F44336" fill-rule="nonzero" d="M120.367 61.946l5.535-14.176c.607-1.564.134-3.337-1.199-4.397l-12-9.554-2.429-14.997c-.268-1.657-1.593-2.95-3.28-3.213l-15.273-2.385L82 1.433C80.927.125 79.082-.34 77.53.256L63.084 5.7 48.647.264c-1.6-.604-3.39-.124-4.471 1.177l-9.73 11.791-15.273 2.385c-1.68.263-3.004 1.564-3.272 3.213l-2.428 14.997L1.464 43.38C.14 44.433-.342 46.206.266 47.77L5.8 61.945.266 76.122c-.615 1.564-.127 3.337 1.198 4.39l12.009 9.546 2.428 14.997c.268 1.657 1.585 2.958 3.272 3.221l15.273 2.385 9.73 11.783c1.08 1.316 2.886 1.781 4.479 1.177l14.429-5.427 14.437 5.435c.457.17.93.255 1.411.255 1.16 0 2.303-.503 3.067-1.44l9.722-11.783 15.273-2.385c1.687-.263 3.012-1.564 3.28-3.22l2.429-14.998 12-9.546c1.333-1.06 1.806-2.826 1.199-4.39l-5.535-14.176z" transform="rotate(-25 135.168 -70.45)"/>
                <g>
                    <path fill="#FAFAFA" fill-rule="nonzero" d="M11.833 23.235c-6.521 0-11.828-5.21-11.828-11.613S5.312.008 11.833.008c6.52 0 11.827 5.211 11.827 11.614 0 6.403-5.307 11.613-11.827 11.613zm0-15.484c-2.177 0-3.943 1.734-3.943 3.87 0 2.138 1.766 3.872 3.943 3.872 2.176 0 3.942-1.734 3.942-3.871S14.009 7.75 11.833 7.75zM35.487 61.946c-6.52 0-11.827-5.21-11.827-11.613S28.966 38.72 35.487 38.72c6.52 0 11.827 5.21 11.827 11.613s-5.306 11.613-11.827 11.613zm0-15.484c-2.168 0-3.942 1.742-3.942 3.871 0 2.13 1.774 3.871 3.942 3.871s3.942-1.742 3.942-3.871c0-2.13-1.774-3.871-3.942-3.871zM3.948 61.946c-.797 0-1.593-.232-2.287-.72-1.774-1.246-2.184-3.662-.914-5.404L40.17 1.627C41.44-.115 43.9-.518 45.674.728c1.774 1.24 2.176 3.663.915 5.397L7.165 60.32c-.78 1.06-1.987 1.625-3.217 1.625z" transform="rotate(-25 135.168 -70.45) translate(39.424 30.969)"/>
                </g>
            </g>
        </g>
    </g>
</svg>
