<svg xmlns="http://www.w3.org/2000/svg" xmlns:xlink="http://www.w3.org/1999/xlink" width="217" height="120" viewBox="0 0 217 120">
    <defs>
        <linearGradient id="nmenwsff5b" x1="99.549%" x2="13.754%" y1="40.168%" y2="65.375%">
            <stop offset="0%" stop-color="#3452DD"/>
            <stop offset="100%" stop-color="#3052CF"/>
        </linearGradient>
        <path id="m2p3dvljpa" d="M216.4 26.047v-8.664c-.881.15-1.778.251-2.7.251-9.218 0-16.69-7.895-16.69-17.634H19.39c0 9.739-7.471 17.634-16.689 17.634-.922 0-1.82-.1-2.701-.25v8.664c2.017 0 3.651 1.726 3.651 3.857 0 2.13-1.634 3.856-3.651 3.856v4.325c2.017 0 3.651 1.727 3.651 3.856 0 2.13-1.634 3.858-3.651 3.858v4.324c2.017 0 3.651 1.727 3.651 3.857S2.017 57.84 0 57.84v4.323c2.017 0 3.651 1.727 3.651 3.857S2.017 69.877 0 69.877V74.2c2.017 0 3.651 1.726 3.651 3.857 0 2.13-1.634 3.857-3.651 3.857v4.324c2.017 0 3.651 1.727 3.651 3.857S2.017 93.953 0 93.953v8.665c.882-.152 1.779-.252 2.701-.252 9.218 0 16.69 7.895 16.69 17.634H197.01c0-9.739 7.472-17.634 16.69-17.634.922 0 1.819.1 2.7.252v-8.665c-2.016 0-3.65-1.727-3.65-3.857s1.634-3.857 3.65-3.857v-4.324c-2.016 0-3.65-1.728-3.65-3.857 0-2.13 1.634-3.858 3.65-3.858v-4.324c-2.016 0-3.65-1.727-3.65-3.857s1.634-3.857 3.65-3.857v-4.324c-2.016 0-3.65-1.727-3.65-3.857 0-2.131 1.634-3.857 3.65-3.857V45.8c-2.016 0-3.65-1.727-3.65-3.857s1.634-3.857 3.65-3.857V33.76c-2.016 0-3.65-1.727-3.65-3.856 0-2.13 1.634-3.858 3.65-3.858"/>
    </defs>
    <g fill="none" fill-rule="evenodd">
        <mask id="2cqvwspd2c" fill="#fff">
            <use xlink:href="#m2p3dvljpa"/>
        </mask>
        <use fill="url(#nmenwsff5b)" xlink:href="#m2p3dvljpa"/>
        <ellipse cx="195" cy="20.5" fill="#CE2F37" mask="url(#2cqvwspd2c)" opacity=".902" rx="54" ry="52.5"/>
        <ellipse cx="32" cy="125.5" fill="#CE2F37" mask="url(#2cqvwspd2c)" opacity=".896" rx="54" ry="52.5"/>
    </g>
</svg>
