<svg xmlns="http://www.w3.org/2000/svg" width="24" height="24" viewBox="0 0 24 24">
    <path fill="#2F3137" fill-rule="evenodd" d="M21.854 18.729H2.455v-3l.084-.018c1.54-.314 2.657-1.683 2.657-3.255 0-1.572-1.117-2.94-2.657-3.255l-.084-.017v-3h19.4v12.545zM21.75 5.02H2.56c-.71 0-1.266.558-1.266 1.266v3.427c0 .32.261.582.58.582 1.192 0 2.162.969 2.162 2.16 0 1.191-.97 2.16-2.161 2.16-.32 0-.581.262-.581.582v3.426c0 .71.556 1.266 1.266 1.266h19.19c.709 0 1.266-.556 1.266-1.266V6.287c0-.708-.557-1.266-1.267-1.266zm-11.1 3.906c.436 0 .79.354.79.79 0 .436-.354.79-.79.79-.436 0-.79-.354-.79-.79 0-.436.354-.79.79-.79zm0 2.742c1.076 0 1.952-.876 1.952-1.952 0-1.075-.876-1.95-1.952-1.95-1.075 0-1.95.875-1.95 1.95 0 1.076.875 1.952 1.95 1.952zm-1.814 4.53l6.854-8.225c.113-.136.278-.207.445-.207.13 0 .262.043.37.134.119.097.193.238.206.393.014.155-.033.306-.132.423l-6.853 8.224c-.2.238-.583.273-.818.075-.118-.099-.192-.237-.206-.392-.014-.155.033-.306.134-.426zm5.927-.209c-.436 0-.79-.354-.79-.79 0-.435.354-.79.79-.79.435 0 .79.355.79.79 0 .436-.355.79-.79.79zm0-2.742c-1.076 0-1.951.875-1.951 1.953 0 1.075.875 1.95 1.95 1.95 1.076 0 1.951-.875 1.951-1.95 0-1.078-.875-1.953-1.95-1.953z"/>
</svg>
