<svg xmlns="http://www.w3.org/2000/svg" width="24" height="24" viewBox="0 0 24 24">
    <path fill="#2F3137" fill-rule="evenodd" d="M19.933 11.865l-.03.03-7.9 8.335-.073-.077-7.859-8.288c-1.812-1.954-1.812-5.016 0-6.97.801-.87 1.895-1.375 3.078-1.423 1.187-.043 2.313.37 3.183 1.172.087.08.171.164.252.25l.934.987c.265.263.702.262.97-.002l.932-.984c.802-.868 1.895-1.373 3.078-1.421 1.176-.054 2.314.369 3.183 1.17.088.08.172.165.253.252 1.835 1.967 1.835 5.028 0 6.969m-3.258-9.73c-1.595.002-3.134.674-4.222 1.842l-.452.478-.45-.478c-1.05-1.128-2.474-1.78-4.013-1.837-.072-.003-.144-.004-.216-.004-1.459 0-2.844.543-3.919 1.542-.094.086-.19.184-.299.299-2.29 2.469-2.29 6.337 0 8.807l8.413 8.873c.123.129.288.202.466.207.181.006.346-.06.475-.182l.1.043-.074-.068 8.411-8.873c2.288-2.47 2.288-6.337 0-8.806-1.086-1.167-2.623-1.84-4.22-1.842"/>
</svg>
