<svg xmlns="http://www.w3.org/2000/svg" width="24" height="24" viewBox="0 0 24 24">
    <path fill="#415AB7" fill-rule="evenodd" d="M13.36 15.28h-2.72c-.854 0-1.548.677-1.548 1.511v3.515H4.97c-.117 0-.209-.119-.209-.22V10.078l7.24-6.173 7.236 6.178v10.001c0 .116-.1.221-.209.221h-4.122v-3.515c0-.834-.693-1.512-1.547-1.512zm-2.942 1.511c0-.107.095-.187.221-.187h2.72c.126 0 .222.08.222.187v3.515h-3.163v-3.515zm12.414-5.387L12.427 2.53c-.25-.212-.614-.209-.862.001L1.167 11.408c-.278.238-.31.658-.076.937.114.133.273.215.452.23.192.013.347-.042.48-.156l1.414-1.21v8.872c0 .838.702 1.546 1.533 1.546h14.058c.846 0 1.533-.694 1.533-1.546v-8.87l1.414 1.203c.133.113.31.168.488.151.176-.015.337-.097.443-.224.115-.134.171-.305.157-.48-.014-.18-.096-.342-.23-.457z"/>
</svg>
