<svg xmlns="http://www.w3.org/2000/svg" width="24" height="24" viewBox="0 0 24 24">
    <path fill="#2F3137" fill-rule="evenodd" d="M21.288 16.787v2.349c0 1.187-.965 2.152-2.152 2.152h-3.349c-.324 0-.587-.263-.587-.587 0-.324.263-.587.587-.587h3.349c.539 0 .978-.44.978-.978v-3.349c0-.324.263-.587.587-.587.324 0 .587.263.587.587m0-7.786c0 .324-.263.587-.587.587-.324 0-.587-.263-.587-.587V4.653c0-.54-.44-.979-.978-.979h-3.349c-.324 0-.587-.263-.587-.587 0-.324.263-.587.587-.587h3.349c1.187 0 2.152.965 2.152 2.153V8zM8.001 21.288H4.653c-1.188 0-2.153-.965-2.153-2.152v-3.349c0-.324.263-.587.587-.587.324 0 .587.263.587.587v3.349c0 .539.44.978.979.978H8c.324 0 .587.263.587.587-.056.398-.252.594-.587.587zM2.5 7.001V4.653c0-1.188.965-2.153 2.153-2.153H8c.324 0 .587.263.587.587 0 .324-.263.587-.587.587H4.653c-.54 0-.979.44-.979.979V8c0 .324-.263.587-.587.587-.324 0-.587-.263-.587-.587m12.04 4.739H9.188c-1.475 0-2.676 1.2-2.676 2.676v2.06c0 .34-.277.617-.618.617-.34 0-.618-.277-.618-.618v-2.059c0-2.157 1.756-3.912 3.912-3.912h5.354c2.157 0 3.912 1.755 3.912 3.912v2.06c0 .34-.277.617-.618.617-.34 0-.618-.277-.618-.618v-2.059c0-1.476-1.2-2.676-2.676-2.676M11.85 5.18c1.163 0 2.108.945 2.108 2.108 0 1.163-.945 2.108-2.108 2.108-1.163 0-2.108-.945-2.108-2.108 0-1.163.945-2.108 2.108-2.108m0 5.481c1.86 0 3.373-1.513 3.373-3.373 0-1.86-1.513-3.373-3.373-3.373-1.86 0-3.373 1.513-3.373 3.373 0 1.86 1.513 3.373 3.373 3.373"/>
</svg>
