<svg xmlns="http://www.w3.org/2000/svg" width="24" height="24" viewBox="0 0 24 24">
    <path fill="#2F3137" d="M17.8 2.997c.531 0 1.023.264 1.317.705l1.443 2.164c.138.207.245.43.319.663.082.261.124.528.124.8V19.42c0 .873-.71 1.583-1.583 1.583H4.58c-.873 0-1.583-.71-1.583-1.583V7.33c0-.272.042-.539.122-.794l.002-.006c.074-.233.181-.456.32-.664l1.442-2.163c.294-.441.786-.705 1.316-.705zm2.144 4.22H4.056c-.005.08-.004-.558-.004 9.858v2.345c0 .291.237.528.528.528h14.84c.291 0 .528-.237.528-.528 0-12.867.002-12.118-.004-12.203zm-5.799 2.11c.873 0 1.583.71 1.583 1.583 0 .872-.71 1.582-1.583 1.582h-4.29c-.873 0-1.583-.71-1.583-1.582 0-.873.71-1.583 1.583-1.583zm0 1.055h-4.29c-.291 0-.528.237-.528.528 0 .29.237.527.528.527h4.29c.291 0 .528-.236.528-.527 0-.291-.237-.528-.528-.528zm3.656-6.33h-5.273v2.11h6.962l-1.25-1.875c-.098-.147-.263-.235-.44-.235zm-6.329 0H6.2c-.176 0-.34.088-.439.235L4.51 6.162h6.962v-2.11z"/>
</svg>
