<svg xmlns="http://www.w3.org/2000/svg" width="24" height="24" viewBox="0 0 24 24">
    <path fill="#415AB7" fill-rule="evenodd" d="M10.303 7.398l-.002 5.176c0 .16.065.316.18.43l3.702 3.703.862-.861-3.527-3.524.003-4.924h-1.218zm8.273 10.396c-1.774 2.199-4.402 3.458-7.232 3.458-5.124 0-9.292-4.169-9.292-9.292 0-5.124 4.168-9.293 9.292-9.293 4.545 0 8.394 3.256 9.152 7.743l.031.179h-1.705l2.423 3.44 2.423-3.44h-1.915l-.02-.131c-.739-5.136-5.206-9.008-10.39-9.008C5.549 1.45.835 6.164.835 11.96c0 5.795 4.714 10.51 10.51 10.51 3.207 0 6.184-1.43 8.193-3.926l-.96-.75z"/>
</svg>
