<svg xmlns="http://www.w3.org/2000/svg" width="24" height="24" viewBox="0 0 24 24">
    <path fill="#415AB7" fill-rule="evenodd" d="M10.474 9.452l5.026 6.205h-1.666L8.81 9.452h1.665zm2.406 1.178l.954-1.178H15.5l-1.787 2.206-.833-1.028zM8.81 15.657l1.787-2.206.833 1.028-.955 1.178H8.81zm4.318-7.124l-.972 1.202-.973-1.202c-.108-.132-.268-.21-.439-.21H7.627c-.217 0-.416.126-.509.322-.093.195-.065.43.07.598l2.682 3.312-2.682 3.311c-.135.168-.164.403-.07.598.092.196.292.322.509.322h3.116c.171 0 .331-.077.439-.21l.973-1.2.972 1.201c.106.131.269.21.438.21h3.117c.216 0 .417-.127.509-.323.094-.194.065-.43-.071-.597l-2.682-3.312 2.682-3.312c.136-.167.164-.403.07-.598-.092-.196-.292-.321-.508-.321h-3.116c-.171 0-.332.077-.439.209zm2.265-2.098h2.671v13.672H6.245V3.2h8.582V5.87c0 .312.253.564.565.564zm.563-1.128v-1.31l1.31 1.31h-1.31zm3.072.166L15.79 2.236c-.107-.107-.248-.164-.398-.164H5.68c-.31 0-.564.252-.564.563V20.67c0 .312.253.564.564.564h12.946c.312 0 .565-.252.565-.564V5.87c0-.148-.06-.293-.165-.398z"/>
</svg>
