<?xml version="1.0" encoding="utf-8"?>
<svg width="633px" height="433px" viewBox="0 0 633 433" version="1.1" xmlns:xlink="http://www.w3.org/1999/xlink" xmlns="http://www.w3.org/2000/svg">
  <desc>Created with Lunacy</desc>
  <defs>
    <linearGradient x1="1.15202475" y1="0.05309501" x2="0" y2="1" id="gradient_1">
      <stop offset="0" stop-color="#697A96" />
      <stop offset="1" stop-color="#5B6D8B" />
    </linearGradient>
    <linearGradient x1="0.5" y1="0" x2="0.5" y2="1" id="gradient_2">
      <stop offset="0" stop-color="#B5C7E2" />
      <stop offset="1" stop-color="#424D60" />
    </linearGradient>
    <linearGradient x1="0.691680431" y1="0.09275846" x2="0.1081626" y2="0.7817619" id="gradient_3">
      <stop offset="0" stop-color="#7488AC" />
      <stop offset="1" stop-color="#7385A4" />
    </linearGradient>
    <path d="M3.999 0L628.001 0Q628.197 0 628.393 0.0192563Q628.588 0.0385126 628.781 0.0768396Q628.974 0.115167 629.162 0.172196Q629.35 0.229224 629.531 0.304406Q629.713 0.379587 629.886 0.472197Q630.059 0.564807 630.223 0.673953Q630.386 0.783099 630.538 0.907731Q630.69 1.03236 630.829 1.17128Q630.968 1.3102 631.092 1.46206Q631.217 1.61393 631.326 1.77727Q631.435 1.94062 631.528 2.11388Q631.62 2.28715 631.695 2.46865Q631.771 2.65015 631.828 2.83815Q631.885 3.02615 631.923 3.21883Q631.961 3.41152 631.981 3.60703Q632 3.80254 632 3.999L632 428.001Q632 428.197 631.981 428.393Q631.961 428.589 631.923 428.781Q631.885 428.974 631.828 429.162Q631.771 429.35 631.695 429.531Q631.62 429.713 631.528 429.886Q631.435 430.059 631.326 430.223Q631.217 430.386 631.092 430.538Q630.968 430.69 630.829 430.829Q630.69 430.968 630.538 431.092Q630.386 431.217 630.223 431.326Q630.059 431.435 629.886 431.528Q629.713 431.62 629.531 431.696Q629.35 431.771 629.162 431.828Q628.974 431.885 628.781 431.923Q628.588 431.961 628.393 431.981Q628.197 432 628.001 432L3.999 432Q3.80254 432 3.60703 431.981Q3.41152 431.961 3.21883 431.923Q3.02615 431.885 2.83815 431.828Q2.65015 431.771 2.46865 431.696Q2.28715 431.62 2.11388 431.528Q1.94062 431.435 1.77727 431.326Q1.61393 431.217 1.46206 431.092Q1.3102 430.968 1.17128 430.829Q1.03236 430.69 0.907731 430.538Q0.783099 430.386 0.673953 430.223Q0.564807 430.059 0.472197 429.886Q0.379587 429.713 0.304406 429.531Q0.229224 429.35 0.172196 429.162Q0.115167 428.974 0.0768396 428.781Q0.0385126 428.589 0.0192563 428.393Q0 428.197 0 428.001L0 3.999Q0 3.80254 0.0192563 3.60703Q0.0385126 3.41152 0.0768396 3.21883Q0.115167 3.02615 0.172196 2.83815Q0.229224 2.65015 0.304406 2.46865Q0.379587 2.28715 0.472197 2.11388Q0.564807 1.94062 0.673953 1.77727Q0.783099 1.61393 0.907731 1.46206Q1.03236 1.3102 1.17128 1.17128Q1.3102 1.03236 1.46206 0.907731Q1.61393 0.783099 1.77727 0.673953Q1.94062 0.564807 2.11388 0.472197Q2.28715 0.379587 2.46865 0.304406Q2.65015 0.229224 2.83815 0.172196Q3.02615 0.115167 3.21883 0.0768396Q3.41152 0.0385126 3.60703 0.0192563Q3.80254 0 3.999 0L3.999 0Z" id="path_1" />
    <path d="M247 490C383.414 490 494 380.31 494 245C494 109.69 383.414 0 247 0C110.586 0 0 109.69 0 245C0 380.31 110.586 490 247 490Z" transform="translate(312 70)" id="path_2" />
    <clipPath id="clip_1">
      <use xlink:href="#path_2" />
    </clipPath>
    <clipPath id="mask_1">
      <use xlink:href="#path_1" />
    </clipPath>
  </defs>
  <g id="Group-5" transform="translate(0.5 0.5)">
    <path d="M3.999 0L628.001 0Q628.197 0 628.393 0.0192563Q628.588 0.0385126 628.781 0.0768396Q628.974 0.115167 629.162 0.172196Q629.35 0.229224 629.531 0.304406Q629.713 0.379587 629.886 0.472197Q630.059 0.564807 630.223 0.673953Q630.386 0.783099 630.538 0.907731Q630.69 1.03236 630.829 1.17128Q630.968 1.3102 631.092 1.46206Q631.217 1.61393 631.326 1.77727Q631.435 1.94062 631.528 2.11388Q631.62 2.28715 631.695 2.46865Q631.771 2.65015 631.828 2.83815Q631.885 3.02615 631.923 3.21883Q631.961 3.41152 631.981 3.60703Q632 3.80254 632 3.999L632 428.001Q632 428.197 631.981 428.393Q631.961 428.589 631.923 428.781Q631.885 428.974 631.828 429.162Q631.771 429.35 631.695 429.531Q631.62 429.713 631.528 429.886Q631.435 430.059 631.326 430.223Q631.217 430.386 631.092 430.538Q630.968 430.69 630.829 430.829Q630.69 430.968 630.538 431.092Q630.386 431.217 630.223 431.326Q630.059 431.435 629.886 431.528Q629.713 431.62 629.531 431.696Q629.35 431.771 629.162 431.828Q628.974 431.885 628.781 431.923Q628.588 431.961 628.393 431.981Q628.197 432 628.001 432L3.999 432Q3.80254 432 3.60703 431.981Q3.41152 431.961 3.21883 431.923Q3.02615 431.885 2.83815 431.828Q2.65015 431.771 2.46865 431.696Q2.28715 431.62 2.11388 431.528Q1.94062 431.435 1.77727 431.326Q1.61393 431.217 1.46206 431.092Q1.3102 430.968 1.17128 430.829Q1.03236 430.69 0.907731 430.538Q0.783099 430.386 0.673953 430.223Q0.564807 430.059 0.472197 429.886Q0.379587 429.713 0.304406 429.531Q0.229224 429.35 0.172196 429.162Q0.115167 428.974 0.0768396 428.781Q0.0385126 428.589 0.0192563 428.393Q0 428.197 0 428.001L0 3.999Q0 3.80254 0.0192563 3.60703Q0.0385126 3.41152 0.0768396 3.21883Q0.115167 3.02615 0.172196 2.83815Q0.229224 2.65015 0.304406 2.46865Q0.379587 2.28715 0.472197 2.11388Q0.564807 1.94062 0.673953 1.77727Q0.783099 1.61393 0.907731 1.46206Q1.03236 1.3102 1.17128 1.17128Q1.3102 1.03236 1.46206 0.907731Q1.61393 0.783099 1.77727 0.673953Q1.94062 0.564807 2.11388 0.472197Q2.28715 0.379587 2.46865 0.304406Q2.65015 0.229224 2.83815 0.172196Q3.02615 0.115167 3.21883 0.0768396Q3.41152 0.0385126 3.60703 0.0192563Q3.80254 0 3.999 0L3.999 0Z" id="Rectangle" fill="url(#gradient_1)" stroke="none" />
    <g clip-path="url(#mask_1)">
      <path d="M0 0L278 0L278 605L0 605L0 0Z" transform="matrix(0.9135454 -0.4067366 0.4067366 0.9135454 106.9794 -9.311035)" id="Rectangle" fill="url(#gradient_2)" fill-opacity="0.214146212" stroke="none" />
      <g id="Oval">
        <g clip-path="url(#clip_1)">
          <use xlink:href="#path_2" fill="none" stroke="url(#gradient_3)" stroke-opacity="0.7655088" stroke-width="210" />
        </g>
      </g>
    </g>
  </g>
</svg>