<svg xmlns="http://www.w3.org/2000/svg" width="24" height="24" viewBox="0 0 24 24">
    <path fill="#2F3137" fill-rule="evenodd" d="M10.57 18.183c1.134 0 2.052.935 2.052 2.081s-.918 2.081-2.052 2.081c-1.133 0-2.05-.935-2.05-2.08 0-1.147.917-2.082 2.05-2.082zm7.855-.017c1.134 0 2.051.935 2.051 2.08 0 1.146-.917 2.082-2.051 2.082-1.134 0-2.051-.935-2.051-2.081s.917-2.081 2.051-2.081zM10.57 19.18c-.578 0-1.053.484-1.053 1.083 0 .6.475 1.083 1.053 1.083.579 0 1.054-.484 1.054-1.083s-.475-1.083-1.054-1.083zm7.855-.018c-.578 0-1.054.485-1.054 1.084 0 .599.476 1.083 1.054 1.083.578 0 1.054-.484 1.054-1.083 0-.6-.476-1.084-1.054-1.084zM1.058 2.11c.089 0 .182.012.277.038L5.716 3.28c.297.085.518.34.564.66l.955 5.433 1.336 6.306h11.14l.07-.2c.012-.032 1.147-3.297 2.035-6.581.24-.752.5-.932.633-.972.163-.049.307.06.321.071l.049.042.065.018c.198.054.448.158.513.344.076.22-.1.53-.166.622l-.03.04-2.284 7.153-.01.037c-.014.079-.164.77-.84.77h-12c-.818 0-.89-.898-.896-1L5.102 4.42l-4.123-1C.56 3.31.34 2.958.445 2.562l.003-.014c.032-.15.11-.265.23-.34.105-.064.236-.097.38-.097zm19.107.024l.063.038.749.66c.045.038.052.09.052.116 0 .018-.003.046-.018.075l-.034.042-7.121 6.732c-.035.034-.109.062-.148.062-.025 0-.067-.013-.102-.031l-.045-.031-3.529-3.32-.01-.01c-.045-.038-.052-.09-.052-.116 0-.02.003-.054.025-.086l.028-.032.896-.776.015-.014c.03-.03.081-.047.137-.047.038 0 .078.008.114.024l.053.032L13.7 7.946l6.212-5.78.008-.007c.049-.049.156-.063.245-.025z"/>
</svg>
