<svg xmlns="http://www.w3.org/2000/svg" width="12" height="16" viewBox="0 0 12 16">
    <path fill="#2F3137" fill-rule="evenodd" d="M11.116 13.36v1.729H.044V13.36h11.072zM10.6 1.645c.04.034.077.072.115.109.006.005.007.016.01.022L9.496 2.982l-.13-.113C6.936.754 3.084 1.733 2.012 4.739c-.874 2.453.587 5.153 3.154 5.785 1.585.391 3.01.04 4.253-1.029.021-.019.042-.038.065-.056.007-.006.017-.006.01-.004l1.225 1.21c-.012.015-.026.034-.042.05C7.35 13.754 1.937 12.525.37 8.272-.769 5.175.8 1.702 3.92.495c2.431-.94 4.678-.532 6.68 1.15z"/>
</svg>
