<svg xmlns="http://www.w3.org/2000/svg" width="48" height="48" viewBox="0 0 48 48">
    <g fill="#FFF">
        <path d="M30.692 12.117l1.569-1.567 1.678 1.678c.143.143.33.214.517.214.188 0 .375-.071.518-.214.286-.286.286-.749 0-1.035l-4.392-4.391c-.285-.287-.75-.287-1.035 0-.286.286-.286.748 0 1.034l1.679 1.679-1.659 1.657c-2.554-1.987-5.645-3.311-9.017-3.717V5.123h2.196c.404 0 .732-.328.732-.732V.731c0-.403-.328-.731-.732-.731h-8.783c-.404 0-.732.328-.732.732v3.66c0 .403.328.731.732.731h2.196v2.332c-3.372.405-6.463 1.73-9.017 3.717L5.483 9.515l1.679-1.679c.286-.286.286-.748 0-1.035-.286-.286-.75-.286-1.035 0l-4.392 4.392c-.286.286-.286.749 0 1.035.143.142.33.214.518.214.187 0 .375-.072.517-.214L4.45 10.55l1.568 1.567c-3.66 3.348-5.96 8.16-5.96 13.5 0 10.089 8.208 18.297 18.298 18.297 10.089 0 18.297-8.208 18.297-18.298 0-5.339-2.3-10.15-5.96-13.499zM5.18 26.348H3.717c-.404 0-.732-.328-.732-.732 0-.404.328-.731.732-.731H5.18c.404 0 .732.327.732.731 0 .404-.328.732-.732.732zM17.623 5.123h1.464V7.32h-1.464V5.123zm0 5.855c0-.404.328-.731.732-.731.404 0 .731.327.731.731v1.464c0 .404-.327.732-.731.732-.404 0-.732-.328-.732-.732v-1.464zm-7.534 23.939L8.625 36.38c-.142.143-.33.215-.517.215s-.375-.072-.517-.215c-.287-.286-.287-.748 0-1.034l1.463-1.464c.286-.287.75-.287 1.035 0 .286.286.286.748 0 1.035zm0-17.566c-.142.143-.33.215-.517.215-.188 0-.375-.072-.518-.215l-1.463-1.464c-.287-.286-.287-.748 0-1.035.285-.286.749-.286 1.034 0l1.464 1.464c.286.286.286.749 0 1.035zm8.997 22.903c0 .404-.327.732-.731.732-.404 0-.732-.328-.732-.732V38.79c0-.404.328-.731.732-.731.404 0 .731.327.731.731v1.464zm1.856-12.05c-.714.714-1.65 1.07-2.588 1.07-.704 0-1.408-.202-2.018-.605l-2.123 2.123c-.142.142-.33.214-.517.214s-.375-.072-.518-.214c-.286-.287-.286-.75 0-1.035l2.122-2.123c-.939-1.42-.784-3.355.465-4.606 1.25-1.249 3.186-1.404 4.605-.465l6.98-6.98c.285-.285.748-.285 1.035 0 .286.287.286.75 0 1.036l-6.98 6.979c.941 1.42.786 3.356-.463 4.606zm8.177 8.176c-.143.143-.33.215-.518.215-.187 0-.375-.072-.517-.215l-1.464-1.463c-.286-.287-.286-.75 0-1.035.285-.287.75-.287 1.035 0l1.464 1.463c.285.287.285.75 0 1.035zm3.874-10.032h-1.464c-.404 0-.732-.328-.732-.732 0-.404.328-.731.732-.731h1.464c.404 0 .731.327.731.731 0 .404-.327.732-.731.732z" transform="translate(6.333 2.143)"/>
        <path d="M19.908 24.063c-.43-.427-.991-.642-1.553-.642-.563 0-1.125.214-1.553.642-.855.857-.855 2.25 0 3.106.857.856 2.25.856 3.106 0 .855-.857.855-2.25 0-3.106z" opacity=".727" transform="translate(6.333 2.143)"/>
    </g>
</svg>
