<?xml version="1.0" encoding="utf-8"?>
<svg width="59px" height="59px" viewBox="0 0 59 59" version="1.1" xmlns:xlink="http://www.w3.org/1999/xlink" xmlns="http://www.w3.org/2000/svg">
  <desc>Created with Lunacy</desc>
  <g id="Group-14" transform="matrix(0.9743701 0.224951 -0.224951 0.9743701 10.97302 0)">
    <path d="M4.00172 8.2146C7.22278 11.405 13.6833 16.4816 15.0856 15.0793C16.4941 13.6769 11.442 7.23481 8.22094 3.99537C3.61593 -0.597394 1.5155 -0.395312 0.554081 0.541613C-0.407338 1.47854 -0.591049 3.61571 4.00172 8.2146ZM4.38746 7.81045C1.11129 4.53428 -0.150194 2.02969 0.9337 0.951917C2.04209 -0.113605 4.54055 1.11113 7.81673 4.40568C12.1462 8.73513 15.4101 13.9464 14.6814 14.6751C13.9527 15.4038 8.74141 12.1338 4.38746 7.81045Z" transform="translate(0 0.01159668)" id="Shape" fill="#E0141F" fill-rule="evenodd" stroke="none" />
    <path d="M24.0247 4.1334L42.9224 23.0311C43.2509 23.3613 43.4338 23.8092 43.4304 24.275C43.4269 24.7408 43.2374 25.1859 42.904 25.5112L25.4025 43.0066C24.7245 43.6791 23.631 43.6791 22.953 43.0066L4.3064 24.3477C-1.1192 18.9344 -1.52336 10.1101 3.69403 4.50694C6.30534 1.69881 9.94601 0.0728315 13.78 0.00238729C17.614 -0.0680569 21.312 1.42308 24.0247 4.1334ZM7.17231 11.9105C8.20318 12.9904 9.8023 13.3043 11.165 12.6943C12.3314 12.0239 13.0576 10.7879 13.0755 9.44262C13.0449 7.86883 11.3732 6.63797 9.86673 6.7237C9.68253 6.73698 9.50112 6.77615 9.32784 6.84005C8.61302 6.7031 7.88651 7.01307 7.49074 7.62389C6.55994 8.87924 6.0088 10.6 7.17231 11.9105Z" transform="translate(4.973877 5.268585)" id="Shape" fill="#415AB7" fill-rule="evenodd" stroke="none" />
    <g id="Group" transform="translate(0.5908203 -9.155273E-05)">
      <path d="M0.493385 0L0.506615 0L0.506615 11.572L0.493385 11.572L0.493385 0Z" transform="matrix(0.7071068 -0.7071068 0.7071068 0.7071068 20.14941 35.86752)" id="Path" fill="#FFFFFF" stroke="none" />
      <path d="M0.493381 9.64247e-16L0.506619 1.92849e-15L0.506619 11.5802L0.493381 11.5802L0.493381 9.64247e-16Z" transform="matrix(0.7066069 -0.7076064 0.7076064 0.7066069 22.23828 33.85178)" id="Path" fill="#FFFFFF" stroke="none" />
      <path d="M0.000994482 1.40648e-12L0.999005 1.39588e-12L0.999005 11.572L0.000994482 11.572L0.000994482 1.40648e-12Z" transform="matrix(0.7071068 -0.7071068 0.7071068 0.7071068 21.18042 34.8638)" id="Path" fill="#FFFFFF" stroke="none" />
      <path d="M0.493385 1.39653e-12L0.506615 1.39653e-12L0.506615 11.572L0.493385 11.572L0.493385 1.39653e-12Z" transform="matrix(0.7071068 -0.7071068 0.7071068 0.7071068 23.11938 32.89883)" id="Path" fill="#FFFFFF" stroke="none" />
      <path d="M0.493381 0L0.506619 0L0.506619 11.5802L0.493381 11.5802L0.493381 0Z" transform="matrix(0.7076064 -0.7066069 0.7066069 0.7076064 25.20801 30.88828)" id="Path" fill="#FFFFFF" stroke="none" />
      <path d="M0.000994482 1.40616e-12L0.999005 1.39588e-12L0.999005 11.572L0.000994482 11.572L0.000994482 1.40616e-12Z" transform="matrix(0.7071068 -0.7071068 0.7071068 0.7071068 24.15027 31.89511)" id="Path" fill="#FFFFFF" stroke="none" />
      <path d="M0.0377311 1.45916e-12L0.962269 1.39621e-12L0.962269 11.572L0.0377311 11.572L0.0377311 1.45916e-12Z" transform="matrix(0.7071068 -0.7071068 0.7071068 0.7071068 26.15881 29.86945)" id="Path" fill="#FFFFFF" stroke="none" />
      <path d="M0.493385 0L0.506615 7.77276e-14L0.506615 11.572L0.493385 11.572L0.493385 0Z" transform="matrix(0.7071068 -0.7071068 0.7071068 0.7071068 29.44519 26.63022)" id="Path" fill="#FFFFFF" stroke="none" />
      <path d="M1.54829e-12 0L1.60416 1.63806e-14L1.60416 11.572L1.56682e-12 11.572L1.54829e-12 0Z" transform="matrix(0.7071068 -0.7071068 0.7071068 0.7071068 27.60266 28.44287)" id="Path" fill="#FFFFFF" stroke="none" />
      <path d="M0.0377311 0L0.962269 3.21188e-15L0.962269 11.572L0.0377311 11.572L0.0377311 0Z" transform="matrix(0.7071068 -0.7071068 0.7071068 0.7071068 30.94153 25.12152)" id="Path" fill="#FFFFFF" stroke="none" />
      <path d="M0.493385 -3.21188e-16L0.506615 -3.21188e-16L0.506615 11.572L0.493385 11.572L0.493385 -3.21188e-16Z" transform="matrix(0.7071068 -0.7071068 0.7071068 0.7071068 34.22156 21.79047)" id="Path" fill="#FFFFFF" stroke="none" />
      <path d="M-1.54843e-12 -1.39653e-12L1.60416 -1.38272e-12L1.60416 11.572L-1.44077e-12 11.572L-1.54843e-12 -1.39653e-12Z" transform="matrix(0.7071068 -0.7071068 0.7071068 0.7071068 32.38525 23.66434)" id="Path" fill="#FFFFFF" stroke="none" />
      <path d="M0.305304 5.54535C-0.315369 4.0462 0.0282889 2.32078 1.17599 1.17385C2.74217 -0.391284 5.28034 -0.391284 6.84653 1.17385C7.99423 2.32078 8.33788 4.0462 7.71721 5.54535C7.09654 7.04449 5.63381 8.02204 4.01126 8.02204C2.38871 8.02204 0.925976 7.04449 0.305304 5.54535ZM3.02701 6.37492C3.98472 6.77053 5.08646 6.54973 5.81775 5.81561C6.29715 5.33665 6.56652 4.68678 6.56652 4.00912C6.56652 3.33146 6.29715 2.68159 5.81775 2.20263C5.08646 1.46851 3.98472 1.24771 3.02701 1.64332C2.0693 2.03893 1.44458 2.97292 1.44458 4.00912C1.44458 5.04532 2.0693 5.97931 3.02701 6.37492Z" transform="translate(10.0979 11.06351)" id="Shape" fill="#E0141F" fill-rule="evenodd" stroke="none" />
      <path d="M0 0.510498L0.410287 0.914662C1.51255 -0.0957476 3.98652 1.16573 7.22596 4.40517C11.4819 8.66113 14.703 13.7683 14.1212 14.6317L14.5315 15.0359C15.8052 13.554 10.8206 7.18532 7.63012 4.01325C3.09246 -0.53053 0.955296 -0.408056 4.35115e-15 0.510498L0 0.510498Z" id="Path" fill="#E0141F" stroke="none" />
    </g>
  </g>
</svg>