<svg xmlns="http://www.w3.org/2000/svg" width="50" height="50" viewBox="0 0 33 32">
    <path fill="#2F3137" stroke="#2F3137" stroke-width=".2" d="M18.654 3.516l2.81 1.886 4.207 4.207c.457.455.535 1.168.188 1.712.768-.173 1.571.057 2.133.608l1.295 1.296-5.181 5.186-1.291-1.295c-.567-.563-.8-1.38-.614-2.156-.542.332-1.239.26-1.702-.174l-4.926 4.925c-.315.318-.531.72-.622 1.158-.122.618-.425 1.185-.87 1.63L8.19 28.386c-.342.343-.806.538-1.291.54-.487-.001-.953-.195-1.296-.54l-1.94-1.941c-.714-.715-.714-1.872 0-2.587l5.886-5.89c.445-.446 1.012-.749 1.63-.87.438-.092.84-.308 1.158-.623l4.927-4.928-.331-.332c-.536-.536-.536-1.404 0-1.94l1.295-1.296c.172-.172.269-.405.269-.648s-.097-.476-.269-.648l-2.59-2.572.324-.325c.72-.715 1.844-.828 2.692-.27zm-.75 8.697l-4.935 4.912c-.444.444-1.01.747-1.625.87-.427.096-.817.313-1.122.627l-5.914 5.882c-.172.172-.269.405-.269.648s.097.476.269.647l1.94 1.941c.172.172.405.269.648.269s.476-.097.648-.269l5.882-5.891c.317-.316.532-.72.618-1.158.128-.612.434-1.173.88-1.612l4.91-4.934-1.93-1.932zm-.907-8.038l1.877 1.877c.343.343.537.81.537 1.295 0 .486-.194.952-.537 1.296l-1.296 1.281c-.177.179-.177.467 0 .646l3.561 3.561c.179.178.467.178.646 0l.97-.957 1.03 1.026-.325.325c-.535.536-.535 1.405 0 1.94l.646.65 3.886-3.886-.645-.645c-.544-.522-1.402-.522-1.946 0l-.32.32-1.03-1.025.97-.97c.178-.179.178-.467 0-.646l-4.175-4.18-2.7-1.798c-.34-.228-.772-.27-1.15-.11z"/>
</svg>
