<svg xmlns="http://www.w3.org/2000/svg" xmlns:xlink="http://www.w3.org/1999/xlink" width="179" height="58" viewBox="0 0 179 58">
    <defs>
        <path id="mxbjnht7ea" d="M30.002 31.452c-.016.731-.166 1.003-.928 1-7.026-.03-16.125-.02-23.152.005-.707.003-.9-.223-.895-.94.033-4.42-.002-8.838.036-13.256.05-6.04 3.413-10.925 8.856-13.048 3.042-1.187 6.195-1.56 9.41-1.589.746-.006 2.65-.001 5.713.016.55.003.994.45.995 1 .012 16.3 0 25.238-.035 26.812z"/>
        <path id="2fgwi74cie" d="M27.168 19.925c-.016.774-.166 1.061-.927 1.058-7.022-.03-16.114-.02-23.135.006-.707.002-.9-.237-.895-.996.033-4.675-.001.172.036-4.503.051-6.39 3.411-11.56 8.85-13.806C14.137.428 17.287.033 20.5.003c.745-.007 2.648-.001 5.709.017.55.003.993.449.994.999.012 10.954 0 17.256-.035 18.906z"/>
        <path id="skdu59qpyg" d="M3.728.481h9.5c3.48.003 17.61.058 17.57 14.994-.04 14.935-14.06 16.035-17.57 16.006h-9.5c-.552 0-1-.447-1-1v-29c0-.552.448-1 1-1z"/>
        <rect id="5u3bntlhrc" width="28.07" height="13.988" x="0" y="0" rx="1"/>
    </defs>
    <g fill="none" fill-rule="evenodd">
        <g transform="translate(-5.013 -.48) translate(0 25.967)">
            <mask id="cwtgjo47zb" fill="#fff">
                <use xlink:href="#mxbjnht7ea"/>
            </mask>
            <use fill="#E0141F" xlink:href="#mxbjnht7ea"/>
            <path stroke="#FFF" stroke-width="3" d="M2.513 21.956L24.514.678M4.014 29.095L30.656 3.622" mask="url(#cwtgjo47zb)"/>
            <path stroke="#FFF" stroke-width="2" d="M13.885 20.744L17.157 23.319 20.889 20.564 23.956 23.03 26.932 20.561 29.962 23.035 32.912 20.511 35.985 22.966 39.579 20.061 43.589 23.607M0 25.87L4.451 29.452 8.183 26.697 11.25 29.163 14.226 26.693 17.255 29.168 20.206 26.644 23.279 29.099 26.873 26.194 30.882 29.739" mask="url(#cwtgjo47zb)"/>
        </g>
        <g transform="translate(-5.013 -.48) translate(33.019 44.474)">
            <mask id="0vnfr8jh3d" fill="#fff">
                <use xlink:href="#5u3bntlhrc"/>
            </mask>
            <use fill="#415AB7" xlink:href="#5u3bntlhrc"/>
            <path fill="#FFF" fill-rule="nonzero" d="M15.006 9.397l.78-.52c1.043-.697 2.389-.72 3.451-.078l.185.12.315.221c.548.385 1.284.36 1.806-.06 1.16-.934 2.778-1.027 4.032-.252l.177.116.405.286c.493.347 1.162.297 1.598-.12 1.09-1.04 2.773-1.102 3.934-.172l.148.126-1.348 1.478c-.385-.351-.976-.345-1.353.015-1.077 1.029-2.707 1.192-3.961.42l-.169-.112-.405-.285c-.547-.385-1.283-.361-1.804.058-1.16.935-2.777 1.029-4.032.256l-.177-.117-.315-.22c-.37-.26-.85-.292-1.248-.092l-.129.075-.779.52c-.33.22-1.107.424-1.112.312-.004-.075-.004-.733.001-1.975zM14.96 4.226l.78-.52c1.043-.697 2.39-.721 3.452-.079l.184.12.315.222c.548.384 1.285.36 1.806-.06 1.16-.935 2.778-1.028 4.033-.253l.177.117.405.285c.493.347 1.162.297 1.598-.12 1.09-1.04 2.773-1.101 3.933-.172l.148.127-1.348 1.477c-.385-.351-.975-.344-1.352.015-1.078 1.03-2.708 1.192-3.962.42l-.169-.112-.405-.285c-.547-.385-1.282-.361-1.803.058-1.16.935-2.777 1.03-4.033.256l-.177-.116-.315-.221c-.37-.26-.85-.292-1.247-.092l-.13.076-.778.52c-.33.22-1.107.424-1.113.311-.004-.074-.003-.733.002-1.974zM4.349.667c1.526 0 2.795 1.097 3.062 2.546.271-1.44 1.537-2.53 3.057-2.53 1.72 0 3.113 1.394 3.113 3.114 0 1.522-1.092 2.788-2.535 3.06 1.45.262 2.55 1.533 2.55 3.06 0 1.72-1.393 3.113-3.113 3.113-1.525 0-2.795-1.097-3.062-2.545-.272 1.44-1.537 2.529-3.057 2.529-1.72 0-3.113-1.394-3.113-3.113 0-1.522 1.09-2.788 2.533-3.06-1.45-.264-2.548-1.534-2.548-3.06C1.236 2.06 2.63.666 4.349.666zm6.134 7.916c-.737 0-1.334.597-1.334 1.334 0 .737.597 1.334 1.334 1.334.737 0 1.334-.597 1.334-1.334 0-.737-.597-1.334-1.334-1.334zm-6.119-.017c-.737 0-1.334.598-1.334 1.335 0 .736.597 1.334 1.334 1.334.737 0 1.335-.598 1.335-1.334 0-.737-.598-1.335-1.335-1.335zm3.042-4.202l-.02.106c-.272 1.202-1.24 2.14-2.457 2.37 1.266.23 2.264 1.228 2.497 2.493.236-1.253 1.225-2.24 2.479-2.476-1.267-.23-2.266-1.227-2.499-2.493zm3.062-1.902c-.737 0-1.334.598-1.334 1.335S9.73 5.13 10.468 5.13c.737 0 1.334-.597 1.334-1.334 0-.737-.597-1.335-1.334-1.335zm-6.119-.016c-.737 0-1.334.597-1.334 1.334 0 .737.597 1.335 1.334 1.335.737 0 1.334-.598 1.334-1.335S5.086 2.446 4.35 2.446z" mask="url(#0vnfr8jh3d)"/>
        </g>
        <g transform="translate(-5.013 -.48) translate(2.815 .484)">
            <mask id="h5ahlk8pff" fill="#fff">
                <use xlink:href="#2fgwi74cie"/>
            </mask>
            <use fill="#415AB7" xlink:href="#2fgwi74cie"/>
            <path fill="#FFF" d="M22.682 4.936H27.567999999999998V9.822H22.682z" mask="url(#h5ahlk8pff)" transform="rotate(-45 25.125 7.379)"/>
            <path fill="#FFF" d="M22.691 11.855H27.576999999999998V16.741H22.691z" mask="url(#h5ahlk8pff)" transform="rotate(-45 25.134 14.298)"/>
            <path fill="#FFF" d="M15.814 4.988H20.7V9.874H15.814z" mask="url(#h5ahlk8pff)" transform="rotate(-45 18.257 7.431)"/>
            <path fill="#FFF" d="M15.822 11.908H20.708V16.794H15.822z" mask="url(#h5ahlk8pff)" transform="rotate(-45 18.265 14.35)"/>
            <path fill="#FFF" d="M8.909 5.009H13.795000000000002V9.895H8.909z" mask="url(#h5ahlk8pff)" transform="rotate(-45 11.352 7.452)"/>
            <path fill="#FFF" d="M8.918 11.928H13.803999999999998V16.814H8.918z" mask="url(#h5ahlk8pff)" transform="rotate(-45 11.36 14.37)"/>
            <path fill="#FFF" d="M2 5.017H6.886V9.903H2z" mask="url(#h5ahlk8pff)" transform="rotate(-45 4.443 7.46)"/>
            <path fill="#FFF" d="M2.008 11.937H6.894V16.823H2.008z" mask="url(#h5ahlk8pff)" transform="rotate(-45 4.451 14.38)"/>
        </g>
        <text fill="#415AB7" font-family="Futura-Bold, Futura" font-size="20.7" font-weight="bold" letter-spacing=".565" transform="translate(-5.013 -.48)">
            <tspan x="76.013" y="35.48">Прораба</tspan>
        </text>
        <text fill="#2F3137" font-family="AvenirNext-Regular, Avenir Next" font-size="9" letter-spacing="-.533" transform="translate(-5.013 -.48)">
            <tspan x="76.913" y="41.38">Строительный гипермаркет</tspan>
        </text>
        <path fill="#415AB7" d="M165.103 18.834c-.031.055.202-.344.7-1.195.193 2.598.097 4.048-.29 4.351l-2.335 1.22 1.925-4.376z" transform="translate(-5.013 -.48)"/>
        <g transform="translate(-5.013 -.48) translate(30.284)">
            <mask id="yj04l7nz1h" fill="#fff">
                <use xlink:href="#skdu59qpyg"/>
            </mask>
            <use fill="#E0141F" xlink:href="#skdu59qpyg"/>
            <g fill="#FFF" mask="url(#yj04l7nz1h)">
                <g>
                    <path d="M8.985 9.63c.162-2.232-.396-4.01-1.675-5.334-1.279-1.324-3.036-1.944-5.271-1.86-.163 2.232.396 4.01 1.675 5.334C4.992 9.094 6.75 9.714 8.985 9.63z" transform="translate(6.931 7.1)"/>
                    <path d="M8.613 9.597c-.162-2.232.396-4.01 1.675-5.334 1.279-1.324 3.036-1.944 5.272-1.86.162 2.232-.397 4.01-1.675 5.334-1.28 1.324-3.036 1.944-5.272 1.86z" transform="translate(6.931 7.1)"/>
                    <path d="M8.973 8.777c.162 2.231-.396 4.009-1.675 5.333-1.278 1.325-3.036 1.945-5.271 1.86-.162-2.23.396-4.009 1.675-5.333 1.278-1.324 3.036-1.944 5.271-1.86z" transform="translate(6.931 7.1)"/>
                    <path d="M8.601 8.732c-.162 2.232.396 4.01 1.675 5.334 1.279 1.324 3.036 1.944 5.272 1.86.162-2.232-.396-4.01-1.675-5.334-1.279-1.324-3.036-1.944-5.272-1.86z" transform="translate(6.931 7.1)"/>
                </g>
                <path d="M22.358 9.597c-.162-2.232.396-4.01 1.675-5.334 1.279-1.324 3.036-1.944 5.272-1.86.162 2.232-.396 4.01-1.675 5.334-1.28 1.324-3.036 1.944-5.272 1.86zM2.17 30.242c-.162-2.232.396-4.01 1.675-5.334 1.279-1.324 3.036-1.944 5.271-1.86.163 2.232-.396 4.01-1.675 5.334-1.278 1.324-3.036 1.944-5.271 1.86zM8.973 9.769c.162-2.231-.396-4.01-1.675-5.333C6.02 3.11 4.262 2.49 2.027 2.576c-.162 2.23.396 4.009 1.675 5.333 1.278 1.324 3.036 1.944 5.271 1.86zM29.37 30.157c.163-2.231-.395-4.009-1.674-5.333-1.279-1.324-3.036-1.944-5.272-1.86-.162 2.231.396 4.009 1.675 5.333 1.279 1.325 3.036 1.945 5.272 1.86z"/>
            </g>
        </g>
    </g>
</svg>
