<svg xmlns="http://www.w3.org/2000/svg" width="160" height="61" viewBox="0 0 160 61">
    <g fill="none" fill-rule="evenodd">
        <path stroke="#FFF" stroke-width="1.728" d="M.671 19.368L24.366.806c.609-.477 1.46-.491 2.084-.035l24.936 18.201c.296.217.653.333 1.02.333l103.788-.096c.954 0 1.728.772 1.73 1.726l.061 35.623c.002.954-.77 1.73-1.725 1.73h-.002l-154.53.032C.774 58.32 0 57.547 0 56.593v-.001L.01 20.728c0-.531.244-1.033.662-1.36z" transform="translate(1 1)"/>
        <path fill="#FFF" d="M26.266 7.543l20.73 15.133c.297.216.654.332 1.02.332l104.597-.08c.954-.001 1.728.77 1.73 1.724l.049 27.23c.002.955-.77 1.73-1.725 1.732h-.003L5.582 53.64c-.904 0-1.646-.694-1.722-1.578l-.006-.15.007-27.573c0-.531.245-1.033.663-1.36l19.658-15.4c.609-.477 1.46-.491 2.084-.036zM87.792 27.73c-1.357-.56-2.776-.606-4.215-.406-2.453.341-4.225 2.003-4.414 4.466-.296 3.854-.265 7.722-.009 11.578.13 1.958 1.229 3.333 3.064 4.067 1.45.58 2.954.64 4.468.338 2.686-.536 3.983-2.507 4.15-4.443.166-1.91.041-3.816.112-5.298v-.793c.002-.998.005-1.78-.001-2.56-.008-.976-.012-1.948-.125-2.923-.227-1.952-1.237-3.285-3.03-4.026zm-37.353-.136c-.572-.004-.766.113-.759.732.036 3.06.016 6.122.016 9.183 0 3.126.012 6.252-.014 9.378-.004.526.155.65.655.637 1.258-.034 2.52-.05 3.776.005.637.028.786-.16.783-.784-.027-4.82-.016-9.639-.011-14.458 0-.208-.106-.522.083-.606.399-.175.863-.125 1.274-.037.277.06.13.415.13.632.009 4.884.012 9.769-.002 14.653-.001.432.08.607.56.595 1.346-.034 2.693-.033 4.038 0 .484.013.618-.117.617-.61-.018-6.23-.02-12.461.002-18.691.002-.545-.182-.629-.662-.626-3.495.018-6.99.023-10.486-.003zm43.532 0l-.096.006c-.326.033-.403.203-.4.608.022 3.104.012 6.208.011 9.312 0 3.104.011 6.208-.012 9.311-.004.513.078.718.655.696 1.323-.048 2.648-.036 3.972-.002.474.012.626-.099.62-.6-.03-2.28.005-4.559-.028-6.838-.007-.53.158-.661.652-.63.583.039 1.172.013 1.757-.002 1.883-.051 3.186-.978 3.868-2.733.615-1.583.68-3.242.443-4.874-.396-2.735-1.837-3.927-4.567-4.138-2.256-.175-4.512-.041-6.767-.115l-.108-.001zm-28.86-.003l-.105.002c-.437.023-.583.2-.576.766.04 3.061.018 6.123.018 9.184 0 3.083.02 6.166-.016 9.249-.007.622.19.753.764.733 1.236-.041 2.475-.037 3.712 0 .536.016.74-.077.728-.691-.045-2.28-.005-4.56-.027-6.839-.004-.43.117-.56.542-.537.606.034 1.216.015 1.823 0 2.009-.052 3.372-1.024 4.008-2.915.534-1.59.652-3.231.353-4.879-.472-2.594-1.85-3.746-4.468-3.951-2.214-.174-4.428-.04-6.64-.12l-.116-.002zm44.28.01c-.322-.002-.431.08-.476.42-.408 3.134-.848 6.264-1.269 9.396-.431 3.218-.845 6.438-1.284 9.655-.05.363.05.45.394.447 1.498-.014 2.997-.015 4.494 0 .327.003.456-.08.47-.428.023-.65.087-1.299.16-1.946.14-1.269.147-1.253 1.476-1.226.39.008.525.122.535.52.021.844.106 1.687.149 2.53.02.388.134.583.584.555.692-.043 1.388-.011 2.083-.012.76 0 1.52-.012 2.28.006.322.007.413-.095.365-.415-.363-2.396-.709-4.795-1.067-7.191-.59-3.96-1.193-7.917-1.77-11.878-.05-.338-.156-.434-.48-.432-2.215.01-4.43.01-6.644-.002zm36.112 0h-.09c-1.064.018-2.128.006-3.192.006-1.107 0-2.214.004-3.322-.004-.285-.002-.448.008-.497.39-.407 3.179-.856 6.352-1.278 9.528-.425 3.198-.827 6.398-1.26 9.595-.047.346.044.403.351.4 1.52-.01 3.04-.011 4.56.003.306.003.415-.09.431-.399.033-.628.1-1.254.163-1.88.14-1.376.142-1.36 1.524-1.321.378.01.465.144.48.494.036.866.12 1.73.18 2.595.024.344.123.527.547.517 1.433-.033 2.866-.03 4.299-.001.457.009.488-.17.432-.54-.312-2.055-.6-4.112-.91-6.166-.64-4.237-1.3-8.47-1.913-12.71-.065-.448-.214-.515-.595-.508zm-23.095-.009c-.55-.004-.622.194-.619.667.018 3.104.01 6.208.01 9.312v9.377c0 .303-.064.585.436.575 2.777-.053 5.557.073 8.332-.118 1.911-.132 2.853-.784 3.125-2.58.385-2.535.387-5.11.001-7.646-.253-1.664-1.126-2.293-2.826-2.562-1.1-.174-2.206-.137-3.309-.163-.403-.01-.577-.093-.552-.543.04-.736.05-1.478-.003-2.212-.04-.548.18-.635.66-.628 1.67.025 3.342-.003 5.013.02.44.006.618-.093.593-.57-.04-.757-.042-1.52 0-2.278.028-.505-.116-.653-.637-.65-3.408.025-6.816.028-10.224 0zm-89.465-6.424c-4.012.032-8.025-.002-12.037.02-1.903.01-3.156 1.295-3.178 3.203-.015 1.397.02 2.795-.015 4.192-.014.518.157.644.651.639 2.277-.024 4.554-.031 6.83.002.593.009.9-.109.789-.76-.09-.524.127-.756.667-.68.177.024.36 0 .54 0 .985.002.95.002.953.967.003.578-.44.694-.776.906-2.474 1.564-4.948 3.128-7.446 4.653-1.458.891-2.185 2.155-2.187 3.85-.004 2.908.007 5.816-.019 8.724-.005.526.181.636.665.633 2.862-.02 5.725-.01 8.588-.009 2.885.001 5.771-.01 8.656.012.526.004.7-.137.688-.681-.035-1.645-.006-3.29-.013-4.936-.005-.989.175-.918-.952-.92-2.908-.002-5.816.001-8.724-.007-.206 0-.46.107-.605-.157-.236-.427.03-1.327.463-1.572l7.761-4.385c1.41-.796 2.055-2.022 2.053-3.62-.002-2.21-.06-4.421.024-6.627.076-1.985-1.334-3.463-3.376-3.447zm52.092 9.428c.534.015.676.402.677.852.006 2.036.003 4.073.003 6.109 0 1.993 0 3.987.003 5.98 0 .288-.033.565-.218.796-.209.263-.506.221-.78.175-.274-.045-.396-.275-.42-.517-.054-.56-.103-1.124-.105-1.686-.009-3.207-.007-6.414 0-9.62 0-.433.042-.866.081-1.297.042-.459.244-.805.76-.792zm42.331 6.992l.098.004c.963.075 1.21.281 1.223 1.272.016 1.277.019 2.556-.002 3.834-.016 1.027-.267 1.26-1.236 1.365-.37.04-.444-.08-.438-.414.016-.931.006-1.863.006-2.794 0-.932.009-1.864-.006-2.795-.006-.336.032-.5.453-.468zm15.056-4.844c.236 2.402.467 4.795.711 7.187.032.31.008.497-.377.467-.408-.032-.912.12-1.204-.07-.327-.212-.024-.718.01-1.083.162-1.72.366-3.435.596-5.147.06-.45-.086-.954.264-1.354zm-29.48-.018c.232 2.369.448 4.697.694 7.023.052.491-.04.678-.585.66-1.075-.038-1.1-.007-.984-1.13.209-2.044.446-4.086.677-6.128.016-.144.028-.303.199-.425zm-43.33-1.22c-.017-.4.083-.537.509-.47.799.126 1.015.287 1.1 1.094.105 1.015.108 2.035-.03 3.048-.092.67-.635 1.008-1.32.91-.313-.045-.25-.24-.251-.42-.005-.715-.002-1.43-.002-2.146.001-.673.021-1.346-.006-2.017zm29.373-.485l.09.002c.835.054 1.13.302 1.204 1.133.084.95.075 1.904-.013 2.854-.02.211-.062.44-.167.62-.27.463-.75.522-1.2.43-.395-.083-.167-.475-.18-.718-.033-.627-.01-1.256-.01-1.884-.002-.693.006-1.386-.006-2.08-.005-.276.077-.375.373-.355z" transform="translate(1 1)"/>
    </g>
</svg>
