<svg xmlns="http://www.w3.org/2000/svg" width="49" height="48" viewBox="0 0 49 48">
    <g fill="#FFF" fill-rule="evenodd">
        <path d="M8.772 15.584l12.111-7.817c2.28-1.47 3.198-1.853 4.282-2.107 1.085-.254 2.15-.259 3.237-.016 1.088.242 2.009.615 4.304 2.063l12.501 7.887c1.046.66 1.384.952 1.71 1.334.327.381.557.799.706 1.279.148.48.215.92.215 2.158V38.16c0 1.783-.185 2.43-.534 3.082-.349.652-.86 1.163-1.512 1.512-.652.348-1.299.534-3.082.534H11.311c-1.783 0-2.43-.186-3.081-.534-.652-.349-1.164-.86-1.512-1.512-.349-.652-.535-1.299-.535-3.082V20.334c0-1.227.066-1.665.212-2.14.145-.477.371-.892.692-1.272.321-.38.653-.673 1.685-1.338z" opacity=".22" transform="translate(.019)"/>
        <path d="M22.353 5.644c1.087.242 2.008.615 4.303 2.063l12.502 7.887c1.046.66 1.383.952 1.71 1.334.326.381.556.799.705 1.279.149.48.216.92.216 2.158V38.16c0 1.783-.186 2.43-.535 3.082-.348.652-.86 1.163-1.512 1.512-.652.348-1.298.534-3.081.534H5.26c-1.782 0-2.43-.186-3.08-.534-.653-.349-1.164-.86-1.513-1.512S.134 39.943.134 38.16V20.334c0-1.227.065-1.665.21-2.14.147-.477.373-.892.694-1.272.32-.38.653-.673 1.684-1.338l12.112-7.817c2.28-1.47 3.197-1.853 4.282-2.107 1.084-.254 2.15-.259 3.237-.016zm-1.669 12.365c-1.227 0-2.336.315-3.328.944-.909.577-1.612 1.372-2.111 2.386l-.131.281 3.186 1.865c.52-1.196 1.33-1.794 2.431-1.794.551 0 .984.161 1.299.484.314.323.472.743.472 1.263 0 .737-.491 1.64-1.473 2.71l-.203.217-5.547 5.759v2.738h11.235v-3.635h-5.547l2.738-2.762c1.716-1.715 2.573-3.446 2.573-5.192 0-1.605-.55-2.88-1.652-3.824-1.07-.96-2.384-1.44-3.942-1.44z" transform="translate(.019)"/>
    </g>
</svg>
