<svg xmlns="http://www.w3.org/2000/svg" width="24" height="20" viewBox="0 0 24 20">
    <path fill="#FFF" d="M24 2.447c-.87.382-1.796.635-2.762.757.994-.593 1.752-1.526 2.109-2.65-.927.553-1.95.943-3.04 1.161-.88-.937-2.134-1.517-3.502-1.517-2.654 0-4.791 2.154-4.791 4.795 0 .38.032.746.111 1.093-3.986-.194-7.512-2.104-9.881-5.014-.414.718-.657 1.539-.657 2.423 0 1.66.855 3.132 2.13 3.984-.77-.014-1.526-.238-2.166-.59v.052c0 2.33 1.662 4.265 3.84 4.711-.39.107-.815.158-1.256.158-.307 0-.617-.018-.908-.082.621 1.899 2.384 3.294 4.48 3.34-1.631 1.276-3.702 2.044-5.944 2.044-.393 0-.77-.017-1.148-.065 2.124 1.369 4.64 2.15 7.355 2.15 8.822 0 13.645-7.307 13.645-13.641 0-.212-.008-.417-.018-.62.952-.675 1.751-1.518 2.403-2.489z"/>
</svg>
