<svg xmlns="http://www.w3.org/2000/svg" width="33" height="32" viewBox="0 0 33 32">
    <path fill="#2F3137" d="M24.12 4.12c1.25 0 2.263 1.013 2.263 2.263S25.37 8.646 24.12 8.646c-.549.002-1.079-.2-1.488-.566H19.03l.002 1.139c.098.076.192.158.28.247.54.529.846 1.252.85 2.008h2.262v2.334c.976.252 1.697 1.138 1.697 2.192v.566l1.697-.001v-1.13h3.96v10.748h-3.96v-1.697h-2.263c-1.356 2.122-3.704 3.403-6.223 3.394-2.428.009-4.698-1.182-6.073-3.17l-.15-.224c-.312 0-.565.253-.565.566v2.262h-7.92V23.92c0-4.062 3.292-7.354 7.354-7.354h.566V16c0-1.054.72-1.94 1.697-2.192v-2.334h2.263c0-.896.424-1.732 1.13-2.262l.001-1.132h-3.603c-.41.366-.94.568-1.488.566-1.25 0-2.263-1.014-2.263-2.263 0-1.25 1.013-2.263 2.263-2.263.549-.002 1.079.2 1.488.565h10.601c.41-.366.94-.567 1.488-.565zm-2.263 10.749h-9.051c-.625 0-1.132.506-1.132 1.131v1.697H9.977c-3.437 0-6.223 2.786-6.223 6.223v2.263h5.657v-1.131c0-.938.76-1.698 1.697-1.698h.668l.158.283c1.11 1.933 3.169 3.125 5.397 3.125 2.23 0 4.288-1.192 5.397-3.125l.159-.283h2.93v-5.657H22.99V16c0-.625-.507-1.131-1.132-1.131zm5.092 10.183h1.697v-8.486h-1.697v8.486zm-5.657-12.446h-7.92v1.131h7.92v-1.131zm-4.81-2.597l-.062.036-.061.04c-.451.315-.724.832-.725 1.39h3.395c0-.453-.178-.886-.498-1.206-.09-.085-.186-.16-.29-.227l-.061-.033c-.525-.303-1.172-.303-1.697 0zm6.8-4.379l-.163.187H11.544l-.164-.187c-.312-.35-.809-.472-1.248-.305-.438.167-.728.588-.728 1.058 0 .47.29.89.728 1.057.44.167.936.046 1.248-.305l.164-.187h5.222v1.754l.05-.01.09-.014-.14.024c.07-.013.14-.025.212-.033.047-.007.095-.012.143-.016l.042-.001c.04-.004.08-.005.12-.006h.095c.041 0 .082.002.123.005l-.17-.005c.07 0 .141.003.211.009.048.002.096.007.143.013l.071.01.09.015.051.01V6.947h5.222l.164.187c.312.35.809.472 1.247.305.44-.167.73-.588.73-1.057 0-.47-.29-.89-.73-1.058-.438-.167-.935-.045-1.247.305z"/>
</svg>
