<svg xmlns="http://www.w3.org/2000/svg" width="48" height="48" viewBox="0 0 48 48">
    <g fill="#FFF">
        <path d="M3.083 7.708H4.625V26.208H3.083zM7.708 7.708H10.791V26.208H7.708zM12.333 7.708H13.875V26.208H12.333zM16.958 7.708H20.040999999999997V26.208H16.958zM21.583 7.708H24.665999999999997V26.208H21.583zM41.625 7.708H43.167V26.208H41.625zM35.458 7.708H38.541V26.208H35.458zM32.375 7.708H33.917V26.208H32.375zM27.75 7.708H29.292V26.208H27.75zM3.083 27.75H4.625V29.292H3.083zM9.25 27.75H10.792V29.292H9.25zM12.333 27.75H13.875V29.292H12.333zM15.417 27.75H16.959V29.292H15.417zM18.5 27.75H20.042V29.292H18.5zM6.167 27.75H7.709V29.292H6.167zM21.583 27.75H23.125V29.292H21.583zM24.667 27.75H26.209000000000003V29.292H24.667zM27.75 27.75H29.292V29.292H27.75zM30.833 27.75H32.375V29.292H30.833zM33.917 27.75H35.459V29.292H33.917zM37 27.75H38.542V29.292H37zM40.083 27.75H41.625V29.292H40.083z" transform="translate(.5 5.5)"/>
        <path d="M0 0L0 6.167 1.542 6.167 1.542 1.542 6.167 1.542 6.167 0zM40.083 0L40.083 1.542 44.708 1.542 44.708 6.167 46.25 6.167 46.25 0zM44.708 30.833L44.708 35.458 40.083 35.458 40.083 37 46.25 37 46.25 30.833zM1.542 35.458L1.542 30.833 0 30.833 0 37 6.167 37 6.167 35.458z" opacity=".627" transform="translate(.5 5.5)"/>
        <path d="M4.625 32.375L4.625 30.833 3.083 30.833 3.083 33.917 6.167 33.917 6.167 32.375zM3.083 3.083L3.083 6.167 4.625 6.167 4.625 4.625 6.167 4.625 6.167 3.083zM40.083 3.083L40.083 4.625 41.625 4.625 41.625 6.167 43.167 6.167 43.167 3.083zM41.625 30.833L41.625 32.375 40.083 32.375 40.083 33.917 43.167 33.917 43.167 30.833zM7.708 3.083H38.541V4.625H7.708zM7.708 32.375H38.541V33.917H7.708z" transform="translate(.5 5.5)"/>
    </g>
</svg>
