<svg xmlns="http://www.w3.org/2000/svg" width="41" height="41" viewBox="0 0 41 41">
    <path fill="#FFECDE" d="M2.715 20.064l-1.593 3.862c-.664 1.606-.07 3.43 1.409 4.337l4.08 2.426.923 3.826c.406 1.687 1.956 2.804 3.688 2.68l4.623-.357 2.727 2.398c.66.563 1.47.844 2.28.844.809 0 1.619-.281 2.28-.845l2.726-2.397 4.623.357c1.738.136 3.283-.991 3.688-2.68l.92-3.81 4.084-2.442c1.477-.908 2.07-2.731 1.409-4.337l-1.595-3.862 1.596-3.865c.661-1.603.068-3.427-1.41-4.335l-4.084-2.443-.92-3.809c-.408-1.689-1.978-2.816-3.688-2.68l-4.673.362L23.13.924C21.811-.2 19.894-.201 18.571.922l-2.676 2.372-4.673-.362c-1.69-.115-3.28.992-3.646 2.542L6.225 9.675 2.53 11.863c-1.48.909-2.073 2.733-1.41 4.337l1.594 3.864z"/>
</svg>
