<svg xmlns="http://www.w3.org/2000/svg" width="48" height="48" viewBox="0 0 48 48">
    <g fill="#FFF">
        <path d="M24.095 14.167l-3.598-.493c-.943-.13-1.763-.695-2.192-1.515l-1.609-3.071c-.255-.487-1.057-.487-1.312 0l-1.609 3.071c-.43.82-1.249 1.386-2.192 1.515l-3.598.493c-.554.075-.815.652-.413 1.021l2.604 2.39c.707.65 1.03 1.593.86 2.522l-.615 3.376c-.09.495.537.886 1.068.623l3.218-1.594c.835-.413 1.831-.413 2.666 0l3.218 1.594c.528.261 1.158-.125 1.068-.623l-.615-3.376c-.169-.929.153-1.871.86-2.521l2.604-2.39c.402-.37.142-.947-.413-1.022z" opacity=".763" transform="translate(8 5)"/>
        <path d="M30.227 0H1.853C.843 0 .022.821.022 1.831v33.104c0 .868.433 1.669 1.158 2.144.425.28.913.421 1.404.421.346 0 .695-.07 1.024-.214l12.286-5.345c.093-.04.2-.04.292 0l12.286 5.345c.796.346 1.703.269 2.428-.207.725-.475 1.158-1.276 1.158-2.144V1.831c0-1.01-.821-1.831-1.83-1.831zm-4.233 16.807l-2.603 2.39c-.151.14-.219.325-.185.51l.615 3.375c.414 2.275-2.051 4.053-4.205 2.986l-3.218-1.594c-.22-.11-.495-.11-.716 0l-3.218 1.594c-2.156 1.068-4.618-.717-4.204-2.986l.614-3.376c.034-.184-.034-.37-.185-.509l-2.603-2.39c-1.758-1.614-.817-4.486 1.601-4.817l3.598-.493c.24-.033.443-.167.544-.358l1.609-3.07c1.077-2.057 4.128-2.057 5.205 0l1.608 3.07c.1.191.304.325.544.358l3.598.493c2.417.33 3.36 3.201 1.6 4.817z" transform="translate(8 5)"/>
    </g>
</svg>
