<svg xmlns="http://www.w3.org/2000/svg" width="24" height="14" viewBox="0 0 24 14">
    <path fill="#FFF" d="M19.84 7.796c-.377-.476-.269-.687 0-1.113.005-.004 3.116-4.303 3.436-5.76l.002-.001c.16-.532 0-.922-.77-.922H19.96c-.649 0-.948.335-1.108.71 0 0-1.298 3.106-3.133 5.119-.593.581-.867.768-1.19.768-.16 0-.407-.187-.407-.718V.922c0-.637-.181-.922-.718-.922H9.397c-.407 0-.65.297-.65.574 0 .604.919.743 1.014 2.442v3.688c0 .808-.147.956-.472.956-.866 0-2.969-3.118-4.215-6.687-.251-.692-.497-.972-1.15-.972h-2.55C.647.001.5.336.5.711c0 .662.866 3.955 4.028 8.306 2.108 2.97 5.075 4.579 7.775 4.579 1.623 0 1.821-.357 1.821-.972 0-2.838-.147-3.106.666-3.106.377 0 1.026.187 2.54 1.619 1.732 1.699 2.017 2.459 2.986 2.459h2.548c.727 0 1.095-.357.883-1.062-.484-1.483-3.76-4.534-3.907-4.738z"/>
</svg>
