<svg xmlns="http://www.w3.org/2000/svg" width="111" height="134" viewBox="0 0 111 134">
    <defs>
        <filter id="a0wh05lrza" width="168.9%" height="1171.8%" x="-34.5%" y="-535.9%" filterUnits="objectBoundingBox">
            <feGaussianBlur in="SourceGraphic" stdDeviation="9"/>
        </filter>
    </defs>
    <g fill="none" fill-rule="evenodd" transform="translate(7)">
        <ellipse cx="48.16" cy="108.942" fill="#415AB7" filter="url(#a0wh05lrza)" opacity=".647" rx="39.16" ry="2.519"/>
        <path fill="#415AB7" fill-rule="nonzero" d="M44.354 66.344l18.342 2.897c1.325.207 2.302 1.347 2.302 2.688v12.729c-.006 1.19-.778 2.242-1.912 2.605-14.514 4.753-33.206-.333-47.108-14.243C2.076 59.11-3.018 40.426 1.736 25.912 2.1 24.778 3.151 24.006 4.342 24H17.07c1.34 0 2.481.977 2.688 2.302l2.895 18.342c.103.656-.037 1.326-.393 1.886l-4.508 7.075c-.648 1.03-.666 2.337-.046 3.385 3.49 5.89 8.406 10.809 14.295 14.301 1.05.623 2.36.605 3.392-.046l7.074-4.508c.56-.356 1.23-.496 1.886-.393z"/>
        <g fill-rule="nonzero">
            <path fill="#E94444" d="M27.18 0c8.585 0 16.249 4 21.233 10.23 3.748 4.687 5.98 10.634 5.947 17.09-.034 6.827-2.586 13.058-6.775 17.814-.401.457-.502 1.107-.238 1.655 1.06 2.202 2.259 3.862 3.07 4.857.448.551.114 1.38-.59 1.474-3.138.415-6.95-1.16-8.595-1.936-.431-.204-.932-.191-1.353.032-3.692 1.955-7.887 3.085-12.342 3.142C12.723 54.55.192 42.351.002 27.536-.192 12.362 12.051 0 27.18 0z" transform="matrix(-1 0 0 1 96 0)"/>
            <path fill="#DF131E" d="M50.415 51.646c.45.551.117 1.381-.588 1.474-1.497.198-3.146-.058-4.641-.462l.191-.021c.704-.093 1.037-.923.588-1.475-.808-.994-2.008-2.654-3.068-4.856-.263-.548-.163-1.2.238-1.656 4.189-4.756 6.74-10.986 6.776-17.814C49.976 13.565 40.474 2.442 27.904.01c14.708.387 26.53 12.512 26.457 27.31-.035 6.828-2.587 13.058-6.776 17.813-.4.457-.501 1.109-.238 1.657 1.06 2.201 2.26 3.862 3.068 4.856z" transform="matrix(-1 0 0 1 96 0)"/>
            <g fill="#FFEEE7" transform="matrix(-1 0 0 1 96 0) translate(9.367 23.434)">
                <circle cx="31.883" cy="3.733" r="3.677"/>
                <circle cx="17.813" cy="3.733" r="3.677"/>
                <circle cx="3.743" cy="3.733" r="3.677"/>
            </g>
        </g>
    </g>
</svg>
