<svg xmlns="http://www.w3.org/2000/svg" xmlns:xlink="http://www.w3.org/1999/xlink" width="498" height="201" viewBox="0 0 498 201">
    <defs>
        <path id="4l9wmdcb5a" d="M0 204.914L503.628 204.914 503.628 0 0 0z"/>
    </defs>
    <g fill="none" fill-rule="evenodd" transform="translate(0 -4)">
        <path fill="#EBF3FA" d="M468.484 203.293s-23.88.039-60.302.117c-106.644.194-320.882.543-358.255.368-50.147-.233-84.841-129.999 8.93-121.185 101.849 9.552 27.356-48.886 87.346-58.573 65.291-10.562 78.454 30.054 125.34 13.454 64.088-22.696 98.898-14.794 121.205 1.767 24.462 18.172 33.84 46.77 50.264 56.768.369.233.738.446 1.106.64 31.918 17.473 46.362 34.383 51.08 49.39 10.523 33.297-26.714 57.254-26.714 57.254"/>
        <path fill="#F8FBFF" d="M443.018 96.013L201.095 137.15l-18.065-21.662 209.715-76.245c24.466 18.172 33.85 46.762 50.273 56.77M316.71 44.898L77.31 122.044c7.053-5.141-9.166-33.013.355-42.261l239.043-34.885zM346.153 31.886c-3.187 0-5.77 2.584-5.77 5.77 0 3.187 2.583 5.77 5.77 5.77 3.186 0 5.77-2.583 5.77-5.77 0-3.186-2.584-5.77-5.77-5.77"/>
        <mask id="jtvaq93x0b" fill="#fff">
            <use xlink:href="#4l9wmdcb5a"/>
        </mask>
        <path fill="#C4D9ED" d="M271.465 183.546L298.779 183.546 298.779 50.719 271.465 50.719z" mask="url(#jtvaq93x0b)"/>
        <path fill="#D5E7F7" d="M277.599 183.546L304.914 183.546 304.914 50.719 277.599 50.719z" mask="url(#jtvaq93x0b)"/>
        <path fill="#C4D9ED" d="M277.607 58.359L304.914 58.359 304.914 50.683 277.607 50.683zM277.607 75.006L304.914 75.006 304.914 67.33 277.607 67.33zM277.607 91.653L304.914 91.653 304.914 83.977 277.607 83.977zM277.607 108.3L304.914 108.3 304.914 100.625 277.607 100.625zM277.607 124.947L304.914 124.947 304.914 117.271 277.607 117.271zM277.607 141.594L304.914 141.594 304.914 133.918 277.607 133.918zM277.607 158.241L304.914 158.241 304.914 150.566 277.607 150.566zM277.607 174.888L304.914 174.888 304.914 167.213 277.607 167.213z" mask="url(#jtvaq93x0b)"/>
        <path fill="#415AB7" fill-opacity=".223" d="M315.13 183.546L342.444 183.546 342.444 69.514 315.13 69.514z" mask="url(#jtvaq93x0b)"/>
        <path fill="#D5E7F7" d="M321.264 183.546L348.579 183.546 348.579 69.514 321.264 69.514z" mask="url(#jtvaq93x0b)"/>
        <path fill="#C4D9ED" d="M321.271 76.073L348.579 76.073 348.579 69.484 321.271 69.484zM321.271 90.364L348.579 90.364 348.579 83.775 321.271 83.775zM321.271 104.656L348.579 104.656 348.579 98.066 321.271 98.066zM321.271 118.947L348.579 118.947 348.579 112.358 321.271 112.358zM321.271 133.239L348.579 133.239 348.579 126.649 321.271 126.649zM321.271 147.53L348.579 147.53 348.579 140.941 321.271 140.941zM321.271 161.822L348.579 161.822 348.579 155.232 321.271 155.232zM321.271 176.113L348.579 176.113 348.579 169.524 321.271 169.524z" mask="url(#jtvaq93x0b)"/>
        <path fill="#DCEAF9" d="M256.682 196.151L268.12 196.151 268.12 179.472 256.682 179.472z" mask="url(#jtvaq93x0b)"/>
        <path fill="#D5E7F7" d="M260.175 156.718v46.307h-121.16l-.826-.008-30.92-.29-.094-.161-.181-.315-.075-.132c-.092-.164-.196-.35-.312-.562-.141-.257-.3-.55-.474-.877v-.002c-.65-1.22-1.513-2.91-2.493-5.01-.322-.689-.655-1.424-1-2.2l-.413-.947v-.002c-.136-.311-.271-.629-.407-.954l-.013-.032c-.094-.223-.189-.448-.283-.679-.1-.234-.198-.472-.297-.713-.506-1.244-1.023-2.564-1.538-3.956l-.041-.11v-.001c-.337-.911-.673-1.852-1.006-2.821-.183-.534-.364-1.074-.545-1.623l-.033-.103-.238-.734-.197-.625c-.135-.43-.27-.866-.404-1.305-.172-.565-.342-1.138-.51-1.718-.225-.787-.447-1.588-.662-2.402-.065-.244-.13-.49-.193-.735-.189-.736-.376-1.481-.556-2.235-.06-.243-.116-.485-.172-.729-.036-.15-.07-.3-.105-.452-.273-1.193-.532-2.41-.773-3.649-.266-1.363-.512-2.754-.731-4.168-.204-1.305-.387-2.631-.545-3.975-.15-1.27-.279-2.553-.383-3.853-.246-3.039-.36-6.16-.311-9.337.084-5.534.664-11.244 1.91-17.024.045-.21.092-.42.139-.631.308-1.376.653-2.753 1.04-4.134.293-1.052.611-2.106.953-3.16.248-.763.508-1.527.782-2.292.62-1.731 1.309-3.462 2.07-5.192h.648v-1.436c4.133-8.92 10.227-17.754 18.9-26.112l.485-.466h.508v17.713h15.677V74.013h17.297v18.736h3.944V70.38h17.298v41.94h21.877v24.457h8.174v6.16h18.777v-10.609h10.78V103.5h13.315v53.219h13.317z" mask="url(#jtvaq93x0b)"/>
        <path fill="#C4D9ED" d="M156.637 77.484L173.945 77.484 173.945 73.211 156.637 73.211zM156.637 85.513L173.945 85.513 173.945 81.239 156.637 81.239zM156.637 92.735L173.945 92.735 173.945 88.462 156.637 88.462zM135.4 92.735L152.708 92.735 152.708 88.462 135.4 88.462zM135.4 85.513L152.708 85.513 152.708 81.239 135.4 81.239zM135.4 78.301L152.708 78.301 152.708 74.028 135.4 74.028zM135.395 99.738L173.945 99.738 173.945 95.464 135.395 95.464zM135.395 106.741L173.945 106.741 173.945 102.467 135.395 102.467zM233.419 110.099L246.852 110.099 246.852 103.503 233.419 103.503zM233.419 119.908L246.852 119.908 246.852 113.312 233.419 113.312zM233.419 129.718L246.852 129.718 246.852 123.122 233.419 123.122zM233.419 140.001L246.852 140.001 246.852 133.405 233.419 133.405zM233.419 149.965L246.852 149.965 246.852 143.369 233.419 143.369zM233.419 159.929L246.852 159.929 246.852 153.333 233.419 153.333zM233.419 170.354L246.852 170.354 246.852 163.757 233.419 163.757zM135.395 112.024L173.945 112.024 173.945 109.311 135.395 109.311z" mask="url(#jtvaq93x0b)"/>
        <path fill="#C4D9ED" d="M228.653 132.328L233.606 132.328 233.606 103.503 228.653 103.503zM212.799 142.938L222.762 142.938 222.762 132.328 212.799 132.328zM135.4 74.028V78.3l-.003 17.163-.001 4.273v3.14h-3.434v-28.51l.462-.34h2.976zM154.527 92.735L156.637 92.735 156.637 70.38 154.527 70.38z" mask="url(#jtvaq93x0b)"/>
        <g fill="#C4D9ED" mask="url(#jtvaq93x0b)">
            <g>
                <path d="M95.184 4.164L98.116 4.164 98.116.031 95.184.031zM89.7 4.164L92.633 4.164 92.633.031 89.7.031zM84.339 4.164L87.271 4.164 87.271.031 84.339.031zM79.256 4.164L82.188 4.164 82.188.031 79.256.031zM74.075 4.164L77.008 4.164 77.008.031 74.075.031zM68.836 4.164L71.768 4.164 71.768.031 68.836.031zM63.352 4.164L66.284 4.164 66.284.031 63.352.031zM57.991 4.164L60.924 4.164 60.924.031 57.991.031zM52.908 4.164L55.841 4.164 55.841.031 52.908.031zM47.728 4.164L50.66 4.164 50.66.031 47.728.031zM42.329 4.164L45.262 4.164 45.262.031 42.329.031zM36.845 4.164L39.778 4.164 39.778.031 36.845.031zM31.484 4.164L34.417 4.164 34.417.031 31.484.031zM26.402 4.164L29.334 4.164 29.334.031 26.402.031zM21.221 4.164L24.153 4.164 24.153.031 21.221.031zM15.981 4.164L18.914 4.164 18.914.031 15.981.031zM10.498 4.164L13.43 4.164 13.43.031 10.498.031zM5.137 4.164L8.069 4.164 8.069.031 5.137.031zM2.987 1.872v2.293h-.783c.248-.764.509-1.528.783-2.293M95.184 11.458L98.116 11.458 98.116 7.325 95.184 7.325zM89.7 11.458L92.633 11.458 92.633 7.325 89.7 7.325zM84.339 11.458L87.271 11.458 87.271 7.325 84.339 7.325zM79.256 11.458L82.188 11.458 82.188 7.325 79.256 7.325zM74.075 11.458L77.008 11.458 77.008 7.325 74.075 7.325zM68.836 11.458L71.768 11.458 71.768 7.325 68.836 7.325zM63.352 11.458L66.284 11.458 66.284 7.325 63.352 7.325zM57.991 11.458L60.924 11.458 60.924 7.325 57.991 7.325zM52.908 11.458L55.841 11.458 55.841 7.325 52.908 7.325zM47.728 11.458L50.66 11.458 50.66 7.325 47.728 7.325zM42.329 11.458L45.262 11.458 45.262 7.325 42.329 7.325zM36.845 11.458L39.778 11.458 39.778 7.325 36.845 7.325zM31.484 11.458L34.417 11.458 34.417 7.325 31.484 7.325zM26.402 11.458L29.334 11.458 29.334 7.325 26.402 7.325zM21.221 11.458L24.153 11.458 24.153 7.325 21.221 7.325zM15.981 11.458L18.914 11.458 18.914 7.325 15.981 7.325zM10.498 11.458L13.43 11.458 13.43 7.325 10.498 7.325zM5.137 11.458L8.069 11.458 8.069 7.325 5.137 7.325zM2.987 7.324v4.134H.21c.308-1.376.653-2.753 1.04-4.134h1.736zM95.184 18.64L98.116 18.64 98.116 14.507 95.184 14.507zM89.7 18.64L92.633 18.64 92.633 14.507 89.7 14.507zM84.339 18.64L87.271 18.64 87.271 14.507 84.339 14.507zM79.256 18.64L82.188 18.64 82.188 14.507 79.256 14.507zM74.075 18.64L77.008 18.64 77.008 14.507 74.075 14.507zM68.836 18.64L71.768 18.64 71.768 14.507 68.836 14.507zM63.352 18.64L66.284 18.64 66.284 14.507 63.352 14.507zM57.991 18.64L60.924 18.64 60.924 14.507 57.991 14.507zM52.908 18.64L55.841 18.64 55.841 14.507 52.908 14.507zM47.728 18.64L50.66 18.64 50.66 14.507 47.728 14.507zM42.329 18.64L45.262 18.64 45.262 14.507 42.329 14.507zM36.845 18.64L39.778 18.64 39.778 14.507 36.845 14.507zM31.484 18.64L34.417 18.64 34.417 14.507 31.484 14.507zM26.402 18.64L29.334 18.64 29.334 14.507 26.402 14.507zM21.221 18.64L24.153 18.64 24.153 14.507 21.221 14.507zM15.981 18.64L18.914 18.64 18.914 14.507 15.981 14.507zM10.498 18.64L13.43 18.64 13.43 14.507 10.498 14.507zM5.137 18.64L8.069 18.64 8.069 14.507 5.137 14.507zM.053 18.64L2.986 18.64 2.986 14.507.053 14.507zM95.184 26.271L98.116 26.271 98.116 22.138 95.184 22.138zM89.7 26.271L92.633 26.271 92.633 22.138 89.7 22.138zM84.339 26.271L87.271 26.271 87.271 22.138 84.339 22.138zM79.256 26.271L82.188 26.271 82.188 22.138 79.256 22.138zM74.075 26.271L77.008 26.271 77.008 22.138 74.075 22.138zM68.836 26.271L71.768 26.271 71.768 22.138 68.836 22.138zM63.352 26.271L66.284 26.271 66.284 22.138 63.352 22.138zM57.991 26.271L60.924 26.271 60.924 22.138 57.991 22.138zM52.908 26.271L55.841 26.271 55.841 22.138 52.908 22.138zM47.728 26.271L50.66 26.271 50.66 22.138 47.728 22.138zM42.329 26.271L45.262 26.271 45.262 22.138 42.329 22.138zM36.845 26.271L39.778 26.271 39.778 22.138 36.845 22.138zM31.484 26.271L34.417 26.271 34.417 22.138 31.484 22.138zM26.402 26.271L29.334 26.271 29.334 22.138 26.402 22.138zM21.221 26.271L24.153 26.271 24.153 22.138 21.221 22.138zM15.981 26.271L18.914 26.271 18.914 22.138 15.981 22.138zM10.498 26.271L13.43 26.271 13.43 22.138 10.498 22.138zM5.137 26.271L8.069 26.271 8.069 22.138 5.137 22.138zM.053 26.271L2.986 26.271 2.986 22.138.053 22.138zM95.184 33.565L98.116 33.565 98.116 29.431 95.184 29.431zM89.7 33.565L92.633 33.565 92.633 29.431 89.7 29.431zM84.339 33.565L87.271 33.565 87.271 29.431 84.339 29.431zM79.256 33.565L82.188 33.565 82.188 29.431 79.256 29.431zM74.075 33.565L77.008 33.565 77.008 29.431 74.075 29.431zM68.836 33.565L71.768 33.565 71.768 29.431 68.836 29.431zM63.352 33.565L66.284 33.565 66.284 29.431 63.352 29.431zM57.991 33.565L60.924 33.565 60.924 29.431 57.991 29.431zM52.908 33.565L55.841 33.565 55.841 29.431 52.908 29.431zM47.728 33.565L50.66 33.565 50.66 29.431 47.728 29.431zM42.329 33.565L45.262 33.565 45.262 29.431 42.329 29.431zM36.845 33.565L39.778 33.565 39.778 29.431 36.845 29.431zM31.484 33.565L34.417 33.565 34.417 29.431 31.484 29.431zM26.402 33.565L29.334 33.565 29.334 29.431 26.402 29.431zM21.221 33.565L24.153 33.565 24.153 29.431 21.221 29.431zM15.981 33.565L18.914 33.565 18.914 29.431 15.981 29.431zM10.498 33.565L13.43 33.565 13.43 29.431 10.498 29.431zM5.137 33.565L8.069 33.565 8.069 29.431 5.137 29.431zM.053 33.565L2.986 33.565 2.986 29.431.053 29.431zM95.184 40.746L98.116 40.746 98.116 36.613 95.184 36.613zM89.7 40.746L92.633 40.746 92.633 36.613 89.7 36.613zM84.339 40.746L87.271 40.746 87.271 36.613 84.339 36.613zM79.256 40.746L82.188 40.746 82.188 36.613 79.256 36.613zM74.075 40.746L77.008 40.746 77.008 36.613 74.075 36.613zM68.836 40.746L71.768 40.746 71.768 36.613 68.836 36.613zM63.352 40.746L66.284 40.746 66.284 36.613 63.352 36.613zM57.991 40.746L60.924 40.746 60.924 36.613 57.991 36.613zM52.908 40.746L55.841 40.746 55.841 36.613 52.908 36.613zM47.728 40.746L50.66 40.746 50.66 36.613 47.728 36.613zM42.329 40.746L45.262 40.746 45.262 36.613 42.329 36.613zM36.845 40.746L39.778 40.746 39.778 36.613 36.845 36.613zM31.484 40.746L34.417 40.746 34.417 36.613 31.484 36.613zM26.402 40.746L29.334 40.746 29.334 36.613 26.402 36.613zM21.221 40.746L24.153 40.746 24.153 36.613 21.221 36.613zM15.981 40.746L18.914 40.746 18.914 36.613 15.981 36.613zM10.498 40.746L13.43 40.746 13.43 36.613 10.498 36.613zM5.137 40.746L8.069 40.746 8.069 36.613 5.137 36.613zM.053 40.746L2.986 40.746 2.986 36.613.053 36.613z" transform="translate(94.122 116.497)"/>
            </g>
        </g>
        <path fill="#C4D9ED" d="M144.832 202.727L212.799 202.727 212.799 166.06 144.832 166.06z" mask="url(#jtvaq93x0b)"/>
        <path fill="#C4D9ED" d="M196.37 202.727L264.337 202.727 264.337 184.393 196.37 184.393zM98.064 181.527l-.238-.734-.197-.625c-.135-.43-.27-.866-.405-1.305-.171-.565-.341-1.138-.508-1.718-.226-.787-.447-1.588-.663-2.402-.065-.244-.13-.49-.192-.735-.19-.736-.377-1.481-.557-2.235l2.76 9.754z" mask="url(#jtvaq93x0b)"/>
        <path fill="#D5E7F7" d="M195.595 177.145L208.258 177.145 208.258 170.354 195.595 170.354zM179.34 177.145L192.003 177.145 192.003 170.354 179.34 170.354zM163.395 177.145L176.058 177.145 176.058 170.354 163.395 170.354zM147.755 177.145L160.419 177.145 160.419 170.354 147.755 170.354z" mask="url(#jtvaq93x0b)"/>
        <path fill="#ADC9E0" d="M139.014 203.042L145.538 203.042 145.538 166.06 139.014 166.06z" mask="url(#jtvaq93x0b)"/>
        <path fill="#DCEAF9" d="M243.825 103.503L244.179 103.503 244.179 100.632 243.825 100.632zM231.133 103.503L231.486 103.503 231.486 100.632 231.133 100.632z" mask="url(#jtvaq93x0b)"/>
        <path fill="#D5E7F7" d="M92.978 158.8c.158 1.344.341 2.67.545 3.975.22 1.414.465 2.805.731 4.169.241 1.238.5 2.455.773 3.648.034.151.069.301.105.452.056.244.113.486.172.729.18.754.367 1.499.557 2.235l.192.735c.216.814.437 1.615.663 2.402.167.58.337 1.153.508 1.718.134.44.27.874.405 1.305.065.21.131.417.197.625l.238.734c.01.036.023.07.033.103.181.549.362 1.09.545 1.622.333.97.669 1.91 1.006 2.821v.002l.04.11c.516 1.392 1.033 2.712 1.539 3.956.1.24.197.479.297.713l.283.68.013.031V158.8h-8.842z" mask="url(#jtvaq93x0b)"/>
        <path fill="#D5E7F7" d="M101.82 171.044v20.52l-.013-.03c-.094-.224-.189-.45-.283-.68-.1-.234-.198-.472-.297-.713-.506-1.244-1.023-2.564-1.538-3.956l-.041-.11v-.001c-.337-.911-.673-1.852-1.006-2.822-.183-.533-.364-1.073-.545-1.622l-.033-.103-.238-.734-.197-.625c-.135-.43-.27-.866-.404-1.305-.172-.565-.342-1.138-.51-1.718-.225-.787-.447-1.588-.662-2.402-.065-.244-.13-.49-.193-.735-.189-.736-.376-1.481-.556-2.235-.06-.243-.116-.485-.172-.729h6.688z" mask="url(#jtvaq93x0b)"/>
        <path fill="#C4D9ED" d="M101.82 166.943v10.202h-5.104c-.226-.787-.448-1.588-.663-2.402-.065-.244-.13-.49-.193-.735-.189-.736-.376-1.481-.556-2.235-.06-.243-.116-.485-.172-.729-.036-.15-.07-.301-.105-.452-.273-1.193-.532-2.41-.773-3.649h7.566zM98.642 180.168v3.084c-.183-.533-.364-1.073-.545-1.622l-.033-.103-.238-.734-.197-.625h1.013z" mask="url(#jtvaq93x0b)"/>
        <path fill="#ADC9E0" d="M96.246 173.294L98.26 173.294 98.26 169.81 96.246 169.81z" mask="url(#jtvaq93x0b)"/>
        <path fill="#D5E7F7" d="M251.471 202.429L298.138 202.429 298.138 171.045 251.471 171.045z" mask="url(#jtvaq93x0b)"/>
        <path fill="#C4D9ED" d="M251.471 177.145L298.138 177.145 298.138 166.944 251.471 166.944zM292.564 183.546L294.96 183.546 294.96 180.168 292.564 180.168zM288.082 183.546L290.479 183.546 290.479 180.168 288.082 180.168zM283.7 183.546L286.097 183.546 286.097 180.168 283.7 180.168zM279.546 183.546L281.942 183.546 281.942 180.168 279.546 180.168zM275.312 183.546L277.708 183.546 277.708 180.168 275.312 180.168zM271.029 183.546L273.426 183.546 273.426 180.168 271.029 180.168zM266.547 183.546L268.944 183.546 268.944 180.168 266.547 180.168zM262.165 183.546L264.562 183.546 264.562 180.168 262.165 180.168zM258.011 183.546L260.408 183.546 260.408 180.168 258.011 180.168zM253.777 183.546L256.173 183.546 256.173 180.168 253.777 180.168zM292.564 189.507L294.96 189.507 294.96 186.129 292.564 186.129zM288.082 189.507L290.479 189.507 290.479 186.129 288.082 186.129zM283.7 189.507L286.097 189.507 286.097 186.129 283.7 186.129zM279.546 189.507L281.942 189.507 281.942 186.129 279.546 186.129zM275.312 189.507L277.708 189.507 277.708 186.129 275.312 186.129zM271.029 189.507L273.426 189.507 273.426 186.129 271.029 186.129zM266.547 189.507L268.944 189.507 268.944 186.129 266.547 186.129zM262.165 189.507L264.562 189.507 264.562 186.129 262.165 186.129zM258.011 189.507L260.408 189.507 260.408 186.129 258.011 186.129zM253.777 189.507L256.173 189.507 256.173 186.129 253.777 186.129zM292.564 195.377L294.96 195.377 294.96 191.999 292.564 191.999zM288.082 195.377L290.479 195.377 290.479 191.999 288.082 191.999zM283.7 195.377L286.097 195.377 286.097 191.999 283.7 191.999zM279.546 195.377L281.942 195.377 281.942 191.999 279.546 191.999zM275.312 195.377L277.708 195.377 277.708 191.999 275.312 191.999zM271.029 195.377L273.426 195.377 273.426 191.999 271.029 191.999zM266.547 195.377L268.944 195.377 268.944 191.999 266.547 191.999zM262.165 195.377L264.562 195.377 264.562 191.999 262.165 191.999zM258.011 195.377L260.408 195.377 260.408 191.999 258.011 191.999zM253.777 195.377L256.173 195.377 256.173 191.999 253.777 191.999z" mask="url(#jtvaq93x0b)"/>
        <path fill="#ADC9E0" d="M292.564 173.294L294.578 173.294 294.578 169.81 292.564 169.81zM272.569 173.294L274.583 173.294 274.583 169.81 272.569 169.81zM256.663 173.294L258.677 173.294 258.677 169.81 256.663 169.81z" mask="url(#jtvaq93x0b)"/>
        <path fill="#D5E7F7" d="M301.069 202.429L347.736 202.429 347.736 171.045 301.069 171.045z" mask="url(#jtvaq93x0b)"/>
        <path fill="#C4D9ED" d="M301.069 177.145L347.736 177.145 347.736 166.944 301.069 166.944zM342.162 183.546L344.559 183.546 344.559 180.168 342.162 180.168zM337.68 183.546L340.077 183.546 340.077 180.168 337.68 180.168zM333.298 183.546L335.695 183.546 335.695 180.168 333.298 180.168zM329.144 183.546L331.54 183.546 331.54 180.168 329.144 180.168zM324.909 183.546L327.306 183.546 327.306 180.168 324.909 180.168zM320.627 183.546L323.024 183.546 323.024 180.168 320.627 180.168zM316.145 183.546L318.542 183.546 318.542 180.168 316.145 180.168zM311.763 183.546L314.16 183.546 314.16 180.168 311.763 180.168zM307.609 183.546L310.006 183.546 310.006 180.168 307.609 180.168zM303.375 183.546L305.772 183.546 305.772 180.168 303.375 180.168zM342.162 189.507L344.559 189.507 344.559 186.129 342.162 186.129zM337.68 189.507L340.077 189.507 340.077 186.129 337.68 186.129zM333.298 189.507L335.695 189.507 335.695 186.129 333.298 186.129zM329.144 189.507L331.54 189.507 331.54 186.129 329.144 186.129zM324.909 189.507L327.306 189.507 327.306 186.129 324.909 186.129zM320.627 189.507L323.024 189.507 323.024 186.129 320.627 186.129zM316.145 189.507L318.542 189.507 318.542 186.129 316.145 186.129zM311.763 189.507L314.16 189.507 314.16 186.129 311.763 186.129zM307.609 189.507L310.006 189.507 310.006 186.129 307.609 186.129zM303.375 189.507L305.772 189.507 305.772 186.129 303.375 186.129zM342.162 195.377L344.559 195.377 344.559 191.999 342.162 191.999zM337.68 195.377L340.077 195.377 340.077 191.999 337.68 191.999zM333.298 195.377L335.695 195.377 335.695 191.999 333.298 191.999zM329.144 195.377L331.54 195.377 331.54 191.999 329.144 191.999zM324.909 195.377L327.306 195.377 327.306 191.999 324.909 191.999zM320.627 195.377L323.024 195.377 323.024 191.999 320.627 191.999zM316.145 195.377L318.542 195.377 318.542 191.999 316.145 191.999zM311.763 195.377L314.16 195.377 314.16 191.999 311.763 191.999zM307.609 195.377L310.006 195.377 310.006 191.999 307.609 191.999zM303.375 195.377L305.772 195.377 305.772 191.999 303.375 191.999z" mask="url(#jtvaq93x0b)"/>
        <path fill="#ADC9E0" d="M342.162 173.294L344.176 173.294 344.176 169.81 342.162 169.81zM322.167 173.294L324.181 173.294 324.181 169.81 322.167 169.81zM306.261 173.294L308.275 173.294 308.275 169.81 306.261 169.81z" mask="url(#jtvaq93x0b)"/>
        <path fill="#D5E7F7" d="M398.747 202.429L445.415 202.429 445.415 171.045 398.747 171.045z" mask="url(#jtvaq93x0b)"/>
        <path fill="#C4D9ED" d="M398.747 177.145L445.415 177.145 445.415 166.944 398.747 166.944zM439.841 183.546L442.237 183.546 442.237 180.168 439.841 180.168zM435.358 183.546L437.755 183.546 437.755 180.168 435.358 180.168zM430.977 183.546L433.374 183.546 433.374 180.168 430.977 180.168zM426.822 183.546L429.219 183.546 429.219 180.168 426.822 180.168zM422.588 183.546L424.985 183.546 424.985 180.168 422.588 180.168zM418.306 183.546L420.702 183.546 420.702 180.168 418.306 180.168zM413.824 183.546L416.221 183.546 416.221 180.168 413.824 180.168zM409.442 183.546L411.839 183.546 411.839 180.168 409.442 180.168zM405.288 183.546L407.685 183.546 407.685 180.168 405.288 180.168zM401.054 183.546L403.451 183.546 403.451 180.168 401.054 180.168zM439.841 189.507L442.237 189.507 442.237 186.129 439.841 186.129zM435.358 189.507L437.755 189.507 437.755 186.129 435.358 186.129zM430.977 189.507L433.374 189.507 433.374 186.129 430.977 186.129zM426.822 189.507L429.219 189.507 429.219 186.129 426.822 186.129zM422.588 189.507L424.985 189.507 424.985 186.129 422.588 186.129zM418.306 189.507L420.702 189.507 420.702 186.129 418.306 186.129zM413.824 189.507L416.221 189.507 416.221 186.129 413.824 186.129zM409.442 189.507L411.839 189.507 411.839 186.129 409.442 186.129zM405.288 189.507L407.685 189.507 407.685 186.129 405.288 186.129zM401.054 189.507L403.451 189.507 403.451 186.129 401.054 186.129zM439.841 195.377L442.237 195.377 442.237 191.999 439.841 191.999zM435.358 195.377L437.755 195.377 437.755 191.999 435.358 191.999zM430.977 195.377L433.374 195.377 433.374 191.999 430.977 191.999zM426.822 195.377L429.219 195.377 429.219 191.999 426.822 191.999zM422.588 195.377L424.985 195.377 424.985 191.999 422.588 191.999zM418.306 195.377L420.702 195.377 420.702 191.999 418.306 191.999zM413.824 195.377L416.221 195.377 416.221 191.999 413.824 191.999zM409.442 195.377L411.839 195.377 411.839 191.999 409.442 191.999zM405.288 195.377L407.685 195.377 407.685 191.999 405.288 191.999zM401.054 195.377L403.451 195.377 403.451 191.999 401.054 191.999z" mask="url(#jtvaq93x0b)"/>
        <path fill="#ADC9E0" d="M439.841 173.294L441.855 173.294 441.855 169.81 439.841 169.81zM419.846 173.294L421.86 173.294 421.86 169.81 419.846 169.81zM403.94 173.294L405.954 173.294 405.954 169.81 403.94 169.81z" mask="url(#jtvaq93x0b)"/>
        <path fill="#415AB7" fill-opacity=".213" d="M393.78 195.596c0-.187 0-.373-.005-.56 0-1.14-.005-2.301-.01-3.266-.011-1.55-.544-2.967-1.141-4.07-.778-1.422-1.657-2.322-1.657-2.322l-1.827-1.477-6.137-4.938-.035-.076c.141-.145.266-.306.357-.49.134-.266.208-.569.208-.883v-3.538c0-1.087-.89-1.982-1.982-1.982h-.634c-.369 0-.712.106-1.01.284l-4.212-9.1c-.256-1.212-.598-2.32-.972-3.306-1.15-3.034-4.412-5.098-8.12-5.098h-31.731v.054h-41.828v45.04h5.203c.46 2.328 1.868 4.036 3.556 4.036h2.343c1.688 0 3.097-1.708 3.557-4.036h10.85c.46 2.328 1.869 4.036 3.556 4.036h2.344c1.687 0 3.096-1.708 3.555-4.036H352.373c-.08-.463-.117-.942-.117-1.438 0-.036.01-.068.01-.103l.107 1.541h1.117c.46 2.328 1.869 4.036 3.556 4.036h2.344c1.688 0 3.096-1.708 3.556-4.036h17.493c.46 2.328 1.87 4.036 3.557 4.036h2.344c1.696 0 3.112-1.726 3.564-4.075 2.171-.197 3.881-2.005 3.876-4.233" mask="url(#jtvaq93x0b)"/>
        <path fill="#29429E" d="M331.489 124.14v9.324c0 .829-.197 1.629-.548 2.331-.856 1.714-2.64 2.893-4.676 2.893h-1.671c-2.865 0-5.224-2.345-5.224-5.224v-9.324c0-.983.28-1.896.758-2.683v-.014c.927-1.516 2.584-2.527 4.466-2.527h1.67c2.88 0 5.225 2.36 5.225 5.224" mask="url(#jtvaq93x0b)"/>
        <path fill="#A8302D" d="M330.941 135.795c-.856 1.714-2.64 2.893-4.676 2.893h-1.671c-2.865 0-5.224-2.345-5.224-5.224v-9.324c0-.983.28-1.896.758-2.683.099.576 2.317 13.37 10.813 14.338" mask="url(#jtvaq93x0b)"/>
        <path fill="#415AB7" d="M248.671 192.387L274.494 192.387 274.494 166.325 247.555 166.325zM330.096 137.296l-126.865 3.129v-66.9h83.308c7.942 0 15.215 4.446 18.836 11.514l5.452 10.64 19.269 41.617z" mask="url(#jtvaq93x0b)"/>
        <path fill="#911A20" d="M258.025 188.147c0 7.075 3.65 14.878 3.65 14.878h6.178c5.427 0 9.827-6.661 9.827-14.878s-10.578-14.878-16.005-14.878c-5.428 0-3.65 6.661-3.65 14.878" mask="url(#jtvaq93x0b)"/>
        <path fill="#E0141F" d="M251.847 188.147c0 8.217 4.4 14.878 9.828 14.878 5.427 0 9.827-6.661 9.827-14.878s-4.4-14.878-9.827-14.878c-5.428 0-9.828 6.661-9.828 14.878" mask="url(#jtvaq93x0b)"/>
        <path fill="#AD1B23" d="M254.396 188.147c0 6.19 3.314 11.206 7.403 11.206 4.088 0 7.402-5.017 7.402-11.206 0-6.19-3.314-11.207-7.402-11.207-4.089 0-7.403 5.018-7.403 11.207" mask="url(#jtvaq93x0b)"/>
        <path fill="#911A20" d="M329.058 188.147c0 7.075 3.65 14.878 3.65 14.878h6.178c5.427 0 9.827-6.661 9.827-14.878s-10.578-14.878-16.005-14.878c-5.428 0-3.65 6.661-3.65 14.878" mask="url(#jtvaq93x0b)"/>
        <path fill="#E0141F" d="M322.88 188.147c0 8.217 4.4 14.878 9.828 14.878 5.427 0 9.827-6.661 9.827-14.878s-4.4-14.878-9.827-14.878c-5.428 0-9.827 6.661-9.827 14.878" mask="url(#jtvaq93x0b)"/>
        <path fill="#AD1B23" d="M325.43 188.147c0 6.19 3.314 11.206 7.402 11.206s7.402-5.017 7.402-11.206c0-6.19-3.314-11.207-7.402-11.207s-7.402 5.018-7.402 11.207" mask="url(#jtvaq93x0b)"/>
        <path fill="#911A20" d="M165.938 188.147c0 7.075 3.65 14.878 3.65 14.878h6.177c5.427 0 9.827-6.661 9.827-14.878s-10.578-14.878-16.005-14.878c-5.428 0-3.65 6.661-3.65 14.878" mask="url(#jtvaq93x0b)"/>
        <path fill="#E0141F" d="M159.76 188.147c0 8.217 4.4 14.878 9.827 14.878s9.827-6.661 9.827-14.878-4.4-14.878-9.827-14.878-9.827 6.661-9.827 14.878" mask="url(#jtvaq93x0b)"/>
        <path fill="#AD1B23" d="M162.309 188.147c0 6.19 3.314 11.206 7.402 11.206s7.402-5.017 7.402-11.206c0-6.19-3.314-11.207-7.402-11.207s-7.402 5.018-7.402 11.207" mask="url(#jtvaq93x0b)"/>
        <path fill="#415AB7" d="M358.498 181.125c.014 6.22-5.028 11.262-11.234 11.262h-72.77c.21-1.221.323-2.485.323-3.791 0-9.62-5.771-17.427-12.877-17.427-7.12 0-12.891 7.807-12.891 17.427 0 1.306.098 2.57.309 3.791h-42.522s-1.713-18.985-1.502-28.506c.168-8.285.168-24.519-.323-28.479 0-.59 41.004-.66 51.354-.702 1.404-.014 2.247-.014 2.331-.014l.14.098.155.112c1.91 1.334 12.61 8.833 19.253 13.229 5.856 3.861 49.079 5.434 66.029 5.912 4.212.112 6.81.154 6.81.154s2.317 2.373 4.368 6.123c1.572 2.907 2.976 6.642 3.005 10.728.014 2.542.028 5.603.028 8.609.014.491.014.983.014 1.474" mask="url(#jtvaq93x0b)"/>
        <path fill="#A2C2DD" d="M319.866 134.686h-57.014c-1.32 0-2.513-.772-3.06-1.966l-14.114-31.4c-.463-1.025.295-2.19 1.419-2.19h60.145c1.32 0 2.527.786 3.061 2.008l10.11 23.1 2.528 5.772c.955 2.204-.66 4.676-3.075 4.676" mask="url(#jtvaq93x0b)"/>
        <path fill="#29429E" d="M293.311 179.65c-.014.984-.056 1.91-.112 2.74-.407 5.462-5.898 9.997-5.898 9.997h-12.807c.21-1.221.323-2.485.323-3.791 0-3.272-.674-6.333-1.826-8.946-2.26-5.083-6.361-8.481-11.051-8.481-4.705 0-8.805 3.398-11.066 8.481-1.151 2.613-1.825 5.674-1.825 8.946 0 1.306.098 2.57.309 3.791h-46.13V73.53h37.03V97.12s11.108 26.092 16.107 37.579c1.236 2.864 2.106 4.816 2.331 5.238 1.11 2.12 26.92 15.18 31.189 19.028 2.373 2.134 3.553 13.228 3.426 20.684" mask="url(#jtvaq93x0b)"/>
        <path fill="#A2C2DD" d="M240.672 104.778l12.144 29.913h-20.838s-4.274-.716-4.822-9.452c-.585-9.325-.584-25.42-.584-25.42l9.146-.043c3.487.526 4.033 2.44 4.954 5.002" mask="url(#jtvaq93x0b)"/>
        <path fill="#415AB7" d="M351.083 154.191L283.51 154.191 258.836 134.784 258.696 134.686 326.859 134.686 346.266 150.301z" mask="url(#jtvaq93x0b)"/>
        <path fill="#C4D9ED" d="M355.45 160.314c-.393.646-.898 1.067-1.446 1.165l-9.479 1.756c-.8.154-1.418-1.236-1.207-2.668l.926-6.376.029-.154.182-1.306c.169-1.124.66-1.98 1.264-2.22l.547-.21 4.817 3.89s2.317 2.373 4.368 6.123" mask="url(#jtvaq93x0b)"/>
        <path fill="#A8302D" d="M292.258 165.594l-6.108-.604c-2.135-.21-3.862-1.812-4.241-3.918l-1.405-7.723c-.028-.127-.042-.24-.028-.365 4.354 2.499 8.019 4.732 9.409 5.982 1.011.913 1.811 3.44 2.373 6.628" mask="url(#jtvaq93x0b)"/>
        <path fill="#C4D9ED" d="M303.857 166.745l-11.585-1.15h-.014l-6.108-.605c-2.135-.21-3.862-1.812-4.241-3.918l-1.405-7.723c-.028-.127-.042-.24-.028-.365v-.015c-.07-1.629 1.419-2.948 3.09-2.612l18.045 3.666c1.151.239 2.064 1.095 2.373 2.218l2.12 7.836c.394 1.433-.772 2.823-2.247 2.668" mask="url(#jtvaq93x0b)"/>
        <path fill="#415AB7" d="M310.832 95.679h-70.397s-.272-4.505-2.039-9.65c-1.572-4.542-4.29-9.61-9.047-12.502h57.525c9.377 0 17.687 5.009 20.987 12.503.156.31.291.62.408.932.99 2.6 1.883 5.513 2.563 8.717" mask="url(#jtvaq93x0b)"/>
        <path fill="#A2C2DD" d="M292.272 165.594l-6.122-.604c-2.135-.21-3.862-1.812-4.241-3.918l-1.405-7.723c-.028-.127-.042-.253-.028-.38 4.354 2.514 8.019 4.747 9.409 5.997 1.011.913 1.811 3.44 2.387 6.628" mask="url(#jtvaq93x0b)"/>
        <path fill="#415AB7" d="M358.498 181.125c.014 6.22-5.266 11.262-11.782 11.262h-72.222c.21-1.221.323-2.485.323-3.791 0-3.272-.674-6.333-1.826-8.945h85.493c.014.491.014.983.014 1.474" mask="url(#jtvaq93x0b)"/>
        <path fill="#647BD0" d="M249.049 188.596c0 1.306.098 2.57.309 3.791h-46.13V179.65h47.646c-1.151 2.613-1.825 5.674-1.825 8.946" mask="url(#jtvaq93x0b)"/>
        <path fill="#29429E" d="M310.922 154.74h27.633c.883 0 1.558 1.19 1.423 2.51l-.981 9.603c-.144 1.413-.948 2.455-1.893 2.455h-22.766c-1.46 0-2.748-1.444-3.172-3.557l-1.64-8.164c-.284-1.417.417-2.847 1.396-2.847" mask="url(#jtvaq93x0b)"/>
        <path fill="#C4D9ED" d="M320.414 124.238c-32.594-1.671-54.64-19.112-61.297-25.108h48.125c1.32 0 2.528.786 3.061 2.008l10.11 23.1z" mask="url(#jtvaq93x0b)"/>
        <path fill="#415AB7" d="M92.982 192.396L216.264 192.396 216.264 73.525 92.982 73.525zM246.636 119.331s1.054 12.09-4.914 15.4h11.15l-6.236-15.4z" mask="url(#jtvaq93x0b)"/>
        <path fill="#29429E" d="M248.274 127.422s-2.518-1.792-2.734-3.277v8.455h3.295l-.561-5.178z" mask="url(#jtvaq93x0b)"/>
        <path fill="#415AB7" d="M245.538 124.14v9.324c0 .829-.197 1.629-.548 2.331-.856 1.714-2.64 2.893-4.676 2.893h-1.671c-2.865 0-5.224-2.345-5.224-5.224v-9.324c0-.983.28-1.896.758-2.683v-.014c.927-1.516 2.584-2.527 4.466-2.527h1.67c2.88 0 5.225 2.36 5.225 5.224" mask="url(#jtvaq93x0b)"/>
        <path fill="#4E68C9" d="M244.99 135.795c-.856 1.714-2.64 2.893-4.676 2.893h-1.671c-2.865 0-5.224-2.345-5.224-5.224v-9.324c0-.983.28-1.896.758-2.683.099.576 2.317 13.37 10.813 14.338" mask="url(#jtvaq93x0b)"/>
        <path fill="#29429E" d="M133.247 192.396h-30.325c-.64-2.738-2.57-22.23 14.425-22.23 15.444 0 16.58 17.784 15.9 22.23" mask="url(#jtvaq93x0b)"/>
        <path fill="#911A20" d="M112.415 188.147c0 7.075 3.65 14.878 3.65 14.878h6.177c5.428 0 9.827-6.661 9.827-14.878s-10.577-14.878-16.005-14.878c-5.427 0-3.65 6.661-3.65 14.878" mask="url(#jtvaq93x0b)"/>
        <path fill="#E0141F" d="M106.237 188.147c0 8.217 4.4 14.878 9.827 14.878 5.428 0 9.828-6.661 9.828-14.878s-4.4-14.878-9.828-14.878c-5.427 0-9.827 6.661-9.827 14.878" mask="url(#jtvaq93x0b)"/>
        <path fill="#AD1B23" d="M108.786 188.147c0 6.19 3.314 11.206 7.402 11.206 4.089 0 7.403-5.017 7.403-11.206 0-6.19-3.314-11.207-7.403-11.207-4.088 0-7.402 5.018-7.402 11.207" mask="url(#jtvaq93x0b)"/>
        <path fill="#29429E" d="M310.832 95.679h-70.397s-.272-4.505-2.039-9.65h69.465c.156.311.291.622.408.933.99 2.6 1.883 5.513 2.563 8.717" mask="url(#jtvaq93x0b)"/>
        <path fill="#E0141F" d="M223.028 37.557c-5.945 0-10.764-4.819-10.764-10.763 0-5.945 4.82-10.764 10.764-10.764 5.945 0 10.763 4.819 10.763 10.764 0 5.944-4.818 10.763-10.763 10.763m0-33.557C210.31 4 200 14.31 200 27.028c0 12.717 23.028 40.992 23.028 40.992s23.027-28.275 23.027-40.992C246.055 14.31 235.745 4 223.028 4" mask="url(#jtvaq93x0b)"/>
        <path fill="#415AB7" fill-opacity=".173" d="M468.484 203.293s-23.88.039-60.302.117c-.543-.234-.834-.37-.834-.37s4.115-22.52 25.471-27.354 21.608-25.472 34.946-29.588c10.97-3.378 20.774 1.087 27.433-.058 10.523 33.296-26.714 57.253-26.714 57.253" mask="url(#jtvaq93x0b)" opacity=".861"/>
        <path fill="#415AB7" fill-opacity=".173" d="M4.96 202.6c-.543-.233-.834-.369-.834-.369s4.116-22.52 25.472-27.355c21.356-4.834 30.112.879 43.45-3.237 10.97-3.378 17.017-17.494 23.676-18.64-5.407 30.861-31.462 49.485-31.462 49.485s-23.88.038-60.301.116z" mask="url(#jtvaq93x0b)" opacity=".418" transform="matrix(-1 0 0 1 100.85 0)"/>
        <path fill="#7A8CCF" d="M494.022 204.914H11.205c-.333 0-.606-.272-.606-.606v-.66c0-.333.273-.606.606-.606h482.817c.333 0 .606.273.606.607v.66c0 .333-.273.605-.606.605" mask="url(#jtvaq93x0b)"/>
    </g>
</svg>
