<svg xmlns="http://www.w3.org/2000/svg" width="56" height="56" viewBox="0 0 56 56">
    <g fill="none" fill-rule="evenodd">
        <path fill="#415AB7" fill-rule="nonzero" d="M46.837 20.364v24.973c-.003.835-.679 1.51-1.514 1.513h-34.81c-.834-.002-1.51-.678-1.513-1.513V20.364h37.837z"/>
        <path fill="#2E48A6" fill-rule="nonzero" d="M31.702 14.311L46.837 14.311 46.837 20.364 31.702 20.364z"/>
        <path fill="#415AB7" fill-rule="nonzero" d="M42.743 8.174l4.094 6.137H9l4.094-6.137c.278-.422.75-.676 1.256-.674h27.137c.505-.002.977.252 1.256.674z"/>
        <path fill="#2E48A6" fill-rule="nonzero" d="M9 14.311L24.135 14.311 24.135 20.364 9 20.364z"/>
        <path fill="#E0EBF7" fill-rule="nonzero" d="M31.702 20.364L31.702 26.418 27.918 23.391 24.135 26.418 24.135 20.364 24.135 14.311 31.702 14.311z"/>
        <path fill="#8BA0F1" d="M46.86 33.002L41.393 31.431 39.199 33.445 35.284 31.385 31.662 35.459 25.471 32.55 20.813 36.487 14.088 31.431 9.03 36.342 14.088 34.055 20.955 39.511 25.236 36.029 32.28 40.194 35.547 36.929 38.659 38.329 41.652 34.597 46.79 36.536z"/>
    </g>
</svg>
