<svg xmlns="http://www.w3.org/2000/svg" width="56" height="56" viewBox="0 0 56 56">
    <g fill="none" fill-rule="evenodd">
        <path fill="#415AB7" fill-rule="nonzero" d="M47.737 16.864v24.973c-.003.835-.679 1.51-1.514 1.513h-34.81c-.834-.002-1.51-.678-1.513-1.513V16.864h37.837z"/>
        <path fill="#2E48A6" fill-rule="nonzero" d="M32.602 10.811L47.737 10.811 47.737 16.864 32.602 16.864z"/>
        <path fill="#415AB7" fill-rule="nonzero" d="M43.643 4.674l4.094 6.137H9.9l4.094-6.137c.278-.422.75-.676 1.256-.674h27.137c.505-.002.977.252 1.256.674z"/>
        <path fill="#2E48A6" fill-rule="nonzero" d="M9.9 10.811L25.035 10.811 25.035 16.864 9.9 16.864z"/>
        <path fill="#E0EBF7" fill-rule="nonzero" d="M32.602 16.864L32.602 22.918 28.818 19.891 25.035 22.918 25.035 16.864 25.035 10.811 32.602 10.811z"/>
        <path fill="#8BA0F1" d="M47.76 29.502L42.293 27.931 40.099 29.945 36.184 27.885 32.562 31.959 26.371 29.05 21.713 32.987 14.988 27.931 9.93 32.842 14.988 30.555 21.855 36.011 26.136 32.529 33.18 36.694 36.447 33.429 39.559 34.829 42.552 31.097 47.69 33.036z"/>
        <g fill-rule="nonzero">
            <path fill="#E0141F" d="M21.195 3.899C18.96 1.663 15.752.209 12.373.209c-2.905 0-5.75 1.068-7.948 2.96L3.35 1.376c-.158-.262-.464-.393-.762-.336-.3.06-.529.303-.573.606L.994 8.794c-.07.483.35.884.816.817l7.149-1.02c.303-.044.545-.273.606-.573.06-.3-.075-.605-.337-.762L7.524 6.233c2.33-1.825 4.774-1.665 4.919-1.69 2.698 0 4.49 1.224 5.519 2.253 1.508 1.508 2.405 3.635 2.4 5.689 0 .409.33.724.721.724h2.89c.397 0 .72-.322.722-.72.012-3.318-1.198-6.289-3.5-8.59z" transform="translate(17 29)"/>
            <path fill="#FF747C" d="M22.93 15.465l-7.149 1.021c-.303.044-.546.272-.606.572-.061.3.074.605.337.762l1.698 1.02c-1.385 1.085-3.155 1.692-4.89 1.687-2.72.036-4.511-1.221-5.544-2.253-1.508-1.508-2.405-3.635-2.4-5.689 0-.41-.33-.724-.721-.724H.766c-.398 0-.72.322-.722.72-.013 3.318 1.197 6.289 3.5 8.59 2.22 2.222 5.227 3.604 8.82 3.69 2.907 0 5.75-1.068 7.948-2.96l1.079 1.8c.158.262.462.395.761.336.3-.06.53-.303.573-.606l1.021-7.149c.07-.483-.354-.889-.816-.817z" transform="translate(17 29)"/>
        </g>
    </g>
</svg>
