<svg xmlns="http://www.w3.org/2000/svg" width="24" height="24" viewBox="0 0 24 24">
    <g fill="#2F3137" fill-rule="evenodd">
        <path fill-rule="nonzero" d="M6.86 1.9c-.375 0-.679.304-.679.678v2.607c-.787.283-1.357 1.037-1.357 1.915 0 1.116.92 2.035 2.035 2.035 1.116 0 2.035-.92 2.035-2.035 0-.878-.57-1.632-1.356-1.915V2.578c0-.374-.304-.678-.679-.678zm10.4 0c-.375 0-.679.304-.679.678v2.607c-.787.283-1.357 1.037-1.357 1.915 0 1.116.92 2.035 2.035 2.035 1.116 0 2.035-.92 2.035-2.035 0-.878-.57-1.632-1.356-1.915V2.578c0-.374-.304-.678-.679-.678zM3.693 3.256c-1.37 0-2.494 1.125-2.494 2.495v14.003c0 1.37 1.124 2.494 2.494 2.494H20.41c1.37 0 2.494-1.124 2.494-2.494V5.75c0-1.37-1.124-2.495-2.494-2.495h-1.35c-.357-.005-.684.32-.684.679 0 .358.327.683.685.678h1.35c.64 0 1.137.497 1.137 1.138v3.836H2.557V5.751c0-.64.497-1.138 1.137-1.138h1.35c.358.005.685-.32.685-.678 0-.359-.327-.684-.686-.679H3.694zm4.967 0c-.375 0-.678.304-.678.679 0 .374.303.678.678.678h6.782c.375 0 .679-.304.679-.678 0-.375-.304-.678-.679-.678H8.661zM6.859 6.423c.383 0 .679.295.679.678 0 .383-.296.678-.679.678-.382 0-.678-.295-.678-.678 0-.383.296-.678.678-.678zm10.4 0c.383 0 .679.295.679.678 0 .383-.296.678-.679.678-.382 0-.678-.295-.678-.678 0-.383.296-.678.678-.678zM2.557 10.943h18.99v8.81c0 .641-.496 1.138-1.137 1.138H3.694c-.64 0-1.137-.497-1.137-1.137v-8.81z"/>
        <circle cx="7" cy="14" r="1"/>
        <circle cx="7.023" cy="17.286" r="1"/>
        <circle cx="12.209" cy="14.057" r="1"/>
        <circle cx="12.232" cy="17.343" r="1"/>
        <circle cx="17.328" cy="14.059" r="1"/>
        <circle cx="17.351" cy="17.345" r="1"/>
    </g>
</svg>
