<svg xmlns="http://www.w3.org/2000/svg" width="24" height="24" viewBox="0 0 24 24">
    <path fill="#2F3137" d="M22.698 6.215c-.004-.068-.008-.136-.033-.203-.014-.039-.04-.065-.062-.1-.015-.023-.025-.045-.041-.066-.074-.097-.166-.17-.276-.213-.004-.002-.005-.005-.01-.007l-10.6-3.974c-.16-.062-.336-.058-.492.01L1.908 5.635c-.01.004-.013.015-.022.019-.092.044-.169.111-.232.195-.019.024-.035.045-.05.071-.014.023-.034.039-.044.064-.036.085-.053.172-.053.26V18.17c0 .265.157.505.401.61l9.276 3.975c.082.035.17.053.26.053.08 0 .158-.014.234-.042l.024-.01h.001l10.575-3.965c.259-.097.43-.345.43-.62V6.244c0-.012-.01-.02-.01-.03zM10.782 21.14l-7.95-3.407V7.251l7.95 3.406V21.14zm.678-11.634L3.852 6.245l7.608-3.26 8.698 3.26-2.074.778-3.718-1.666c-.188-.085-.402-.075-.581.023l-2.599 1.103c-.245.104-.404.348-.404.614 0 .268.162.51.41.612l2.411.995-2.143.802zm4.622-.318l1.325-.497v3.23l-1.325.496v-3.23zm-.66-1.167l-2.265-.935.938-.398 2.226.996-.899.337zm5.96 9.69l-9.275 3.478v-10.51l2.65-.994v3.689c0 .217.108.42.285.544.113.079.244.118.378.118.078 0 .157-.014.233-.042l2.65-.994c.258-.098.43-.344.43-.62V8.194l2.65-.994v10.51z"/>
</svg>
