<svg xmlns="http://www.w3.org/2000/svg" width="24" height="24" viewBox="0 0 24 24">
    <path fill="#2F3137" d="M12 1.25c5.927 0 10.75 4.822 10.75 10.75S17.928 22.75 12 22.75C6.073 22.75 1.25 17.928 1.25 12S6.073 1.25 12 1.25zm0 1.57c-5.062 0-9.18 4.118-9.18 9.18 0 5.062 4.118 9.18 9.18 9.18 5.062 0 9.18-4.118 9.18-9.18 0-5.062-4.118-9.18-9.18-9.18zm-.523 3.687c.433 0 .785.352.785.785V12h3.4c.433 0 .784.351.784.785 0 .433-.35.784-.784.784h-4.185c-.433 0-.785-.35-.785-.784V7.292c0-.433.352-.785.785-.785z"/>
</svg>
