<svg xmlns="http://www.w3.org/2000/svg" width="24" height="24" viewBox="0 0 24 24">
    <path fill="#2F3137" fill-rule="evenodd" d="M14.897 7.143H3.855l8.833-4.416 2.209 4.416zm.738-4.416l2.209 4.416h-1.536l-1.902-3.804 1.23-.612zm4.072 2.731v1.685h-.453l-.842-1.685h1.295zm1.474 2.946v3.16h-3.053c-1.567 0-2.841 1.275-2.841 2.84 0 1.567 1.274 2.842 2.84 2.842h3.054v3.159H2.655c-.464 0-.842-.378-.842-.842V8.219l.142.05c.248.09.484.135.7.135h18.526zm1.474 4.421v3.16h-4.527c-.87 0-1.58-.708-1.58-1.58 0-.871.71-1.58 1.58-1.58h4.527zm-20-7.367h1.75L1.919 6.701l-.041-.111c-.03-.086-.065-.182-.065-.29 0-.464.378-.842.842-.842zm4.248-1.262H2.655C1.495 4.196.552 5.14.552 6.3v13.263c0 1.159.943 2.104 2.103 2.104h19.156c.348 0 .632-.284.632-.632v-3.79h.842c.349 0 .631-.282.631-.63v-4.42c0-.349-.282-.632-.631-.632h-.842v-3.79c0-.347-.284-.63-.632-.63h-.842V4.827c0-.348-.283-.63-.631-.63H17.78l-1.298-2.6c-.156-.312-.536-.44-.848-.282l-1.791.897-.309-.614c-.155-.31-.536-.437-.846-.282l-5.785 2.88z"/>
</svg>
