<svg xmlns="http://www.w3.org/2000/svg" width="24" height="24" viewBox="0 0 24 24">
    <path fill="#415AB7" d="M15.28 1.66c.031 0 .062.004.092.012.008.001.014.005.022.007.027.008.054.02.08.033l.026.016c.029.019.056.04.08.067l.003.003 3.967 4.531c.065.074.095.167.096.262.002.015.004.03.004.044V9.02h.494c.637 0 1.153.516 1.153 1.153v5.997c0 .637-.516 1.153-1.153 1.153h-.494v4.105c0 .445-.362.807-.807.807H5.531c-.445 0-.807-.362-.807-.807v-4.105H4.23c-.637 0-1.153-.516-1.153-1.153v-5.997c0-.637.516-1.153 1.153-1.153h.494V2.467c0-.445.361-.807.807-.807zm3.563 15.662H5.531v3.887h13.312v-3.887zM11.95 10.29c-.689 0-1.342.045-1.842.125v5.917c.34.045.84.09 1.546.09 1.18 0 2.145-.25 2.78-.778.581-.492 1.001-1.287 1.001-2.44 0-1.064-.393-1.806-1.019-2.27-.58-.438-1.323-.644-2.466-.644zm-5.194 0c-.832 0-1.422.054-1.842.125v5.944h1.35v-2.154c.125.018.286.027.464.027.805 0 1.493-.196 1.958-.635.358-.339.554-.84.554-1.43s-.259-1.09-.643-1.394c-.402-.322-1.001-.483-1.841-.483zm13.256.045H16.33v6.024h1.367v-2.422h2.163v-1.108h-2.163V11.45h2.315v-1.117zm-7.92 1.001c1.171 0 1.904.661 1.895 1.913 0 1.44-.804 2.118-2.037 2.11-.17 0-.358 0-.474-.028V11.39c.116-.027.312-.054.617-.054zm-5.265-.018c.679 0 1.064.33 1.064.885 0 .617-.447.983-1.171.983-.197 0-.34-.009-.456-.035v-1.78c.099-.026.286-.053.563-.053zm8.05-8.85H5.53v6.552h13.312V7H15.28c-.222 0-.403-.181-.403-.404V2.467z"/>
</svg>
