<svg xmlns="http://www.w3.org/2000/svg" width="24" height="24" viewBox="0 0 24 24">
    <g fill="#415AB7">
        <path d="M14.764 3.477C13.237 1.267 10.817 0 8.125 0S3.014 1.268 1.487 3.477C-.033 5.676-.383 8.46.547 10.92c.248.671.644 1.324 1.172 1.935l5.874 6.9c.133.156.327.246.532.246.205 0 .4-.09.533-.246l5.872-6.898c.53-.615.926-1.267 1.172-1.933.932-2.464.581-5.247-.938-7.446zm-.371 6.956c-.19.514-.501 1.022-.923 1.511l-.003.004-5.342 6.274-5.345-6.278c-.421-.488-.732-.996-.924-1.515-.769-2.034-.477-4.336.781-6.156C3.9 2.446 5.9 1.399 8.125 1.399c2.226 0 4.226 1.047 5.488 2.874 1.258 1.82 1.55 4.122.78 6.16z" transform="translate(3.5 2)"/>
        <path d="M8.125 4.15c-2.159 0-3.916 1.756-3.916 3.915 0 2.16 1.757 3.916 3.916 3.916 2.16 0 3.916-1.756 3.916-3.916 0-2.159-1.757-3.916-3.916-3.916zm0 6.433c-1.388 0-2.517-1.13-2.517-2.518s1.13-2.517 2.517-2.517c1.388 0 2.518 1.13 2.518 2.517 0 1.388-1.13 2.518-2.518 2.518z" transform="translate(3.5 2)"/>
    </g>
</svg>
