<svg xmlns="http://www.w3.org/2000/svg" width="64" height="64" viewBox="0 0 64 64">
    <g fill="none">
        <path fill="#E0141F" d="M13.956 38.122L49.581 38.122 49.581 42.358 13.956 42.358z" transform="translate(1)"/>
        <path fill="#E0141F" d="M-12.293 12.376L16.612 12.376 16.612 16.612 -12.293 16.612z" transform="translate(1) rotate(90 -5.969 33.17)"/>
        <path fill="#E0141F" d="M-12.268 12.376L16.637 12.376 16.637 16.612 -12.268 16.612z" transform="translate(1) rotate(90 13.105 52.22)"/>
        <path fill="#E6E6E6" d="M8.472 60.085v-4.027c0-.548.444-.993.992-.993h6.486c.549 0 .993.445.993.993v4.027H8.472z" transform="translate(1)"/>
        <path fill="#E0141F" d="M57.567 27.533L36.004 27.533 27.533 27.533 5.97 27.533 10.704 23.297 27.533 23.297 29.65 21.179 29.65 5.308 33.886 5.308 33.886 21.179 36.004 23.297 52.834 23.297z" transform="translate(1)"/>
        <g>
            <g>
                <path fill="#E6E6E6" d="M15.456 6.412v.383H1.024v-.383c-.547 0-.99-.458-.99-1.023V1.081c0-.565.443-1.023.99-1.023h14.432c.547 0 .99.458.99 1.023v4.308c0 .565-.443 1.023-.99 1.023z" transform="translate(1) translate(38.097 46.536) translate(2.11)"/>
                <path fill="#CDCFD4" d="M15.496.058h-2.94c.564 0 1.022.458 1.022 1.023v4.308c0 .565-.458 1.023-1.022 1.023v.383h2.94v-.383c.565 0 1.023-.458 1.023-1.023V1.08c0-.565-.458-1.023-1.023-1.023z" transform="translate(1) translate(38.097 46.536) translate(2.11)"/>
                <g fill="#788EDF">
                    <path d="M.084.058v6.354c0 .136.028.266.08.383H1.92c.051-.117.08-.247.08-.383V.058H.084zM8.555.058v6.354c0 .136.029.266.08.383h1.757c.052-.117.08-.247.08-.383V.058H8.556z" transform="translate(1) translate(38.097 46.536) translate(2.11) translate(3.226)"/>
                </g>
            </g>
            <g>
                <path fill="#E2DFE2" d="M19.812 6.436v.384H1.03v-.384C.474 6.436.025 5.98.025 5.414V1.105C.025.541.475.083 1.029.083h18.783c.555 0 1.004.458 1.004 1.022v4.309c0 .565-.449 1.022-1.004 1.022z" transform="translate(1) translate(38.097 46.536) translate(0 6.329)"/>
                <g fill="#788EDF">
                    <path d="M.075.083v6.353c0 .137.03.267.08.384h1.758c.05-.118.08-.247.08-.384V.083H.075zM12.783.083v6.353c0 .137.029.267.08.384h1.757c.051-.118.08-.247.08-.384V.083h-1.917z" transform="translate(1) translate(38.097 46.536) translate(0 6.329) translate(3.226)"/>
                </g>
            </g>
        </g>
        <path fill="#788EDF" d="M35.011 29.65h-6.486c-.548 0-.992-.444-.992-.992v-6.486c0-.549.444-.993.992-.993h6.486c.549 0 .993.444.993.993v6.486c0 .548-.444.992-.993.992z" transform="translate(1)"/>
        <path fill="#FFF" d="M32.033 26.373h-.53c-.53 0-.958-.429-.958-.958 0-.53.43-.959.959-.959h.53c.529 0 .958.43.958.959 0 .53-.43.958-.959.958z" transform="translate(1)"/>
        <path fill="#788EDF" d="M58.28 28.232L32.461 5.864c-.398-.345-.99-.345-1.387 0L3.14 30.069c-.442.383-1.111.336-1.494-.106l-1.387-1.6c-.383-.443-.336-1.112.106-1.495L31.075.258c.398-.344.989-.344 1.387 0l28.591 24.773c.442.383.49 1.052.107 1.494l-1.387 1.6c-.383.442-1.052.49-1.494.107z" transform="translate(1)"/>
        <path fill="#415AB7" d="M61.054 25.031L32.462.259c-.398-.345-.99-.345-1.387 0l-.777.673 27.815 24.1c.442.382.49 1.051.107 1.493l-.82.945.88.762c.441.383 1.11.335 1.493-.107l1.387-1.6c.383-.442.335-1.111-.106-1.494zM34.981 21.179h-2.94c.565 0 1.023.458 1.023 1.023v6.426c0 .565-.458 1.023-1.023 1.023h2.94c.565 0 1.023-.458 1.023-1.023v-6.426c0-.565-.458-1.023-1.023-1.023z" transform="translate(1)"/>
        <path fill="#D3CED5" d="M15.92 55.065h-2.94c.565 0 1.023.458 1.023 1.023v3.997h2.94v-3.997c0-.565-.458-1.023-1.023-1.023z" transform="translate(1)"/>
        <path fill="#CDCFD4" d="M60.604 63.758H4.157c-.503 0-.91-.444-.91-.992v-2.25c0-.549.407-.993.91-.993h56.447c.503 0 .91.444.91.992v2.25c0 .549-.407.993-.91.993z" transform="translate(1)"/>
    </g>
</svg>
