<svg xmlns="http://www.w3.org/2000/svg" xmlns:xlink="http://www.w3.org/1999/xlink" width="624" height="328" viewBox="0 0 624 328">
    <defs>
        <linearGradient id="avx5yfafib" x1="15.155%" x2="99.166%" y1="65.897%" y2="38.21%">
            <stop offset="0%" stop-color="#DAE6FD"/>
            <stop offset="100%" stop-color="#E6F2FF"/>
        </linearGradient>
        <linearGradient id="okly28wmec" x1="45.795%" x2="50%" y1="50%" y2="11.432%">
            <stop offset="0%" stop-color="#D1DFF6"/>
            <stop offset="100%" stop-color="#FFF"/>
        </linearGradient>
        <linearGradient id="4c6ym9rdge" x1="5.991%" x2="108.941%" y1="48.625%" y2="46.23%">
            <stop offset="0%" stop-color="#FFF" stop-opacity=".909"/>
            <stop offset="100%" stop-color="#C3D7FF" stop-opacity=".44"/>
            <stop offset="100%" stop-color="#C3D7FF" stop-opacity=".44"/>
        </linearGradient>
        <path id="wkzb2ujz9a" d="M35.894 0h552.212c12.48 0 17.007 1.3 21.57 3.74 4.563 2.44 8.144 6.021 10.584 10.584 2.44 4.563 3.74 9.09 3.74 21.57v256.212c0 12.48-1.3 17.007-3.74 21.57-2.44 4.563-6.021 8.144-10.584 10.584-4.563 2.44-9.09 3.74-21.57 3.74H35.894c-12.48 0-17.007-1.3-21.57-3.74-4.563-2.44-8.144-6.021-10.584-10.584-2.44-4.563-3.74-9.09-3.74-21.57V35.894c0-12.48 1.3-17.007 3.74-21.57C6.18 9.761 9.76 6.18 14.324 3.74 18.887 1.3 23.414 0 35.894 0z"/>
    </defs>
    <g fill="none" fill-rule="evenodd">
        <mask id="7xwkab72kd" fill="#fff">
            <use xlink:href="#wkzb2ujz9a"/>
        </mask>
        <use fill="url(#avx5yfafib)" opacity=".758" xlink:href="#wkzb2ujz9a"/>
        <ellipse cx="557.737" cy="305.5" stroke="url(#okly28wmec)" stroke-width="72" mask="url(#7xwkab72kd)" opacity=".465" rx="116.737" ry="115.5"/>
        <path fill="url(#4c6ym9rdge)" d="M2.134 136.583l-5.379 9.772c-6.425 11.675-4.67 26.149 4.358 35.95l126.731 137.587c10.326 11.21 26.985 13.89 40.306 6.486L656.806 54.734c7.724-4.294 10.504-14.035 6.21-21.759-3.26-5.865-9.833-9.072-16.462-8.033L21.606 122.927c-8.254 1.294-15.444 6.337-19.472 13.656z" mask="url(#7xwkab72kd)" opacity=".584"/>
    </g>
</svg>
