<svg xmlns="http://www.w3.org/2000/svg" width="64" height="64" viewBox="0 0 64 64">
    <g fill="none">
        <g transform="translate(-22 -8.5) scale(-1 1) rotate(44 -27.446 -48.298)">
            <path fill="#CDCFD4" d="M21.427 16.049L31.86 18.921 31.006 23.742 18.333 19.143z"/>
            <g>
                <path fill="#CDCFD4" d="M.169 1.736l12.829 16.981 4.576-4.657L10.2 5.388c-.032-.038-.07-.07-.111-.096L1.773.074c-.192-.12-.442-.092-.603.07l-.956.955c-.172.172-.191.444-.045.637z" transform="translate(5.016)"/>
                <path fill="#CCC" d="M11.037 21.427L13.909 31.86 18.73 31.006 14.131 18.334z" transform="translate(5.016)"/>
            </g>
            <path fill="#E6E6E6" d="M21.554 22.65c-2.422 1.87-5.8 1.634-7.924-.428L5.387 15.21c-.037-.032-.07-.07-.095-.111L.074 6.785c-.12-.192-.092-.443.07-.603l.955-.955c.171-.173.443-.192.636-.046L13.278 13.9c.261-.302.557-.583.885-.837 2.655-2.052 6.463-1.57 8.504 1.078 2.04 2.648 1.543 6.457-1.113 8.51z"/>
            <circle cx="18.333" cy="17.666" r="1.91" fill="#FFF"/>
            <path fill="#788EDF" d="M24.349 28.619l-7.62 1.297c-.26.044-.412.302-.34.574l.408 1.553c.088.331.264.638.506.887.77.788 2.528 2.759 3.093 4.838.567 2.085 6.182 10.645 10.153 16.07 1.519 2.073 4.283 2.619 6.114 1.203 1.848-1.428 2.009-4.278.352-6.272-2.875-3.46-6.974-8.502-8.595-11.018-2.611-4.053-1.9-3.87-2.22-5.14-.244-.97-.957-2.823-1.282-3.648-.093-.237-.336-.384-.57-.344z"/>
            <path fill="#415AB7" d="M37.015 48.77c-2.875-3.462-6.974-8.503-8.595-11.02-2.611-4.052-1.9-3.868-2.22-5.14-.244-.97-.957-2.822-1.282-3.647-.093-.237-.336-.384-.57-.344l-3.304.562c.423 1.07 1.56 3.933 1.786 4.832.32 1.272-.391 1.087 2.22 5.14 1.62 2.517 5.72 7.558 8.595 11.02 1.439 1.73 1.506 4.107.289 5.638.967.088 1.936-.157 2.73-.77 1.847-1.428 2.008-4.278.351-6.272z"/>
            <path fill="#FF7357" d="M28.619 24.345l1.297-7.62c.044-.259.302-.412.574-.34l1.553.409c.331.087.638.263.887.505.788.77 2.758 2.528 4.838 3.093 2.085.567 10.645 6.182 16.07 10.153 2.073 1.519 2.618 4.283 1.203 6.115-1.428 1.847-4.278 2.008-6.272.351-3.46-2.875-8.502-6.974-11.018-8.595-4.053-2.611-3.87-1.899-5.14-2.22-.97-.244-2.824-.957-3.648-1.281-.237-.094-.384-.337-.344-.57z"/>
            <path fill="#788EDF" d="M28.619 24.345l1.297-7.62c.044-.259.302-.412.574-.34l1.553.409c.331.087.638.263.887.505.788.77 2.758 2.528 4.838 3.093 2.085.567 10.645 6.182 16.07 10.153 2.073 1.519 2.618 4.283 1.203 6.115-1.428 1.847-4.278 2.008-6.272.351-3.46-2.875-8.502-6.974-11.018-8.595-4.053-2.611-3.87-1.899-5.14-2.22-.97-.244-2.824-.957-3.648-1.281-.237-.094-.384-.337-.344-.57z"/>
            <path fill="#415AB7" d="M53.837 30.545c-5.424-3.971-13.984-9.586-16.07-10.153-2.078-.565-4.049-2.323-4.837-3.093-.249-.242-.556-.418-.887-.505l-1.553-.41c-.272-.071-.53.082-.574.341l-.483 2.839 1.3.358c.33.087.638.263.886.505.789.77 2.759 2.528 4.838 3.093 2.085.567 10.645 6.182 16.07 10.153 1.223.896 1.914 2.225 1.985 3.54.191-.163.37-.347.529-.553 1.415-1.832.87-4.596-1.204-6.115z"/>
        </g>
        <g>
            <path fill="#E6E6E6" d="M51.035 48.982c-1.43 1.425-3.732 1.436-5.148.024l-24.26-24.26-6.03-6.029 5.173-5.172 6.029 6.03 6.4 6.4 17.86 17.86c1.412 1.415 1.4 3.718-.024 5.147z" transform="translate(-22 -8.5) scale(-1 1) rotate(45 -37.192 -89.243)"/>
            <path fill="#CDCFD4" d="M15.598 18.717l6.029 6.03 6.4 6.4 17.86 17.86c1.416 1.411 3.718 1.4 5.148-.025l-32.851-32.85-2.586 2.585z" transform="translate(-22 -8.5) scale(-1 1) rotate(45 -37.192 -89.243)"/>
            <path fill="#E0141F" d="M18.965 5.48l11.518-4.188L29.19 0 18.116 1.23c-4.125.46-7.97 2.307-10.904 5.241L4.637 9.045c-.172.172-.268.404-.268.647s.096.475.268.646l1.939 1.939-.646.646-2.272-.457c-.6-.12-1.22.067-1.651.5L.114 14.86l9.047 9.046 1.893-1.893c.432-.432.62-1.051.5-1.65l-.457-2.272.647-.646 1.938 1.938c.357.357.935.357 1.292 0l7.107-7.107-3.785-3.786c-.442-.442-.627-1.079-.492-1.689.136-.61.573-1.108 1.16-1.321z" transform="translate(-22 -8.5) scale(-1 1) rotate(45 -37.192 -89.243)"/>
            <path fill="#E6E6E6" d="M4.288 12.242L6.474 12.242 6.474 25.045 4.288 25.045z" transform="translate(-22 -8.5) scale(-1 1) rotate(45 -37.192 -89.243) rotate(-45 5.38 18.644)"/>
        </g>
    </g>
</svg>
