<svg xmlns="http://www.w3.org/2000/svg" width="56" height="56" viewBox="0 0 56 56">
    <g fill="none">
        <path fill="#E0141F" d="M29.389 21.9v4.048H7.471V21.9c0-2.065 1.4-3.867 3.402-4.375l.061-.016 2.033-.514 5.465-1.388 5.462 1.39 2.033.514.061.015c2 .51 3.4 2.31 3.401 4.374z" transform="translate(3 3)"/>
        <path fill="#E8BE56" d="M15.722 13.65v3.442c0 1.496 1.212 2.708 2.708 2.708 1.495 0 2.707-1.212 2.707-2.708v-3.441h-5.415z" transform="translate(3 3)"/>
        <g fill="#E8BE56">
            <path d="M3.931 1.972c0 .97-.717 1.792-1.678 1.926-.961.133-1.874-.462-2.14-1.395C-.152 1.569.31.583 1.198.19c.248-.108.516-.164.787-.164.234-.001.465.041.683.125.76.284 1.263 1.01 1.263 1.821zM14.765 1.972c0 .985-.735 1.816-1.713 1.934-.978.118-1.89-.514-2.124-1.47-.234-.958.285-1.939 1.207-2.285.218-.084.45-.126.683-.125.271 0 .54.056.788.164.705.312 1.16 1.011 1.159 1.782z" transform="translate(3 3) translate(11.028 8)"/>
        </g>
        <path fill="#FCE277" d="M20.845 3.723h-4.829c-1.495 0-2.708 1.212-2.708 2.708v4.054c-.016 1.841.956 3.55 2.547 4.475 1.592.925 3.557.925 5.149 0 1.591-.926 2.564-2.634 2.547-4.475V6.431c0-1.495-1.211-2.707-2.706-2.708z" transform="translate(3 3)"/>
        <path fill="#626F9F" d="M24.634 6.206v1.985c-.249-.108-.517-.164-.788-.164-.242 0-1.816.154-2.62-.77-.27-.336-.444-.74-.502-1.168 0 0-.502.346-1.276.766-1.449.782-3.853 1.807-5.752 1.297-.483-.131-.994-.118-1.47.039V6.206c0-3.426 2.777-6.204 6.204-6.204 3.426 0 6.204 2.778 6.204 6.204z" transform="translate(3 3)"/>
        <path fill="#415AB7" d="M37.436 14.595L40.03 14.595 40.03 20.65 37.436 20.65z" transform="translate(3 3)"/>
        <path fill="#415AB7" d="M37.436 11.135L40.03 11.135 40.03 17.19 37.436 17.19z" transform="translate(3 3) rotate(90 38.733 14.163)"/>
        <path fill="#8595D5" d="M44.389 27.822L24.867 27.822 26.02 19.461 43.236 19.461z" transform="translate(3 3)"/>
        <path fill="#8595D5" d="M2.595 25.948L47.139 25.948 47.139 49.734 2.595 49.734z" transform="translate(3 3)"/>
        <path fill="#C8D1EF" d="M44.545 34.638c-.418 0-.757-.339-.757-.756v-3.028c0-.418.339-.757.757-.757.417 0 .756.34.756.757v3.028c0 .417-.339.756-.756.756z" transform="translate(3 3)"/>
        <g fill="#415AB7">
            <path d="M2.595 12.434L47.139 12.434 47.139 17.623 2.595 17.623zM0 0L49.734 0 49.734 2.595 0 2.595z" transform="translate(3 3) translate(0 24.867)"/>
        </g>
    </g>
</svg>
