<svg xmlns="http://www.w3.org/2000/svg" width="24" height="26" viewBox="0 0 24 26">
    <path fill="#415AB7" stroke="#415AB7" stroke-width=".2" d="M16.096 2.106c.77 0 1.39.62 1.439 1.395h2.034c.273 0 .471.232.471.49h0v1.732c1.066.129 1.91 1.085 1.885 2.247h0v5.865c0 1.24-.967 2.274-2.183 2.274h0-1.24c-.273 0-.471-.233-.471-.491h0v-1.705h-.496v8.19c0 .827-.645 1.498-1.439 1.498h0-8.234c-.794 0-1.439-.671-1.439-1.498h0v-8.164h-.496v1.705c0 .232-.149.413-.372.465h0-1.34c-1.19 0-2.182-1.008-2.182-2.274h0V7.996c0-1.162.843-2.118 1.91-2.273h0V3.992c0-.285.223-.491.471-.491h2.034c.05-.775.67-1.395 1.439-1.395h0zm.521 11.807H7.39v8.164c0 .284.224.517.497.517h8.234c.273 0 .496-.233.496-.517h0v-8.164zm-1.686 6.562c.272 0 .47.233.47.491 0 .284-.222.491-.47.491h0H9.1c-.272 0-.47-.207-.47-.49 0-.285.223-.492.47-.492h0zm0-2.377c.272 0 .47.233.47.491 0 .284-.222.491-.47.491h0H9.1c-.272 0-.47-.233-.47-.49 0-.285.223-.492.47-.492h0zm0-2.403c.272 0 .47.207.47.491 0 .285-.222.491-.47.491h0H9.1c-.272 0-.47-.206-.47-.49 0-.285.223-.492.47-.492h0zm4.787-9.042H4.216c-.695 0-1.265.594-1.265 1.317h0v5.84c0 .723.57 1.317 1.265 1.317h.793v-1.705c0-.284.224-.491.472-.491h13.021c.273 0 .471.233.471.49h0v1.706h.794c.695 0 1.265-.594 1.265-1.318h0-.05V7.97c0-.723-.57-1.317-1.264-1.317h0zm-2.952.775c.315 0 .57.266.57.594 0 .328-.255.594-.57.594-.315 0-.57-.266-.57-.594 0-.328.255-.594.57-.594zm2.877.129c.248 0 .471.207.471.49 0 .285-.223.492-.47.492h0-1.415c-.272 0-.47-.207-.47-.491 0-.284.222-.491.47-.491h0zm-.52-3.1H17.56v1.24h1.562v-1.24zM16.12 3.062H7.887c-.273 0-.497.232-.497.516h0v2.119h9.227V3.578c0-.284-.223-.516-.496-.516h0zM6.448 4.457H4.885v1.24h1.563v-1.24z"/>
</svg>
