<svg xmlns="http://www.w3.org/2000/svg" xmlns:xlink="http://www.w3.org/1999/xlink" width="496" height="312" viewBox="0 0 496 312">
    <defs>
        <linearGradient id="zcigqfpmmc" x1="52.94%" x2="46.117%" y1="91.008%" y2="-.619%">
            <stop offset="0%" stop-color="#5C6D88"/>
            <stop offset="100%" stop-color="#647592"/>
        </linearGradient>
        <path id="p2wpji5z2a" d="M69.91 1.643C52.512 4.552 38.83 11.57 28.858 22.699L17.493 35.384c-1.523 1.7-2.959 3.495-4.309 5.387C3 55.046-1.244 72.69.457 93.7L48.94 88.99l11.366-12.685c-1.162-6.948-.9-12.825.786-17.632 1.455-.641 3-1.099 4.637-1.373 6.61-1.105 12.158-.107 16.64 2.995 4.484 3.102 7.204 7.517 8.162 13.247.7 4.187.206 8.007-1.482 11.46-1.688 3.454-3.917 7.055-6.688 10.803-2.772 3.748-5.79 7.707-9.058 11.878-3.267 4.171-6.148 8.957-8.643 14.358-9.909 21.45-8.716 51.925-3.583 74.613l44.252-7.399 11.365-12.685c-3.47-23.148-3.451-46.52 8.644-66.965 2.826-4.776 5.983-9.268 9.47-13.476 3.487-4.208 6.589-8.69 9.304-13.449 2.716-4.758 4.798-9.92 6.246-15.485 1.448-5.566 1.545-12.095.293-19.588-1.327-7.933-4.168-15.104-8.524-21.51-4.356-6.409-10.061-11.74-17.116-15.998-7.055-4.257-15.192-7.2-24.412-8.83C96.316.512 91.816.133 87.098.133c-5.44 0-11.17.503-17.189 1.51m32.21 194.78c-1.36 0-2.738.117-4.134.35-5.565.93-10.251 3.52-14.058 7.77l-11.366 12.685c-.714.798-1.399 1.655-2.052 2.57-4.129 5.788-5.64 11.987-4.535 18.598 1.105 6.611 4.551 11.981 10.338 16.11 5.788 4.13 11.987 5.642 18.598 4.536 4.75-.794 8.86-2.798 12.33-6.01l.028-.026c.132-.123.264-.248.394-.375l.07-.068c.12-.116.238-.234.356-.354l.078-.078c.125-.128.249-.258.372-.39l.044-.045c.13-.139.26-.28.387-.422l11.365-12.686c.716-.798 1.4-1.655 2.053-2.57 4.129-5.787 5.64-11.987 4.536-18.598-1.106-6.611-4.552-11.981-10.34-16.11-4.565-3.258-9.386-4.887-14.464-4.887"/>
    </defs>
    <g fill="none" fill-rule="evenodd">
        <path fill="#7F92B9" d="M442.67 546.954l4.392-.71c12.152-1.962 21.992-10.929 25.072-22.847l42.334-163.816c1.653-6.4-.799-13.159-6.172-17.01L161.462 94.033c-7.183-5.147-17.178-3.497-22.325 3.686-1.182 1.649-2.039 3.507-2.526 5.476l-.11.445L415.699 534.97c5.819 8.99 16.4 13.69 26.97 11.984z" opacity=".137" transform="translate(-31 -195)"/>
        <path fill="#7F92B9" d="M699.403 453.15l8.813-8.04c9.962-9.09 12.906-23.578 7.28-35.834l-88.944-193.751c-2.555-5.565-8.061-9.184-14.182-9.321L47.877 193.54c-8.834-.198-16.156 6.803-16.354 15.638-.056 2.48.466 4.941 1.525 7.186l1.564 3.313 637.117 238.81c9.495 3.558 20.183 1.497 27.674-5.337z" opacity=".145" transform="translate(-31 -195)"/>
        <g opacity=".667">
            <g transform="translate(-31 -195) translate(365 201) translate(0 .112)">
                <mask id="45p0oafgub" fill="#fff">
                    <use xlink:href="#p2wpji5z2a"/>
                </mask>
                <path d="M69.91 1.643C52.512 4.552 38.83 11.57 28.858 22.699L17.493 35.384c-1.523 1.7-2.959 3.495-4.309 5.387C3 55.046-1.244 72.69.457 93.7L48.94 88.99l11.366-12.685c-1.162-6.948-.9-12.825.786-17.632 1.455-.641 3-1.099 4.637-1.373 6.61-1.105 12.158-.107 16.64 2.995 4.484 3.102 7.204 7.517 8.162 13.247.7 4.187.206 8.007-1.482 11.46-1.688 3.454-3.917 7.055-6.688 10.803-2.772 3.748-5.79 7.707-9.058 11.878-3.267 4.171-6.148 8.957-8.643 14.358-9.909 21.45-8.716 51.925-3.583 74.613l44.252-7.399 11.365-12.685c-3.47-23.148-3.451-46.52 8.644-66.965 2.826-4.776 5.983-9.268 9.47-13.476 3.487-4.208 6.589-8.69 9.304-13.449 2.716-4.758 4.798-9.92 6.246-15.485 1.448-5.566 1.545-12.095.293-19.588-1.327-7.933-4.168-15.104-8.524-21.51-4.356-6.409-10.061-11.74-17.116-15.998-7.055-4.257-15.192-7.2-24.412-8.83C96.316.512 91.816.133 87.098.133c-5.44 0-11.17.503-17.189 1.51m32.21 194.78c-1.36 0-2.738.117-4.134.35-5.565.93-10.251 3.52-14.058 7.77l-11.366 12.685c-.714.798-1.399 1.655-2.052 2.57-4.129 5.788-5.64 11.987-4.535 18.598 1.105 6.611 4.551 11.981 10.338 16.11 5.788 4.13 11.987 5.642 18.598 4.536 4.75-.794 8.86-2.798 12.33-6.01l.028-.026c.132-.123.264-.248.394-.375l.07-.068c.12-.116.238-.234.356-.354l.078-.078c.125-.128.249-.258.372-.39l.044-.045c.13-.139.26-.28.387-.422l11.365-12.686c.716-.798 1.4-1.655 2.053-2.57 4.129-5.787 5.64-11.987 4.536-18.598-1.106-6.611-4.552-11.981-10.34-16.11-4.565-3.258-9.386-4.887-14.464-4.887" mask="url(#45p0oafgub)"/>
            </g>
            <g>
                <path d="M58.544 1.644C38.49 4.997 23.37 13.811 13.184 28.087 3 42.362-1.244 60.005.457 81.015l48.483-4.709c-1.547-9.255-.569-16.611 2.937-22.068 3.505-5.456 8.122-8.664 13.852-9.622 6.61-1.105 12.158-.107 16.64 2.995 4.484 3.101 7.204 7.517 8.162 13.246.7 4.187.206 8.008-1.482 11.462-1.688 3.453-3.917 7.054-6.688 10.802-2.772 3.748-5.79 7.707-9.058 11.878-3.267 4.171-6.148 8.957-8.643 14.358-9.909 21.45-8.716 51.924-3.583 74.613l44.252-7.399c-3.47-23.148-3.452-46.519 8.644-66.965 2.825-4.776 5.982-9.268 9.47-13.476 3.487-4.208 6.588-8.69 9.304-13.448 2.716-4.758 4.798-9.92 6.246-15.486 1.447-5.565 1.545-12.095.292-19.587-1.326-7.934-4.167-15.104-8.523-21.512-4.356-6.407-10.062-11.74-17.116-15.996C106.59 5.844 98.453 2.9 89.233 1.27 84.95.512 80.45.134 75.732.134c-5.44 0-11.17.503-17.188 1.51m28.076 195.13c-6.611 1.106-11.981 4.552-16.11 10.339-4.13 5.787-5.642 11.986-4.536 18.598 1.105 6.611 4.551 11.981 10.338 16.11 5.788 4.13 11.987 5.642 18.598 4.536 6.612-1.105 11.982-4.552 16.111-10.339 4.13-5.787 5.641-11.986 4.536-18.598-1.105-6.61-4.552-11.98-10.34-16.11-4.565-3.257-9.386-4.886-14.463-4.886-1.36 0-2.738.117-4.134.35" transform="translate(-31 -195) translate(365 201) translate(0 12.796)"/>
                <path fill="url(#zcigqfpmmc)" d="M58.544 1.644C38.49 4.997 23.37 13.811 13.184 28.087 3 42.362-1.244 60.005.457 81.015l48.483-4.709c-1.547-9.255-.569-16.611 2.937-22.068 3.505-5.456 8.122-8.664 13.852-9.622 6.61-1.105 12.158-.107 16.64 2.995 4.484 3.101 7.204 7.517 8.162 13.246.7 4.187.206 8.008-1.482 11.462-1.688 3.453-3.917 7.054-6.688 10.802-2.772 3.748-5.79 7.707-9.058 11.878-3.267 4.171-6.148 8.957-8.643 14.358-9.909 21.45-8.716 51.924-3.583 74.613l44.252-7.399c-3.47-23.148-3.452-46.519 8.644-66.965 2.825-4.776 5.982-9.268 9.47-13.476 3.487-4.208 6.588-8.69 9.304-13.448 2.716-4.758 4.798-9.92 6.246-15.486 1.447-5.565 1.545-12.095.292-19.587-1.326-7.934-4.167-15.104-8.523-21.512-4.356-6.407-10.062-11.74-17.116-15.996C106.59 5.844 98.453 2.9 89.233 1.27 84.95.512 80.45.134 75.732.134c-5.44 0-11.17.503-17.188 1.51m28.076 195.13c-6.611 1.106-11.981 4.552-16.11 10.339-4.13 5.787-5.642 11.986-4.536 18.598 1.105 6.611 4.551 11.981 10.338 16.11 5.788 4.13 11.987 5.642 18.598 4.536 6.612-1.105 11.982-4.552 16.111-10.339 4.13-5.787 5.641-11.986 4.536-18.598-1.105-6.61-4.552-11.98-10.34-16.11-4.565-3.257-9.386-4.886-14.463-4.886-1.36 0-2.738.117-4.134.35" opacity=".852" transform="translate(-31 -195) translate(365 201) translate(0 12.796)"/>
            </g>
            <g>
                <path d="M58.544 1.644C38.49 4.997 23.37 13.811 13.184 28.087 3 42.362-1.244 60.005.457 81.015l48.483-4.709c-1.547-9.255-.569-16.611 2.937-22.068 3.505-5.456 8.122-8.664 13.852-9.622 6.61-1.105 12.158-.107 16.64 2.995 4.484 3.101 7.204 7.517 8.162 13.246.7 4.187.206 8.008-1.482 11.462-1.688 3.453-3.917 7.054-6.688 10.802-2.772 3.748-5.79 7.707-9.058 11.878-3.267 4.171-6.148 8.957-8.643 14.358-9.909 21.45-8.716 51.924-3.583 74.613l44.252-7.399c-3.47-23.148-3.452-46.519 8.644-66.965 2.825-4.776 5.982-9.268 9.47-13.476 3.487-4.208 6.588-8.69 9.304-13.448 2.716-4.758 4.798-9.92 6.246-15.486 1.447-5.565 1.545-12.095.292-19.587-1.326-7.934-4.167-15.104-8.523-21.512-4.356-6.407-10.062-11.74-17.116-15.996C106.59 5.844 98.453 2.9 89.233 1.27 84.95.512 80.45.134 75.732.134c-5.44 0-11.17.503-17.188 1.51m28.076 195.13c-6.611 1.106-11.981 4.552-16.11 10.339-4.13 5.787-5.642 11.986-4.536 18.598 1.105 6.611 4.551 11.981 10.338 16.11 5.788 4.13 11.987 5.642 18.598 4.536 6.612-1.105 11.982-4.552 16.111-10.339 4.13-5.787 5.641-11.986 4.536-18.598-1.105-6.61-4.552-11.98-10.34-16.11-4.565-3.257-9.386-4.886-14.463-4.886-1.36 0-2.738.117-4.134.35" transform="translate(-31 -195) translate(365 201) translate(10.586 11.91)"/>
                <path fill="#7184A5" d="M58.544 1.644C38.49 4.997 23.37 13.811 13.184 28.087 3 42.362-1.244 60.005.457 81.015l48.483-4.709c-1.547-9.255-.569-16.611 2.937-22.068 3.505-5.456 8.122-8.664 13.852-9.622 6.61-1.105 12.158-.107 16.64 2.995 4.484 3.101 7.204 7.517 8.162 13.246.7 4.187.206 8.008-1.482 11.462-1.688 3.453-3.917 7.054-6.688 10.802-2.772 3.748-5.79 7.707-9.058 11.878-3.267 4.171-6.148 8.957-8.643 14.358-9.909 21.45-8.716 51.924-3.583 74.613l44.252-7.399c-3.47-23.148-3.452-46.519 8.644-66.965 2.825-4.776 5.982-9.268 9.47-13.476 3.487-4.208 6.588-8.69 9.304-13.448 2.716-4.758 4.798-9.92 6.246-15.486 1.447-5.565 1.545-12.095.292-19.587-1.326-7.934-4.167-15.104-8.523-21.512-4.356-6.407-10.062-11.74-17.116-15.996C106.59 5.844 98.453 2.9 89.233 1.27 84.95.512 80.45.134 75.732.134c-5.44 0-11.17.503-17.188 1.51m28.076 195.13c-6.611 1.106-11.981 4.552-16.11 10.339-4.13 5.787-5.642 11.986-4.536 18.598 1.105 6.611 4.551 11.981 10.338 16.11 5.788 4.13 11.987 5.642 18.598 4.536 6.612-1.105 11.982-4.552 16.111-10.339 4.13-5.787 5.641-11.986 4.536-18.598-1.105-6.61-4.552-11.98-10.34-16.11-4.565-3.257-9.386-4.886-14.463-4.886-1.36 0-2.738.117-4.134.35" transform="translate(-31 -195) translate(365 201) translate(10.586 11.91)"/>
            </g>
            <path fill="#637490" d="M62.147 65.75c-3.505 5.457-4.484 12.813-2.936 22.068l11.366-12.685c-1.162-6.948-.9-12.825.785-17.633-3.64 1.602-6.711 4.353-9.215 8.25" transform="translate(-31 -195) translate(365 201)"/>
        </g>
    </g>
</svg>
