<svg id="Слой_1" data-name="Слой 1" xmlns="http://www.w3.org/2000/svg" viewBox="0 0 54.61 12.78"><defs><style>.cls-1{fill:#161717;}.cls-1,.cls-2{fill-rule:evenodd;}.cls-2{fill:#e42a12;}</style></defs><path class="cls-1" d="M3.18,5.17a.72.72,0,0,0,.72.77c.38,0,3.46,0,3.58,0a.42.42,0,0,1-.11.83c-.65,0-2.08,0-2.54,0a1.89,1.89,0,0,0-1.62,1.8v1.94H8.57l.17,0A.6.6,0,0,0,9,10.38a.74.74,0,0,0-.47-1.31H4.67c0-.83.08-.84.78-.84H6.8a2.22,2.22,0,0,0,2-.65,1.88,1.88,0,0,0-1.35-3.1H3.88A.72.72,0,0,0,3.18,5.17Z"/><path class="cls-1" d="M28.55,9a1.4,1.4,0,0,1-1.32-.84,1.78,1.78,0,0,1,.3-1.9,1.44,1.44,0,0,1,2.33.49A1.56,1.56,0,0,1,28.55,9Zm-3-1.59a2.88,2.88,0,0,0,2.3,3,3.08,3.08,0,0,0,2.81-.74A2.43,2.43,0,0,0,31,9.25a3.13,3.13,0,0,0-1.2-4.6,3.25,3.25,0,0,0-2.49,0,2.88,2.88,0,0,0-.91.6A3.09,3.09,0,0,0,25.53,7.41Z"/><path class="cls-1" d="M46.6,9H45.45V7.85A3.54,3.54,0,0,1,46.91,8a.56.56,0,0,1-.31,1ZM44,10.33H46.6a2,2,0,0,0,1.85-1.14,1.89,1.89,0,0,0,0-1.61,1.72,1.72,0,0,0-.74-.77,4.57,4.57,0,0,0-2.22-.28V5.85h2.63c.06,0,.08,0,.08-.08V4.57c0-.06,0-.07-.08-.07H44Z"/><path class="cls-1" d="M13.81,9.68a.77.77,0,0,0,1.28.58.84.84,0,0,0,.26-.53V5.88h1.77V9.65a.79.79,0,0,0,.71.8.77.77,0,0,0,.82-.69V4.5H13.81Z"/><path class="cls-1" d="M35.19,7.49H34.12V5.85h1.1c.79,0,.77,1.64,0,1.64ZM32.61,4.57v5a.76.76,0,1,0,1.51.21V8.84c1,0,1.84.13,2.55-.57a2.22,2.22,0,0,0,.6-1.43,2.24,2.24,0,0,0-.49-1.64l-.12-.14a2.16,2.16,0,0,0-1.5-.56H32.69C32.63,4.5,32.61,4.51,32.61,4.57Z"/><path class="cls-1" d="M22.66,7.49h-1V5.85h1.1c.39,0,.59.41.59.81s-.22.83-.65.83ZM20.14,9.7a.75.75,0,0,0,1.48.13,6.53,6.53,0,0,0,0-1,5.31,5.31,0,0,0,2-.17,2.2,2.2,0,0,0,1.17-2.46A2,2,0,0,0,22.66,4.5H20.14Z"/><path class="cls-1" d="M40.24,6.81l.09.18c.09.18.55,1.23.56,1.33H39.62a7.19,7.19,0,0,1,.31-.76L40.16,7a1.8,1.8,0,0,0,.08-.21ZM37.59,9.68a.69.69,0,0,0,1.23.5,2.39,2.39,0,0,0,.28-.58h2.31a3.76,3.76,0,0,0,.25.54.71.71,0,0,0,.48.3.72.72,0,0,0,.78-.79,6.64,6.64,0,0,0-.54-1.33l-1.8-3.9h-.65c-.16.3-.43,1-.6,1.3,0,.11-.09.21-.15.32s-.09.21-.14.32c-.32.63-.88,1.91-1.2,2.61A1.76,1.76,0,0,0,37.59,9.68Z"/><path class="cls-1" d="M51.94,6.81l.65,1.51H51.28l.66-1.51ZM49.28,9.57a.79.79,0,0,0,.25.71.67.67,0,0,0,1-.19l.18-.38c0-.07,0-.11.1-.11H53c.09,0,.13.16.16.23a1.22,1.22,0,0,0,.14.28.68.68,0,0,0,1.25-.23c.09-.4-.08-.58-.19-.86L52.61,5.2l-.18-.39c-.06-.14-.11-.26-.18-.39H51.6l-1.46,3.2c-.1.21-.2.41-.3.64s-.21.43-.3.64A2.9,2.9,0,0,0,49.28,9.57Z"/><path class="cls-2" d="M1.51,5.44c0-.09.48-.43.55-.48L3.79,3.57l.57-.45c.25-.2,1.53-1.25,1.74-1.39a4.67,4.67,0,0,1,.58.44l3.94,3.15c.05,0,.12.07.12.14v5.81H1.51V5.44ZM0,5v7.06a.77.77,0,0,0,.81.69h10.6a.79.79,0,0,0,.84-.84V5.24a1.1,1.1,0,0,0-.12-.57,7.41,7.41,0,0,0-1.15-1C10.58,3.37,6.91.46,6.68.24a.77.77,0,0,0-1.09,0c-.87.71-1.82,1.44-2.7,2.16L.2,4.53A.72.72,0,0,0,0,5Z"/></svg>