<svg xmlns="http://www.w3.org/2000/svg" width="273" height="240" viewBox="0 0 273 240">
    <g fill="none" fill-rule="evenodd">
        <path fill="#F0F3FC" d="M0.144 239L272.144 239 272.144 0 0.144 0z" transform="translate(0 .272)"/>
        <path fill="#D5E1F2" d="M0 239.728L272 239.728 272 191.728 0 191.728z" transform="translate(0 .272)"/>
        <path fill="#C3DAFC" d="M140.548 43.939L175.853 43.939 175.853 14.828 140.548 14.828z" transform="translate(0 .272)"/>
        <path fill="#D4E4F8" d="M158.2 43.939L193.505 43.939 193.505 14.828 158.2 14.828z" transform="translate(0 .272)"/>
        <path fill="#9DC3F3" d="M140.568 36.557L146.163 36.557 145.67 34.982 146.163 33.858 140.568 33.858z" transform="translate(0 .272)"/>
        <path fill="#E3F0FF" d="M158.2 23.837L163.794 23.837 163.302 22.263 163.794 21.138 158.2 21.138z" transform="translate(0 .272)"/>
        <path fill="#9DC3F3" d="M158.2 21.138L152.606 21.138 153.099 22.712 152.606 23.837 158.2 23.837z" transform="translate(0 .272)"/>
        <path fill="#E3F0FF" d="M193.506 36.869L187.911 36.869 188.404 38.443 187.911 39.568 193.506 39.568z" transform="translate(0 .272)"/>
        <path fill="#FFF" d="M164.735 20.754L174.894 20.754 174.894 16.802 164.735 16.802z" transform="translate(0 .272)"/>
        <path fill="#C3DAFC" d="M78.199 43.939L113.504 43.939 113.504 14.828 78.199 14.828z" transform="translate(0 .272)"/>
        <path fill="#D4E4F8" d="M95.852 43.939L131.157 43.939 131.157 14.828 95.852 14.828z" transform="translate(0 .272)"/>
        <path fill="#9DC3F3" d="M78.22 36.557L83.814 36.557 83.321 34.982 83.814 33.858 78.22 33.858z" transform="translate(0 .272)"/>
        <path fill="#E3F0FF" d="M95.852 23.837L101.446 23.837 100.953 22.263 101.446 21.138 95.852 21.138z" transform="translate(0 .272)"/>
        <path fill="#9DC3F3" d="M95.852 21.138L90.257 21.138 90.75 22.712 90.257 23.837 95.852 23.837z" transform="translate(0 .272)"/>
        <path fill="#E3F0FF" d="M131.157 36.869L125.563 36.869 126.056 38.443 125.563 39.568 131.157 39.568z" transform="translate(0 .272)"/>
        <path fill="#FFF" d="M102.386 20.754L112.546 20.754 112.546 16.802 102.386 16.802z" transform="translate(0 .272)"/>
        <path fill="#C3DAFC" d="M55.362 207.313L68.941 207.313 68.941 44.246 55.362 44.246zM204.24 205.905L215.528 205.905 215.528 43.939 204.24 43.939z" transform="translate(0 .272)"/>
        <path fill="#415AB7" d="M68.941 48.155L215.528 48.155 215.528 43.939 68.941 43.939zM68.941 124.922L215.528 124.922 215.528 120.707 68.941 120.707zM68.941 189.308L215.528 189.308 215.528 185.093 68.941 185.093z" transform="translate(0 .272)"/>
        <path fill="#A9C8ED" d="M142.992 120.707L179.493 120.707 179.493 90.61 142.992 90.61z" transform="translate(0 .272)"/>
        <path fill="#D4E4F8" d="M161.243 120.707L197.744 120.707 197.744 90.61 161.243 90.61z" transform="translate(0 .272)"/>
        <path fill="#9DC3F3" d="M143.014 113.074L148.798 113.074 148.288 111.447 148.798 110.284 143.014 110.284z" transform="translate(0 .272)"/>
        <path fill="#E3F0FF" d="M161.243 99.924L167.027 99.924 166.517 98.296 167.027 97.133 161.243 97.133z" transform="translate(0 .272)"/>
        <path fill="#9DC3F3" d="M161.243 97.133L155.459 97.133 155.968 98.761 155.459 99.924 161.243 99.924z" transform="translate(0 .272)"/>
        <path fill="#E3F0FF" d="M197.745 113.397L191.961 113.397 192.47 115.025 191.961 116.188 197.745 116.188z" transform="translate(0 .272)"/>
        <path fill="#FFF" d="M184.85 96.737L195.354 96.737 195.354 92.65 184.85 92.65z" transform="translate(0 .272)"/>
        <path fill="#C3DAFC" d="M96.15 120.707L132.651 120.707 132.651 90.61 96.15 90.61z" transform="translate(0 .272)"/>
        <path fill="#D4E4F8" d="M114.401 120.707L150.901 120.707 150.901 90.61 114.401 90.61z" transform="translate(0 .272)"/>
        <path fill="#9DC3F3" d="M96.171 113.074L101.955 113.074 101.446 111.447 101.955 110.284 96.171 110.284z" transform="translate(0 .272)"/>
        <path fill="#E3F0FF" d="M114.4 99.924L120.184 99.924 119.675 98.296 120.184 97.133 114.4 97.133z" transform="translate(0 .272)"/>
        <path fill="#9DC3F3" d="M114.4 97.133L108.616 97.133 109.126 98.761 108.616 99.924 114.4 99.924z" transform="translate(0 .272)"/>
        <path fill="#E3F0FF" d="M150.902 113.397L145.118 113.397 145.628 115.025 145.118 116.188 150.902 116.188zM150.902 96.737L145.118 96.737 145.628 98.364 145.118 99.527 150.902 99.527z" transform="translate(0 .272)"/>
        <path fill="#FFF" d="M118.087 117.484L135.207 117.484 135.207 110.823 118.087 110.823z" transform="translate(0 .272)"/>
        <path fill="#C3DAFC" d="M142.992 184.996L174.54 184.996 174.54 158.983 142.992 158.983z" transform="translate(0 .272)"/>
        <path fill="#D4E4F8" d="M158.767 184.996L190.315 184.996 190.315 158.983 158.767 158.983z" transform="translate(0 .272)"/>
        <path fill="#9DC3F3" d="M143.011 178.399L148.01 178.399 147.57 176.992 148.01 175.987 143.011 175.987z" transform="translate(0 .272)"/>
        <path fill="#E3F0FF" d="M158.767 167.033L163.766 167.033 163.325 165.626 163.766 164.621 158.767 164.621z" transform="translate(0 .272)"/>
        <path fill="#9DC3F3" d="M158.767 164.621L153.767 164.621 154.208 166.028 153.767 167.033 158.767 167.033z" transform="translate(0 .272)"/>
        <path fill="#E3F0FF" d="M190.315 178.678L185.316 178.678 185.757 180.085 185.316 181.09 190.315 181.09z" transform="translate(0 .272)"/>
        <path fill="#FFF" d="M179.171 164.278L188.249 164.278 188.249 160.746 179.171 160.746z" transform="translate(0 .272)"/>
        <path fill="#C3DAFC" d="M83.075 184.996L119.576 184.996 119.576 154.899 83.075 154.899z" transform="translate(0 .272)"/>
        <path fill="#D4E4F8" d="M101.326 184.996L137.827 184.996 137.827 154.899 101.326 154.899z" transform="translate(0 .272)"/>
        <path fill="#2A4E96" d="M83.097 177.363L88.88 177.363 88.371 175.736 88.88 174.573 83.097 174.573z" transform="translate(0 .272)"/>
        <path fill="#618DC1" d="M101.326 164.213L107.11 164.213 106.6 162.585 107.11 161.423 101.326 161.423z" transform="translate(0 .272)"/>
        <path fill="#2A4E96" d="M101.326 161.423L95.542 161.423 96.051 163.05 95.542 164.213 101.326 164.213z" transform="translate(0 .272)"/>
        <path fill="#618DC1" d="M137.828 177.686L132.044 177.686 132.553 179.314 132.044 180.477 137.828 180.477z" transform="translate(0 .272)"/>
        <path fill="#FFF" d="M124.933 161.026L135.437 161.026 135.437 156.939 124.933 156.939z" transform="translate(0 .272)"/>
        <path fill="#C3DAFC" d="M93.349 90.472L121.254 90.472 121.254 67.462 93.349 67.462z" transform="translate(0 .272)"/>
        <path fill="#D4E4F8" d="M107.302 90.472L135.206 90.472 135.206 67.462 107.302 67.462z" transform="translate(0 .272)"/>
        <path fill="#9DC3F3" d="M93.365 84.637L97.787 84.637 97.398 83.392 97.787 82.503 93.365 82.503z" transform="translate(0 .272)"/>
        <path fill="#E3F0FF" d="M107.302 74.583L111.723 74.583 111.334 73.339 111.723 72.45 107.302 72.45z" transform="translate(0 .272)"/>
        <path fill="#9DC3F3" d="M107.302 72.45L102.88 72.45 103.269 73.694 102.88 74.583 107.302 74.583z" transform="translate(0 .272)"/>
        <path fill="#E3F0FF" d="M135.207 84.884L130.785 84.884 131.175 86.128 130.785 87.017 135.207 87.017z" transform="translate(0 .272)"/>
        <path fill="#FFF" d="M125.349 72.147L133.379 72.147 133.379 69.023 125.349 69.023z" transform="translate(0 .272)"/>
        <path fill="#C3DAFC" d="M143.206 90.472L171.111 90.472 171.111 67.462 143.206 67.462z" transform="translate(0 .272)"/>
        <path fill="#D4E4F8" d="M157.158 90.472L185.063 90.472 185.063 67.462 157.158 67.462z" transform="translate(0 .272)"/>
        <path fill="#9DC3F3" d="M143.222 84.637L147.644 84.637 147.255 83.392 147.644 82.503 143.222 82.503z" transform="translate(0 .272)"/>
        <path fill="#E3F0FF" d="M157.158 74.583L161.58 74.583 161.191 73.339 161.58 72.45 157.158 72.45z" transform="translate(0 .272)"/>
        <path fill="#9DC3F3" d="M157.158 72.45L152.737 72.45 153.126 73.694 152.737 74.583 157.158 74.583z" transform="translate(0 .272)"/>
        <path fill="#E3F0FF" d="M185.064 84.884L180.642 84.884 181.031 86.128 180.642 87.017 185.064 87.017z" transform="translate(0 .272)"/>
        <path fill="#FFF" d="M175.206 72.147L183.236 72.147 183.236 69.023 175.206 69.023z" transform="translate(0 .272)"/>
        <path fill="#D38E92" d="M102.892 154.882L124.042 154.882 124.042 137.443 102.892 137.443z" transform="translate(0 .272)"/>
        <path fill="#DFAAAD" d="M92.317 154.882L113.467 154.882 113.467 137.443 92.317 137.443z" transform="translate(0 .272)"/>
        <path fill="#DD732C" d="M124.03 150.46L120.678 150.46 120.974 149.516 120.678 148.843 124.03 148.843z" transform="translate(0 .272)"/>
        <path fill="#FFB27D" d="M113.467 142.84L110.116 142.84 110.411 141.897 110.116 141.223 113.467 141.223z" transform="translate(0 .272)"/>
        <path fill="#DD732C" d="M113.467 141.223L116.818 141.223 116.523 142.166 116.818 142.84 113.467 142.84z" transform="translate(0 .272)"/>
        <path fill="#FFB27D" d="M92.316 150.647L95.668 150.647 95.373 151.59 95.668 152.264 92.316 152.264z" transform="translate(0 .272)"/>
        <path fill="#FFF" d="M93.702 140.993L99.788 140.993 99.788 138.625 93.702 138.625z" transform="translate(0 .272)"/>
        <g>
            <path fill="#E0141F" d="M49.779 88.464L52.387 88.464 52.387 42.527 49.779 42.527z" transform="translate(0 .272) translate(99 139.917)"/>
            <path fill="#2A4E96" d="M44.852 44.662h6.489c1.058 0 1.916-.858 1.916-1.917 0-1.058-.858-1.916-1.916-1.916h-6.49c-1.058 0-1.915.858-1.915 1.916 0 1.059.857 1.917 1.916 1.917" transform="translate(0 .272) translate(99 139.917)"/>
            <path fill="#E0141F" d="M52.387 65.496c.316.027 14.071 8.16 14.071 8.16v11.867H52.15l.237-20.027z" transform="translate(0 .272) translate(99 139.917)"/>
            <path fill="#2A4E96" d="M132.572 89.023c0-2.147-1.74-3.887-3.887-3.887-2.147 0-3.888 1.74-3.888 3.887 0 2.147 1.74 3.888 3.888 3.888 2.147 0 3.887-1.74 3.887-3.888" transform="translate(0 .272) translate(99 139.917)"/>
            <path fill="#415AB7" d="M128.685 86.588c-1.345 0-2.435 1.09-2.435 2.435s1.09 2.435 2.435 2.435c1.344 0 2.435-1.09 2.435-2.435s-1.09-2.435-2.435-2.435z" transform="translate(0 .272) translate(99 139.917)"/>
            <path fill="#E0141F" d="M49.779 88.464L134.204 88.464 134.204 84.969 49.779 84.969z" transform="translate(0 .272) translate(99 139.917)"/>
            <path fill="#415AB7" d="M58.581 86.717c0-3.42-2.773-6.194-6.194-6.194-3.42 0-6.194 2.773-6.194 6.194 0 3.42 2.774 6.194 6.194 6.194s6.194-2.774 6.194-6.194" transform="translate(0 .272) translate(99 139.917)"/>
            <path fill="#647ACD" d="M56.267 86.717c0-2.143-1.737-3.88-3.88-3.88-2.142 0-3.88 1.737-3.88 3.88s1.738 3.88 3.88 3.88c2.143 0 3.88-1.737 3.88-3.88" transform="translate(0 .272) translate(99 139.917)"/>
            <path fill="#FFB27D" d="M46.825 38.616s2.984 1.186 3.142 1.739c.158.553.158 2.688-.633 2.688-.79 0-1.62-1.819-1.976-1.858-.356-.04-1.344-.277-1.462-.711-.119-.435.929-1.858.929-1.858" transform="translate(0 .272) translate(99 139.917)"/>
            <path fill="#1F437C" d="M46.917 39.482c.427-.897.01-1.239.01-1.239s-8.714-5.386-9.413-5.95c-.699-.564-4.73-10.337-4.73-10.337s-1.456-3.974-3.852-4.164c-2.082-.165-3.379 1-4.17 2.284-.941 1.531-.833 3.487.25 4.922 2.43 3.221 7.318 9.608 8.654 10.644 2.972 2.305 12.354 4.945 12.354 4.945s.562-.4.897-1.105" transform="translate(0 .272) translate(99 139.917)"/>
            <path fill="#415AB7" d="M29.44 92.249h-8.352c-.08-.016-.14-.033-.177-.052-.558-.279-.383-2.414-.316-3.073l.022-.194s2.937-2.35 3.34-.55l.044.165v.001c.51 1.683 2.79 2.447 4.105 2.66 1.006.164 1.267.75 1.334 1.043" transform="translate(0 .272) translate(99 139.917)"/>
            <path fill="#FFB27D" d="M24.142 14.64s1.987 3.24 5.253 2.505c0 0 .907-1.504 1.096-2.685l.068-.42c.219-1.33.377-2.07.377-2.07l-.003-.002c-.132-.08-4.422-2.651-4.441-2.495-.468 3.615-2.35 5.167-2.35 5.167" transform="translate(0 .272) translate(99 139.917)"/>
            <path fill="#ED975D" d="M26.82 10.402c.318.885 1.59 2.714 3.74 3.637.218-1.33.376-2.07.376-2.07h-.003c-.121-.054-4.207-1.828-4.112-1.567" transform="translate(0 .272) translate(99 139.917)"/>
            <path fill="#FFB27D" d="M31.915 11.976s-5.328.43-5.545-2.892c-.216-3.323-1.05-5.504 2.343-5.92 3.392-.415 4.137.81 4.479 1.901.342 1.091.103 6.713-1.277 6.91" transform="translate(0 .272) translate(99 139.917)"/>
            <path fill="#415AB7" d="M26.413 9.986c-.076.035-1.235.207-2.699-4.287-.23-.705-.239-2.158.718-3.295S28.26.694 30.584.608c2.325-.087 2.674 1.267 3.013 2.626C33.952 4.66 35.4 6.01 35.4 6.01c-2.114.794-4.226-1.119-5.078-.986-.852.133-1.333 1.37-1.456 1.772-.123.402-.269.73-1.236.207-.967-.522-.682 1.38-.57 1.752 0 0-.002.946-.646 1.232M7.506 92.249H4.355c-.66 0-1.395-.662-1.578-1.872-.184-1.212-1.542-1.872-1.836-2.864-.294-.99 1.212-2.386 1.212-2.386l.251-.324.262-.337 2.496.587s.062.595.1 1.352c.027.546.042 1.178.01 1.732-.073 1.322.37 2.745 1.545 3.002 1.175.257.689 1.11.689 1.11" transform="translate(0 .272) translate(99 139.917)"/>
            <path fill="#E0141F" d="M27.757 44.086s-.446 5.564-.97 12.253c-.713 9.087-1.57 20.249-1.655 22.363-.146 3.672-.734 9.545-.734 9.545s-1.394 1.395-4.185.807c0 0-2.487-8.384-3.197-17.255l-.033-.438c-.66-9.03-1.688-28.047-1.688-28.047l12.462.772z" transform="translate(0 .272) translate(99 139.917)"/>
            <path fill="#C31A23" d="M25.505 45.184s.879 2.003-.727 8.518c-1.178 4.78-7.762 18.097-7.762 18.097l-.033-.438c-.66-9.03-1.688-28.047-1.688-28.047l10.21 1.87z" transform="translate(0 .272) translate(99 139.917)"/>
            <path fill="#E0141F" d="M26.095 43.715S17.681 64.9 12.395 74.37c-5.287 9.471-6.939 12.114-6.939 12.114s-3.028-1.211-3.304-2.038c0 0 2.022-18.284 5.562-22.74 2-2.52 4.35-10.078 4.46-12.72.11-2.644.716-7.875.716-7.875l13.205 2.603z" transform="translate(0 .272) translate(99 139.917)"/>
            <path fill="#415AB7" d="M26.523 44.673c-1.135-.321-12.71-4.857-12.483-5.513.784-2.282 1.594-6.136 2.563-10.823.182-.873.385-1.73.608-2.571.58-2.19 1.288-4.245 2.094-6.045 1.498-3.342 3.93-5.61 5.875-6.385.254-.095.785.706 1.826 1.621.963.844 1.963.828 3.068.898l.892 1.582c.723 1.372 1.339 3.294 1.42 4.86 0 0-5.761 22.403-5.863 22.376" transform="translate(0 .272) translate(99 139.917)"/>
            <path fill="#E0141F" d="M32.386 22.297l-3.464-.373-8.575 10.402c-1.23 1.494-3.263 2.062-5.09 1.425l-2.367 7.361L27.44 45.81l4.947-23.512z" transform="translate(0 .272) translate(99 139.917)"/>
            <path fill="#E0141F" d="M26.809 17.308c-.504-.953-2.231-3.692-2.231-3.692l.602-.28c.343.044 2.166 2.766 2.733 3.786.684 1.229 2.429 5.072 2.429 5.072l-1.42-.27s-1.52-3.494-2.113-4.616" transform="translate(0 .272) translate(99 139.917)"/>
            <path fill="#FFB27D" d="M43.119 39.713s2.984 1.186 3.142 1.74c.158.553.158 2.687-.633 2.687-.79 0-1.62-1.818-1.976-1.857-.356-.04-1.344-.277-1.462-.712-.119-.435.929-1.858.929-1.858" transform="translate(0 .272) translate(99 139.917)"/>
            <path fill="#415AB7" d="M43.11 40.952c.426-.897.009-1.239.009-1.239s-8.713-5.386-9.412-5.95c-.699-.564-4.73-10.337-4.73-10.337s-1.456-3.974-3.852-4.164c-2.082-.165-3.379 1-4.17 2.284-.941 1.532-.833 3.487.25 4.922 2.429 3.221 7.318 9.608 8.653 10.644 2.973 2.305 12.355 4.945 12.355 4.945s.562-.4.897-1.105" transform="translate(0 .272) translate(99 139.917)"/>
            <path fill="#5D75CD" d="M90.945 85.351L126.25 85.351 126.25 56.24 90.945 56.24z" transform="translate(0 .272) translate(99 139.917)"/>
            <path fill="#415AB7" d="M73.292 85.351L108.597 85.351 108.597 56.24 73.292 56.24z" transform="translate(0 .272) translate(99 139.917)"/>
            <path fill="#9DC3F3" d="M126.229 77.968L120.635 77.968 121.127 76.394 120.635 75.269 126.229 75.269z" transform="translate(0 .272) translate(99 139.917)"/>
            <path fill="#E3F0FF" d="M108.597 65.249L103.003 65.249 103.496 63.675 103.003 62.55 108.597 62.55z" transform="translate(0 .272) translate(99 139.917)"/>
            <path fill="#9DC3F3" d="M108.597 62.55L114.191 62.55 113.699 64.124 114.191 65.249 108.597 65.249z" transform="translate(0 .272) translate(99 139.917)"/>
            <path fill="#E3F0FF" d="M73.291 78.281L78.886 78.281 78.393 79.855 78.886 80.98 73.291 80.98z" transform="translate(0 .272) translate(99 139.917)"/>
            <path fill="#FFF" d="M75.604 62.166L85.763 62.166 85.763 58.214 75.604 58.214z" transform="translate(0 .272) translate(99 139.917)"/>
            <path fill="#DFAAAD" d="M90.945 56.539L112.095 56.539 112.095 39.1 90.945 39.1z" transform="translate(0 .272) translate(99 139.917)"/>
            <path fill="#D38E92" d="M101.52 56.539L122.67 56.539 122.67 39.1 101.52 39.1z" transform="translate(0 .272) translate(99 139.917)"/>
            <path fill="#DD732C" d="M90.957 52.117L94.308 52.117 94.013 51.174 94.308 50.5 90.957 50.5z" transform="translate(0 .272) translate(99 139.917)"/>
            <path fill="#FFB27D" d="M101.52 44.497L104.871 44.497 104.576 43.554 104.871 42.88 101.52 42.88z" transform="translate(0 .272) translate(99 139.917)"/>
            <path fill="#DD732C" d="M101.52 42.88L98.168 42.88 98.463 43.823 98.168 44.497 101.52 44.497z" transform="translate(0 .272) translate(99 139.917)"/>
            <path fill="#FFB27D" d="M122.67 52.304L119.319 52.304 119.614 53.247 119.319 53.921 122.67 53.921z" transform="translate(0 .272) translate(99 139.917)"/>
            <path fill="#FFF" d="M115.199 42.65L121.285 42.65 121.285 40.282 115.199 40.282z" transform="translate(0 .272) translate(99 139.917)"/>
        </g>
    </g>
</svg>
