<svg width="49" height="20" viewBox="0 0 49 20" fill="none" xmlns="http://www.w3.org/2000/svg">
<g clip-path="url(#clip0)">
<path d="M23.1754 9.7707V15.6333H21.3659V1.15521H26.1651C26.7379 1.14291 27.3075 1.24734 27.8409 1.46246C28.3743 1.67759 28.8609 1.99915 29.2728 2.4086C29.6888 2.79319 30.0198 3.26485 30.2437 3.79188C30.4676 4.3189 30.5792 4.88909 30.5709 5.46411C30.5828 6.04221 30.473 6.61611 30.2489 7.1465C30.0248 7.67688 29.6919 8.1512 29.2728 8.53695C28.4336 9.35945 27.3977 9.77032 26.1651 9.76954H23.1754V9.7707ZM23.1754 2.93768V7.99169H26.21C26.5427 8.00183 26.8738 7.94048 27.1821 7.81158C27.4904 7.68268 27.7691 7.48907 28.0005 7.24312C28.2306 7.01316 28.4135 6.73811 28.5384 6.43423C28.6633 6.13035 28.7277 5.80382 28.7277 5.47393C28.7277 5.14404 28.6633 4.8175 28.5384 4.51362C28.4135 4.20975 28.2306 3.9347 28.0005 3.70474C27.772 3.45361 27.4943 3.25524 27.1856 3.1228C26.8769 2.99036 26.5444 2.92687 26.21 2.93653H23.1754V2.93768Z" fill="#5F6368"/>
<path d="M34.7407 5.40402C36.0782 5.40402 37.1339 5.77138 37.9079 6.50608C38.6819 7.24079 39.0686 8.24813 39.0678 9.52809V15.6333H37.337V14.2586H37.2583C36.509 15.3907 35.5124 15.9568 34.2686 15.9568C33.2069 15.9568 32.3186 15.6333 31.6038 14.9864C31.2607 14.6895 30.9865 14.3177 30.801 13.898C30.6155 13.4783 30.5234 13.0214 30.5316 12.5605C30.5316 11.5354 30.9085 10.7203 31.6622 10.1149C32.416 9.50961 33.4223 9.20617 34.6811 9.20463C35.7556 9.20463 36.6405 9.40679 37.3358 9.81111V9.386C37.3379 9.07181 37.2719 8.76108 37.1426 8.47635C37.0133 8.19163 36.824 7.94004 36.5884 7.73984C36.1099 7.2961 35.4863 7.05398 34.8418 7.06174C33.831 7.06174 33.0312 7.49994 32.4422 8.37636L30.8485 7.34476C31.7252 6.05094 33.0226 5.40402 34.7407 5.40402ZM32.3995 12.6009C32.3983 12.8376 32.4522 13.0712 32.5566 13.2822C32.6609 13.4932 32.8129 13.6755 32.9997 13.8139C33.3999 14.1375 33.8967 14.3089 34.4057 14.2991C35.1693 14.2978 35.9013 13.9854 36.4412 13.4304C37.0406 12.8504 37.3403 12.17 37.3403 11.3891C36.7761 10.927 35.9894 10.696 34.9801 10.696C34.245 10.696 33.6321 10.8781 33.1413 11.2424C32.6457 11.6121 32.3995 12.0614 32.3995 12.6009Z" fill="#5F6368"/>
<path d="M49.0034 5.72751L42.9611 20H41.0932L43.3354 15.0061L39.3623 5.72751H41.3292L44.2008 12.8435H44.2402L47.0331 5.72751H49.0034Z" fill="#5F6368"/>
<path d="M15.8631 8.50692C15.8638 7.94012 15.8172 7.37431 15.7238 6.8157H8.09229V10.0191H12.4632C12.3738 10.5307 12.1845 11.0184 11.9067 11.4528C11.629 11.8872 11.2685 12.2593 10.847 12.5467V14.626H13.4557C14.9831 13.1786 15.8631 11.038 15.8631 8.50692Z" fill="#4285F4"/>
<path d="M8.09224 16.6349C10.276 16.6349 12.1148 15.8979 13.4556 14.6271L10.847 12.5478C10.1209 13.0538 9.18583 13.3426 8.09224 13.3426C5.9815 13.3426 4.18996 11.8801 3.54932 9.9093H0.862V12.0522C1.53553 13.4298 2.56832 14.5878 3.84507 15.397C5.12181 16.2062 6.59226 16.6348 8.09224 16.6349Z" fill="#34A853"/>
<path d="M3.54937 9.90931C3.21069 8.87661 3.21069 7.75827 3.54937 6.72557V4.58267H0.862052C0.295452 5.74152 0.000366211 7.02049 0.000366211 8.31744C0.000366211 9.61438 0.295452 10.8934 0.862052 12.0522L3.54937 9.90931Z" fill="#FBBC04"/>
<path d="M8.09224 3.29232C9.24628 3.27294 10.3614 3.7211 11.1965 4.53994L13.5062 2.166C12.0416 0.75212 10.1014 -0.0241231 8.09224 -3.61406e-06C6.59226 6.66512e-05 5.12181 0.428639 3.84507 1.23787C2.56832 2.04709 1.53553 3.20513 0.862 4.58268L3.54932 6.72558C4.18996 4.7548 5.9815 3.29232 8.09224 3.29232Z" fill="#EA4335"/>
</g>
<defs>
<clipPath id="clip0">
<rect width="49" height="20" fill="white"/>
</clipPath>
</defs>
</svg>
