<svg width="36" height="22" viewBox="0 0 36 22" fill="none" xmlns="http://www.w3.org/2000/svg">
<rect y="0.804199" width="35.726" height="21.171" rx="4" fill="#DAEDFF"/>
<rect y="4.11212" width="35.726" height="5.29275" fill="black"/>
<path d="M29.1966 14.0262H26.6106V18.8168H29.1966V14.0262Z" fill="#FF5F00"/>
<path d="M26.809 16.4215C26.809 15.4481 27.2523 14.5848 27.9337 14.0262C27.4329 13.6199 26.8008 13.3745 26.1112 13.3745C24.4775 13.3745 23.1557 14.7371 23.1557 16.4215C23.1557 18.1058 24.4775 19.4685 26.1112 19.4685C26.8008 19.4685 27.4329 19.223 27.9337 18.8168C27.2523 18.2666 26.809 17.3948 26.809 16.4215Z" fill="#EB001B"/>
<path d="M32.6515 16.4214C32.6515 18.1057 31.3297 19.4684 29.696 19.4684C29.0064 19.4684 28.3743 19.223 27.8735 18.8167C28.5631 18.2581 28.9982 17.3948 28.9982 16.4214C28.9982 15.4481 28.5549 14.5847 27.8735 14.0261C28.3743 13.6198 29.0064 13.3744 29.696 13.3744C31.3297 13.3744 32.6515 14.7456 32.6515 16.4214Z" fill="#F79E1B"/>
</svg>
