<svg xmlns="http://www.w3.org/2000/svg" width="56" height="56" viewBox="0 0 56 56">
    <g fill="none" transform="translate(5 7)">
        <path fill="#415AB7" d="M41.143 15.544L41.143 26.319 47.942 23.735 38.52 0.072 0 15.544"/>
        <path fill="#536BC3" d="M43.102 25.575L43.102 13.584 4.878 13.584 1.959 14.757 1.959 15.544 41.143 15.544 41.143 26.319z"/>
        <path fill="#415AB7" d="M0 15.544L41.143 15.544 41.143 41.013 0 41.013z"/>
        <path fill="#6B7EC8" d="M3.918 24.076c2.217-.663 3.951-2.397 4.614-4.614h24.079c.663 2.217 2.397 3.95 4.613 4.614v8.405c-2.216.663-3.95 2.397-4.613 4.614H8.53c-.663-2.217-2.396-3.95-4.613-4.614v-8.405z"/>
        <circle cx="20.571" cy="28.278" r="4.898" fill="#415AB7"/>
        <path fill="#6B7EC8" d="M40.464 15.544l-2.323-5.976-.105-.263c-2.305.204-4.557-.765-5.994-2.578l-.262.106-21.004 8.71h29.688z"/>
        <path fill="#536BC3" d="M15.5 13.584L10.776 15.544 40.464 15.544 39.703 13.584z"/>
        <g fill="#B2BFEF" transform="translate(8.816 27.184)">
            <circle cx=".98" cy="1.095" r="1"/>
            <circle cx="22.531" cy="1.095" r="1"/>
        </g>
    </g>
</svg>
