<svg xmlns="http://www.w3.org/2000/svg" width="24" height="24" viewBox="0 0 24 24">
    <path fill="#2F3137" d="M1.099 19.28h2.163c.065 0 .13 0 .194-.032.162 1.098 1.098 1.937 2.228 1.937 1.13 0 2.067-.84 2.228-1.905h9.041c.162 1.066 1.098 1.905 2.228 1.905 1.13 0 2.067-.84 2.229-1.905h1.775c.291 0 .55-.258.55-.549v-6.038c0-1.55-.42-2.81-1.26-3.713-.775-.84-1.873-1.292-3.067-1.292h-3.23V5.88c0-.29-.258-.55-.548-.55H1.099c-.29 0-.549.26-.549.55V18.73c0 .29.258.55.549.55zm18.082.775c-.645 0-1.162-.517-1.162-1.162 0-.646.517-1.163 1.162-1.163.646 0 1.163.517 1.163 1.163 0 .645-.517 1.162-1.163 1.162zM16.18 8.785h3.229c2.002 0 3.229 1.486 3.229 3.876v5.489h-1.324c-.323-.872-1.163-1.518-2.132-1.518-1 0-1.84.646-2.13 1.518h-.84V8.786h-.032zM5.716 20.056c-.645 0-1.162-.517-1.162-1.162 0-.646.517-1.163 1.162-1.163.646 0 1.163.517 1.163 1.163-.032.645-.549 1.162-1.163 1.162zM1.648 6.43h13.4V18.15H8.041c-.064 0-.129 0-.193.032-.291-.904-1.163-1.55-2.164-1.55-1 0-1.873.678-2.163 1.583-.065-.033-.162-.065-.259-.065H1.648V6.429z"/>
</svg>
