<svg xmlns="http://www.w3.org/2000/svg" width="24" height="24" viewBox="0 0 24 24">
    <g fill="#E0141F" fill-rule="evenodd">
        <rect width="6.316" height="1.329" x=".097" y="9.813" rx=".664"/>
        <rect width="5.327" height="1.329" x="1.051" y="12.178" rx=".664"/>
        <rect width="4.215" height="1.329" x="2.193" y="14.548" rx=".664"/>
        <path d="M15.969 11.637l1.8-.675v2.64c0 .194.095.378.257.491.156.11.356.14.553.07l1.999-.75c.237-.09.389-.31.389-.561V9.763l1.8-.675v7.715l-6.798 2.549v-7.715zm4.412-2.936l-2.767-1.24c-.17-.075-.362-.068-.519.018l-1.96.833c-.222.094-.365.31-.365.554 0 .244.145.461.371.554l1.584.654-1.34.502-5.49-2.353 5.49-2.352 6.273 2.352-1.277.478zm-1.413 4.034v-2.222l.8-.3v2.222l-.8.3zm-1.6-4.07l1.417.635-.413.155-1.452-.599.447-.19zm-2.598 2.952v7.691l-5.798-2.485v-7.69l5.798 2.484zm9.192-3.43l-.004-.008c-.003-.051-.008-.108-.03-.167-.012-.03-.028-.053-.041-.071l-.023-.034c-.008-.016-.017-.031-.028-.045-.064-.084-.141-.146-.234-.187l-8.022-3.01c-.146-.057-.306-.053-.447.008L8.136 7.671l-.037.025c-.073.038-.139.094-.193.167-.019.022-.033.04-.05.069-.01.013-.026.03-.035.055-.033.075-.048.153-.048.236v8.996c0 .24.142.458.363.552l6.997 2.998.021.008c.068.027.141.04.215.04.072 0 .142-.012.21-.038l7.998-2.998c.233-.086.389-.313.389-.562V8.223l-.004-.036z"/>
    </g>
</svg>
