<svg xmlns="http://www.w3.org/2000/svg" width="16" height="18" viewBox="0 0 16 18">
    <g fill="none">
        <path fill="#000" d="M5.564 2v1.583h1.583v.792c.554-.08 1.03-.08 1.584 0v-.792h1.583V2h-4.75z"/>
        <path fill="#2F3137" d="M13.306 3.904l.554-.554.634.633 1.108-1.108L13.227.5 12.12 1.608l.633.634-.712.712C8.24.658 3.33 1.846 1.115 5.646c-2.217 3.8-1.03 8.55 2.691 10.846 3.721 2.296 8.63 1.108 10.846-2.692 1.98-3.246 1.425-7.363-1.346-9.896zM7.923 15.225c-3.088 0-5.542-2.454-5.542-5.542 0-3.087 2.454-5.541 5.542-5.541v5.541h5.542c0 3.088-2.455 5.542-5.542 5.542z"/>
    </g>
</svg>
