<svg xmlns="http://www.w3.org/2000/svg" width="15" height="21" viewBox="0 0 15 21">
    <g fill="none" fill-rule="evenodd">
        <path d="M0 0H23V23H0z" transform="translate(-4 -1)"/>
        <path fill="#2F3137" d="M15.072 6.88c1.037 2.157 1.288 3.813.752 4.967-.78 2.431-3.47-.172-1.734-2.516 1.04-1.518.043-4.772-2.507-8.022C12.639 6.34 4.986 7.234 6.41 12.977c1.04 2.385-2.127 1.692-.918-1.104-1.07 1.922-1.317 3.638-.74 5.15.432 1.133 1.732 2.538 2.716 3.281 1.125.851 2.523 1.436 4.037 1.383-.037 0-.074 0-.11-.003-3.649-.444-3.23-6.182-.22-8.878-.7 2.031-.464 3.795.49 4.865 0-1.12.652-1.59.769-2.765 2.866 3.225 1.943 6.417-.476 6.753 7.468-.655 8.712-9.768 3.114-14.78z" transform="translate(-4 -1)"/>
    </g>
</svg>
