<svg id="Слой_1" data-name="Слой 1" xmlns="http://www.w3.org/2000/svg" viewBox="0 0 42.68 6.63"><defs><style>.cls-1{fill-rule:evenodd;}</style></defs><path class="cls-1" d="M5.51,2.12,4,.79C3.8.62,3.23,0,3,0s-.42.17-.7.43L1.76.92c-.07.06-.1.11-.18.17l-.19.18-.09.07-1.09,1c-.09.08-.21.15-.21.33V6.18a.49.49,0,0,0,.52.45H5.41a.62.62,0,0,0,.37-.1A.4.4,0,0,0,6,6.24V2.69C6,2.44,5.68,2.28,5.51,2.12ZM5.17,5.84H.8V2.93c0-.07.42-.41.52-.51l1-.86C2.43,1.44,2.84,1,3,1a1.49,1.49,0,0,1,.14.12L4.76,2.53l.14.12c0,.05.27.23.27.28Z"/><path class="cls-1" d="M27.19,4.19a1.85,1.85,0,0,0-.89-.37c-.57-.08-1.33,0-1.82,0s-.44-.42-.21-.56a4,4,0,0,1,1.88-.07,3.22,3.22,0,0,1,.77.29c0-.14.44-.57.45-.72a.59.59,0,0,1-.17-.1,3.76,3.76,0,0,0-1.66-.43,3.59,3.59,0,0,0-1.78.3,1.15,1.15,0,0,0-.63,1,1.1,1.1,0,0,0,.78,1.06,8.52,8.52,0,0,0,2.3.12.39.39,0,0,1,.25.71,3.41,3.41,0,0,1-1.7.16A3.9,3.9,0,0,1,23.45,5c-.07.13-.15.22-.23.35a1.13,1.13,0,0,0-.12.18,1.13,1.13,0,0,0-.12.18A3.73,3.73,0,0,0,24,6.29,4.15,4.15,0,0,0,27,6.11a1.21,1.21,0,0,0,.68-.94A1.07,1.07,0,0,0,27.19,4.19Z"/><path class="cls-1" d="M34.84,2.28A2.15,2.15,0,0,0,32.91,3a1.4,1.4,0,0,0-.17.37,2.56,2.56,0,0,0-.16.92A2.66,2.66,0,0,0,32.9,5.6l.23.31c.59.56,2.19.5,2.95.35A1.43,1.43,0,0,0,36.8,6a2.45,2.45,0,0,0,0-3.24A3.32,3.32,0,0,0,34.84,2.28ZM36.32,5a.46.46,0,0,1-.3.32,2.66,2.66,0,0,1-2.09,0,.53.53,0,0,1-.29-.36,2,2,0,0,1-.09-.57c0-.63.15-1,.73-1.14A4.22,4.22,0,0,1,36,3.28c.46.19.42.79.42,1.2A1.33,1.33,0,0,1,36.32,5Z"/><path class="cls-1" d="M20.14,3.75a1.17,1.17,0,0,0-.64-1.22,4.21,4.21,0,0,0-1.74-.16h-.94a4.48,4.48,0,0,0-.46,0c-.2,0-.4,0-.4.06V6.29h.9a12.44,12.44,0,0,1,0-1.38h1.38c.29.44.66.92,1,1.38h1.08l-1-1.49A1.09,1.09,0,0,0,20.14,3.75ZM19,4a1.14,1.14,0,0,1-.47.07H16.88c0-.05,0-.09,0-.13V3.21h1.81a.52.52,0,0,1,.35.1A.46.46,0,0,1,19,4Z"/><path class="cls-1" d="M41.75,2.37V5.06c-.09-.06-2.17-2.2-2.32-2.35s-.3-.41-.69-.41a.58.58,0,0,0-.58.5V6.29h.92V3.57a1.25,1.25,0,0,1,.23.23l0,0c.16.2.43.4.58.61l1.7,1.75c.31.3,1.06.15,1.06-.33V2.37Z"/><path class="cls-1" d="M13.22,2.58a.56.56,0,0,0-1,0L10.57,5.21a12.1,12.1,0,0,0-.64,1.08H11l.32-.55s.07-.16.14-.16h2.47c.08,0,.3.43.35.51a.75.75,0,0,1,.1.2h1.08c-.23-.45-1-1.68-1.28-2.12ZM11.86,4.82a3.62,3.62,0,0,0,.2-.33c.09-.15.57-1,.64-1l.82,1.37Z"/><path class="cls-1" d="M28.06,3.17s0,.06.06.06h1.57V6.29h.95V3.23h1.57V2.37H28.06Z"/><path class="cls-1" d="M3.91,3.36l-.8-.72A.81.81,0,0,0,3,2.52l-.8.7c-.06.06-.25.19-.25.27V4.8s0,.07.06.07H4l0-.56a1.39,1.39,0,0,0,0-.15C4,4.1,4,4.09,4,4V3.49C4,3.42,4,3.46,3.91,3.36Z"/><rect x="21.17" y="2.37" width="0.93" height="3.92"/></svg>