<svg id="Слой_1" data-name="Слой 1" xmlns="http://www.w3.org/2000/svg" viewBox="0 0 25.9 14.43"><defs><style>.cls-1{fill-rule:evenodd;}</style></defs><path class="cls-1" d="M25.9,7.13c0-.2,0-.35,0-.57a3.4,3.4,0,0,0-.19-.73,5.37,5.37,0,0,0-.77-1.41,5.44,5.44,0,0,0-.59-.67,6,6,0,0,0-.64-.59l-1.1-.78-.79-.45A15.94,15.94,0,0,0,19.09.86c-.49-.14-1-.28-1.5-.38A22.38,22.38,0,0,0,12.84,0,21.78,21.78,0,0,0,8.31.48a17.12,17.12,0,0,0-2.88.86c-.3.12-.6.25-.88.39l-.42.21a10.64,10.64,0,0,0-1.9,1.23,2,2,0,0,0-.16.14,4,4,0,0,0-.56.53.6.6,0,0,1-.08.08L1.36,4c-.09.12-.23.27-.36.44a4.94,4.94,0,0,0-.49.76A4.37,4.37,0,0,0,0,7.2,4.52,4.52,0,0,0,.73,9.61a7.26,7.26,0,0,0,.46.63l.07.08.3.33.15.15.08.08.24.21a8.9,8.9,0,0,0,1.06.8,11.79,11.79,0,0,0,1.39.78,9.37,9.37,0,0,0,.86.38,17.27,17.27,0,0,0,2.34.76,21.15,21.15,0,0,0,4.94.62h.65l.61,0,.43,0a20.8,20.8,0,0,0,5.38-1c.3-.1.6-.22.9-.34a12.53,12.53,0,0,0,1.28-.6l.4-.22c.2-.11.38-.23.58-.35a7.79,7.79,0,0,0,1.22-1l.25-.23A7.58,7.58,0,0,0,25,9.92a4.94,4.94,0,0,0,.81-1.68A4,4,0,0,0,25.9,7.13Zm-1.17,2a2.26,2.26,0,0,1-.22.37,4.78,4.78,0,0,1-.39.5l-.35.38a8.41,8.41,0,0,1-1.4,1.1,13.09,13.09,0,0,1-1.53.81,21.33,21.33,0,0,1-12.2,1.12,16.55,16.55,0,0,1-3.59-1.12,12.46,12.46,0,0,1-1.54-.83,7.09,7.09,0,0,1-.69-.49l-.17-.13A6.2,6.2,0,0,1,1.82,10l-.2-.24a4.07,4.07,0,0,1-1-2.55,4.1,4.1,0,0,1,1-2.55l.27-.32c.1-.12.4-.39.52-.51l.08-.06a2.78,2.78,0,0,1,.33-.27c.16-.13.51-.38.69-.49A12.2,12.2,0,0,1,5,2.2,19.58,19.58,0,0,1,13,.65c3.28,0,7.41.79,10.07,2.85.26.21.37.31.63.54l.15.15a6,6,0,0,1,.88,1.17A3.67,3.67,0,0,1,24.73,9.08Z"/><path class="cls-1" d="M5.77,6.58h-2c0-.16,0-1.74,0-1.89s0,0,0-.05H2.79V9.4h.93s0,0,0,0v-2h2V9.28c0,.05,0,.09,0,.12h.94V4.63h-1Z"/><path class="cls-1" d="M17.3,7.1c.11-.11.93-1.08,1-1.14h-1s-.13.14-.16.17l-.15.19-.6.75-.14.18a1.43,1.43,0,0,1-.15.18V4.63h-.89V9.4H16V7.54c.09.09,1.28,1.85,1.33,1.86h1.08L17,7.48S17.27,7.14,17.3,7.1Z"/><path class="cls-1" d="M9.93,6.13a1.59,1.59,0,0,0-.61-.24,1.71,1.71,0,0,0-2,1.33A1.79,1.79,0,0,0,8.39,9.4a2.08,2.08,0,0,0,1.44-.08,1.42,1.42,0,0,0,.77-.94H9.77a.88.88,0,0,1-1.64-.47h2.54A1.94,1.94,0,0,0,9.93,6.13ZM8.14,7.32a.85.85,0,0,1,1.42-.59,1,1,0,0,1,.22.59Z"/><path class="cls-1" d="M20.35,5.89a1.72,1.72,0,0,0-2,1.34A1.78,1.78,0,0,0,19.43,9.4,1.82,1.82,0,0,0,21.34,9a1.34,1.34,0,0,0,.29-.57H20.8c-.09.34-.58.52-1,.41a.84.84,0,0,1-.62-.88h2.55a2.24,2.24,0,0,0-.33-1.36A1.49,1.49,0,0,0,20.35,5.89ZM19.17,7.32a.86.86,0,0,1,1.43-.59,1.22,1.22,0,0,1,.22.59Z"/><path class="cls-1" d="M13.09,5.86a1.28,1.28,0,0,0-.95.46l0,.06c0,.06,0,0-.06.06V6h-.83c0,.07,0,3.09,0,3.44h.89V7.64c0-.59.09-1.06.69-1.09s.71.48.71,1.07V9.39h.88V7.79C14.37,6.87,14.46,5.83,13.09,5.86Z"/><rect x="22.23" y="4.63" width="0.89" height="4.77"/></svg>