<svg id="Слой_1" data-name="Слой 1" xmlns="http://www.w3.org/2000/svg" viewBox="0 0 30.47 8.01"><defs><style>.cls-1{fill-rule:evenodd;}</style></defs><path class="cls-1" d="M1.3,2.62h.39l1,1.63h3l.22-.69H7.44l.22.7H9.11L7.43.08H6c-.07,0-.09.18-.12.25L5.11,2.15c-.13.33-.72,1.78-.82,2.08l0,0,0,0-1-1.56A6.15,6.15,0,0,1,2.85,2l.34-.49c.09-.13,1-1.39,1-1.47-.23,0-1.34,0-1.48,0l-1,1.55H1.3V.08H0V4.24H1.3ZM6.67,1.07s.43,1.33.47,1.51H6.19Z"/><path class="cls-1" d="M27.7,4.25V2.87h.54l.53,1a3.59,3.59,0,0,0,.17.34h1.52c0-.1-.93-1.38-1-1.61a1.18,1.18,0,0,0,.71-1c.11-1.29-1-1.52-2-1.52H26.41V4.25Zm0-3.2a4.79,4.79,0,0,1,.76,0c.25,0,.31.18.31.46s-.08.41-.33.46a6.17,6.17,0,0,1-.75,0Z"/><path class="cls-1" d="M10.82,2.87h.53l.71,1.38h1.52c-.07-.13-.18-.28-.26-.4s-.75-1.13-.79-1.22l.06,0a1.12,1.12,0,0,0,.65-1c.11-1.26-.94-1.51-2-1.51-.35,0-1.5,0-1.75,0V4.24h1.29Zm0-1.82c.66,0,1.08-.11,1.07.48,0,.27-.08.41-.31.45a4.79,4.79,0,0,1-.76,0Z"/><path class="cls-1" d="M18.94,4.25V2.68h1.38V4.25h1.29V.08H20.32V1.62c-.18,0-1.28,0-1.38,0V.08H17.65V4.24Z"/><path class="cls-1" d="M25.81,3.22H23.69V2.59h1.69V1.68H23.68V1.13c.09,0,1.79,0,2,0l0-1H22.39V4.24h3.39Z"/><path class="cls-1" d="M14.64,4.09a3.1,3.1,0,0,0,2.41,0l-.13-1a4.18,4.18,0,0,1-.66.15,2.22,2.22,0,0,1-.73,0c-.46-.12-.54-.52-.54-1.05,0-1,.31-1.18,1.27-1.11.12,0,.63.1.66.1l.12-1c-1.63-.45-3.46-.1-3.42,2.05A1.94,1.94,0,0,0,14.64,4.09Z"/><polygon class="cls-1" points="5.36 0.08 4.4 0.08 4.39 0.96 5.36 0.96 5.36 0.08"/><rect x="8.05" y="0.04" width="0.88" height="0.96" transform="translate(7.95 9.01) rotate(-89.87)"/><rect y="5.54" width="30.47" height="2.47"/></svg>