<svg id="Слой_1" data-name="Слой 1" xmlns="http://www.w3.org/2000/svg" viewBox="0 0 22.97 14.63"><defs><style>.cls-1{fill-rule:evenodd;}</style></defs><path class="cls-1" d="M4.27,6.25c.28-.7.6-1.43.89-2.13,0-.08.16-.38.17-.44H3.74c0,.09-.09.22-.13.31L3.08,5.26c0,.1-.09.21-.14.31l-.24.59s0,0,0,0L2.83,5c.06-.32.08-.6.13-.91C3,4,3,3.88,3,3.78L3.52.15C3.55,0,3.61,0,3,0H2c-.21,0-.19,0-.21.14l-.47,3c-.07.4-.12.79-.19,1.2C.86,5.9.63,7.54.37,9.1c-.1.62-.2,1.34-.3,1.93L0,11.5H1.73c0-.06,0-.1,0-.17a1.49,1.49,0,0,1,0-.18c0-.1,0-.22.06-.34.1-.56.24-1.18.33-1.73a2.9,2.9,0,0,1,.07-.34c0,.18.23,2.22.27,2.58a1,1,0,0,1,0,.18H4.22c0-.11,0-.42,0-.55L3.86,7.34a2.05,2.05,0,0,1,.23-.67Z"/><path class="cls-1" d="M9.43,7.58c0-.08,0-.17,0-.24l.42-2.23c.1-.45.17-1,.28-1.49H8.64L8,7s0,0,0,0l0,.05A2.72,2.72,0,0,0,8,6.8c0-.1,0-.21,0-.3s0-.21,0-.3c-.05-.39-.07-.86-.12-1.22s-.07-.86-.12-1.22c0-.18,0-.14-.19-.14H6.13L5.86,5.09l-.09.5c-.2,1-.37,2-.56,2.95l-.55,3H6.18c0-.14.06-.28.08-.43.06-.31.57-3,.57-3.09h0c0,.14,0,.3,0,.44l0,.65c0,.51.1,1.23.14,1.75l.05.68H8.66c.06,0,.05-.1.07-.21l.6-3.21C9.36,7.91,9.39,7.73,9.43,7.58Z"/><path class="cls-1" d="M18.37,9.1l.12-.61.68-3.65c0-.11,0-.19.06-.29s.16-.83.16-.93H17.6c0,.13-.05.28-.08.42-.14.7-.26,1.45-.41,2.16-.05.29-.1.57-.16.87l-.4,2.16c-.06.27-.11.59-.19.85a.28.28,0,0,1-.28.23c-.2,0-.18-.14-.17-.3s0-.29.06-.44L16.45,7c.16-.77.29-1.56.44-2.33,0-.07,0-.15,0-.22S17,4.2,17,4.06s0-.15,0-.22a.78.78,0,0,0,0-.22h-1.8l-.37,2c0,.05,0,.13,0,.2-.11.52-.23,1.25-.34,1.8s-.19,1.07-.29,1.59c0,.15-.12.7-.12.84a1.75,1.75,0,0,0,.16.85,2.11,2.11,0,0,0,2.53.62l.25-.11a2.36,2.36,0,0,0,1-1.14A7.17,7.17,0,0,0,18.37,9.1Z"/><path class="cls-1" d="M11.51,3.84c-.07.24-.16.48-.23.73s-.29.86-.4,1.23l-.79,2.47L10,8.53c-.22.65-.42,1.34-.63,2-.06.16-.11.33-.16.49l-.16.5h1.8l.38-1.43h.62l-.13,1.06a2.21,2.21,0,0,0,0,.37h1.66c0-.19,0-.4,0-.59s0-.57.06-.87c.05-.5.06-1.18.12-1.72l.19-2.59a.66.66,0,0,1,0-.14c0-.14,0-.33,0-.47l.06-1c0-.14,0-.3,0-.5H11.62C11.56,3.62,11.55,3.72,11.51,3.84Zm.88,1.69c0-.08,0,0,0,0s0,0,0,0l-.2,1.82c0,.33-.07.8-.11,1.15s.14.17-.6.17l.1-.39c.12-.52.31-1.07.45-1.58C12.05,6.63,12.36,5.58,12.39,5.53Z"/><path class="cls-1" d="M20,3.62c0,.1-.33,1.9-.36,2.05s-.09.46-.12.69l-.37,2.07c0,.23-.09.47-.13.69-.09.46-.16.92-.25,1.38s-.16.91-.25,1.37c-.14.78-.28,1.65-.43,2.41,0,.1-.05.25-.06.35H19.8l.33-1.83c.05-.31.11-.61.16-.92L21,8.21s.05,0,.11,0h1l.27-1.5H21.21l.25-1.33c0-.07,0-.16.07-.16H22.7c0-.09.12-.7.14-.79s0-.25.07-.39a2.76,2.76,0,0,0,.06-.4Z"/></svg>