<svg id="Слой_1" data-name="Слой 1" xmlns="http://www.w3.org/2000/svg" viewBox="0 0 43.09 9.56"><defs><style>.cls-1{fill-rule:evenodd;}</style></defs><path class="cls-1" d="M40.07,8c0-.08.32-.92.38-1.06l1-2.67a4.13,4.13,0,0,0,.19-.52c-.11,0-3.2,0-3.48,0a2.23,2.23,0,0,0-1.71.4,2.29,2.29,0,0,0-.59.8,3.72,3.72,0,0,0-.2.5L35.05,7l-.39,1H32.45c0-.07.65-1.86.77-2.18s.17-.5.26-.73h1.26c0-.08.3-.89.36-1.08a3.59,3.59,0,0,0,.12-.35H34.05a5.27,5.27,0,0,1,.19-.51c.15-.42.32-.84.47-1.26a1.34,1.34,0,0,0,.09-.26h-2s-.1.21-.12.25l-.32.79c-.08.18-.35.84-.42,1H30.74l-.5,1.39h1.29c0,.09-.23.62-.28.74-.19.48-.37,1-.55,1.46-.09.23-.19.49-.27.73H28.2c0-.08.33-.95.39-1.09.26-.71.5-1.44.77-2.15,0-.07.37-1,.38-1.08H27.83L26.13,8l-1.72,0a2.24,2.24,0,0,1-.1-.37L24,6.57c0-.14,0-.1.14-.27l1.77-1.74.13-.11.35-.34c.06-.06.33-.32.35-.36-.68,0-1.38,0-2.06,0-.23,0-.19,0-.32.09l-.42.4a5.36,5.36,0,0,1-.43.4c-.14.12-.69.67-.84.81s-.23.21-.32.31-.07.09-.11.09l1.48-4.21H21.83c-.06.12-.56,1.45-.62,1.6-.2.54-.41,1.07-.6,1.6-.3.8-.62,1.6-.92,2.4-.1.27-.21.54-.3.8H17.8c0-.11.72-2,.75-2.15.12-.36.25-.72.38-1.07,0-.12.37-1,.37-1.07H15.06a1.49,1.49,0,0,0-1,.4,2.16,2.16,0,0,0-.58.83c-.27.67-.55,1.34-.82,2-.07.17-.13.34-.2.5l-.11.26s-.07.23-.11.24H10.65S11,7.06,11,6.94c.11-.3,1.16-3.15,1.16-3.19H8.82A4.88,4.88,0,0,1,9,3.21c.05-.11.16-.43.19-.53H5.84c0-.18.33-.88.34-1.05H0V3.4H3.36c.22,0,.2,0,.13.14L1.43,9c-.05.13-.18.43-.21.55h2l2-5.17H6.55s-.09.26-.11.32L5.63,7c-.24.64-.48,1.29-.7,1.93-.06.19-.19.48-.23.66h2c.38-1,.8-2.1,1.18-3.14.12-.33.25-.65.37-1,0,0,0-.06,0-.07s1.31,0,1.45,0-.34.92-.39,1L8.32,9c0,.12-.17.42-.2.53h2.66a.16.16,0,0,0,.12,0l.55-.39.37-.27L12,8.72a1.27,1.27,0,0,1,.19-.13s.08.19.1.23a1.71,1.71,0,0,0,.42.59,1,1,0,0,0,.2.13c.06,0,1.15,0,1.34,0s.16,0,.27-.08,1-.88,1.1-.91.06.22.08.27a1.31,1.31,0,0,0,.43.61c.23.16.29.11.58.11h1c.39,0,.27,0,.61-.27L18.62,9a4.59,4.59,0,0,1,.57-.46c0,.08-.33.81-.36,1h2c0-.13.52-1.36.56-1.47.15-.36.28-.74.43-1.1l.1-.28s0,0,0,0l0,0s.6,1.88.69,2.19.17.5.23.74h2.05c.1,0,.11,0,.16-.09a3.59,3.59,0,0,1,.4-.38L25.62,9l.27-.25s.09-.11.13-.12a.66.66,0,0,1,.05.15,1.15,1.15,0,0,0,.6.76.59.59,0,0,0,.33.06h2.13c.18,0,.15,0,.28-.12l.71-.65c.05,0,.15-.16.21-.17a1.2,1.2,0,0,0,.25.52,1.51,1.51,0,0,0,.43.34.43.43,0,0,0,.3.08h2.11c.2,0,.12,0,.36-.22l.53-.52s.2-.22.25-.23a2.5,2.5,0,0,1,.08.25,1.05,1.05,0,0,0,.46.54,1.85,1.85,0,0,0,1.16.18h.65c.08,0,.14-.09.19-.14l.17-.17.5-.5s.13-.15.18-.16a.74.74,0,0,1,0,.14,1.06,1.06,0,0,0,.3.46,1.66,1.66,0,0,0,.34.24,1.27,1.27,0,0,0,.64.13h3.82V8ZM16.51,6.05c-.07.17-.76,1.93-.81,2H14.34a2.92,2.92,0,0,1,.13-.34l.41-1c.15-.4.37-1,.53-1.35h1.36C16.77,5.42,16.55,6,16.51,6.05ZM38.77,6,38.1,7.73c0,.1-.09.25-.13.33H36.6c0-.05.11-.28.13-.35L37.4,6c.08-.2.2-.47.27-.67.14,0,1.29,0,1.37,0S38.81,5.94,38.77,6Z"/><polygon class="cls-1" points="30.47 1.63 28.56 1.62 27.99 3.21 29.91 3.21 30.47 1.63"/><path class="cls-1" d="M40.9,1.59a.79.79,0,0,0,.68-.9.8.8,0,0,0-1.41-.4A.82.82,0,0,0,40,.91.79.79,0,0,0,40.9,1.59ZM40.32.24a.69.69,0,0,1,.37-.16.73.73,0,0,1,.83.62.74.74,0,0,1-.63.83A.75.75,0,0,1,40.06.9.73.73,0,0,1,40.32.24Z"/><path class="cls-1" d="M40.41,1.23h.13V.86c.08,0,.22,0,.3,0,.29,0,.17.17.23.37h.15c0-.05,0,0,0-.1s0-.25-.12-.31c0-.08.12,0,.12-.23S41,.39,40.9.38a4,4,0,0,0-.49,0v.86Zm.13-.76h.33c.12,0,.19,0,.19.16s-.09.14-.2.14-.23,0-.32,0Z"/></svg>