<svg id="Слой_1" data-name="Слой 1" xmlns="http://www.w3.org/2000/svg" viewBox="0 0 53.31 7.91"><defs><style>.cls-1{fill-rule:evenodd;}</style></defs><path class="cls-1" d="M18.18,4.6l-.13-.38c-.15-.53-.65-2.43-.75-2.64h-.71c-.13.17-.71,2.55-.85,3-.09-.15-.3-1.24-.37-1.51A9.25,9.25,0,0,0,15,1.61a3.18,3.18,0,0,0-1,0A20.73,20.73,0,0,0,14.62,4c.12.47.52,2,.63,2.36l.81,0c.15-.22.66-2.41.88-3l.85,3,.82,0c.09-.14,1.26-4.56,1.24-4.73h-1Z"/><path class="cls-1" d="M48.1,1.57c-.12,0-.15,0-.18.06s0,2.62,0,3l-.07-.06-.1-.17-.13-.24L46.3,1.84c-.14-.25-.08-.27-.43-.27a3,3,0,0,0-.68,0c0,.11-.07,4.43,0,4.71.06,0,.86.08.91-.06v-3c.13.13,1.08,1.89,1.32,2.3.5.87.27.75.92.75.21,0,.39,0,.46-.06s0-3,0-3.52C48.83,1.49,49.06,1.54,48.1,1.57Z"/><path class="cls-1" d="M39.54,4.19a1.27,1.27,0,0,0,.51-.83A1.51,1.51,0,0,0,39.65,2a1.86,1.86,0,0,0-1.38-.42,11.06,11.06,0,0,0-1.75,0c0,.12,0,4.55,0,4.69a3,3,0,0,0,1,0,15,15,0,0,0,0-1.79h.67c.1.27.29.65.42.91s.31.71.43.9h1.1c0-.22-.79-1.57-.91-1.93Zm-.67-.71c-.24.22-.79.18-1.18.17-.16,0-.15,0-.15-.16v-1a2.83,2.83,0,0,1,1.24.08A.59.59,0,0,1,38.87,3.48Z"/><path class="cls-1" d="M53.28,3.17a1.83,1.83,0,0,0-2.56-1.56,1.54,1.54,0,0,0-1,1.11,6.59,6.59,0,0,0-.09,2,1.82,1.82,0,0,0,2.55,1.53,1.56,1.56,0,0,0,1-1.1A7.13,7.13,0,0,0,53.28,3.17Zm-2,2.31c-.73-.08-.71-.81-.71-1.53s0-1.43.68-1.52,1,.52,1,1.25S52.37,5.6,51.33,5.48Z"/><path class="cls-1" d="M42,1.57c-1.28.31-1.4,1.54-1.3,3a1.81,1.81,0,0,0,2.4,1.79c1.3-.3,1.39-1.53,1.31-3A1.81,1.81,0,0,0,42,1.57Zm.71,3.91c-.92.13-1-.69-1-1.36s-.1-1.57.67-1.69,1,.69,1,1.36S43.44,5.37,42.71,5.48Z"/><path class="cls-1" d="M34.48,3.44l1.13-1.38c.1-.12.31-.35.31-.47a4,4,0,0,0-1.16,0s-.44.57-.52.68l-1,1.35,0,0V1.81c0-.13,0-.12,0-.2a2.64,2.64,0,0,0-1,0c-.07.08,0,3.7,0,4.32,0,.42-.09.4.33.4a2.1,2.1,0,0,0,.67,0c.12-.29-.07-1,.06-1.28l.57-.72c.1.07.79,1.42,1,1.74s0,.37,1.31.28a22.91,22.91,0,0,0-1.18-2.15A5.18,5.18,0,0,1,34.48,3.44Z"/><path class="cls-1" d="M11.58,3.29c-.44-.26-.24-.85.31-.88a2.68,2.68,0,0,1,1.24.36A3.33,3.33,0,0,0,13.62,2a2.66,2.66,0,0,0-2.53-.36,1.42,1.42,0,0,0-.53,2.13c.56.8,2.11.38,2.2,1.05s-.49.69-1,.63-.87-.43-1.11-.49a4.83,4.83,0,0,0-.58.69c.12.25.69.49,1,.6a3.18,3.18,0,0,0,1.47,0A1.46,1.46,0,0,0,13.75,4.4C13.4,3.33,12.09,3.58,11.58,3.29Z"/><path class="cls-1" d="M28.88,3.6a10.79,10.79,0,0,1-1.3-.31c-.56-.3-.19-1.47,1.5-.52.15,0,.22-.21.3-.34A1.67,1.67,0,0,0,29.61,2a2.19,2.19,0,0,0-1.12-.49,1.74,1.74,0,0,0-2.15,1,1.51,1.51,0,0,0,.21,1.28,1.88,1.88,0,0,0,1.07.54c.22,0,.46,0,.69.11,1.13.31.07,1.82-1.58.53-.17.06-.24.21-.35.32a1.21,1.21,0,0,0-.28.37,2.7,2.7,0,0,0,2.47.65,1.65,1.65,0,0,0,1-.62A1.39,1.39,0,0,0,28.88,3.6Z"/><path class="cls-1" d="M24.73,3.6a12.51,12.51,0,0,1-1.33-.31c-.41-.23-.25-.83.31-.88A2.74,2.74,0,0,1,25,2.77,3.18,3.18,0,0,0,25.45,2c-.48-.6-2.85-1-3.27.48a1.5,1.5,0,0,0,.22,1.3,1.82,1.82,0,0,0,1.07.54c.42.08,1,.06,1.12.48.12.65-.76.84-1.54.47-.2-.1-.35-.24-.51-.31a3.72,3.72,0,0,0-.61.69c.25.58,2.73,1.25,3.5,0a1.57,1.57,0,0,0,.14-1.33A1.27,1.27,0,0,0,24.73,3.6Z"/><path class="cls-1" d="M21.29,1.61a2.58,2.58,0,0,0-1,0c-.06.09-.09,4.42,0,4.7l.85,0c.25,0,.17-.22.17-.47C21.33,5.21,21.37,1.69,21.29,1.61Z"/><path class="cls-1" d="M4,4.6,4,6.33H2.37c0-1.06-.14-.77.41-1.48l.85-1.1L4.9,2.11a4.71,4.71,0,0,1,.43-.53H7.1A3.84,3.84,0,0,0,5.3.23a4,4,0,1,0,1,6.91,5.3,5.3,0,0,0,.43-.38L7,6.45l.05-.06,0-.06H5.33ZM.79,4.75V3.17H2.36V1.59H4c0,1.25.14,1-.55,1.83l-.51.66-.52.68Z"/><path class="cls-1" d="M7.17,1.61c-.15,0-.21.18-.29.28L5.27,4a5.41,5.41,0,0,0,.46.61L7,6.19c.11.13,0,0,.15.12A4.16,4.16,0,0,0,7.91,4a3.82,3.82,0,0,0-.47-1.87A5.26,5.26,0,0,1,7.17,1.61Z"/></svg>