<svg id="Слой_1" data-name="Слой 1" xmlns="http://www.w3.org/2000/svg" viewBox="0 0 37.53 7.95"><defs><style>.cls-1{fill-rule:evenodd;}</style></defs><path class="cls-1" d="M34,6.6,36,0H33.2c-.21.6-.4,1.27-.58,1.88S32.24,3.15,32,3.76l-.87,2.83s-.29.94-.31.9v0L28.54,0H25.7l1.73,5.62h-2a2,2,0,0,1,.25-.42c.26-.42.45-.55.35-.84s-.7-2.35-.77-2.45a8.13,8.13,0,0,0-.5.75L23.32,4.93c-.48.77-1.54,2.34-1.92,3h2.53a2.77,2.77,0,0,0,.32-.47c.11-.17.22-.32.31-.49h3.27l.31,1h9l.4-1.33Z"/><path class="cls-1" d="M10,6.61c-.21,0-.47,0-.55-.16s.14-.86.22-1.1l1-3.17a3.75,3.75,0,0,0-.26-1.09C10.29.72,10.19.37,10.07,0A2.17,2.17,0,0,0,8.65.67c-.1.11-.2.28-.31.39L8,0C7.87,0,1.12,0,.41,0L0,1.35H2.76c0,.18-.87,2.86-1,3.28l-1,3.31H3.57a7.71,7.71,0,0,0,.26-.81L5.09,3c.1-.31.4-1.45.52-1.65H8.17l-.45,1.3c-.14.44-.28.89-.41,1.33C7,5.11,6,7.3,7.39,7.82A5.13,5.13,0,0,0,9,7.94c.87,0,2.71,0,3.46,0l-.41-1.32C11.79,6.58,10.48,6.61,10,6.61Z"/><path class="cls-1" d="M25.1,1.35,24.7,0H17.13l-.31,1a1.42,1.42,0,0,0-.27-.55C16-.12,15.25,0,14.43,0H11.05c0,.12.33,1.18.39,1.32.64.1,2.44-.15,2.6.16a8.39,8.39,0,0,1-.54,2.17c-.21.68-.46,1.42-.65,2.11a16.46,16.46,0,0,0,.59,2.16A2.13,2.13,0,0,0,15,7.07a6.34,6.34,0,0,0,.75-1.77,26.12,26.12,0,0,0,1.06-3.95h2.62l-2,6.59H20.3l2-6.59Z"/></svg>