<svg xmlns="http://www.w3.org/2000/svg" width="24" height="24" viewBox="0 0 24 24">
    <path fill="#2F3137" fill-rule="evenodd" d="M19.113 21.337c-.493 0-.892-.4-.892-.891 0-.493.4-.893.892-.893.493 0 .892.4.892.893 0 .491-.4.891-.892.891zm-12.18 0c-.492 0-.892-.4-.892-.891 0-.493.4-.893.892-.893.491 0 .892.4.892.893 0 .491-.4.891-.892.891zM6.04 5.177l.061.01 2.563.462v7.332h-.053l-2.571-.036V5.176zm3.78.683l.061.01 2.563.463v6.7h-.053l-2.571-.037V5.86zm3.78.681l2.413.436v6.106l-.052-.001-2.362-.031V6.54zm3.57.645l.06.012 2.774.5v5.441h-.052L17.17 13.1V7.186zm3.99 13.417v-4.726H7.268c-.677 0-1.227-.551-1.227-1.228V14.1h.053l15.067.21v-7.58l-15.12-2.73v-.986c0-.998-.81-1.808-1.808-1.808H2.364v1.156h1.87c.358 0 .65.292.65.652v11.634c0 1.315 1.07 2.383 2.384 2.383h.557V18.6l-.073-.03c-.26-.115-.536-.173-.82-.173-1.129 0-2.048.92-2.048 2.049s.92 2.047 2.049 2.047c1.056 0 1.932-.792 2.038-1.843l.009-.047v-3.57h11.025V18.6l-.073-.03c-.26-.115-.536-.173-.82-.173-1.128 0-2.047.92-2.047 2.049s.919 2.047 2.048 2.047c1.057 0 1.932-.792 2.038-1.843l.01-.047z"/>
</svg>
