<svg xmlns="http://www.w3.org/2000/svg" width="64" height="64" viewBox="0 0 64 64">
    <g fill="none">
        <path fill="#D4DBE7" d="M20.676 12.566v1.722c-.025 2.195-1.824 3.961-4.033 3.961-2.21 0-4.008-1.766-4.034-3.96v-1.723H.03v38.368h12.578v-1.722c.026-2.195 1.824-3.961 4.034-3.961s4.008 1.766 4.033 3.961v1.722H63.9V12.566H20.676z"/>
        <circle cx="42.046" cy="32.257" r="12.664" fill="#415AB7"/>
        <path fill="#FF6870" d="M50.557 29.286c-.107-.333-.402-.569-.751-.6l-4.739-.43-1.873-4.386c-.139-.322-.453-.53-.803-.53-.35 0-.664.208-.802.53l-1.874 4.386-4.74.43c-.348.032-.642.267-.75.6-.108.332-.008.697.255.927l3.582 3.141-1.056 4.653c-.077.342.055.695.34.9.152.11.33.167.51.167.155 0 .31-.042.448-.124l4.087-2.443 4.086 2.443c.3.18.676.163.96-.042.283-.206.416-.56.339-.901l-1.057-4.653 3.582-3.14c.264-.231.364-.595.256-.928z"/>
        <path fill="#E2E8ED" d="M16.537 42.184c-.532 0-.963-.431-.963-.963v-1.65c0-.532.431-.962.963-.962.531 0 .962.43.962.962v1.65c0 .255-.1.5-.281.68-.18.181-.426.283-.681.283zm0-6.05c-.532 0-.963-.431-.963-.963v-1.65c0-.532.431-.962.963-.962.531 0 .962.43.962.962v1.65c0 .255-.1.5-.281.68-.18.181-.426.283-.681.283zm0-6.05c-.532 0-.963-.431-.963-.963v-1.65c0-.532.431-.962.963-.962.531 0 .962.43.962.962v1.65c0 .255-.1.5-.281.68-.18.181-.426.283-.681.283zm0-6.05c-.532 0-.963-.431-.963-.963v-1.65c0-.532.431-.962.963-.962.531 0 .962.43.962.962v1.65c0 .255-.1.5-.281.68-.18.181-.426.283-.681.283z"/>
    </g>
</svg>
