<svg xmlns="http://www.w3.org/2000/svg" width="15" height="15" viewBox="0 0 15 15">
    <g fill="none" fill-rule="evenodd" transform="translate(.4 -.08)">
        <circle cx="7" cy="7.885" r="7" fill="#F8BA8F"/>
        <path fill="#FFF" fill-rule="nonzero" d="M11.082 6.925c-.053-.166-.2-.284-.375-.3l-2.37-.215-.936-2.193c-.069-.16-.226-.264-.401-.264-.175 0-.332.104-.401.265L5.662 6.41l-2.37.215c-.173.016-.32.134-.374.3-.054.166-.005.348.127.463l1.79 1.57-.527 2.327c-.039.17.028.347.17.45.076.055.165.083.255.083.078 0 .154-.02.224-.062L7 10.535l2.043 1.22c.15.09.338.083.48-.02.141-.103.208-.28.169-.45l-.528-2.326 1.79-1.57c.132-.116.182-.298.128-.464z"/>
    </g>
</svg>
