<svg xmlns="http://www.w3.org/2000/svg" width="64" height="64" viewBox="0 0 64 64">
    <g fill="none">
        <path fill="#D4DBE7" d="M32.263 8.199L29.743 25.384 32.263 55.459 57.317 46.867 57.317 16.792z" transform="translate(-.5 4)"/>
        <path fill="#E5E9F1" d="M7.21 16.792L7.21 46.867 32.263 55.459 32.263 8.199z" transform="translate(-.5 4)"/>
        <path fill="#415AB7" d="M44.974 13.387c0 4.694-2.553 9.025-6.661 11.304-.165.092-.34.147-.517.17-.06.007-.12.01-.179.01H26.49c-.06 0-.12-.003-.179-.01-.177-.023-.351-.078-.517-.17-4.108-2.279-6.66-6.61-6.66-11.304 0-7.124 5.795-12.92 12.92-12.92 7.124 0 12.92 5.796 12.92 12.92z" transform="translate(-.5 4)"/>
        <path fill="#DCDEE4" d="M25.053 36.261L32.263 24.809 7.21 16.504 0 27.957z" transform="translate(-.5 4)"/>
        <path fill="#C4CBD8" d="M39.473 36.261L32.263 24.809 57.317 16.504 64.526 27.957z" transform="translate(-.5 4)"/>
        <path fill="#FF6870" d="M39.818 10.61c-.099-.306-.37-.523-.692-.552l-4.365-.397-1.726-4.04c-.127-.296-.417-.488-.74-.488-.321 0-.611.192-.739.489l-1.726 4.04-4.366.396c-.32.03-.592.246-.691.552-.1.307-.008.643.235.854l3.3 2.894-.973 4.286c-.072.315.05.641.312.83.14.102.305.153.471.153.143 0 .285-.038.412-.114l3.766-2.25 3.764 2.25c.275.165.622.15.883-.039.262-.19.384-.515.313-.83l-.973-4.286 3.3-2.893c.242-.212.335-.548.235-.855z" transform="translate(-.5 4)"/>
    </g>
</svg>
