<svg xmlns="http://www.w3.org/2000/svg" width="24" height="24" viewBox="0 0 24 24">
    <g fill="#2F3137" fill-rule="evenodd">
        <rect width="14.096" height="1.283" x="8.07" y="3.821" rx=".641"/>
        <rect width="14.096" height="1.283" x="8.07" y="8.846" rx=".641"/>
        <rect width="14.096" height="1.283" x="8.07" y="13.96" rx=".641"/>
        <rect width="14.096" height="1.283" x="8.07" y="18.896" rx=".641"/>
        <path fill-rule="nonzero" d="M5.291 3.034c.185-.238.527-.28.765-.096.214.166.27.46.145.69l-.049.074-1.7 2.19c-.19.245-.542.278-.774.089l-.065-.063-.96-1.09c-.199-.225-.177-.57.049-.769.2-.176.495-.179.697-.019l.071.068.524.595 1.297-1.669zM5.291 8.059c.185-.238.527-.28.765-.096.214.166.27.46.145.69l-.049.074-1.7 2.19c-.19.245-.542.277-.774.089l-.065-.064-.96-1.089c-.199-.226-.177-.57.049-.769.2-.177.495-.179.697-.019l.071.068.524.595 1.297-1.67zM5.291 13.084c.185-.238.527-.281.765-.096.214.166.27.46.145.69l-.049.074-1.7 2.19c-.19.245-.542.277-.774.088l-.065-.063-.96-1.09c-.199-.225-.177-.57.049-.768.2-.177.495-.18.697-.019l.071.068.524.595 1.297-1.67zM5.291 18.108c.185-.237.527-.28.765-.096.214.167.27.46.145.69l-.049.075-1.7 2.189c-.19.245-.542.278-.774.09l-.065-.064-.96-1.09c-.199-.225-.177-.57.049-.768.2-.177.495-.18.697-.02l.071.068.524.595 1.297-1.669z"/>
    </g>
</svg>
