<svg xmlns="http://www.w3.org/2000/svg" xmlns:xlink="http://www.w3.org/1999/xlink" width="24" height="24" viewBox="0 0 24 24">
    <defs>
        <path id="53t3iyigra" d="M0.001 0L16.571 0 16.571 17.614 0.001 17.614z"/>
    </defs>
    <g fill="none" fill-rule="evenodd" transform="translate(4 3)">
        <mask id="qt0rogqpcb" fill="#fff">
            <use xlink:href="#53t3iyigra"/>
        </mask>
        <path fill="#415AB7" d="M11.938 0H.598C.267 0 0 .268 0 .597v16.422c0 .328.268.595.597.595h11.341c.33 0 .598-.267.598-.595v-2.645c0-.328-.268-.596-.598-.596-.328 0-.596.268-.596.596v2.048H1.192V1.192h10.15V3.24c0 .329.268.597.596.597.33 0 .598-.268.598-.597V.597c0-.329-.268-.597-.598-.597m4.458 9.229l-1.87 1.87c-.232.228-.608.23-.844 0-.23-.233-.23-.611 0-.844l.854-.852H8.532c-.33 0-.598-.267-.598-.595 0-.329.268-.597.598-.597h6.005l-.854-.852c-.232-.232-.232-.611 0-.843.236-.232.611-.231.845 0l1.87 1.87c.109.109.175.267.175.419-.006.174-.063.309-.175.424" mask="url(#qt0rogqpcb)"/>
    </g>
</svg>
