<svg xmlns="http://www.w3.org/2000/svg" width="24" height="24" viewBox="0 0 24 24">
    <path fill="#2F3137" fill-rule="evenodd" d="M12.048 2.189c.76 0 1.426.666 1.426 1.426 0 .76-.666 1.427-1.426 1.427-.75 0-1.384-.653-1.384-1.427 0-.773.634-1.426 1.384-1.426zm0 3.933c1.359 0 2.506-1.148 2.506-2.507 0-1.359-1.147-2.506-2.506-2.506-1.359 0-2.464 1.124-2.464 2.506 0 1.382 1.105 2.507 2.464 2.507zm-2.667 4.05v-.101c0-1.47 1.196-2.667 2.667-2.667 1.494 0 2.709 1.197 2.709 2.667v.101H9.381zM7.617 21.716H2.284v-.102c0-1.47 1.196-2.666 2.667-2.666 1.47 0 2.666 1.196 2.666 2.666v.102zm8.861-.102c0-1.47 1.196-2.666 2.667-2.666 1.47 0 2.666 1.196 2.666 2.666v.102h-5.333v-.102zm-.514-1.978l-.045.076c-.34.575-.52 1.233-.52 1.902v1.182h7.492v-1.182c0-2.065-1.68-3.746-3.746-3.746-.885 0-1.744.316-2.42.89l-.064.053-4.073-3.23v-4.329h3.25v-1.181c0-2.066-1.7-3.747-3.79-3.747-2.066 0-3.747 1.681-3.747 3.747v1.181h3.207v4.33L7.434 18.81l-.063-.054c-.676-.573-1.536-.889-2.42-.889-2.066 0-3.747 1.68-3.747 3.746v1.182h7.493v-1.182c0-.67-.18-1.327-.52-1.902l-.045-.076 3.916-3.104 3.916 3.104zM4.95 13.818c.763 0 1.384.62 1.384 1.383s-.621 1.384-1.384 1.384c-.763 0-1.384-.62-1.384-1.384 0-.763.62-1.383 1.384-1.383zm0 3.847c1.358 0 2.464-1.105 2.464-2.464 0-1.358-1.106-2.464-2.464-2.464-1.359 0-2.464 1.106-2.464 2.464 0 1.36 1.105 2.464 2.464 2.464zm14.194-1.08c-.763 0-1.384-.62-1.384-1.384 0-.763.62-1.383 1.384-1.383.763 0 1.384.62 1.384 1.383s-.621 1.384-1.384 1.384zm0-3.848c-1.359 0-2.464 1.106-2.464 2.464 0 1.36 1.105 2.464 2.464 2.464 1.358 0 2.464-1.105 2.464-2.464 0-1.358-1.106-2.464-2.464-2.464z"/>
</svg>
