<svg xmlns="http://www.w3.org/2000/svg" width="25" height="24" viewBox="0 0 25 24">
    <path fill="#415AB7" stroke="#415AB7" stroke-width=".2" d="M16.096 1.541c.77 0 1.39.596 1.439 1.34h2.034c.273 0 .471.223.471.47h0v1.663c1.066.124 1.91 1.041 1.885 2.158h0v5.63c0 1.19-.967 2.182-2.183 2.182h0-1.24c-.273 0-.471-.223-.471-.47h0v-1.638h-.496v7.863c0 .793-.645 1.438-1.439 1.438h0-8.234c-.794 0-1.439-.645-1.439-1.438h0V12.9h-.496v1.637c0 .223-.149.397-.372.446h0-1.34c-1.19 0-2.182-.967-2.182-2.182h0V7.196c0-1.116.843-2.033 1.91-2.182h0V3.352c0-.273.223-.471.471-.471h2.034c.05-.744.67-1.34 1.439-1.34h0zm.521 11.335H7.39v7.838c0 .273.224.496.497.496h8.234c.273 0 .496-.223.496-.496h0v-7.838zm-1.686 6.3c.272 0 .47.223.47.471 0 .273-.222.472-.47.472h0H9.1c-.272 0-.47-.199-.47-.472 0-.272.223-.47.47-.47h0zm0-2.282c.272 0 .47.224.47.472 0 .272-.222.47-.47.47h0H9.1c-.272 0-.47-.222-.47-.47 0-.273.223-.472.47-.472h0zm0-2.306c.272 0 .47.198.47.47 0 .274-.222.472-.47.472h0H9.1c-.272 0-.47-.198-.47-.471 0-.273.223-.471.47-.471h0zm4.787-8.681H4.216c-.695 0-1.265.57-1.265 1.265h0v5.605c0 .695.57 1.265 1.265 1.265h.793v-1.637c0-.273.224-.471.472-.471h13.021c.273 0 .471.223.471.471h0v1.637h.794c.695 0 1.265-.57 1.265-1.265h0-.05V7.172c0-.695-.57-1.265-1.264-1.265h0zm-2.952.744c.315 0 .57.255.57.57 0 .315-.255.57-.57.57-.315 0-.57-.255-.57-.57 0-.315.255-.57.57-.57zm2.877.124c.248 0 .471.198.471.471 0 .273-.223.471-.47.471h0-1.415c-.272 0-.47-.198-.47-.471 0-.273.222-.471.47-.471h0zm-.52-2.977H17.56v1.19h1.562v-1.19zM16.12 2.46H7.887c-.273 0-.497.223-.497.496h0V4.99h9.227V2.955c0-.273-.223-.496-.496-.496h0zm-9.673 1.34H4.885v1.19h1.563v-1.19z"/>
</svg>
