<svg xmlns="http://www.w3.org/2000/svg" width="56" height="57" viewBox="0 0 56 57">
    <g fill="none" transform="translate(8 5.99)">
        <path fill="#E0141F" d="M10.3 20.392l13.881 7.367-10.3 19.406-.003-.003v.003l-2.839-5.16.003-.001-1.688-3.07L0 39.798l10.3-19.406z"/>
        <path fill="#EE4B53" d="M29.568 20.392l10.3 19.406-9.353-.864-1.69 3.07.003.003-2.839 5.16-3.273-6.165-7.029-13.243 13.881-7.367z"/>
        <circle cx="19.934" cy="17.211" r="17.211" fill="#415AB7"/>
        <path fill="#6B7EC8" d="M19.934 29.495c-6.774 0-12.285-5.513-12.285-12.286s5.51-12.284 12.285-12.284S32.22 10.438 32.22 17.211s-5.511 12.284-12.286 12.284z"/>
        <path fill="#FFF" d="M27.183 14.38H22.21l-1.538-4.73c-.197-.607-1.058-.607-1.255 0l-1.537 4.73h-4.973c-.64 0-.906.819-.388 1.194l4.023 2.924-1.536 4.73c-.198.607.498 1.113 1.016.738l4.023-2.924 4.023 2.924c.518.375 1.214-.13 1.016-.738l-1.536-4.73 4.023-2.924c.517-.375.252-1.194-.388-1.194z"/>
    </g>
</svg>
