<svg xmlns="http://www.w3.org/2000/svg" width="56" height="57" viewBox="0 0 56 57">
    <g fill="none">
        <path fill="#6B7EC8" d="M28.44 41.027v7.063c0 1.95-1.581 3.531-3.532 3.531h-3.531c-1.95 0-3.532-1.581-3.532-3.531v-7.063H28.44z" transform="translate(5 2.99)"/>
        <path fill="#415AB7" d="M17.845 48.09H28.44c0 1.95-1.581 3.531-3.532 3.531h-3.531c-1.95 0-3.532-1.581-3.532-3.531z" transform="translate(5 2.99)"/>
        <g fill="#415AB7">
            <path d="M22.072 0L23.838 0 23.838 3.532 22.072 3.532z" transform="translate(5 2.99)"/>
            <path d="M7.087 6.207L8.852 6.207 8.852 9.738 7.087 9.738z" transform="translate(5 2.99) rotate(-45 7.97 7.973)"/>
            <path d="M0 22.072L3.532 22.072 3.532 23.838 0 23.838z" transform="translate(5 2.99)"/>
            <path d="M6.201 37.051L9.732 37.051 9.732 38.816 6.201 38.816z" transform="translate(5 2.99) rotate(-45 7.967 37.933)"/>
            <path d="M37.046 36.173L38.812 36.173 38.812 39.704 37.046 39.704z" transform="translate(5 2.99) rotate(-45 37.929 37.939)"/>
            <path d="M42.378 22.072L45.91 22.072 45.91 23.838 42.378 23.838z" transform="translate(5 2.99)"/>
            <path d="M36.166 7.091L39.697 7.091 39.697 8.856 36.166 8.856z" transform="translate(5 2.99) rotate(-45 37.931 7.974)"/>
        </g>
        <path fill="#E0141F" d="M21.377 7.58h5.297v4.312l2.346.971 3.121-3.121 3.746 3.745-3.122 3.122.972 2.346h4.414v5.297h-4.414l-.972 2.346 3.122 3.121-3.746 3.746-3.121-3.122-2.346.972v4.414c-2.926 0-5.297-2.371-5.297-5.297v-5.297c1.82 1.366 4.382 1.123 5.914-.561 1.532-1.684 1.532-4.257 0-5.941-1.532-1.684-4.093-1.927-5.914-.561V7.58z" transform="translate(5 2.99)"/>
        <path fill="#415AB7" d="M17.845 41.027v-4.495C11.371 34.09 7.406 27.538 8.244 20.67 9.082 13.8 14.505 8.395 21.377 7.58v22.852c0 2.926 2.371 5.297 5.297 5.297h1.766v5.298H17.845z" transform="translate(5 2.99)"/>
    </g>
</svg>
