<svg xmlns="http://www.w3.org/2000/svg" width="56" height="57" viewBox="0 0 56 57">
    <g fill="none" fill-rule="evenodd">
        <path fill="#415AB7" d="M25 6H44.588V45.375H25z" transform="translate(0 .99)"/>
        <path fill="#6B7EC8" d="M4.857 6.031H23.857V45.519H4.857z" transform="translate(0 .99)"/>
        <g fill-rule="nonzero">
            <path fill="#415AB7" d="M35.867.047H3.572C1.602.047 0 1.65 0 3.62v32.295c0 1.97 1.603 3.572 3.572 3.572h32.295c1.97 0 3.573-1.602 3.573-3.572V3.62c0-1.97-1.603-3.573-3.573-3.573z" transform="translate(0 .99) translate(5 6)"/>
            <path fill="#6B7EC8" d="M3.572.047C1.602.047 0 1.65 0 3.62v32.295c0 1.97 1.603 3.572 3.572 3.572H19.72V.047H3.572z" transform="translate(0 .99) translate(5 6)"/>
            <path fill="#8193D7" d="M13.304.047v13.507c0 .487.243.941.648 1.21.406.27.919.32 1.368.132l4.4-1.843 4.4 1.843c.181.075.372.112.562.112.283 0 .563-.082.806-.243.405-.27.648-.724.648-1.21V.046H13.304z" transform="translate(0 .99) translate(5 6)"/>
            <path fill="#AAB9E9" d="M13.304.047v13.507c0 .487.243.941.648 1.21.406.27.919.32 1.368.132l4.4-1.843V.047h-6.416z" transform="translate(0 .99) translate(5 6)"/>
            <path fill="#E0141F" d="M36.5 22.5c-6.066 0-11 4.935-11 11 0 6.066 4.934 11 11 11 6.065 0 11-4.935 11-11s-4.935-11-11-11z" transform="translate(0 .99) translate(5 6)"/>
            <path fill="#FFF" d="M40.876 32.378h-3.254v-3.255c0-.663-.539-1.201-1.202-1.201-.664 0-1.202.538-1.202 1.201v4.457c0 .664.538 1.202 1.202 1.202h4.456c.664 0 1.202-.538 1.202-1.202 0-.664-.538-1.202-1.202-1.202z" transform="translate(0 .99) translate(5 6)"/>
        </g>
    </g>
</svg>
