<svg xmlns="http://www.w3.org/2000/svg" width="24" height="24" viewBox="0 0 24 24">
    <path fill="#415AB7" fill-rule="evenodd" d="M20.067.013c.727 0 1.319.591 1.319 1.318v21.337c0 .727-.592 1.319-1.32 1.319H3.935c-.727 0-1.32-.592-1.32-1.32V1.332c0-.727.593-1.318 1.32-1.318zm0 1.076H3.934c-.133 0-.241.11-.241.242v21.337c0 .134.108.241.241.241h16.133c.134 0 .241-.107.241-.241V1.33c0-.133-.107-.242-.241-.242zM7.577 17.965c.584 0 1.06.476 1.06 1.06v1.56c0 .585-.476 1.06-1.06 1.06H6.015c-.584 0-1.058-.475-1.058-1.06v-1.56c0-.584.474-1.06 1.058-1.06zm5.204 0c.583 0 1.059.476 1.059 1.06v1.56c0 .585-.476 1.06-1.059 1.06h-1.56c-.585 0-1.061-.475-1.061-1.06v-1.56c0-.584.476-1.06 1.06-1.06zm5.203-4.422c.584 0 1.06.475 1.06 1.058v5.985c0 .584-.476 1.059-1.06 1.059h-1.56c-.584 0-1.059-.475-1.059-1.06v-5.984c0-.583.475-1.058 1.059-1.058zm-10.425 5.5H6.034v1.524H7.56v-1.524zm5.204 0h-1.525v1.524h1.525v-1.524zm5.204-4.423h-1.525v5.947h1.525V14.62zm-10.39-1.077c.584 0 1.06.475 1.06 1.058v1.561c0 .584-.476 1.06-1.06 1.06H6.015c-.584 0-1.058-.476-1.058-1.06v-1.56c0-.584.474-1.06 1.058-1.06zm5.204 0c.583 0 1.059.475 1.059 1.058v1.561c0 .584-.476 1.06-1.059 1.06h-1.56c-.585 0-1.061-.476-1.061-1.06v-1.56c0-.584.476-1.06 1.06-1.06zM7.56 14.62H6.034v1.524H7.56V14.62zm5.204 0h-1.525v1.524h1.525V14.62zm-5.186-5.5c.584 0 1.06.475 1.06 1.058v1.561c0 .584-.476 1.059-1.06 1.059H6.015c-.584 0-1.058-.475-1.058-1.059v-1.561c0-.583.474-1.059 1.058-1.059zm10.407 0c.584 0 1.06.475 1.06 1.058v1.561c0 .584-.476 1.059-1.06 1.059h-1.56c-.584 0-1.059-.475-1.059-1.059v-1.561c0-.583.475-1.059 1.059-1.059zm-5.203 0c.583 0 1.059.475 1.059 1.058v1.561c0 .584-.476 1.059-1.059 1.059h-1.56c-.585 0-1.061-.475-1.061-1.059v-1.561c0-.583.476-1.059 1.06-1.059zM7.56 10.195H6.034v1.526H7.56v-1.526zm10.408 0h-1.525v1.526h1.525v-1.526zm-5.204 0h-1.525v1.526h1.525v-1.526zm5.221-7.842c.584 0 1.06.475 1.06 1.059v3.903c0 .584-.476 1.058-1.06 1.058H6.015c-.584 0-1.058-.474-1.058-1.058V3.413c0-.584.474-1.059 1.058-1.059zm-.017 1.077H6.034v3.867h11.933V3.431z"/>
</svg>
