<svg xmlns="http://www.w3.org/2000/svg" width="48" height="48" viewBox="0 0 48 48">
    <g fill="none">
        <path fill="#E0141F" d="M15.724 17.374l14.962 5.557v15.23l-14.962-6.252V17.374zM48 17.64v14.268L32.503 38.16V23.145l5.504-1.924v4.222l4.168-1.496v-4.222L48 17.641zM37.206 31.428l-.642.214v3.366l.642-.267v-3.313zM38.328 31l-.641.214v3.367l.64-.268V31zm2.244-.908l-.641.214v3.313l.641-.214v-3.313zm1.122-.374l-.64.214v3.26l.64-.268v-3.206zm1.603-.641l-.64.213v3.26l.64-.267v-3.206zm1.283-.481l-.641.213v3.207l.641-.268v-3.152zM22.083 13.259l15.87 5.932-6.091 2.19-16.138-5.878 6.359-2.244zm9.779-3.42L48 15.503l-5.825 2.138v-.107l-15.497-5.878 5.184-1.817z"/>
        <path fill="#415AB7" d="M0 31.033L14.581 31.033 14.581 29.821 1.352 29.821zM2.383 28.235L14.554 28.235 14.554 27.023 3.735 27.023zM4.883 25.601L4.883 25.698 14.643 25.698 14.643 24.486 6.176 24.486z"/>
    </g>
</svg>
