<svg xmlns="http://www.w3.org/2000/svg" width="48" height="48" viewBox="0 0 48 48">
    <g fill="none" fill-rule="evenodd">
        <path fill="#E0141F" fill-rule="nonzero" d="M10.293 0c5.675 0 10.293 4.617 10.293 10.293 0 2.75-1.071 5.334-3.015 7.278l-7.278 7.278-7.278-7.278C1.07 15.627 0 13.042 0 10.293 0 4.617 4.617 0 10.293 0zm0 4.21c-3.354 0-6.082 2.73-6.082 6.083 0 3.354 2.728 6.082 6.082 6.082 3.353 0 6.082-2.728 6.082-6.082 0-3.354-2.729-6.082-6.082-6.082zm0 2.808c1.809 0 3.275 1.466 3.275 3.275s-1.466 3.275-3.275 3.275-3.275-1.466-3.275-3.275 1.466-3.275 3.275-3.275zM40.42 29.84c-4.127 0-7.485 3.358-7.485 7.486 0 2 .778 3.879 2.192 5.293l5.294 5.293 5.293-5.293c1.414-1.414 2.192-3.294 2.192-5.293 0-4.128-3.358-7.486-7.485-7.486z" transform="translate(-.01 -.01)"/>
        <path fill="#415AB7" d="M9.507 34.029c0-4.63 3.767-8.395 8.396-8.395h5.209c1.886 0 3.423-1.537 3.423-3.424s-1.537-3.423-3.423-3.423h-4.81v-1.532h4.81c2.733 0 4.955 2.223 4.955 4.955 0 2.733-2.222 4.956-4.955 4.956h-5.209c-3.784 0-6.864 3.079-6.864 6.863 0 3.784 3.08 6.864 6.864 6.864h15.032v1.532H17.903c-4.63 0-8.396-3.765-8.396-8.396" transform="translate(-.01 -.01)"/>
    </g>
</svg>
