<svg xmlns="http://www.w3.org/2000/svg" width="32" height="32" viewBox="0 0 32 32">
    <path fill="#415AB7" d="M27.415 4.095c1.17 1.171 1.17 3.069 0 4.24l-.361.36.701.7c.376.375.587.884.587 1.415 0 .53-.211 1.04-.587 1.415l-3.685 3.68h-1.41l-.211.21.71.71-.706.707-.711-.71-1.414 1.415.71.71-.708.707-.709-.71-1.412 1.412.708.709-.707.707-.708-.708-1.414 1.414.704.705-.707.707-.705-.704-1.412 1.412.706.706-.707.707-.706-.706-1.061 1.06c-.118.12-.242.233-.371.338l.723.723-.707.707-.88-.88c-.558.27-1.17.424-1.8.445v1.287h-1v-1.366c-.726-.14-1.401-.458-1.968-.914l-.72.72-.707-.707.723-.722c-.256-.322-.47-.682-.632-1.074-.119-.288-.206-.583-.263-.882H3.215v-1h1.307c.022-.617.17-1.225.438-1.784l-.897-.899.707-.707.736.737c.102-.127.212-.25.329-.367l1.067-1.07-.714-.713.707-.707.713.713 1.415-1.418-.71-.71.707-.708.71.71 1.41-1.413-.71-.711.707-.708.71.71 1.41-1.413-.708-.708.708-.707.706.707.753-.753c-.18-.305-.278-.656-.278-1.016 0-.53.211-1.04.587-1.415l.708-.71-1.413-1.41c-.095-.094-.148-.222-.148-.355 0-.133.053-.261.148-.355.195-.194.51-.194.705 0l1.418 1.41 2.797-2.795h3.552l.383-.38c1.171-1.17 3.069-1.17 4.24 0zm-12.038 7.778l-.708.707.002.001-.707.708-.002-.002-1.413 1.41.002.003-.707.707-.003-.002-1.412 1.41.005.006-.707.707-.006-.006-1.418 1.416.006.006-.707.708-.006-.007L6.54 20.7c-1.367 1.367-1.367 3.583 0 4.95s3.583 1.367 4.95 0l9.755-9.745h-1.83l-.146-.144-8.709 8.71c-.374.455-.937.73-1.545.729-.905 0-1.697-.609-1.93-1.483-.19-.706.023-1.443.524-1.939l-.007-.007 8.837-8.837-1.062-1.061zM9.015 22.2c-.477 0-.887.337-.98.805-.093.467.157.936.597 1.118.383.16.817.064 1.098-.223l-.006-.007.08-.079c.015-.018.029-.037.042-.057.242-.36.222-.829-.036-1.165l-.085-.097c-.188-.189-.443-.295-.71-.295zm8.132-8.56l-7.625 7.625c.283.074.552.21.784.406l.124.114c.251.251.426.558.516.887l7.616-7.618-1.415-1.414zm5.268-8.165h-2.76l-2.502 2.5.727.725c.144.143.188.36.11.547-.078.187-.262.31-.465.308l-.025-.01c-.132-.002-.258-.056-.35-.15l-.709-.707-.706.707c-.188.188-.293.442-.293.707 0 .262.102.514.285.7l4.103 4.103h3.83l3.385-3.385c.188-.188.293-.442.293-.708 0-.265-.105-.52-.293-.707l-.7-.7-1.76 1.76c-.097.096-.229.148-.365.145-.133 0-.26-.051-.355-.145-.095-.094-.148-.222-.148-.355 0-.133.053-.261.148-.355l1.766-1.763-3.216-3.217zm.474 5.834l.707.707-2.121 2.121-.707-.707 2.121-2.121zm-1.41-1.415l.706.707-2.121 2.121-.707-.707 2.121-2.121zM23.88 4.8l-.361.364 2.822 2.819.354-.353c.698-.79.662-1.987-.081-2.734-.744-.748-1.94-.79-2.734-.096z"/>
</svg>
