<?xml version="1.0" encoding="utf-8"?>
<svg width="50px" height="58px" viewBox="0 0 50 58" version="1.1" xmlns:xlink="http://www.w3.org/1999/xlink" xmlns="http://www.w3.org/2000/svg">
  <desc>Created with Lunacy</desc>
  <g id="file-upload" transform="matrix(0.9659258 -0.258819 0.258819 0.9659258 0.6123657 10.20123)">
    <path d="M31.3526 6.32827e-15L1.87256 6.32827e-15C0.840094 6.32827e-15 0 0.84 0 1.87256L0 37.4536C0 38.4862 0.84 39.3262 1.87256 39.3262L3.76744 39.3262C3.89738 39.3262 4.02141 39.2723 4.11009 39.1773L33.1257 8.10084C33.2067 8.01403 33.2518 7.89966 33.2518 7.78097L33.2518 1.89919C33.2519 0.852 32.3999 0 31.3526 0L31.3526 6.32827e-15Z" transform="translate(-6.103516E-05 8.392334E-05)" id="Path" fill="#415AB7" fill-opacity="0.339704245" stroke="none" />
    <path d="M33.75 8.06156L33.75 37.2187C33.75 38.2519 32.91 39.0919 31.8778 39.0919L1.87313 39.0919C0.84 39.0919 0 38.2519 0 37.2187L0 1.87219C0 0.84 0.84 0 1.87313 0L25.6875 0L26.5538 0.86625L33.75 8.06156Z" transform="translate(3.298401 3.515717)" id="Path" fill="#415AB7" stroke="none" />
    <path d="M33.75 7.19531L33.75 36.3525C33.75 37.3856 32.91 38.2256 31.8778 38.2256L1.87313 38.2256C0.84 38.2256 0 37.3856 0 36.3525L0 35.8819L29.9344 35.8819C30.9797 35.8819 31.8272 35.0344 31.8272 33.9881L31.8272 7.19531L26.5538 0L33.75 7.19531Z" transform="translate(3.298462 4.381966)" id="Path" fill="#D9E1FF" fill-opacity="0.129371285" stroke="none" />
    <path d="M8.0625 8.06156L6.13969 8.06156L0.616875 8.06063C0.276562 8.06063 0 7.785 0 7.44375L0 0C0.124688 0 0.24375 0.04875 0.331875 0.136875L7.92562 7.73063C8.01375 7.81875 8.0625 7.93781 8.0625 8.06156L8.0625 8.06156Z" transform="translate(28.98596 3.515717)" id="Path" fill="#F5F7FA" stroke="none" />
    <path d="M7.73063 7.92469L5.80781 7.92469L0 0L7.59375 7.59375C7.68187 7.68187 7.73063 7.80094 7.73063 7.92469Z" transform="translate(29.31787 3.652603)" id="Path" fill="#B3CAF6" stroke="none" />
    <g id="Group" transform="translate(11.02429 16.40636)">
      <path d="M0.703125 1.40625L17.5239 1.40625C17.9123 1.40625 18.2271 1.09153 18.2271 0.703125C18.2271 0.314719 17.9123 0 17.5239 0L0.703125 0C0.314813 0 0 0.314719 0 0.703125C0 1.09153 0.314813 1.40625 0.703125 1.40625Z" transform="translate(0.05334375 0.04275)" id="Path" fill="#FFFFFF" stroke="none" />
      <path d="M17.5239 0L0.703125 0C0.314813 0 0 0.314719 0 0.703125C0 1.09153 0.314813 1.40625 0.703125 1.40625L17.5239 1.40625C17.9123 1.40625 18.2271 1.09153 18.2271 0.703125C18.2271 0.314719 17.9123 0 17.5239 0Z" transform="translate(0.05334375 4.1895)" id="Path" fill="#FFFFFF" stroke="none" />
      <path d="M4.02628 0L0.703125 0C0.314813 0 0 0.314719 0 0.703125C0 1.09153 0.314813 1.40625 0.703125 1.40625L4.02628 1.40625C4.41459 1.40625 4.72941 1.09153 4.72941 0.703125C4.72941 0.314719 4.41459 0 4.02628 0Z" transform="translate(13.551 8.418938)" id="Path" fill="#FFFFFF" stroke="none" />
      <path d="M10.8917 0L0.703125 0C0.314813 0 0 0.314719 0 0.703125C0 1.09153 0.314813 1.40625 0.703125 1.40625L10.8917 1.40625C11.28 1.40625 11.5948 1.09153 11.5948 0.703125C11.5948 0.314719 11.28 0 10.8917 0Z" transform="translate(0.05334375 8.418938)" id="Path" fill="#FFFFFF" stroke="none" />
    </g>
    <path d="M17.6625 8.83125C17.6625 13.6997 13.7006 17.6616 8.83125 17.6616C8.45063 17.6616 8.07563 17.6372 7.70813 17.5903L7.70438 17.5903C3.36469 17.0344 0 13.3181 0 8.83125C0 4.34344 3.36469 0.627187 7.70438 0.07125L7.70813 0.07125C8.07563 0.024375 8.45063 0 8.83125 0C13.7006 0 17.6625 3.96187 17.6625 8.83125Z" transform="translate(11.35999 30.33852)" id="Path" fill="#FFFFFF" stroke="#415AB7" stroke-width="1" />
    <path d="M6.30963 3.66988C6.07389 3.90569 5.69168 3.90561 5.45602 3.66996L3.84684 2.06085L3.84684 7.89638C3.84684 8.22982 3.57658 8.5 3.24321 8.5C2.90985 8.5 2.63959 8.22982 2.63959 7.89638L2.63959 2.06085L1.03041 3.66996C0.794672 3.90561 0.412457 3.90569 0.176802 3.66988C-0.0589339 3.43414 -0.0589339 3.05193 0.176802 2.81627L2.81641 0.176741C2.93424 0.0589138 3.08877 0 3.24321 0C3.39766 0 3.55219 0.0589138 3.67002 0.176741L6.30963 2.81627C6.54536 3.05193 6.54536 3.43414 6.30963 3.66988Z" transform="translate(17.12048 35.44359)" id="Path" fill="#E0141F" stroke="none" />
  </g>
</svg>