<svg xmlns="http://www.w3.org/2000/svg" width="15" height="24" viewBox="0 0 15 24">
    <path fill="#FFF" d="M2.681 11.991c.14.067.275.15.403.238 2.616 1.798 6.21 1.848 8.837.081.26-.2.538-.362.86-.445.627-.16 1.212.07 1.548.618.384.626.38 1.237-.094 1.724-.726.745-1.6 1.284-2.57 1.66-.918.356-1.923.535-2.918.654.15.164.22.244.315.338 1.35 1.358 2.707 2.71 4.054 4.07.458.464.554 1.04.302 1.58-.277.589-.895.977-1.5.935-.385-.026-.684-.217-.95-.486-1.02-1.025-2.058-2.032-3.057-3.077-.29-.304-.43-.247-.687.017-1.025 1.056-2.068 2.095-3.116 3.129-.47.464-1.031.548-1.577.283-.58-.282-.95-.874-.921-1.47.02-.402.218-.71.494-.986 1.337-1.334 2.67-2.673 4.004-4.01.088-.089.17-.183.299-.32-1.819-.19-3.459-.638-4.863-1.736-.174-.137-.354-.268-.513-.42-.614-.591-.676-1.267-.19-1.963.416-.596 1.114-.756 1.84-.414zM7.586 0c3.283.009 5.918 2.694 5.901 6.014-.017 3.243-2.695 5.871-5.973 5.86-3.244-.011-5.904-2.7-5.885-5.95C1.647 2.638 4.309-.01 7.586 0zm-.024 3.032c-1.624-.001-2.92 1.306-2.908 2.935.012 1.607 1.308 2.882 2.923 2.876 1.61-.005 2.891-1.298 2.886-2.911-.006-1.614-1.29-2.898-2.9-2.9z"/>
</svg>
