<svg xmlns="http://www.w3.org/2000/svg" width="33" height="32" viewBox="0 0 33 32">
    <path fill="#2F3137" d="M5.342 6.57c.8-1.686 2.57-2.689 4.426-2.51 1.856.18 3.401 1.504 3.863 3.311l3.628-.195c.148-.009.293.046.398.151L28.701 18.37c.098.097.153.229.154.367.002.14-.054.276-.154.375l-8.7 8.7c-.1.098-.235.152-.375.149-.138 0-.27-.056-.367-.154L8.217 16.767c-.103-.104-.156-.247-.148-.393l.195-3.622c-.782-.193-1.497-.597-2.065-1.167-1.314-1.324-1.657-3.33-.857-5.015zm11.753 1.658l-3.318.18c.01 1.19-.458 2.336-1.302 3.177-.204.203-.534.203-.737 0-.204-.204-.204-.534 0-.737.634-.631.99-1.488.992-2.383l-2.583.138c-.345.037-.617.31-.654.654l-.375 6.942 10.508 10.508 7.971-7.971L17.095 8.228zm.416 3.1c.288 0 .521.232.521.52v9.424c0 .288-.233.521-.52.521-.288 0-.522-.233-.522-.52v-9.425c0-.288.234-.52.521-.52zm-4.583 3.877c.752-.75 1.97-.75 2.721 0 .55.55.715 1.378.418 2.097-.298.72-1 1.188-1.778 1.188-.779 0-1.48-.469-1.778-1.188-.298-.72-.134-1.547.417-2.097zm6.082.286c.51-.764 1.488-1.061 2.336-.71.849.35 1.331 1.252 1.152 2.153-.179.9-.97 1.55-1.888 1.55-.51 0-.999-.202-1.36-.563-.65-.649-.75-1.666-.24-2.43zm-4.098.45c-.252-.252-.632-.328-.962-.191-.33.136-.545.458-.545.815 0 .358.215.68.545.816.33.137.71.06.962-.192.34-.35.34-.903 0-1.247zm6.051-.197c-.33-.136-.71-.06-.962.192-.166.166-.26.39-.26.624 0 .234.094.459.26.624.252.253.632.328.962.192.33-.137.545-.459.545-.816 0-.357-.215-.679-.545-.816zm-9.225-9.7c-1.327-1.328-3.478-1.328-4.805 0-1.327 1.326-1.327 3.477 0 4.804.386.39.862.678 1.386.841l.135-2.49c.065-.875.76-1.57 1.635-1.635l2.485-.135c-.161-.524-.448-1-.836-1.386z"/>
</svg>
