<svg xmlns="http://www.w3.org/2000/svg" width="56" height="56" viewBox="0 0 56 56">
    <g fill="none">
        <g>
            <path fill="#5770CD" d="M33.536 11.609l-9.029-2.58L21.927 0H3.87C1.732 0 0 1.732 0 3.87v36.287c0 2.137 1.732 3.87 3.87 3.87h25.796c2.137 0 3.87-1.733 3.87-3.87V11.61z" transform="translate(7.2 5.3)"/>
            <path fill="#415AB7" d="M33.536 11.609v28.548c0 2.137-1.733 3.87-3.87 3.87H16.768V0h5.16l2.579 9.029 9.029 2.58z" transform="translate(7.2 5.3)"/>
            <path fill="#C3DAFD" d="M33.536 11.609h-9.029c-1.419 0-2.58-1.161-2.58-2.58V0c.336 0 .671.129.903.387L33.15 10.706c.258.232.387.567.387.903z" transform="translate(7.2 5.3)"/>
            <path fill="#FFF5F5" d="M24.519 17.72H9.04c-.713 0-1.29-.51-1.29-1.138 0-.628.577-1.137 1.29-1.137h15.478c.713 0 1.29.509 1.29 1.137 0 .629-.577 1.138-1.29 1.138zM24.519 22.268H9.04c-.713 0-1.29-.508-1.29-1.137 0-.628.577-1.137 1.29-1.137h15.478c.713 0 1.29.509 1.29 1.137 0 .629-.577 1.137-1.29 1.137zM24.519 26.817H9.04c-.713 0-1.29-.508-1.29-1.137 0-.628.577-1.137 1.29-1.137h15.478c.713 0 1.29.509 1.29 1.137 0 .629-.577 1.137-1.29 1.137zM19.36 31.366H9.04c-.712 0-1.289-.508-1.289-1.137 0-.628.577-1.137 1.29-1.137H19.36c.712 0 1.29.509 1.29 1.137 0 .629-.578 1.137-1.29 1.137z" opacity=".648" transform="translate(7.2 5.3)"/>
        </g>
        <g>
            <path fill="#E0141F" d="M21.195 3.899C18.96 1.663 15.752.209 12.373.209c-2.905 0-5.75 1.068-7.948 2.96L3.35 1.376c-.158-.262-.464-.393-.762-.336-.3.06-.529.303-.573.606L.994 8.794c-.07.483.35.884.816.817l7.149-1.02c.303-.044.545-.273.606-.573.06-.3-.075-.605-.337-.762L7.524 6.233c2.33-1.825 4.774-1.665 4.919-1.69 2.698 0 4.49 1.224 5.519 2.253 1.508 1.508 2.405 3.635 2.4 5.689 0 .409.33.724.721.724h2.89c.397 0 .72-.322.722-.72.012-3.318-1.198-6.289-3.5-8.59z" transform="translate(27.992 28.926)"/>
            <path fill="#FF747C" d="M22.93 15.465l-7.149 1.021c-.303.044-.546.272-.606.572-.061.3.074.605.337.762l1.698 1.02c-1.385 1.085-3.155 1.692-4.89 1.687-2.72.036-4.511-1.221-5.544-2.253-1.508-1.508-2.405-3.635-2.4-5.689 0-.41-.33-.724-.721-.724H.766c-.398 0-.72.322-.722.72-.013 3.318 1.197 6.289 3.5 8.59 2.22 2.222 5.227 3.604 8.82 3.69 2.907 0 5.75-1.068 7.948-2.96l1.079 1.8c.158.262.462.395.761.336.3-.06.53-.303.573-.606l1.021-7.149c.07-.483-.354-.889-.816-.817z" transform="translate(27.992 28.926)"/>
        </g>
    </g>
</svg>
