<svg xmlns="http://www.w3.org/2000/svg" width="24" height="24" viewBox="0 0 24 24">
    <path fill="#415AB7" d="M12.021 6.003c6.208 0 11.118 5.404 11.328 5.64.23.258.23.643 0 .9-.21.23-5.12 5.633-11.328 5.633-6.208 0-11.118-5.403-11.327-5.64-.23-.257-.23-.642 0-.9.21-.23 5.119-5.633 11.327-5.633zm0 1.353l.217.005c2.51.113 4.517 2.191 4.517 4.729 0 2.61-2.123 4.734-4.734 4.734l.336-.006c4.456-.162 8.278-3.494 9.538-4.728-1.292-1.265-5.275-4.734-9.874-4.734zm0 0c-4.598 0-8.582 3.47-9.873 4.734 1.291 1.265 5.275 4.734 9.873 4.734l-.216-.005c-2.51-.114-4.518-2.191-4.518-4.73 0-2.61 2.124-4.733 4.734-4.733zm0 1.353c-1.866 0-3.381 1.514-3.381 3.38 0 1.867 1.515 3.382 3.381 3.382 1.867 0 3.382-1.515 3.382-3.381 0-1.867-1.515-3.381-3.382-3.381zm0 2.028c.747 0 1.353.606 1.353 1.353s-.606 1.352-1.353 1.352-1.352-.605-1.352-1.352c0-.747.605-1.353 1.352-1.353z"/>
</svg>
