<?xml version="1.0" encoding="utf-8"?>
<svg width="254px" height="167px" viewBox="0 0 254 167" version="1.1" xmlns:xlink="http://www.w3.org/1999/xlink" xmlns="http://www.w3.org/2000/svg">
  <desc>Created with Lunacy</desc>
  <path d="M152.732 128.034C137.947 150.881 112.239 166 83 166C37.1604 166 0 128.84 0 83C0 37.1604 37.1604 0 83 0C106.172 0 127.127 9.49597 142.184 24.8088C142.836 25.4558 143.537 26.2004 144.264 27.0017C144.891 27.687 145.506 28.3829 146.11 29.089C147.161 30.3011 148.221 31.5579 149.225 32.7478C151.574 35.5306 153.614 37.9474 154.495 38.5717C156.447 39.9545 160.298 41.4368 163.868 38.8631C173.091 32.2132 184.415 28.2954 196.653 28.2954C227.647 28.2954 252.773 53.4209 252.773 84.4148C252.773 115.409 227.647 140.534 196.653 140.534C182.425 140.534 169.433 135.239 159.541 126.511C158.175 125.307 154.295 125.317 152.912 127.824C152.868 127.904 152.808 127.973 152.732 128.034L152.732 128.034Z" transform="translate(0.5 0.5)" id="Combined-Shape" fill="#4659B3" fill-opacity="0.968773246" fill-rule="evenodd" stroke="none" />
</svg>