<svg xmlns="http://www.w3.org/2000/svg" width="24" height="24" viewBox="0 0 24 24">
    <path fill="#415AB7" d="M18.706 14.396c1.68 0 3.048 1.367 3.048 3.048 0 .814-.317 1.58-.893 2.156l-2.155 2.155L16.55 19.6c-.576-.576-.893-1.342-.893-2.156 0-1.68 1.368-3.048 3.049-3.048zm-7.04-3.412c1.255 0 2.277 1.022 2.277 2.277 0 1.256-1.022 2.278-2.278 2.278h-2.12c-1.399 0-2.536 1.137-2.536 2.535 0 1.398 1.137 2.536 2.535 2.536h6.38v1.143h-6.38c-2.028 0-3.678-1.65-3.678-3.679 0-2.028 1.65-3.678 3.678-3.678h2.121c.626 0 1.135-.509 1.135-1.135 0-.625-.51-1.134-1.135-1.134H9.448v-1.143h2.217zm7.04 4.555c-1.05 0-1.906.855-1.906 1.905 0 .51.199.988.558 1.347l1.348 1.348 1.347-1.348c.36-.36.558-.838.558-1.347 0-1.05-.855-1.905-1.905-1.905zM6.437 2.245c2.311 0 4.192 1.88 4.192 4.191 0 1.12-.436 2.172-1.228 2.964l-2.964 2.964L3.474 9.4c-.792-.792-1.228-1.844-1.228-2.964 0-2.31 1.88-4.191 4.191-4.191zm0 1.143c-1.68 0-3.048 1.367-3.048 3.048 0 .814.317 1.58.893 2.156l2.155 2.155 2.156-2.155c.576-.576.893-1.342.893-2.156 0-1.68-1.368-3.048-3.049-3.048zm0 1.143c1.05 0 1.906.855 1.906 1.905s-.855 1.905-1.906 1.905c-1.05 0-1.905-.854-1.905-1.905 0-1.05.855-1.905 1.905-1.905zm0 1.143c-.42 0-.762.342-.762.762s.342.762.762.762.762-.341.762-.762c0-.42-.341-.762-.762-.762z"/>
</svg>
