<svg xmlns="http://www.w3.org/2000/svg" width="56" height="57" viewBox="0 0 56 57">
    <g fill="none">
        <path fill="#E0141F" d="M22.752 20.651L20.232 20.651 20.232 26.136 15.562 30.806 17.344 32.588 21.487 28.445 25.659 32.591 27.435 30.804 22.752 26.149z" transform="translate(6.5 7.49)"/>
        <path fill="#E0141F" d="M22.752 26.149L22.752 20.651 21.528 20.651 21.528 28.485 25.659 32.591 27.435 30.804z" transform="translate(6.5 7.49)"/>
        <path fill="#6B7EC8" d="M23.649 9.251H19.35c-2.46 0-4.463 2.003-4.463 4.464v3.095h13.224v-3.095c0-2.461-2.002-4.464-4.463-4.464z" transform="translate(6.5 7.49)"/>
        <path fill="#AAB9E9" d="M21.5 7.947c2.185 0 3.963-1.778 3.963-3.963S23.685.022 21.5.022s-3.963 1.777-3.963 3.962c0 2.185 1.778 3.963 3.963 3.963z" transform="translate(6.5 7.49)"/>
        <path fill="#415AB7" d="M23.649 9.251h-2.065v7.559h6.528v-3.095c0-2.461-2.002-4.464-4.463-4.464z" transform="translate(6.5 7.49)"/>
        <path fill="#8193D7" d="M21.584.024v7.92c2.146-.044 3.879-1.803 3.879-3.96S23.73.07 21.584.024z" transform="translate(6.5 7.49)"/>
        <path fill="#6B7EC8" d="M8.76 35.42H4.464C2.003 35.42 0 37.422 0 39.883v3.095h13.224v-3.095c0-2.461-2.002-4.463-4.463-4.463z" transform="translate(6.5 7.49)"/>
        <path fill="#AAB9E9" d="M6.612 34.115c2.185 0 3.963-1.777 3.963-3.962 0-2.185-1.778-3.963-3.963-3.963s-3.963 1.778-3.963 3.963 1.778 3.962 3.963 3.962z" transform="translate(6.5 7.49)"/>
        <path fill="#415AB7" d="M8.76 35.42H6.697v7.558h6.528v-3.095c0-2.461-2.002-4.463-4.463-4.463z" transform="translate(6.5 7.49)"/>
        <path fill="#8193D7" d="M6.696 26.192v7.921c2.146-.045 3.879-1.803 3.879-3.96s-1.733-3.916-3.88-3.96z" transform="translate(6.5 7.49)"/>
        <path fill="#6B7EC8" d="M38.537 35.42h-4.298c-2.46 0-4.463 2.002-4.463 4.463v3.095H43v-3.095c0-2.461-2.002-4.463-4.463-4.463z" transform="translate(6.5 7.49)"/>
        <path fill="#AAB9E9" d="M36.388 34.115c2.185 0 3.963-1.777 3.963-3.962 0-2.185-1.778-3.963-3.963-3.963s-3.963 1.778-3.963 3.963 1.778 3.962 3.963 3.962z" transform="translate(6.5 7.49)"/>
        <path fill="#415AB7" d="M38.537 35.42h-2.065v7.558H43v-3.095c0-2.461-2.002-4.463-4.463-4.463z" transform="translate(6.5 7.49)"/>
        <path fill="#8193D7" d="M36.472 26.192v7.921c2.146-.045 3.879-1.803 3.879-3.96s-1.733-3.916-3.879-3.96z" transform="translate(6.5 7.49)"/>
    </g>
</svg>
