<svg xmlns="http://www.w3.org/2000/svg" width="16" height="16" viewBox="0 0 16 16">
    <path fill="#2F3137" fill-rule="evenodd" d="M4.458 2.07l.143.146c.063.065.127.128.192.196l.961.96c.333.334.333.619 0 .952l-.102.102c-.067.067-.133.134-.202.2-.313.322-.584.59-.88.857l-.031.028-.003.006c-.32.33-.264.663-.195.88.004.014.01.027.014.044.25.608.606 1.187 1.156 1.884.981 1.208 2.01 2.144 3.148 2.863.141.09.285.163.442.242.13.063.243.122.362.193l.029.017c.132.066.26.098.393.098.33 0 .535-.202.604-.27l1.204-1.205c.108-.107.274-.235.462-.235.197 0 .356.141.443.235l1.94 1.94c.315.312.324.609.03.932l-.04.001-.011.053c-.11.115-.22.224-.337.337l-.066.065c-.226.215-.465.45-.685.708-.336.361-.732.53-1.25.53-.052-.006-.104 0-.155-.005-1.03-.066-1.988-.47-2.707-.814-1.982-.957-3.718-2.317-5.162-4.041-1.19-1.436-1.992-2.767-2.518-4.192-.321-.86-.44-1.526-.388-2.159.033-.387.182-.709.457-.985l1.198-1.197c.155-.145.316-.223.466-.223.19 0 .346.119.457.23.221.207.433.423.63.626m10.898 9.329l-1.934-1.94c-.361-.376-.797-.574-1.26-.574-.46 0-.9.197-1.272.57L9.827 10.51l-.11-.058-.097-.05c-.13-.063-.243-.121-.34-.18-1.034-.657-1.973-1.514-2.872-2.617-.414-.526-.696-.965-.908-1.415.24-.222.467-.451.685-.672l.376-.384c.383-.38.585-.826.585-1.286 0-.462-.202-.907-.585-1.288l-.96-.961c-.108-.11-.22-.22-.325-.334C5.08 1.063 4.85.83 4.612.61 4.252.253 3.82.065 3.363.065c-.455 0-.893.188-1.274.553L.894 1.825C.425 2.293.159 2.864.101 3.524.014 4.569.32 5.538.557 6.178c.576 1.554 1.438 2.99 2.71 4.519 1.552 1.853 3.419 3.315 5.547 4.344.822.389 1.92.847 3.135.924.074.004.154.007.226.007.843 0 1.551-.305 2.104-.905l.018-.021c.162-.197.349-.378.546-.57l.062-.058c.153-.146.308-.298.46-.457.366-.381.56-.826.56-1.287 0-.465-.197-.906-.57-1.276"/>
</svg>
