<svg xmlns="http://www.w3.org/2000/svg" width="24" height="24" viewBox="0 0 24 24">
    <path fill="#415AB7" d="M11.152 1.128c-1.547 0-2.793 1.246-2.793 2.792v.462H1.667c-.37 0-.67.323-.692.669 0 .37.3.67.669.67h1.5l1.154 13.845c.115 1.385 1.315 2.47 2.7 2.47h9.877c1.407 0 2.584-1.085 2.7-2.47L20.728 5.72h1.5c.37 0 .67-.3.67-.67 0-.368-.3-.668-.67-.668h-6.692V3.92c0-1.546-1.246-2.792-2.792-2.792zm-6.6 4.615H19.39l-1.154 13.731c-.046.692-.646 1.223-1.338 1.223H7.02c-.693 0-1.293-.53-1.339-1.223l-1.13-13.73zm7.546 2.054c-.37 0-.67.3-.67.67v9.53c0 .37.3.67.67.67.392 0 .692-.3.669-.693V8.466c0-.369-.3-.669-.67-.669zm3.785-.004c-.33.008-.603.289-.624.627l-.623 9.508c-.046.37.254.692.623.715.37.046.693-.254.716-.623l.623-9.508c.046-.369-.254-.692-.623-.715zm-7.94.004c-.368.023-.645.346-.622.715l.623 9.508c.023.37.346.646.715.623.37-.023.67-.346.623-.715L8.66 8.42c-.023-.37-.346-.646-.715-.623zm3.209-5.285h1.592c.784 0 1.43.647 1.43 1.431v.462H9.722v-.462c0-.784.646-1.43 1.43-1.43z"/>
</svg>
