<svg xmlns="http://www.w3.org/2000/svg" width="127" height="136" viewBox="0 0 127 136">
    <defs>
        <filter id="7whzkrqfva" width="165.4%" height="1117.1%" x="-32.7%" y="-508.6%" filterUnits="objectBoundingBox">
            <feGaussianBlur in="SourceGraphic" stdDeviation="9"/>
        </filter>
    </defs>
    <g fill="none" fill-rule="evenodd">
        <g fill-rule="nonzero">
            <path fill="#415AB7" d="M63.226 27.097v10.838H19.87V27.097c0-11.977 9.7-21.678 21.677-21.678s21.678 9.701 21.678 21.678z"/>
            <path fill="#F55961" d="M63.226 34.323L63.226 37.935 38.839 54.194 9.032 34.323 19.871 34.323z"/>
            <path fill="#E0141F" d="M63.226 37.935L63.226 68.645 9.032 68.645 9.032 34.323 38.839 54.194z"/>
            <path fill="#415AB7" fill-opacity=".28" d="M77.677 83.097L77.677 112 63.226 112 63.226 72.258 77.677 72.258z"/>
            <path fill="#5F77CF" d="M76.774 34.323c-2.493 0-4.516 2.023-4.516 4.516s2.023 4.516 4.516 4.516 4.516-2.023 4.516-4.516-2.023-4.516-4.516-4.516zM86.71 5.419h3.613C102.299 5.42 112 15.12 112 27.097v45.161H63.226V27.097c0-11.977-9.7-21.678-21.678-21.678h30.71v5.42H86.71v-5.42z"/>
            <path fill="#415AB7" d="M90.323 5.42H86.71v.325c10.251 1.721 18.064 10.609 18.064 21.352v45.161H112V27.097c0-11.977-9.7-21.678-21.677-21.678z"/>
            <path fill="#94A6EA" d="M74.065 40.645c-1 0-1.807-.807-1.807-1.806V1.806c0-.999.808-1.806 1.807-1.806.998 0 1.806.807 1.806 1.806V38.84c0 .999-.808 1.806-1.806 1.806z"/>
            <g fill="#CAD1EB" transform="translate(72.258)">
                <circle cx="4.516" cy="38.839" r="4.516"/>
                <path d="M14.452 5.419L14.452 10.839 0 10.839 0 5.419 0 0 14.452 0z"/>
            </g>
            <path fill="#415AB7" d="M1.806 68.645c-.999 0-1.806.808-1.806 1.807 0 .999.807 1.806 1.806 1.806h61.42v-3.613H1.806z"/>
        </g>
        <ellipse cx="69.266" cy="110.655" fill="#415AB7" filter="url(#7whzkrqfva)" opacity=".555" rx="41.266" ry="2.655"/>
    </g>
</svg>
