<svg xmlns="http://www.w3.org/2000/svg" width="169" height="40" viewBox="0 0 169 40">
    <path fill="#FFECDE" d="M168.105 10.832V3.095c-.001-1.656-1.343-2.999-3-3.002L3.002 0C1.345-.003 0 1.34 0 2.997l.002.001v7.737c4.736.658 8.252 4.585 8.252 9.217 0 4.632-3.516 8.56-8.252 9.218v7.736c.001 1.656 1.344 3 3 3.002L165.105 40c1.657.003 3.001-1.34 3.002-2.996 0 0 0-.002-.002-.002v-7.737c-4.736-.658-8.252-4.585-8.252-9.217 0-4.632 3.516-8.56 8.252-9.217zM18.685 34.699h-2.683V32.1h2.683V34.7zm.083 4.835h-2.683v-2.598h2.683v2.598zm-.083-10.03h-2.683v-2.598h2.683v2.597zm0-5.196h-2.683v-2.597h2.683v2.597zm0-5.195h-2.683v-2.597h2.683v2.597zm0-5.195h-2.683v-2.597h2.683v2.597zm0-5.195h-2.683V6.125h2.683v2.598zm0-5.195h-2.683V.93h2.683v2.598z"/>
</svg>
