<svg width="46" height="19" viewBox="0 0 46 19" fill="none" xmlns="http://www.w3.org/2000/svg">
<g clip-path="url(#clip0)">
<path d="M8.411 2.44957C7.87194 3.09134 7.00944 3.59753 6.14694 3.52521C6.03913 2.65747 6.46139 1.73549 6.95553 1.16603C7.4946 0.506185 8.43796 0.036156 9.20163 0C9.29147 0.903901 8.94108 1.78972 8.411 2.44957ZM9.19264 3.69696C7.94382 3.62464 6.87467 4.41104 6.28171 4.41104C5.67975 4.41104 4.77233 3.73311 3.78405 3.75119C2.49928 3.76927 1.30436 4.50143 0.648502 5.66746C-0.699154 7.99952 0.298112 11.4524 1.60085 13.3506C2.23874 14.2907 3.00241 15.3211 4.00866 15.285C4.961 15.2488 5.33835 14.6613 6.48835 14.6613C7.64733 14.6613 7.97975 15.285 8.986 15.2669C10.0282 15.2488 10.684 14.3268 11.3219 13.3868C12.0497 12.3202 12.3462 11.2807 12.3641 11.2265C12.3462 11.2084 10.3516 10.4401 10.3337 8.12607C10.3157 6.19172 11.9059 5.26974 11.9778 5.21551C11.0794 3.87774 9.6778 3.73311 9.19264 3.69696ZM16.4071 1.07564V15.1675H18.5813V10.3497H21.5911C24.3403 10.3497 26.2719 8.45148 26.2719 5.70362C26.2719 2.95576 24.3762 1.07564 21.663 1.07564H16.4071ZM18.5813 2.9196H21.088C22.9747 2.9196 24.0528 3.93197 24.0528 5.71266C24.0528 7.49334 22.9747 8.51475 21.079 8.51475H18.5813V2.9196ZM30.243 15.2759C31.6087 15.2759 32.8755 14.5799 33.4505 13.4772H33.4954V15.1675H35.5079V8.15319C35.5079 6.11941 33.8907 4.80875 31.402 4.80875C29.093 4.80875 27.386 6.13749 27.3231 7.96337H29.2817C29.4434 7.09562 30.243 6.52617 31.3391 6.52617C32.6688 6.52617 33.4145 7.14986 33.4145 8.29781V9.07517L30.7012 9.23787C28.1766 9.39153 26.811 10.431 26.811 12.2388C26.811 14.0647 28.2215 15.2759 30.243 15.2759ZM30.827 13.6037C29.668 13.6037 28.9313 13.0433 28.9313 12.1846C28.9313 11.2988 29.6411 10.7835 30.9977 10.7022L33.4145 10.5485V11.344C33.4145 12.6637 32.3005 13.6037 30.827 13.6037ZM38.1942 19C40.3145 19 41.3118 18.1865 42.1833 15.7188L46.0016 4.94434H43.7915L41.2309 13.2693H41.186L38.6255 4.94434H36.3524L40.036 15.2036L39.8383 15.8273C39.5059 16.8849 38.9669 17.2916 38.0055 17.2916C37.8348 17.2916 37.5024 17.2736 37.3676 17.2555V18.9458C37.4934 18.9819 38.0325 19 38.1942 19Z" fill="black"/>
</g>
<defs>
<clipPath id="clip0">
<rect width="46" height="19" fill="white"/>
</clipPath>
</defs>
</svg>
