<svg width="24" height="24" viewBox="0 0 28 28" fill="none" xmlns="http://www.w3.org/2000/svg">
<path fill-rule="evenodd" clip-rule="evenodd" d="M27.2656 8.50672C27.2031 7.08981 26.9739 6.11571 26.6456 5.27163C26.3069 4.37565 25.7859 3.57349 25.1032 2.90665C24.4363 2.22944 23.6287 1.70321 22.743 1.36989C21.8937 1.04166 20.9245 0.812529 19.5075 0.750057C18.0796 0.682295 17.6264 0.666626 14.0052 0.666626C10.384 0.666626 9.93075 0.682295 8.50829 0.744766C7.0911 0.807238 6.11681 1.03657 5.27277 1.3646C4.37642 1.70321 3.57411 2.22415 2.90714 2.90665C2.22979 3.57349 1.70367 4.38095 1.37009 5.26653C1.04179 6.11571 0.812618 7.08452 0.750134 8.50142C0.682359 9.92892 0.666687 10.3821 0.666687 14.0026C0.666687 17.6232 0.682359 18.0762 0.744842 19.4985C0.807326 20.9154 1.0367 21.8896 1.365 22.7336C1.70367 23.6296 2.22979 24.4317 2.90714 25.0985C3.57411 25.7758 4.38171 26.302 5.26747 26.6353C6.11681 26.9636 7.08581 27.1926 8.50319 27.2552C9.92546 27.3178 10.3789 27.3333 14.0002 27.3333C17.6214 27.3333 18.0746 27.3178 19.4971 27.2552C20.9143 27.1926 21.8885 26.9636 22.7325 26.6353C24.5251 25.9425 25.9423 24.5256 26.6352 22.7336C26.9633 21.8844 27.1927 20.9154 27.2552 19.4985C27.3176 18.0762 27.3333 17.6232 27.3333 14.0026C27.3333 10.3821 27.328 9.92892 27.2656 8.50672ZM24.8638 19.3944C24.8063 20.6966 24.5875 21.4 24.4052 21.8688C23.957 23.0305 23.0348 23.9525 21.8728 24.4006C21.4039 24.5829 20.6955 24.8017 19.3979 24.8589C17.9911 24.9216 17.5692 24.937 14.0106 24.937C10.4518 24.937 10.0246 24.9216 8.62289 24.8589C7.32029 24.8017 6.61689 24.5829 6.14796 24.4006C5.56973 24.1869 5.04341 23.8484 4.6162 23.4056C4.17332 22.9732 3.83465 22.4521 3.62095 21.8741C3.43857 21.4052 3.21979 20.6966 3.16259 19.3996C3.09991 17.993 3.08444 17.571 3.08444 14.013C3.08444 10.455 3.09991 10.0278 3.16259 8.62658C3.21979 7.32425 3.43857 6.62098 3.62095 6.15214C3.83465 5.57382 4.17332 5.0478 4.62149 4.62046C5.05379 4.17766 5.57483 3.83906 6.15325 3.6256C6.62219 3.44326 7.33088 3.22452 8.62817 3.16713C10.035 3.10466 10.4571 3.089 14.0156 3.089C17.5796 3.089 18.0015 3.10466 19.4032 3.16713C20.7058 3.22452 21.4092 3.44326 21.8782 3.6256C22.4564 3.83906 22.9827 4.17766 23.4099 4.62046C23.8528 5.05288 24.1915 5.57382 24.4052 6.15214C24.5875 6.62098 24.8063 7.32933 24.8638 8.62658C24.9262 10.0331 24.9419 10.455 24.9419 14.013C24.9419 17.571 24.9262 17.9878 24.8638 19.3944ZM13.9109 7.79563C10.2796 7.79563 7.33336 10.7417 7.33336 14.3732C7.33336 18.0047 10.2796 20.9507 13.9109 20.9507C17.5424 20.9507 20.4884 18.0047 20.4884 14.3732C20.4884 10.7417 17.5424 7.79563 13.9109 7.79563ZM13.9109 18.64C11.5551 18.64 9.6442 16.7293 9.6442 14.3733C9.6442 12.0173 11.5551 10.1066 13.9109 10.1066C16.2669 10.1066 18.1776 12.0173 18.1776 14.3733C18.1776 16.7293 16.2669 18.64 13.9109 18.64ZM20.7486 9.07105C21.5967 9.07105 22.2843 8.38347 22.2843 7.53549C22.2843 6.6873 21.5967 5.99993 20.7486 5.99993C19.9006 5.99993 19.213 6.6873 19.213 7.53549C19.213 8.38347 19.9006 9.07105 20.7486 9.07105Z" fill="#fff"/>
</svg>
