<svg width="21" height="16" viewBox="0 0 21 16" fill="none" xmlns="http://www.w3.org/2000/svg">
<path fill-rule="evenodd" clip-rule="evenodd" d="M19.0458 0H1.95416C0.874908 0 0 0.874909 0 1.95416C0 2.60754 0.326544 3.2177 0.87019 3.58013L2.05525 4.37016L8.8359 8.8906C8.96186 8.97457 9.09259 9.04805 9.2269 9.11103C10.167 9.5519 11.2824 9.47842 12.1641 8.8906L18.9448 4.37016L20.1298 3.58013C20.6735 3.2177 21 2.60754 21 1.95416C21 0.874909 20.1251 0 19.0458 0ZM0.5 7C0.5 6.79122 0.521328 6.58741 0.561924 6.39065C0.676438 5.83563 1.33417 5.69222 1.80571 6.00658L8.00385 10.1387C9.5154 11.1464 11.4846 11.1464 12.9962 10.1387L19.1943 6.00658C19.6658 5.69222 20.3236 5.83563 20.4381 6.39065C20.4787 6.58741 20.5 6.79122 20.5 7V14C20.5 15.1046 19.6046 16 18.5 16H2.5C1.39543 16 0.5 15.1046 0.5 14V7Z" fill="#2B2B2B"/>
</svg>
