<svg xmlns="http://www.w3.org/2000/svg" width="24" height="24" viewBox="0 0 24 24">
    <path fill="#415AB7" d="M20 9.626c-.286-.283-.747-.282-1.03.003l-8.756 8.803c-1.136 1.136-2.98 1.136-4.119-.002-1.137-1.138-1.137-2.982 0-4.12l9.015-9.062c.71-.709 1.862-.709 2.573.002.711.71.711 1.864 0 2.575l-7.467 7.468-.002.001c-.284.283-.744.283-1.028-.001-.284-.285-.284-.746 0-1.03l3.605-3.605c.284-.285.284-.746 0-1.03-.285-.285-.746-.285-1.03 0l-3.605 3.605c-.853.853-.853 2.236 0 3.09.853.853 2.236.853 3.09 0l.002-.003 7.465-7.465c1.28-1.28 1.28-3.355 0-4.635-1.28-1.28-3.355-1.28-4.634 0l-9.015 9.062c-1.705 1.704-1.705 4.471.001 6.178 1.707 1.706 4.474 1.706 6.18 0l8.757-8.804c.284-.285.283-.746-.002-1.03z"/>
</svg>
