<svg xmlns="http://www.w3.org/2000/svg" width="40" height="40" viewBox="0 0 40 40">
    <g fill="none" fill-rule="evenodd">
        <circle cx="20" cy="20" r="20" fill="#FFF" fill-opacity=".102"/>
        <path fill="#FFF" fill-rule="nonzero" d="M28.475 13.156c.265-.353.766-.425 1.12-.16.324.244.41.685.219 1.03l-.06.09L19.65 27.577c-.269.359-.773.421-1.12.16l-.083-.073-7.786-7.732c-.313-.312-.315-.818-.004-1.132.283-.285.728-.312 1.042-.08l.09.076 7.133 7.085 9.554-12.725z"/>
        <path fill="#415AB7" fill-opacity=".105" fill-rule="nonzero" d="M35.227 20.532c-.242-.533-.242-1.146 0-1.68l1.282-2.82c.478-1.05.5-2.264.058-3.328-.443-1.066-1.314-1.91-2.394-2.314l-2.9-1.089c-.55-.206-.983-.638-1.188-1.188l-1.089-2.9c-.404-1.08-1.247-1.95-2.313-2.394-1.062-.44-2.278-.42-3.329.058l-2.82 1.282c-.535.244-1.148.244-1.68 0l-2.822-1.282c-1.049-.479-2.265-.5-3.328-.058-1.066.442-1.91 1.314-2.314 2.395L9.3 8.114c-.205.55-.638.98-1.188 1.187l-2.9 1.089c-1.08.404-1.952 1.248-2.394 2.314-.44 1.064-.42 2.278.058 3.328l1.282 2.82c.242.534.242 1.147 0 1.68l-1.282 2.821c-.477 1.05-.499 2.264-.058 3.328.443 1.066 1.314 1.91 2.395 2.314l2.9 1.089c.55.206.982.637 1.187 1.188l1.089 2.9c.404 1.08 1.248 1.95 2.314 2.393.508.211 1.053.317 1.597.317.592 0 1.184-.125 1.73-.374l2.822-1.282c.534-.244 1.147-.244 1.679 0l2.821 1.282c1.049.479 2.265.499 3.328.057 1.066-.442 1.91-1.313 2.314-2.394l1.089-2.9c.206-.55.637-.982 1.188-1.187l2.9-1.089c1.08-.404 1.95-1.248 2.393-2.314.442-1.064.42-2.278-.057-3.328l-1.28-2.821z"/>
        <path fill="#2F3137" fill-rule="nonzero" d="M27.17 13.776c.228-.305.66-.367.966-.138.28.21.355.591.189.888l-.051.08-8.723 11.618c-.232.31-.667.364-.967.138l-.072-.063-6.72-6.674c-.27-.27-.272-.706-.003-.977.244-.246.628-.27.899-.07l.077.067 6.158 6.115 8.246-10.984z"/>
    </g>
</svg>
