<svg id="Capa_1" data-name="Capa 1" xmlns="http://www.w3.org/2000/svg" viewBox="0 0 490.69 256.14"><defs><style>.cls-1{fill:#ffc107;}</style></defs><title>down-arrow</title><path class="cls-1" d="M472.33,3.26,245.21,230.39,18.1,3.26A10.66,10.66,0,0,0,3,18.34L237.68,253a10.68,10.68,0,0,0,15.09,0L487.43,18.34A10.67,10.67,0,0,0,472.61,3l-.26.27Z"/><path d="M245.21,256.14a10.65,10.65,0,0,1-7.55-3.11L3,18.36A10.67,10.67,0,0,1,18.08,3.28L245.21,230.39,472.33,3.26a10.66,10.66,0,1,1,15.34,14.82l-.26.26L252.74,253A10.63,10.63,0,0,1,245.21,256.14Z"/></svg>