<svg xmlns="http://www.w3.org/2000/svg" width="64" height="64" viewBox="0 0 64 64">
    <g fill="none" transform="translate(5.5)">
        <path fill="#687FD4" d="M51.168.676l-.054.026c-1.59.776-3.416.869-5.062.28.412.365.682.897.682 1.518V59.51c0 2.411-1.955 4.366-4.366 4.366h10.4c.73 0 1.32-.591 1.32-1.321V2.5c0-1.5-1.571-2.482-2.92-1.824z"/>
        <path fill="#415AB7" d="M43.814.676l-.054.026c-1.828.893-3.967.882-5.787-.027-1.843-.9-3.996-.9-5.838 0l-.001.001c-1.843.9-3.996.9-5.84 0V.675c-1.842-.9-3.996-.9-5.839 0v.001c-1.842.9-3.997.9-5.839 0h-.001C13.695.226 12.695 0 11.696 0c-1.01 0-2.02.23-2.95.69-1.827.904-3.976.88-5.808-.014C1.589.018.018 1 .018 2.5v59.567c0 .999.809 1.808 1.808 1.808h43.1c.999 0 1.808-.81 1.808-1.808V2.501c0-1.501-1.572-2.483-2.92-1.825zM12.222 7.641c-.858 0-1.553-.695-1.553-1.554 0-.858.695-1.553 1.553-1.553s1.554.695 1.554 1.553c0 .859-.696 1.554-1.554 1.554zm22.307 0c-.858 0-1.553-.695-1.553-1.554 0-.858.695-1.553 1.553-1.553.859 0 1.554.695 1.554 1.553 0 .859-.695 1.554-1.554 1.554z"/>
        <circle cx="13.992" cy="13.993" r="13.981" fill="#E0141F" transform="translate(10 27)"/>
        <path fill="#FFF" d="M35.717 35.785L32.932 33 21.502 44.43 15.285 38.213 12.5 40.998 21.502 50z"/>
        <path fill="#D4DBE7" d="M23.376 21.117c-6.783 0-12.3-5.518-12.3-12.3V6.095c0-.59.478-1.07 1.068-1.07.59 0 1.07.48 1.07 1.07v2.722c0 5.603 4.558 10.162 10.162 10.162 5.604 0 10.163-4.559 10.163-10.162V6.095c0-.59.478-1.07 1.069-1.07.59 0 1.069.48 1.069 1.07v2.722c0 6.782-5.519 12.3-12.301 12.3z"/>
    </g>
</svg>
