<svg xmlns="http://www.w3.org/2000/svg" width="16" height="16" viewBox="0 0 16 16">
    <path fill="#415AB7" d="M15.825 6.669l-3.652 3.542.953 5.116c.031.168-.012.34-.117.471-.104.131-.26.205-.423.202-.094.001-.187-.023-.27-.07l-4.318-2.545-4.36 2.53c-.184.106-.41.091-.579-.038-.17-.129-.252-.349-.213-.564l.967-5.114L.172 6.646c-.154-.15-.21-.38-.145-.59.065-.21.241-.36.45-.385l4.941-.62L7.515.326C7.603.13 7.791.002 7.998 0c.21 0 .4.128.489.328l2.097 4.732 4.941.63c.21.027.385.179.45.389.064.21.005.44-.15.59z"/>
</svg>
