<svg xmlns="http://www.w3.org/2000/svg" viewBox="0 0 845.11 820.06"><g id="Слой_2" data-name="Слой 2"><g id="Слой_1-2" data-name="Слой 1"><path d="M193.11,752.52h624a28,28,0,1,0,0-56h-624a28,28,0,0,0,0,56Z"/><circle cx="109.48" cy="724.52" r="81.48"/><path d="M109.48,657c2.79,0,5.56.16,8.34.42,4.46.42-2.7-.47,1.7.24,1.34.21,2.66.5,4,.78,2.62.56,5.2,1.31,7.76,2.13,1.26.41,2.51.88,3.75,1.34,1.54.62,1.65.65.33.11q1.2.53,2.4,1.11a80.59,80.59,0,0,1,13.42,8.15c-2.29-1.69,1.08.93,1.25,1.07,1,.83,2,1.72,2.91,2.6a83.33,83.33,0,0,1,6.29,6.6c.14.16,2.8,3.52,1.07,1.25.79,1,1.53,2.12,2.27,3.19,1.49,2.16,2.82,4.43,4.09,6.72.63,1.15,1.21,2.33,1.79,3.51.1.19,1.83,4.16.73,1.49a81.88,81.88,0,0,1,3,8.83,79.15,79.15,0,0,1,1.75,7.91c.79,4.39-.25-2.75.24,1.7.15,1.38.23,2.76.31,4.14a81,81,0,0,1,0,8.39c-.06,1.38-.18,2.76-.31,4.14-.2,1.7-.2,1.82,0,.35-.14.9-.29,1.79-.46,2.69a80.39,80.39,0,0,1-4.5,15.4c1.06-2.68-.63,1.29-.72,1.49-.57,1.19-1.19,2.35-1.8,3.51a80.27,80.27,0,0,1-4.83,7.8c-.11.16-2.7,3.59-.93,1.35-.81,1-1.66,2-2.52,3-1.71,2-3.55,3.82-5.44,5.62-.94.9-1.93,1.75-2.91,2.6-.16.14-3.51,2.8-1.25,1.07a82.59,82.59,0,0,1-7.62,5.07c-2.26,1.34-4.62,2.53-7,3.65-3.9,1.84,2.5-.94-1.53.65-1.23.49-2.49.91-3.75,1.34-2.55.86-5.15,1.53-7.76,2.13-1.32.31-2.66.54-4,.78-1.68.26-1.8.29-.34.09-.91.11-1.82.2-2.74.28a82.73,82.73,0,0,1-16.65-.28c3,.32-1.45-.29-1.67-.33-1.33-.23-2.65-.54-4-.84a80.32,80.32,0,0,1-9-2.71c-.83-.3-1.65-.62-2.48-.95,2.68,1.06-1.29-.63-1.48-.73-2-.93-3.91-2-5.8-3.09s-3.72-2.29-5.51-3.53c-.72-.5-1.42-1-2.12-1.53,2.29,1.69-1.08-.93-1.25-1.07a81.56,81.56,0,0,1-9.2-9.2c-.57-.67-1.12-1.34-1.66-2,1.79,2.21-.82-1.17-.94-1.35-1.27-1.77-2.42-3.63-3.53-5.51s-2.13-3.83-3.09-5.8c-.39-.79-.75-1.59-1.11-2.39,1.19,2.63-.5-1.37-.57-1.57a80.34,80.34,0,0,1-3.55-12.93c-.17-.89-.32-1.78-.46-2.68.48,2.95-.12-1.51-.14-1.73-.22-2.31-.28-4.64-.3-7s.12-4.64.3-7c.07-.92.17-1.83.27-2.74-.32,3,.29-1.45.33-1.68a79.48,79.48,0,0,1,3.55-12.92c.3-.83.62-1.66.95-2.48-1.06,2.68.63-1.29.73-1.49.93-2,2-3.9,3.09-5.8s2.29-3.71,3.53-5.51c.5-.71,1-1.42,1.53-2.11-1.69,2.29.93-1.09,1.07-1.25a82.48,82.48,0,0,1,9.2-9.21l2-1.66c-2.21,1.8,1.17-.81,1.35-.94,1.77-1.26,3.63-2.41,5.51-3.53s3.83-2.12,5.8-3.09c.79-.38,1.59-.75,2.39-1.1-2.63,1.19,1.37-.5,1.57-.58a81.39,81.39,0,0,1,12.93-3.55c.89-.16,1.78-.31,2.68-.45-3,.48,1.51-.13,1.73-.15,2.31-.21,4.63-.27,7-.29a14,14,0,1,0,0-28A97.33,97.33,0,0,0,42.9,656.09C25,673.16,15.08,697.19,14.05,721.72c-1.05,24.87,8.78,49.1,25.22,67.48S79.5,818,103.91,819.81c25,1.9,49.37-7.48,68.31-23.35s29.66-39.34,32.33-63.61c2.75-25-6.16-49.58-21.47-69.05-15.16-19.29-38.49-31-62.54-34a93,93,0,0,0-11.06-.75,14,14,0,0,0,0,28Z"/><path d="M666.47,438H817.11a28,28,0,1,0,0-56H666.47a28,28,0,0,0,0,56Z"/><path d="M28,438H495.46a28,28,0,1,0,0-56H28a28,28,0,0,0,0,56Z"/><circle cx="581.24" cy="410" r="81.48"/><path d="M581.24,342.52c2.78,0,5.55.16,8.33.42,4.46.41-2.7-.48,1.7.23,1.34.22,2.66.5,4,.78,2.62.56,5.2,1.32,7.76,2.14,1.26.4,2.51.87,3.76,1.34,1.53.61,1.64.65.32.1q1.21.54,2.4,1.11a82,82,0,0,1,13.42,8.15c-2.29-1.68,1.09.94,1.25,1.07,1,.84,2,1.73,2.91,2.61a80.14,80.14,0,0,1,6.3,6.6c.13.16,2.79,3.51,1.06,1.24.8,1.05,1.54,2.12,2.28,3.2,1.48,2.16,2.81,4.43,4.08,6.72.64,1.15,1.22,2.33,1.8,3.51.09.19,1.83,4.16.72,1.49a81.14,81.14,0,0,1,3,8.83,79.15,79.15,0,0,1,1.75,7.91c.79,4.38-.25-2.75.24,1.7.15,1.38.23,2.76.31,4.14a81,81,0,0,1,0,8.39c-.05,1.38-.18,2.76-.31,4.13-.2,1.71-.2,1.83,0,.36-.14.9-.29,1.79-.45,2.68a81,81,0,0,1-4.51,15.41c1.06-2.68-.63,1.29-.72,1.48-.57,1.19-1.19,2.36-1.8,3.52a82.11,82.11,0,0,1-4.83,7.79c-.11.17-2.7,3.59-.93,1.35-.81,1-1.66,2-2.52,3-1.71,2-3.55,3.82-5.44,5.62-.94.9-1.93,1.75-2.91,2.6-.16.14-3.51,2.79-1.25,1.07a80.51,80.51,0,0,1-7.62,5.06c-2.26,1.35-4.62,2.53-7,3.66-3.9,1.84,2.5-.94-1.52.65-1.24.48-2.5.91-3.76,1.34-2.55.86-5.15,1.53-7.76,2.13-1.32.3-2.66.54-4,.78-1.68.26-1.8.29-.34.09-.91.1-1.82.2-2.74.27a82.73,82.73,0,0,1-16.65-.27c3,.32-1.45-.29-1.67-.33-1.33-.24-2.65-.54-4-.84a82.49,82.49,0,0,1-9-2.71c-.83-.3-1.66-.62-2.48-1,2.68,1.06-1.29-.63-1.48-.73-2-.93-3.91-2-5.8-3.09s-3.72-2.29-5.51-3.53c-.72-.5-1.42-1-2.12-1.53,2.29,1.69-1.08-.93-1.25-1.07a80.82,80.82,0,0,1-9.2-9.21c-.57-.66-1.12-1.33-1.66-2,1.79,2.21-.82-1.18-.94-1.35-1.27-1.78-2.42-3.63-3.53-5.51s-2.13-3.83-3.09-5.8c-.39-.79-.75-1.59-1.11-2.39,1.19,2.63-.5-1.37-.57-1.57a80.34,80.34,0,0,1-3.55-12.93c-.17-.89-.32-1.78-.46-2.68.48,2.95-.12-1.51-.14-1.73-.22-2.31-.28-4.64-.3-7s.12-4.64.3-7c.07-.91.17-1.82.27-2.74-.32,3,.29-1.44.33-1.67a79.48,79.48,0,0,1,3.55-12.92c.3-.83.62-1.66.95-2.48-1.06,2.68.63-1.29.73-1.49.93-2,2-3.9,3.09-5.8s2.29-3.71,3.53-5.51c.5-.71,1-1.42,1.53-2.12-1.69,2.3.93-1.08,1.07-1.24a82.48,82.48,0,0,1,9.2-9.21c.67-.56,1.34-1.12,2-1.66-2.21,1.79,1.18-.82,1.35-.94,1.77-1.26,3.63-2.41,5.51-3.53s3.83-2.12,5.8-3.09c.79-.38,1.59-.75,2.39-1.11-2.63,1.19,1.37-.49,1.57-.57a81.39,81.39,0,0,1,12.93-3.55c.89-.16,1.78-.32,2.68-.45-2.95.47,1.51-.13,1.73-.15,2.31-.22,4.64-.27,7-.29a14,14,0,0,0,0-28,97.32,97.32,0,0,0-66.59,27.05c-17.91,17.07-27.81,41.1-28.85,65.63-1.05,24.88,8.78,49.11,25.22,67.49s40.24,28.75,64.64,30.61c25,1.9,49.38-7.48,68.31-23.36s29.66-39.33,32.33-63.61c2.76-25-6.16-49.57-21.46-69.05-15.16-19.29-38.5-31-62.55-34a92.78,92.78,0,0,0-11-.74,14,14,0,0,0,0,28Z"/><path d="M366.27,123.49H817.11a28,28,0,0,0,0-56H366.27a28,28,0,0,0,0,56Z"/><path d="M28,123.49H195.26a28,28,0,0,0,0-56H28a28,28,0,0,0,0,56Z"/><circle cx="281.03" cy="95.49" r="81.48"/><path d="M281,28c2.79,0,5.56.16,8.33.42,4.47.42-2.69-.47,1.7.24,1.34.21,2.67.5,4,.78a79.44,79.44,0,0,1,7.76,2.13c1.27.41,2.51.88,3.76,1.34,1.53.62,1.64.65.33.11.8.36,1.6.72,2.39,1.11a80.94,80.94,0,0,1,13.43,8.15c-2.29-1.69,1.08.93,1.24,1.07,1,.84,2,1.72,2.92,2.6a83.55,83.55,0,0,1,6.29,6.61c.13.15,2.79,3.51,1.07,1.24.79,1,1.53,2.12,2.27,3.19,1.49,2.17,2.81,4.43,4.08,6.72.64,1.15,1.22,2.34,1.8,3.52.09.19,1.83,4.15.73,1.49a80.42,80.42,0,0,1,3,8.83c.73,2.6,1.28,5.25,1.75,7.9.78,4.39-.25-2.75.24,1.71.15,1.37.23,2.75.31,4.13a81,81,0,0,1,0,8.39c-.06,1.38-.19,2.76-.31,4.14-.2,1.7-.21,1.82,0,.36-.14.89-.29,1.79-.46,2.68a80.9,80.9,0,0,1-4.5,15.4c1.06-2.68-.63,1.29-.73,1.49-.56,1.19-1.18,2.35-1.8,3.51a80.17,80.17,0,0,1-4.82,7.8c-.11.17-2.7,3.59-.94,1.35-.8,1-1.66,2-2.51,3-1.71,2-3.55,3.81-5.44,5.61-.94.9-1.93,1.75-2.92,2.61-.15.13-3.51,2.79-1.24,1.07a82.64,82.64,0,0,1-7.63,5.06c-2.26,1.35-4.61,2.53-7,3.65-3.9,1.84,2.5-.94-1.53.65-1.24.49-2.5.92-3.76,1.34-2.54.86-5.14,1.53-7.75,2.14-1.33.3-2.66.54-4,.78-1.69.26-1.8.28-.34.08-.91.11-1.82.2-2.74.28a82,82,0,0,1-16.65-.28c3,.33-1.45-.28-1.68-.32-1.33-.24-2.65-.54-4-.85a80.27,80.27,0,0,1-9-2.7c-.83-.31-1.66-.62-2.48-1,2.68,1.06-1.29-.63-1.49-.72-2-.94-3.9-2-5.8-3.09s-3.71-2.3-5.51-3.53c-.71-.5-1.42-1-2.11-1.54,2.29,1.69-1.09-.93-1.25-1.06a83.43,83.43,0,0,1-9.21-9.21c-.56-.66-1.11-1.33-1.66-2,1.8,2.2-.81-1.18-.94-1.35-1.26-1.78-2.41-3.64-3.53-5.51s-2.12-3.84-3.09-5.8c-.38-.79-.75-1.59-1.1-2.4,1.18,2.63-.5-1.37-.58-1.57a81.56,81.56,0,0,1-3.55-12.92c-.16-.89-.32-1.79-.45-2.69.47,3-.13-1.51-.15-1.72-.21-2.32-.27-4.64-.29-7s.12-4.65.29-7c.08-.92.17-1.83.28-2.74-.33,3,.28-1.45.32-1.67A81.39,81.39,0,0,1,218,71.19c.31-.83.62-1.65,1-2.47-1.06,2.68.63-1.3.72-1.49.94-2,2-3.9,3.09-5.8s2.3-3.71,3.53-5.51c.5-.72,1-1.42,1.54-2.12-1.69,2.29.93-1.08,1.06-1.24a81.73,81.73,0,0,1,9.21-9.21c.66-.57,1.33-1.12,2-1.66-2.2,1.79,1.18-.82,1.35-.94,1.78-1.27,3.64-2.41,5.51-3.53s3.84-2.13,5.8-3.09q1.18-.57,2.4-1.11c-2.63,1.19,1.37-.5,1.57-.57a80.51,80.51,0,0,1,12.92-3.55c.89-.17,1.79-.32,2.69-.46-3,.48,1.51-.12,1.72-.14,2.31-.22,4.64-.28,7-.3a14.14,14.14,0,0,0,14-14A14.13,14.13,0,0,0,281,0a97.34,97.34,0,0,0-66.59,27.05c-17.91,17.08-27.81,41.11-28.85,65.63-1.05,24.88,8.78,49.11,25.23,67.49s40.23,28.76,64.63,30.61c25,1.9,49.38-7.48,68.31-23.36s29.66-39.33,32.34-63.6c2.75-25-6.17-49.58-21.47-69-15.16-19.3-38.5-31-62.54-34A95.1,95.1,0,0,0,281,0a14.13,14.13,0,0,0-14,14A14.14,14.14,0,0,0,281,28Z"/></g></g></svg>