<svg xmlns="http://www.w3.org/2000/svg" width="56" height="56" viewBox="0 0 56 56">
    <g fill="none">
        <rect width="43.2" height="26.4" x="8.8" y="17.2" fill="#E0141F" rx="2.4"/>
        <rect width="43.2" height="26.4" x="4" y="12.4" fill="#415AB7" rx="2.4"/>
        <circle cx="32.8" cy="30.4" r="3.6" fill="#DC8388"/>
        <path fill="#B81B23" d="M49.6 17.2h-2.4c1.325 0 2.4 1.075 2.4 2.4v21.6c0 1.325-1.075 2.4-2.4 2.4h2.4c1.325 0 2.4-1.075 2.4-2.4V19.6c0-1.325-1.075-2.4-2.4-2.4z"/>
        <path fill="#3049A6" d="M44.8 12.4h-2.4c1.325 0 2.4 1.075 2.4 2.4v21.6c0 1.325-1.075 2.4-2.4 2.4h2.4c1.325 0 2.4-1.075 2.4-2.4V14.8c0-1.325-1.075-2.4-2.4-2.4z"/>
        <circle cx="38.8" cy="30.4" r="3.6" fill="#E0141F"/>
        <path fill="#6E82CB" d="M4 17.2L47.2 17.2 47.2 22 4 22z"/>
        <path fill="#5B6EB5" d="M44.8 17.2L47.2 17.2 47.2 22 44.8 22z"/>
        <path fill="#F1F2F2" d="M11.2 34H22c.663 0 1.2-.537 1.2-1.2 0-.663-.537-1.2-1.2-1.2H11.2c-.663 0-1.2.537-1.2 1.2 0 .663.537 1.2 1.2 1.2z"/>
    </g>
</svg>
