<svg width="32" height="32" viewBox="0 0 32 32" fill="none" xmlns="http://www.w3.org/2000/svg">
<g opacity="0.8">
<path fill-rule="evenodd" clip-rule="evenodd" d="M7.12971 3.22826L6.66666 4.00001C7.12971 3.22826 7.13029 3.22861 7.13089 3.22897L7.13223 3.22978L7.13537 3.23168L7.14345 3.23663L7.16675 3.25118C7.1854 3.26297 7.2102 3.27897 7.24076 3.29934C7.30187 3.34008 7.386 3.39834 7.48981 3.47545C7.69742 3.62968 7.98387 3.85942 8.32242 4.17539C8.99982 4.80764 9.8848 5.78425 10.7632 7.18967C12.5247 10.0081 14.2333 14.5086 14.2333 21.3333C14.2333 21.8304 13.8304 22.2333 13.3333 22.2333H7.56666V28C7.56666 28.4971 7.16372 28.9 6.66666 28.9C6.16961 28.9 5.76666 28.4971 5.76666 28V21.3333V4.00001C5.76666 3.67576 5.94108 3.37658 6.22323 3.21683C6.50539 3.05707 6.85167 3.06144 7.12971 3.22826ZM19.5667 4.00001C19.5667 3.50295 19.1637 3.10001 18.6667 3.10001C18.1696 3.10001 17.7667 3.50295 17.7667 4.00001V9.33334C17.7667 11.7321 19.4903 13.7283 21.7667 14.1509V28C21.7667 28.4971 22.1696 28.9 22.6667 28.9C23.1637 28.9 23.5667 28.4971 23.5667 28V14.1509C25.843 13.7283 27.5667 11.7321 27.5667 9.33334V4.00001C27.5667 3.50295 27.1637 3.10001 26.6667 3.10001C26.1696 3.10001 25.7667 3.50295 25.7667 4.00001V9.33334C25.7667 10.7324 24.8398 11.915 23.5667 12.3007V4.00001C23.5667 3.50295 23.1637 3.10001 22.6667 3.10001C22.1696 3.10001 21.7667 3.50295 21.7667 4.00001V12.3007C20.4935 11.915 19.5667 10.7324 19.5667 9.33334V4.00001Z" fill="black"/>
</g>
</svg>
