<svg xmlns="http://www.w3.org/2000/svg" width="24" height="24" viewBox="0 0 24 24">
    <path fill="#415AB7" fill-rule="evenodd" d="M19.86 11.796l-7.857 8.288-7.86-8.288c-1.786-1.927-1.786-4.905 0-6.833 1.623-1.758 4.364-1.868 6.122-.246.085.079.166.161.245.246l.935.986c.309.306.806.306 1.112 0l.935-.985c1.622-1.758 4.363-1.868 6.121-.246.087.078.169.161.247.246 1.803 1.931 1.814 4.914 0 6.832m1.108-7.886c-1.108-1.193-2.663-1.871-4.291-1.874-1.63.002-3.185.68-4.296 1.873l-.379.4-.379-.4C9.42 1.536 5.71 1.4 3.338 3.605c-.107.097-.208.199-.306.304-2.339 2.522-2.339 6.42 0 8.943l8.415 8.873c.29.307.776.32 1.082.029l.03-.029 8.41-8.873c2.34-2.522 2.34-6.42 0-8.942"/>
</svg>
