<svg xmlns="http://www.w3.org/2000/svg" width="56" height="56" viewBox="0 0 56 56">
    <g fill="none">
        <path fill="#415AB7" d="M47.227 16.44V41.41c-.003.835-.679 1.511-1.514 1.514h-34.81c-.834-.003-1.51-.679-1.513-1.514V16.44h37.837z"/>
        <path fill="#2E48A6" d="M32.092 10.385L47.227 10.385 47.227 16.439 32.092 16.439z"/>
        <path fill="#415AB7" d="M43.133 4.248l4.094 6.137H9.39l4.094-6.137c.278-.422.75-.675 1.256-.673h27.137c.505-.002.977.251 1.256.673z"/>
        <path fill="#2E48A6" d="M9.39 10.385L24.525 10.385 24.525 16.439 9.39 16.439z"/>
        <path fill="#E0EBF7" d="M32.092 16.439L32.092 22.493 28.308 19.466 24.525 22.493 24.525 16.439 24.525 10.385 32.092 10.385z"/>
        <g>
            <path fill="#E0141F" d="M21.195 3.899C18.96 1.663 15.752.209 12.373.209c-2.905 0-5.75 1.068-7.948 2.96L3.35 1.376c-.158-.262-.464-.393-.762-.336-.3.06-.529.303-.573.606L.994 8.794c-.07.483.35.884.816.817l7.149-1.02c.303-.044.545-.273.606-.573.06-.3-.075-.605-.337-.762L7.524 6.233c2.33-1.825 4.774-1.665 4.919-1.69 2.698 0 4.49 1.224 5.519 2.253 1.508 1.508 2.405 3.635 2.4 5.689 0 .409.33.724.721.724h2.89c.397 0 .72-.322.722-.72.012-3.318-1.198-6.289-3.5-8.59z" transform="translate(17 29)"/>
            <path fill="#FF747C" d="M22.93 15.465l-7.149 1.021c-.303.044-.546.272-.606.572-.061.3.074.605.337.762l1.698 1.02c-1.385 1.085-3.155 1.692-4.89 1.687-2.72.036-4.511-1.221-5.544-2.253-1.508-1.508-2.405-3.635-2.4-5.689 0-.41-.33-.724-.721-.724H.766c-.398 0-.72.322-.722.72-.013 3.318 1.197 6.289 3.5 8.59 2.22 2.222 5.227 3.604 8.82 3.69 2.907 0 5.75-1.068 7.948-2.96l1.079 1.8c.158.262.462.395.761.336.3-.06.53-.303.573-.606l1.021-7.149c.07-.483-.354-.889-.816-.817z" transform="translate(17 29)"/>
        </g>
    </g>
</svg>
