<svg xmlns="http://www.w3.org/2000/svg" width="56" height="56" viewBox="0 0 56 56">
    <g fill="none">
        <path fill="#415AB7" d="M37.837 12.864v24.973c-.003.835-.679 1.51-1.514 1.513H1.513C.68 39.348.003 38.672 0 37.837V12.864h37.837z" transform="translate(6 6)"/>
        <path fill="#2A429A" d="M27.538 39.35h-3.042c-2.132-2.472-3.305-5.627-3.307-8.891v-7l1.513-.651v6.137c.001 4.011 1.77 7.818 4.836 10.405z" transform="translate(6 6)"/>
        <path fill="#2E48A6" d="M22.702 6.811L37.837 6.811 37.837 12.864 22.702 12.864z" transform="translate(6 6)"/>
        <path fill="#415AB7" d="M33.743.673l4.094 6.138H0L4.094.673C4.372.252 4.844-.002 5.35 0h27.137c.505-.002.977.252 1.256.673z" transform="translate(6 6)"/>
        <path fill="#2E48A6" d="M0 6.811L15.135 6.811 15.135 12.864 0 12.864z" transform="translate(6 6)"/>
        <path fill="#E0EBF7" d="M22.702 12.864L22.702 18.918 18.918 15.891 15.135 18.918 15.135 12.864 15.135 6.811 22.702 6.811z" transform="translate(6 6)"/>
        <path fill="#E0141F" d="M43.89 21.945v7c-.002 4.18-1.921 8.13-5.206 10.715l-5.388 4.23-5.388-4.23c-.128-.097-.252-.2-.37-.31-3.066-2.587-4.835-6.394-4.836-10.405v-7l10.594-4.54 4.54 1.945 6.055 2.595z" transform="translate(6 6)"/>
        <path fill="#E4A9AC" d="M37.837 22.642l-4.54-1.945-7.568 3.246v5.002c-.01 3.254 1.484 6.33 4.049 8.332l2.64 2.073.878.689.878-.689 2.641-2.073c.36-.283.701-.59 1.022-.916 1.948-1.976 3.036-4.641 3.027-7.416v-5.002l-3.027-1.301z" transform="translate(6 6)"/>
        <path fill="#E0141F" d="M32.54 32.54c-.201 0-.394-.08-.535-.222l-2.27-2.27 1.07-1.07 1.735 1.735 4.005-4.006 1.07 1.07-4.54 4.54c-.142.143-.335.223-.535.223z" transform="translate(6 6)"/>
    </g>
</svg>
