<svg xmlns="http://www.w3.org/2000/svg" width="264" height="240" viewBox="0 0 264 240">
    <g fill="none" fill-rule="evenodd">
        <path fill="#EBEBEB" d="M23.209 215.638h39.125-39.125z"/>
        <path fill="#DFE8F5" d="M132 223c72.901 0 132 3.6 132 8.042 0 4.441-59.099 8.042-132 8.042-72.902 0-132-3.6-132-8.042S59.098 223 132 223"/>
        <g>
            <path fill="#407BFF" d="M35.96 53.86c-1.573 3.814-10.813 3.558-20.5-.438C5.772 49.426-.806 43.096.767 39.283c.364-.883 1.38-4.184 2.47-4.643 3.61-1.522 10.476 1.906 17.918 4.976 6.926 2.857 14.842 4.693 16.072 8.456.745 2.282-.82 4.703-1.267 5.789" transform="translate(107.143)"/>
            <path fill="#415AB7" d="M37.23 48.072c.588 2.991-.708 4.423-1.271 5.787-.58 1.408-2.2 2.259-4.496 2.575-.276.045-.567.073-.865.096-1.54.114-3.326.024-5.27-.275-.249-.03-.495-.077-.749-.122-1.9-.328-3.932-.853-6.029-1.55-.226-.076-.455-.159-.683-.24-.795-.28-1.604-.584-2.408-.918-.802-.33-1.582-.68-2.343-1.044-.22-.1-.435-.21-.648-.312-1.908-.946-3.64-1.972-5.166-3.028-.201-.137-.389-.277-.582-.408-1.588-1.155-2.926-2.348-3.934-3.513-.177-.197-.337-.39-.49-.587-1.53-1.937-2.132-3.78-1.528-5.248.393-.95 1.25-4.182 2.466-4.647 1.218-.457 2.786-.394 4.601-.008.233.051.475.107.72.169 3.584.907 8.027 2.931 12.596 4.817 5.39 2.223 11.762 4.53 14.882 7.195.195.16.369.328.537.497.254.254.47.504.66.764" transform="translate(107.143)"/>
            <path fill="#213992" d="M8.884 34.205l-.328.594-5.77 10.321c-.177-.197-.337-.39-.49-.587l5.54-9.903.428-.768.62.343zM13.246 38.409L7.302 49.04c-.201-.136-.39-.276-.582-.408l5.91-10.577.616.353zM24.179 44.516L18.55 54.582c-.227-.075-.455-.158-.683-.24l5.69-10.175.622.35zM19.097 41.677l-5.981 10.704c-.22-.1-.434-.21-.648-.312l6.006-10.742.623.35zM30.808 46.462l-5.479 9.793c-.25-.03-.496-.078-.75-.122l5.606-10.02.623.349z" transform="translate(107.143)"/>
            <path fill="#667FDB" d="M37.187 50.508c-1.573 3.813-10.701 3.663-20.388-.333C7.112 46.18.534 39.85 2.106 36.037c1.572-3.812 10.7-3.664 20.388.332 9.687 3.996 16.265 10.327 14.693 14.139" transform="translate(107.143)"/>
            <path fill="#ADB9E6" d="M33.894 49.15c-1.111 2.693-8.228 2.313-15.894-.85-7.666-3.161-12.98-7.909-11.869-10.602 1.111-2.694 8.226-2.314 15.893.848 7.666 3.163 12.98 7.91 11.87 10.604" transform="translate(107.143)"/>
            <path fill="#407BFF" d="M84.921 19.379c2.525 3.26-2.293 11.149-10.578 17.565-8.284 6.417-17.048 8.975-19.573 5.715-.586-.756-2.942-3.28-2.8-4.454.476-3.888 6.864-8.14 13.229-13.068 5.924-4.588 11.455-10.542 15.33-9.736 2.351.488 3.672 3.049 4.392 3.978" transform="translate(107.143)"/>
            <path fill="#415AB7" d="M80.53 15.397c2.888.978 3.486 2.815 4.39 3.982.932 1.203.865 3.032-.004 5.18-.098.263-.218.528-.346.799-.667 1.392-1.633 2.897-2.86 4.434-.15.2-.314.392-.478.59-1.23 1.485-2.696 2.987-4.345 4.46-.178.158-.363.315-.548.472-.636.55-1.302 1.1-1.993 1.632-.684.533-1.376 1.035-2.071 1.514-.196.141-.398.273-.593.407-1.77 1.185-3.521 2.177-5.197 2.976-.217.106-.433.2-.643.301-1.792.803-3.492 1.371-5.005 1.666-.258.055-.506.098-.753.134-2.44.363-4.34-.032-5.312-1.286-.63-.813-3.007-3.164-2.805-4.45.21-1.285 1.045-2.613 2.282-3.996.16-.177.329-.359.504-.54 2.57-2.66 6.536-5.506 10.445-8.532 4.609-3.57 9.78-7.95 13.643-9.331.237-.09.468-.157.698-.218.347-.095.672-.158.991-.194" transform="translate(107.143)"/>
            <path fill="#213992" d="M54.403 33.09l.35.58 6.084 10.14c-.257.055-.506.098-.753.133l-5.835-9.73-.453-.755.607-.367zM60.218 31.397l6.268 10.446c-.219.106-.435.2-.643.301l-6.236-10.388.611-.359zM70.955 24.951l5.933 9.89c-.178.159-.364.316-.55.473l-5.996-9.997.613-.366zM65.964 27.948l6.311 10.512c-.196.141-.398.273-.592.407L65.35 28.314l.613-.366zM75.94 20.168l5.77 9.624c-.15.2-.314.392-.478.59l-5.905-9.848.613-.366z" transform="translate(107.143)"/>
            <path fill="#667FDB" d="M82.623 16.647c2.525 3.26-2.145 11.105-10.43 17.52-8.285 6.417-17.048 8.975-19.573 5.715-2.525-3.26 2.144-11.105 10.429-17.522 8.285-6.416 17.048-8.974 19.574-5.713" transform="translate(107.143)"/>
            <path fill="#A2B6DD" d="M79.806 18.828c1.785 2.304-2.085 8.287-8.641 13.365-6.557 5.078-13.319 7.327-15.103 5.023-1.783-2.303 2.085-8.288 8.642-13.365 6.557-5.078 13.318-7.327 15.102-5.023" transform="translate(107.143)"/>
            <path fill="#407BFF" d="M49.228 17.196c-.832 4.676-11.29 6.659-23.17 4.544-11.88-2.114-20.836-7.619-20.004-12.294.193-1.084.525-5.047 1.638-5.831 3.687-2.6 12.254-.43 21.38 1.194 8.494 1.512 17.852 1.633 20.16 5.564 1.399 2.383.234 5.49-.004 6.823" transform="translate(107.143)"/>
            <path fill="#415AB7" d="M49.235 10.371c1.396 3.221.29 5.15-.008 6.824-.306 1.726-1.92 3.08-4.425 4-.3.12-.62.222-.95.321-1.704.507-3.734.845-5.995.986-.287.027-.576.035-.873.048-2.219.098-4.634.007-7.164-.263-.273-.03-.55-.066-.828-.103-.962-.118-1.946-.261-2.934-.44-.983-.173-1.946-.376-2.892-.598-.272-.06-.541-.129-.805-.192-2.38-.595-4.58-1.323-6.557-2.137-.26-.104-.506-.216-.755-.316-2.07-.91-3.869-1.922-5.29-2.985-.247-.178-.475-.357-.696-.54-2.196-1.803-3.326-3.73-3.007-5.53.207-1.164.377-5.011 1.632-5.832 1.257-.814 3.037-1.128 5.174-1.14.275 0 .561.002.852.012 4.255.14 9.75 1.326 15.354 2.324 6.61 1.177 14.346 2.204 18.51 4.437.26.132.496.278.726.428.349.222.654.45.93.696" transform="translate(107.143)"/>
            <path fill="#213992" d="M13.938 1.738l-.224.748-3.954 13.03c-.247-.178-.476-.357-.697-.54l3.799-12.502.294-.97.782.234zM19.878 5.395l-4.074 13.422c-.26-.103-.506-.215-.755-.316L19.1 5.149l.779.246zM33.679 9.579L29.82 22.287c-.273-.03-.55-.066-.828-.103l3.9-12.845.787.24zM27.263 7.634l-4.098 13.512c-.271-.06-.54-.129-.804-.192l4.116-13.56.786.24zM41.614 10.138l-3.757 12.364c-.287.027-.576.035-.873.048l3.844-12.652.786.24z" transform="translate(107.143)"/>
            <path fill="#667FDB" d="M49.785 13.123c-.832 4.675-11.138 6.75-23.018 4.636S5.93 10.14 6.762 5.464C7.594.79 17.9-1.286 29.78.828c11.88 2.115 20.838 7.619 20.005 12.295" transform="translate(107.143)"/>
            <path fill="#ADB9E6" d="M45.746 12.404c-.588 3.303-8.686 4.624-18.088 2.951-9.402-1.673-16.547-5.708-15.96-9.011.59-3.304 8.687-4.626 18.09-2.952 9.401 1.673 16.547 5.708 15.958 9.012" transform="translate(107.143)"/>
        </g>
        <g>
            <path fill="#407BFF" d="M185.817 69.668l-73.106 4.253c-2.591.15-5.135.771-7.504 1.831L25.797 111.3c-2.883 1.29-4.477 4.383-3.831 7.432l13.138 62.047c.901 4.258 5.647 6.499 9.592 4.529l78.38-39.128 72.372-2.446c3.802-.129 6.639-3.528 6.035-7.231l-9.686-59.419c-.5-3.068-2.828-7.51-5.98-7.416" transform="translate(31.968 46.15)"/>
            <path fill="#213992" d="M185.817 69.668l-73.106 4.253c-2.591.15-5.135.771-7.504 1.831L25.797 111.3c-2.883 1.29-4.477 4.383-3.831 7.432l13.138 62.047c.901 4.258 5.647 6.499 9.592 4.529l78.38-39.128 72.372-2.446c3.802-.129 6.639-3.528 6.035-7.231l-9.686-59.419c-.5-3.068-2.828-7.51-5.98-7.416" transform="translate(31.968 46.15)"/>
            <path fill="#407BFF" d="M107.916 103.961L69.55 139.325 0.705 64.635 39.072 29.271z" transform="translate(31.968 46.15)"/>
            <path fill="#E0141F" d="M107.915 103.962L69.548 139.324 0.707 64.638 25.884 41.429 39.074 29.27 41.273 31.654z" transform="translate(31.968 46.15)"/>
            <path stroke="#EFA2A7" stroke-width="2" d="M103.722 103.704L69.865 134.911 5.466 65.044 39.322 33.837z" transform="translate(31.968 46.15)"/>
            <path fill="#415AB7" d="M62.208 92.635c-3.881 3.578-10.666 2.533-15.153-2.337-4.487-4.867-4.978-11.715-1.096-15.292 3.881-3.578 10.666-2.533 15.153 2.336 4.488 4.869 4.978 11.715 1.096 15.293z" transform="translate(31.968 46.15)"/>
            <path fill="#B2161F" d="M69.138 109.015L55.506 113.724 25.884 41.429 39.074 29.27 41.273 31.654z" opacity=".64" transform="translate(31.968 46.15)"/>
            <path fill="#407BFF" d="M106.412 95.503L57.358 113.288 22.736 17.792 71.79 0.008z" transform="translate(31.968 46.15)"/>
            <path fill="#ADB9E6" d="M106.412 95.503L57.358 113.288 22.736 17.792 71.79 0.008z" transform="translate(31.968 46.15)"/>
            <path stroke="#415AB7" stroke-width="2" d="M102.642 93.645L59.355 109.34 26.97 20.009 70.257 4.316z" transform="translate(31.968 46.15)"/>
            <path fill="#415AB7" d="M73.536 52.862c2.257 6.224.062 12.729-4.9 14.528-4.964 1.8-10.817-1.788-13.074-8.013-2.257-6.223-.062-12.729 4.902-14.527 4.962-1.8 10.815 1.787 13.072 8.012M186.295 72.19l-72.106 4.062c-2.557.145-5.065.758-7.399 1.812l-78.243 35.324c-2.84 1.282-4.405 4.37-3.76 7.419l13.12 62.05c.901 4.257 5.589 6.51 9.475 4.552l77.218-38.906 71.386-2.258c3.75-.119 6.54-3.509 5.935-7.212l-9.71-59.414c-.5-3.068-2.808-7.513-5.916-7.429" transform="translate(31.968 46.15)"/>
            <path stroke="#213992" stroke-linecap="round" stroke-linejoin="round" stroke-width="2" d="M117.122 87.125L178.988 83.313M109.71 88.725L121.015 140.641" transform="translate(31.968 46.15)"/>
            <path fill="#ADB9E6" d="M34.353 135.594l7.97 39.936s6.11-15.847-7.97-39.936M35.398 136.063c.274.729 70.795-29.55 70.795-29.55s1.784 21.766-19.438 33.67c-21.223 11.904-51.357-4.12-51.357-4.12" transform="translate(31.968 46.15)"/>
            <path fill="#415AB7" d="M85.297 134.186c0 1.687-1.368 3.055-3.055 3.055s-3.055-1.368-3.055-3.055 1.368-3.055 3.055-3.055 3.055 1.368 3.055 3.055" transform="translate(31.968 46.15)"/>
            <path fill="#ADB9E6" d="M106.23 106.513s8.746 13.158 6.63 35.584" transform="translate(31.968 46.15)"/>
            <g stroke="#213992" stroke-linecap="round" stroke-linejoin="round">
                <path d="M0.431 33.24L2.056 32.521" transform="translate(31.968 46.15) translate(30.547 86.67)"/>
                <path stroke-dasharray="5.198 5.198" d="M5.433 31.029L71.287 1.92" transform="translate(31.968 46.15) translate(30.547 86.67)"/>
                <path d="M72.976 1.174L74.6 0.456" transform="translate(31.968 46.15) translate(30.547 86.67)"/>
            </g>
            <path stroke="#213992" stroke-linecap="round" stroke-linejoin="round" stroke-width="2" d="M119.197 98.795L181.063 94.983M121.981 113.349L183.847 109.537" transform="translate(31.968 46.15)"/>
        </g>
        <g>
            <path fill="#407BFF" d="M62.114 20.152L47.115 72.343c-1.059 3.69-4.245 6.187-7.83 6.545-1.116.109-2.273.017-3.424-.312l-28.705-8.25C2.33 68.936-.46 63.898.924 59.074l15.005-52.2c.806-2.792 2.828-4.905 5.336-5.917C23.08.22 25.15.063 27.184.648L55.887 8.89c4.826 1.391 7.617 6.43 6.227 11.262" transform="translate(144.212 49.702)"/>
            <path fill="#415AB7" d="M62.114 20.152L47.115 72.343c-1.059 3.69-4.245 6.187-7.83 6.545-1.116.109-2.273.017-3.424-.312l-28.705-8.25C2.33 68.936-.46 63.898.924 59.074l15.005-52.2c.806-2.792 2.828-4.905 5.336-5.917C23.08.22 25.15.063 27.184.648L55.887 8.89c4.826 1.391 7.617 6.43 6.227 11.262" transform="translate(144.212 49.702)"/>
            <path fill="#407BFF" d="M59.618 20.773L44.619 72.965c-.805 2.798-2.834 4.914-5.334 5.924-1.116.108-2.273.015-3.424-.314L7.156 70.327C2.33 68.935-.46 63.897.924 59.073l15.004-52.2c.807-2.792 2.829-4.905 5.337-5.917 1.115-.109 2.273-.016 3.423.313L53.391 9.51c4.826 1.39 7.616 6.429 6.227 11.262" transform="translate(144.212 49.702)"/>
            <path fill="#A2B6DD" d="M59.618 20.773L44.619 72.965c-.805 2.798-2.834 4.914-5.334 5.924-1.116.108-2.273.015-3.424-.314L7.156 70.327C2.33 68.935-.46 63.897.924 59.073l15.004-52.2c.807-2.792 2.829-4.905 5.337-5.917 1.115-.109 2.273-.016 3.423.313L53.391 9.51c4.826 1.39 7.616 6.429 6.227 11.262" transform="translate(144.212 49.702)"/>
            <path fill="#D0D7F2" d="M8.244 64.407L5.172 63.542 16.219 24.336 19.291 25.201zM12.64 65.659L9.573 64.778 20.617 25.581 23.684 26.463zM17.104 66.942L14.036 66.06 25.08 26.864 28.148 27.746z" transform="translate(144.212 49.702)"/>
            <path fill="#415AB7" d="M34.983 72.088L31.912 71.223 42.958 32.017 46.03 32.883z" transform="translate(144.212 49.702)"/>
            <path fill="#E0141F" d="M45.626 21.802L44.1 27.123l-1.82-.511c-1.833-.519-2.898-2.423-2.386-4.256l.994-3.53 3.673 1.051c.824.242 1.3 1.101 1.065 1.925M44.753 19.195l-3.673-1.051 1.101-3.893c.512-1.833 2.423-2.899 4.256-2.387l1.89.533-1.649 5.733c-.234.83-1.094 1.307-1.925 1.065M48.233 20.935l3.695 1.059-.98 3.474c-.512 1.833-2.415 2.905-4.248 2.387l-1.918-.54L46.308 22c.235-.824 1.094-1.3 1.925-1.066M53.235 17.362l-1.115 3.95-3.695-1.058c-.824-.242-1.3-1.102-1.065-1.926l1.649-5.733 1.84.52c1.832.51 2.898 2.414 2.386 4.247" transform="translate(144.212 49.702)"/>
        </g>
    </g>
</svg>
