<svg xmlns="http://www.w3.org/2000/svg" xmlns:xlink="http://www.w3.org/1999/xlink" width="2559" height="496" viewBox="0 0 2559 496">
    <defs>
        <path id="tetm1pyt9a" d="M0 0H2561V496H0z"/>
        <path id="uk8zk6paje" d="M0 0.348L56.12 0.348 56.12 44.4 0 44.4z"/>
        <linearGradient id="q9onc1c77b" x1="21.158%" x2="79.631%" y1="51.875%" y2="48.125%">
            <stop offset="0%" stop-color="#143EA7"/>
            <stop offset="100%" stop-color="#2342B6"/>
        </linearGradient>
        <filter id="lnyrbgs6pd" width="176.9%" height="181.6%" x="-38.5%" y="-40.8%" filterUnits="objectBoundingBox">
            <feGaussianBlur in="SourceGraphic" stdDeviation="45"/>
        </filter>
    </defs>
    <g fill="none" fill-rule="evenodd" transform="translate(-2)">
        <mask id="874ogox5zc" fill="#fff">
            <use xlink:href="#tetm1pyt9a"/>
        </mask>
        <use fill="url(#q9onc1c77b)" xlink:href="#tetm1pyt9a"/>
        <g mask="url(#874ogox5zc)" opacity=".99">
            <g transform="translate(20 -5)">
                <path fill="#3AD364" d="M1894.17 198.68l-8.232-8.232 8.231-8.231c.964-.964.964-2.528 0-3.492s-2.528-.964-3.492 0l-8.23 8.231-8.232-8.23c-.964-.968-2.528-.968-3.492 0-.964.963-.964 2.527 0 3.49l8.231 8.232-8.23 8.231c-.965.964-.965 2.528 0 3.492.963.964 2.527.964 3.49 0l8.232-8.231 8.231 8.231c.964.964 2.528.964 3.492 0s.964-2.528 0-3.492M2443.17 122.68l-8.232-8.232 8.231-8.231c.964-.964.964-2.528 0-3.492s-2.528-.964-3.492 0l-8.23 8.231-8.232-8.23c-.964-.968-2.528-.968-3.492 0-.964.963-.964 2.527 0 3.49l8.231 8.232-8.23 8.231c-.965.964-.965 2.528 0 3.492.963.964 2.527.964 3.49 0l8.232-8.231 8.231 8.231c.964.964 2.528.964 3.492 0s.964-2.528 0-3.492M1029.526 262.49l8.996 8.996c.524.524 1.44.524 1.966 0 .262-.262.405-.61.405-.983 0-.37-.146-.719-.408-.98l-8.995-8.996 8.998-8.996c.54-.542.54-1.423 0-1.965-.546-.54-1.423-.54-1.966 0l-8.996 8.995-8.995-8.995c-.262-.262-.613-.406-.983-.406-.373 0-.719.144-.98.406-.543.542-.543 1.423-.003 1.965l8.995 8.993-8.995 8.998c-.54.54-.54 1.42 0 1.964.545.54 1.423.543 1.966 0l8.995-8.996zm9.976 11.564c-.948 0-1.839-.37-2.509-1.042l-7.467-7.465-7.467 7.465c-1.385 1.385-3.64 1.385-5.02 0-1.385-1.383-1.385-3.635 0-5.018l7.467-7.47-7.467-7.467c-1.385-1.382-1.385-3.635 0-5.017.67-.673 1.56-1.04 2.509-1.04.948 0 1.839.367 2.509 1.04l7.47 7.467 7.466-7.467c1.383-1.386 3.635-1.383 5.02-.003 1.386 1.385 1.386 3.638 0 5.02l-7.466 7.47 7.467 7.467c.67.67 1.04 1.56 1.04 2.509 0 .948-.368 1.839-1.04 2.509-.673.672-1.564 1.042-2.512 1.042zM233.526 142.49l8.996 8.996c.524.524 1.44.524 1.966 0 .262-.262.405-.61.405-.983 0-.37-.146-.719-.408-.98l-8.995-8.996 8.998-8.996c.54-.542.54-1.423 0-1.965-.546-.54-1.423-.54-1.966 0l-8.996 8.995-8.995-8.995c-.262-.262-.613-.406-.983-.406-.373 0-.719.144-.98.406-.543.542-.543 1.423-.003 1.965l8.995 8.993-8.995 8.998c-.54.54-.54 1.42 0 1.964.545.54 1.423.543 1.966 0l8.995-8.996zm9.976 11.564c-.948 0-1.839-.37-2.509-1.042l-7.467-7.465-7.467 7.465c-1.385 1.385-3.64 1.385-5.02 0-1.385-1.383-1.385-3.635 0-5.018l7.467-7.47-7.467-7.467c-1.385-1.382-1.385-3.635 0-5.017.67-.673 1.56-1.04 2.509-1.04.948 0 1.839.367 2.509 1.04l7.47 7.467 7.466-7.467c1.383-1.386 3.635-1.383 5.02-.003 1.386 1.385 1.386 3.638 0 5.02l-7.466 7.47 7.467 7.467c.67.67 1.04 1.56 1.04 2.509 0 .948-.368 1.839-1.04 2.509-.673.672-1.564 1.042-2.512 1.042z"/>
                <path fill="#40D6FF" d="M1173.163 466.228l-25.72 11.844c-1.242.573-1.788 2.045-1.215 3.287.572 1.242 2.044 1.785 3.286 1.213l25.723-11.842c1.242-.573 1.785-2.045 1.212-3.287-.572-1.245-2.044-1.788-3.286-1.215"/>
                <path fill="#E0141F" d="M1095.553 449.955l-26.257 55.467c-.332.7-.033 1.53.661 1.863.692.33 1.532.032 1.861-.664l26.26-55.464c.33-.697.033-1.534-.664-1.863-.7-.332-1.531-.035-1.86.664v-.003zm-25.001 59.625c-.51 0-1.03-.11-1.52-.342-1.775-.843-2.529-2.968-1.689-4.743l26.258-55.466c.842-1.769 2.97-2.525 4.74-1.688 1.77.843 2.53 2.97 1.69 4.742l-26.26 55.464c-.608 1.283-1.888 2.033-3.22 2.033z"/>
                <path fill="#2B6FFF" d="M902.003 280.573l-47.111 39.328c-1.05.875-1.194 2.436-.319 3.486.875 1.054 2.439 1.197 3.49.322l47.11-39.328c1.05-.875 1.194-2.439.319-3.49-.875-1.05-2.439-1.193-3.49-.318M657.775 118.483l-47.11 39.328c-.29.238-.465.575-.498.948-.035.37.076.732.316 1.02.24.287.576.463.948.498.373.032.735-.079 1.021-.319l47.108-39.325c.29-.24.465-.575.5-.948.032-.373-.078-.735-.319-1.023-.237-.287-.575-.462-.945-.497-.37-.025-.735.08-1.02.318m-46.212 43.96c-.108 0-.22-.006-.33-.017-.945-.086-1.804-.534-2.411-1.266-.608-.73-.894-1.653-.808-2.598.087-.948.535-1.804 1.267-2.412l47.11-39.325c.727-.607 1.653-.896 2.598-.81.948.086 1.804.535 2.412 1.267.608.729.897 1.652.81 2.6-.089.945-.537 1.804-1.27 2.412l-47.107 39.325c-.646.537-1.442.824-2.271.824"/>
                <path fill="#3AD364" d="M2129.01 139.89l-26.29-55.468c-.586-1.24-2.063-1.767-3.3-1.186-1.237.583-1.766 2.063-1.183 3.3l26.29 55.469c.586 1.237 2.063 1.766 3.303 1.186 1.237-.586 1.766-2.064 1.18-3.3"/>
                <path fill="#FFEA30" d="M1767.967 146.396l49.004-36.937c1.096-.821 1.315-2.377.491-3.47-.823-1.094-2.376-1.313-3.467-.492l-49.007 36.938c-1.093.823-1.312 2.376-.491 3.47.823 1.094 2.376 1.315 3.47.491M1843.558 393.16c-.289 0-.586.092-.837.281l-49.001 36.936c-.619.464-.743 1.342-.281 1.957.224.3.553.492.92.546.365.054.74-.043 1.035-.267l49.006-36.938c.3-.224.492-.551.546-.921.051-.37-.043-.737-.267-1.037-.276-.365-.697-.556-1.121-.556zm-48.999 41.891c-1.08 0-2.15-.489-2.846-1.418-1.18-1.569-.861-3.802.705-4.982l49.004-36.938c1.574-1.18 3.802-.861 4.982.705.573.761.813 1.699.68 2.638-.132.943-.626 1.775-1.385 2.344l-49.003 36.938c-.003 0-.003.003-.003.003-.637.478-1.388.71-2.134.71z"/>
                <path fill="#40D6FF" d="M1465.094 379.647l46.495 40.054c1.037.894 2.6.781 3.494-.256.894-1.034.78-2.6-.256-3.495l-46.495-40.054c-1.035-.894-2.601-.778-3.495.257-.894 1.037-.778 2.6.257 3.494M2328.858 326.353l46.495 40.054c1.037.894 2.6.78 3.495-.257.894-1.034.78-2.6-.257-3.494l-46.495-40.054c-1.034-.894-2.6-.778-3.494.256-.894 1.037-.778 2.6.256 3.495"/>
                <path fill="#40D6FF" d="M1465.8 378.832l46.493 40.052c.591.502 1.469.438 1.971-.146.505-.58.438-1.466-.143-1.968l-46.492-40.055c-.584-.505-1.47-.432-1.974.146-.503.58-.438 1.466.145 1.971m47.406 42.55c-.824 0-1.653-.284-2.326-.861l-46.492-40.057c-1.483-1.283-1.647-3.533-.367-5.018 1.285-1.488 3.537-1.65 5.017-.367l46.493 40.054c.723.621 1.156 1.485 1.226 2.433.07.948-.235 1.866-.856 2.587-.702.813-1.696 1.229-2.695 1.229"/>
                <path fill="#FFEA30" d="M1615.29 471.642l13.309 25.02c.643 1.21 2.147 1.67 3.354 1.03 1.207-.646 1.666-2.145 1.023-3.355l-13.308-25.02c-.643-1.21-2.144-1.67-3.351-1.026-1.21.64-1.67 2.141-1.026 3.35M1856.327 469.216l13.31 25.02c.174.33.468.573.824.683.362.106.74.073 1.067-.105.327-.173.57-.464.68-.824.109-.356.07-.737-.102-1.064l-13.31-25.023c-.363-.68-1.213-.937-1.894-.578-.33.173-.57.468-.68.821-.108.36-.07.738.105 1.07m14.55 27.926c-.35 0-.702-.054-1.047-.16-.91-.278-1.656-.896-2.101-1.733l-13.311-25.02c-.446-.84-.538-1.802-.262-2.712.278-.91.894-1.655 1.733-2.1 1.729-.922 3.89-.263 4.815 1.47l13.309 25.024c.92 1.731.262 3.891-1.47 4.815-.52.276-1.09.416-1.666.416M189.8 61.864l27.232 7.745c1.318.373 2.687-.389 3.062-1.707.373-1.318-.389-2.687-1.707-3.06l-27.232-7.747c-1.315-.373-2.687.388-3.06 1.706-.375 1.318.39 2.687 1.705 3.063"/>
                <path fill="#FCE832" d="M877.561 475.164c-.6 0-1.156.386-1.34.986-.107.353-.07.726.103 1.05.176.33.467.57.827.678l27.091 8.188c.74.221 1.523-.192 1.748-.926.108-.354.072-.727-.103-1.053-.176-.327-.47-.568-.826-.676l-27.095-8.188c-.132-.04-.27-.06-.405-.06m27.086 13.123c-.34 0-.686-.049-1.029-.154l-27.091-8.185c-.913-.279-1.661-.892-2.11-1.729-.445-.834-.537-1.793-.261-2.698.572-1.871 2.554-2.938 4.437-2.365l27.094 8.188c.91.275 1.658.888 2.107 1.725.445.838.54 1.796.261 2.7-.464 1.53-1.882 2.518-3.408 2.518"/>
                <path fill="#E0141F" d="M619.06 261.402c-1.873 0-3.688.605-5.211 1.756-1.85 1.396-3.044 3.43-3.362 5.725-.319 2.295.272 4.577 1.669 6.427 1.399 1.847 3.432 3.041 5.725 3.362h.003c2.295.324 4.577-.272 6.424-1.671 1.85-1.396 3.044-3.43 3.365-5.725.319-2.296-.276-4.578-1.672-6.428-1.396-1.847-3.43-3.04-5.725-3.362-.405-.054-.813-.084-1.215-.084m.049 22.758c-.654 0-1.313-.046-1.972-.14-3.724-.516-7.024-2.455-9.29-5.456-2.265-2.997-3.23-6.7-2.711-10.424.518-3.726 2.455-7.024 5.458-9.292 3-2.266 6.705-3.233 10.427-2.709 3.724.519 7.024 2.455 9.29 5.455 2.265 3 3.23 6.703 2.708 10.427-.516 3.724-2.455 7.024-5.455 9.29-2.468 1.866-5.415 2.849-8.455 2.849"/>
                <path fill="#FFEA30" d="M1846.881 271.675c4.756.648 9.133-2.66 9.792-7.397.66-4.74-2.66-9.13-7.397-9.79-2.287-.312-4.577.274-6.427 1.673-1.85 1.396-3.043 3.43-3.362 5.725-.319 2.295.273 4.577 1.672 6.424 1.393 1.85 3.427 3.044 5.722 3.365m1.204 5.485c-.642 0-1.293-.043-1.947-.138-3.724-.516-7.024-2.455-9.292-5.455-2.266-3-3.227-6.703-2.709-10.427.519-3.724 2.455-7.021 5.458-9.29 2.998-2.268 6.7-3.235 10.424-2.71 7.688 1.069 13.07 8.195 12.001 15.884-.98 7.032-7.024 12.136-13.935 12.136M2518.881 84.675c4.756.648 9.133-2.66 9.792-7.397.66-4.74-2.66-9.13-7.397-9.79-2.287-.312-4.577.274-6.427 1.673-1.85 1.396-3.043 3.43-3.362 5.725-.319 2.295.273 4.577 1.672 6.424 1.393 1.85 3.427 3.044 5.722 3.365m1.204 5.485c-.642 0-1.293-.043-1.947-.138-3.724-.516-7.024-2.455-9.292-5.455-2.266-3-3.227-6.703-2.709-10.427.519-3.724 2.455-7.021 5.458-9.29 2.998-2.268 6.7-3.235 10.424-2.71 7.688 1.069 13.07 8.195 12.001 15.884-.98 7.032-7.024 12.136-13.935 12.136"/>
                <path fill="#2B6FFF" d="M912.622 394.466c2.112.28 4.105-1.197 4.402-3.327.143-1.035-.124-2.06-.75-2.893-.63-.829-1.546-1.369-2.577-1.512-2.144-.283-4.105 1.2-4.402 3.327-.297 2.131 1.196 4.108 3.327 4.405m.54 5.439c-.424 0-.853-.03-1.285-.092-5.08-.705-8.64-5.415-7.932-10.494.705-5.08 5.426-8.65 10.494-7.935 2.463.343 4.645 1.626 6.144 3.608 1.496 1.983 2.134 4.43 1.788 6.89-.646 4.647-4.642 8.023-9.209 8.023M1520.303 189.403h-.081c-1.043.022-2.012.448-2.736 1.199-.72.753-1.107 1.74-1.083 2.782.02 1.042.446 2.014 1.197 2.735.75.721 1.63 1.15 2.781 1.086 1.043-.022 2.015-.446 2.736-1.2.724-.75 1.107-1.741 1.085-2.783-.043-2.123-1.785-3.819-3.9-3.819m-.005 13.203c-2.414 0-4.69-.916-6.438-2.59-1.793-1.72-2.808-4.037-2.857-6.522-.054-2.482.867-4.836 2.59-6.63 1.718-1.793 4.035-2.808 6.52-2.862 5.114-.103 9.38 3.98 9.492 9.109.05 2.487-.87 4.842-2.59 6.635-1.718 1.793-4.038 2.809-6.522 2.86h-.195"/>
                <path fill="#40D6FF" d="M2222.308 330.398c-.03 0-.057.003-.084.003-1.045.022-2.014.446-2.735 1.196-.724.754-1.11 1.742-1.086 2.785.043 2.147 1.712 3.824 3.978 3.82 2.152-.045 3.867-1.83 3.821-3.982-.019-1.043-.445-2.012-1.196-2.736-.732-.7-1.688-1.086-2.698-1.086m-.005 13.209c-5.045 0-9.196-4.051-9.301-9.115-.051-2.484.867-4.839 2.59-6.632 1.72-1.793 4.034-2.809 6.522-2.86 2.503-.003 4.836.867 6.63 2.59 1.793 1.72 2.808 4.034 2.86 6.519.105 5.126-3.981 9.387-9.11 9.495h-.002l-.19.003"/>
                <path fill="#3AD364" d="M1125.057 372.403c-1.874 0-3.689.608-5.21 1.756-1.849 1.396-3.043 3.43-3.364 5.725-.659 4.737 2.66 9.128 7.397 9.792 4.758.664 9.13-2.663 9.79-7.4.32-2.292-.274-4.577-1.672-6.427-1.397-1.847-3.43-3.043-5.723-3.362h-.003c-.405-.054-.812-.084-1.215-.084m.027 22.758c-.642 0-1.293-.046-1.947-.138-7.688-1.072-13.073-8.196-12.001-15.884.518-3.724 2.455-7.022 5.455-9.29 3-2.266 6.7-3.235 10.427-2.709 3.724.516 7.024 2.455 9.292 5.455 2.266 3 3.228 6.703 2.709 10.427-.978 7.032-7.027 12.139-13.935 12.139"/>
                <path fill="#FF3652" d="M1232.52 441.101l9.578 9.6 9.603-9.58-9.582-9.601-9.6 9.581zm9.575 16.12c-.691 0-1.385-.265-1.912-.794l-13.394-13.425c-1.054-1.055-1.051-2.762.002-3.818l13.425-13.395c1.056-1.05 2.768-1.056 3.82.006l13.396 13.424c1.053 1.053 1.05 2.763-.006 3.819l-13.424 13.394c-.527.524-1.218.789-1.907.789zM6.52 71.101l9.578 9.6 9.603-9.58-9.582-9.601-9.6 9.581zm9.575 16.12c-.691 0-1.385-.265-1.912-.794L.79 73.002C-.265 71.947-.262 70.24.79 69.184l13.425-13.395c1.056-1.05 2.768-1.056 3.82.006l13.396 13.424c1.053 1.053 1.05 2.763-.006 3.819L18.002 86.432c-.527.524-1.218.789-1.907.789zM2274.52 137.101l9.578 9.6 9.603-9.58-9.582-9.601-9.6 9.581zm9.575 16.12c-.691 0-1.385-.265-1.912-.794l-13.394-13.425c-1.054-1.055-1.051-2.762.002-3.818l13.425-13.395c1.056-1.05 2.768-1.056 3.82.006l13.396 13.424c1.053 1.053 1.05 2.763-.006 3.819l-13.424 13.394c-.527.524-1.218.789-1.907.789zM1569.52 228.985l2.462 2.363 2.366-2.463-2.466-2.366-2.363 2.466zm2.54 8.884c-.693 0-1.363-.27-1.868-.753l-6.36-6.103c-1.077-1.032-1.113-2.744-.081-3.819l6.106-6.362c.494-.516 1.177-.816 1.893-.832.721 0 1.407.257 1.925.753l6.36 6.104c1.075 1.031 1.113 2.743.079 3.818l-6.104 6.363c-.497.515-1.177.815-1.893.831h-.056zM2330.52 422.985l2.462 2.363 2.366-2.463-2.466-2.366-2.363 2.466zm2.54 8.884c-.693 0-1.363-.27-1.868-.753l-6.36-6.103c-1.077-1.032-1.113-2.744-.081-3.819l6.106-6.362c.494-.516 1.177-.816 1.893-.832.721 0 1.407.257 1.925.753l6.36 6.104c1.075 1.031 1.113 2.743.079 3.818l-6.104 6.363c-.497.515-1.177.815-1.893.831h-.056z"/>
                <path fill="#415AB7" d="M917.675 53.09l4.41 4.231 4.236-4.41-4.415-4.237-4.231 4.415zm4.55 15.91c-1.243 0-2.442-.484-3.346-1.35L907.49 56.722c-1.93-1.847-1.992-4.913-.145-6.838l10.934-11.394c.885-.923 2.109-1.46 3.39-1.489 1.291 0 2.52.46 3.448 1.35l11.39 10.929c1.924 1.847 1.992 4.913.14 6.838l-10.93 11.394c-.89.923-2.109 1.46-3.39 1.489h-.102z"/>
                <path fill="#FF3652" d="M1485.026 338.029c2.887.4 5.552-1.612 5.954-4.496.403-2.887-1.615-5.553-4.499-5.955-2.884-.402-5.552 1.615-5.952 4.499-.402 2.884 1.613 5.552 4.497 5.952M2429.548 226.502c2.886.4 5.552-1.612 5.954-4.496.403-2.887-1.615-5.553-4.499-5.955-2.884-.402-5.552 1.615-5.952 4.5-.402 2.883 1.612 5.552 4.497 5.951"/>
                <path fill="#FF3652" d="M1485.173 336.958c2.31.349 4.419-1.288 4.737-3.575.319-2.29-1.288-4.416-3.578-4.734-2.282-.351-4.415 1.28-4.731 3.575-.157 1.11.132 2.215.807 3.108.675.894 1.658 1.472 2.765 1.626m.584 2.201c-.292 0-.584-.019-.878-.06-1.682-.234-3.173-1.11-4.197-2.462-1.023-1.356-1.458-3.027-1.223-4.71.235-1.68 1.11-3.17 2.463-4.194 1.353-1.023 3.027-1.45 4.707-1.226 3.47.486 5.903 3.705 5.423 7.173-.446 3.176-3.176 5.48-6.295 5.48"/>
                <path fill="#FFEA30" d="M2090.55 435.502c2.884.4 5.552-1.615 5.952-4.499.402-2.884-1.613-5.552-4.497-5.952-2.887-.402-5.552 1.612-5.954 4.497-.4 2.884 1.612 5.552 4.499 5.954"/>
                <path fill="#2B6EFE" d="M1009.55 476.502c2.884.403 5.552-1.612 5.952-4.499.402-2.884-1.613-5.55-4.497-5.952-2.887-.402-5.552 1.612-5.954 4.5-.4 2.883 1.612 5.552 4.499 5.951"/>
                <path fill="#40D6FF" d="M552.603 458.168h-.054c-.651.013-1.259.28-1.71.748-.45.473-.691 1.088-.678 1.74.027 1.344 1.256 2.416 2.49 2.39.651-.014 1.259-.28 1.71-.752.45-.47.691-1.088.678-1.739-.014-.65-.279-1.258-.748-1.71-.46-.437-1.056-.677-1.688-.677m-.003 7.038c-2.493 0-4.548-2.002-4.599-4.505-.051-2.536 1.969-4.642 4.504-4.694 1.21-.075 2.393.427 3.279 1.28.886.851 1.388 1.996 1.415 3.225.051 2.536-1.969 4.642-4.505 4.694h-.094"/>
                <path fill="#FF3652" d="M2027.592 467.038c1.942-.04 3.487-1.647 3.446-3.591-.04-1.945-1.647-3.487-3.591-3.446-1.942.038-3.487 1.647-3.446 3.591.04 1.942 1.647 3.487 3.591 3.446M1151.33 423.937c-.016 0-.032 0-.051.003-.65.013-1.258.278-1.71.748-.45.47-.69 1.088-.677 1.739.013.653.278 1.261.75 1.712.468.454 1.051.783 1.737.678.65-.014 1.258-.281 1.71-.75.453-.47.693-1.086.68-1.737-.014-.654-.28-1.261-.75-1.712-.457-.44-1.057-.681-1.689-.681zm-.002 7.04c-1.194 0-2.32-.453-3.184-1.28-.886-.853-1.388-1.995-1.413-3.227-.027-1.226.43-2.39 1.28-3.276.851-.888 1.996-1.39 3.225-1.417 1.242-.011 2.393.432 3.278 1.282.886.851 1.388 1.996 1.415 3.225.025 1.226-.429 2.392-1.28 3.278-.85.889-1.998 1.391-3.224 1.415l-.024-1.08.024 1.08h-.097zM1754.592 463.038c1.945-.04 3.487-1.647 3.446-3.591-.037-1.945-1.647-3.487-3.591-3.446-1.942.038-3.487 1.647-3.446 3.591.04 1.942 1.647 3.487 3.591 3.446M1782.6 56.163h-.051c-.651.013-1.259.28-1.71.75-.45.47-.691 1.089-.678 1.74.027 1.345 1.243 2.479 2.49 2.39 1.345-.03 2.417-1.148 2.388-2.49-.014-.651-.281-1.261-.751-1.712-.457-.438-1.056-.678-1.688-.678m0 7.04c-2.493 0-4.548-2-4.599-4.507-.051-2.536 1.969-4.642 4.504-4.694 2.593-.083 4.643 1.97 4.697 4.505.048 2.536-1.972 4.642-4.508 4.693-.032.003-.062.003-.094.003M1885.59 126.038c1.944-.04 3.486-1.647 3.446-3.591-.038-1.945-1.648-3.487-3.592-3.446-1.942.04-3.486 1.647-3.443 3.591.04 1.942 1.645 3.487 3.589 3.446M2066.605 171.161h-.054c-1.347.027-2.417 1.142-2.387 2.487.027 1.345 1.034 2.415 2.49 2.39.65-.013 1.256-.278 1.707-.75.45-.47.694-1.089.678-1.74-.014-.65-.276-1.258-.749-1.709-.456-.437-1.055-.678-1.685-.678m-.005 7.038c-2.49 0-4.545-2.001-4.6-4.505-.023-1.228.43-2.392 1.284-3.278.85-.886 1.995-1.391 3.224-1.415 1.264-.022 2.393.43 3.279 1.28.888.85 1.388 1.995 1.415 3.224.051 2.536-1.969 4.642-4.508 4.694h-.094M943.898 446.195c1.945-.043 3.487-1.647 3.446-3.591-.04-1.945-1.647-3.487-3.592-3.446-1.941.038-3.486 1.647-3.445 3.591.04 1.942 1.647 3.487 3.591 3.446"/>
                <path fill="#FF3652" d="M943.826 440.235c-.016 0-.035 0-.051.003-.651.013-1.259.278-1.71.748-.45.47-.691 1.091-.678 1.742.027 1.326 1.118 2.39 2.439 2.39.016 0 .032 0 .048-.003 1.348-.03 2.42-1.145 2.39-2.49-.027-1.326-1.118-2.39-2.438-2.39zm0 7.04c-2.493 0-4.548-2-4.6-4.504-.023-1.229.43-2.393 1.28-3.278.852-.889 1.997-1.391 3.225-1.418 2.539.07 4.643 1.971 4.694 4.504.051 2.536-1.969 4.643-4.502 4.697h-.097z"/>
                <path fill="#2B6FFF" d="M1384.592 60.038c1.945-.04 3.487-1.647 3.446-3.591-.037-1.945-1.647-3.487-3.591-3.446-1.942.038-3.487 1.647-3.446 3.591.043 1.942 1.647 3.487 3.591 3.446"/>
                <path fill="#3AD364" d="M2121.595 363.163c-.526 0-1.037.17-1.463.494-.521.391-.856.964-.948 1.61-.09.645.078 1.285.47 1.806.394.521.967.856 1.61.945.653.09 1.29-.075 1.809-.467.518-.394.856-.964.945-1.612.089-.646-.076-1.288-.47-1.807-.392-.518-.964-.856-1.61-.945-.116-.016-.23-.024-.343-.024m.017 7.04c-.214 0-.43-.014-.646-.046-1.218-.167-2.295-.802-3.035-1.782-.74-.98-1.056-2.19-.886-3.408.17-1.216.802-2.293 1.785-3.036.978-.74 2.187-1.061 3.405-.883 1.218.168 2.296.802 3.036 1.78.742.983 1.056 2.193.886 3.41-.17 1.216-.802 2.293-1.783 3.036-.807.608-1.769.929-2.762.929M1295.594 49.16c-.526 0-1.037.17-1.463.495-.519.394-.854.964-.945 1.607-.092.648.078 1.29.467 1.81.394.52.967.855 1.612.944h.003c.637.095 1.282-.073 1.806-.467.519-.394.854-.967.943-1.612.186-1.332-.748-2.566-2.077-2.752-.116-.016-.23-.024-.346-.024m.02 7.04c-.214 0-.43-.014-.646-.046-1.218-.167-2.296-.802-3.036-1.78-.742-.983-1.055-2.192-.888-3.41.17-1.216.802-2.293 1.785-3.033.978-.743 2.182-1.059 3.408-.886 2.509.349 4.27 2.676 3.921 5.188-.17 1.218-.802 2.298-1.785 3.038-.804.608-1.766.929-2.76.929"/>
                <path fill="#E0141F" d="M956.605 222.161c-.019 0-.035 0-.054.003-.653.013-1.26.278-1.712.745-.45.473-.691 1.091-.678 1.742.014.65.281 1.258.751 1.71.47.453 1.07.764 1.737.677h.002c.651-.013 1.259-.28 1.71-.75.45-.47.691-1.089.678-1.74-.014-.648-.281-1.255-.749-1.706-.459-.44-1.055-.681-1.685-.681zm-.01 7.038c-1.191 0-2.318-.454-3.179-1.28-.888-.851-1.388-1.996-1.415-3.225-.024-1.229.43-2.393 1.28-3.278.85-.886 1.996-1.388 3.224-1.415 1.194-.02 2.393.429 3.279 1.28.886.85 1.388 1.995 1.415 3.221.024 1.23-.43 2.396-1.28 3.282-.85.885-1.996 1.39-3.222 1.415h-.102z"/>
                <path fill="#2B6FFF" d="M1095.987 297.637c1.925.27 3.702-1.075 3.972-3 .268-1.926-1.077-3.703-3.003-3.973-1.925-.267-3.702 1.075-3.97 3-.267 1.926 1.075 3.703 3 3.973"/>
                <path fill="#2B6FFF" d="M1096.472 291.711c-1.2 0-2.247.883-2.417 2.101-.184 1.331.748 2.568 2.08 2.755.648.089 1.288-.076 1.806-.47.521-.392.856-.964.948-1.613.184-1.328-.748-2.565-2.08-2.749-.113-.016-.226-.024-.337-.024m.01 7.04c-.213 0-.429-.013-.645-.043-2.511-.351-4.27-2.679-3.92-5.19.348-2.515 2.686-4.264 5.187-3.924 2.514.35 4.272 2.679 3.924 5.19-.17 1.218-.802 2.296-1.783 3.038-.807.608-1.768.93-2.762.93"/>
                <path fill="#FFEA30" d="M1454.034 437.005c1.926.27 3.703-1.072 3.973-2.998.267-1.925-1.078-3.705-3.003-3.972-1.926-.27-3.703 1.072-3.97 2.997-.267 1.928 1.075 3.705 3 3.973M2332.034 237.005c1.926.27 3.703-1.072 3.973-2.998.267-1.925-1.078-3.705-3.003-3.972-1.926-.27-3.703 1.072-3.97 2.997-.267 1.928 1.075 3.705 3 3.973"/>
                <path fill="#40D6FF" d="M1038.653 433.618c1.925.268 3.705-1.074 3.972-3 .268-1.925-1.074-3.705-3-3.972-1.925-.27-3.705 1.072-3.972 3-.268 1.925 1.074 3.702 3 3.972"/>
                <path fill="#40D6FF" d="M1039.133 427.692c-.526 0-1.037.168-1.464.492-.52.391-.856.964-.947 1.607-.09.65.078 1.29.47 1.812.394.518.964.853 1.609.942.648.092 1.288-.075 1.81-.467.518-.392.855-.964.945-1.61.089-.648-.076-1.288-.47-1.809-.395-.518-.964-.853-1.61-.942-.116-.017-.23-.025-.343-.025m.016 7.038c-.213 0-.43-.014-.645-.043-1.218-.17-2.296-.802-3.033-1.78-.742-.983-1.058-2.195-.888-3.413.17-1.216.802-2.296 1.785-3.033.977-.74 2.193-1.05 3.405-.886 1.215.168 2.293.802 3.036 1.783.742.98 1.055 2.19.885 3.41-.17 1.216-.802 2.293-1.782 3.033-.807.608-1.769.929-2.763.929M72.595 330.16c-.526 0-1.037.168-1.463.492-.522.391-.856.964-.948 1.607-.09.65.078 1.29.47 1.812.394.518.964.853 1.61.942.647.092 1.287-.075 1.809-.467.518-.392.856-.964.945-1.61.089-.648-.076-1.288-.47-1.809-.394-.518-.964-.853-1.61-.942-.116-.017-.23-.025-.343-.025m.017 7.038c-.214 0-.43-.014-.646-.043-1.218-.17-2.295-.802-3.033-1.78-.742-.983-1.058-2.196-.888-3.413.17-1.216.802-2.296 1.785-3.033.978-.74 2.193-1.05 3.405-.886 1.216.167 2.293.802 3.036 1.782.742.98 1.056 2.19.886 3.411-.17 1.215-.802 2.293-1.783 3.033-.807.608-1.769.929-2.762.929M1504.264 267.017c1.302.173 2.566-.748 2.752-2.082.092-.643-.078-1.286-.47-1.804-.394-.521-.967-.856-1.61-.945-.65-.084-1.29.075-1.809.467-.518.391-.853.964-.945 1.612-.183 1.331.75 2.568 2.082 2.752m.335 2.185c-.208 0-.418-.014-.632-.044h-.002c-2.51-.35-4.267-2.679-3.922-5.19.17-1.218.802-2.296 1.785-3.038.975-.74 2.177-1.053 3.406-.886 1.218.167 2.295.802 3.035 1.782.743.98 1.056 2.193.889 3.411-.324 2.296-2.301 3.965-4.559 3.965"/>
                <path fill="#FFEA30" d="M1542.512 449.25c1.926.27 3.705-1.075 3.973-3 .267-1.926-1.078-3.703-3.003-3.973-1.926-.268-3.703 1.074-3.97 3-.267 1.925 1.075 3.702 3 3.972"/>
                <path fill="#FFEA30" d="M1542.998 443.323c-1.197 0-2.247.883-2.417 2.104-.184 1.329.75 2.566 2.082 2.752.642.092 1.288-.073 1.806-.47.519-.392.854-.964.946-1.61.091-.645-.079-1.285-.47-1.806-.395-.521-.967-.856-1.613-.945-.11-.017-.224-.025-.334-.025m.01 7.04c-.213 0-.429-.013-.645-.043-2.509-.35-4.267-2.678-3.921-5.19.348-2.514 2.66-4.275 5.187-3.924 1.221.17 2.299.805 3.039 1.782.742.98 1.055 2.19.885 3.411-.167 1.215-.799 2.293-1.782 3.036-.805.607-1.769.929-2.763.929"/>
                <path fill="#FF27FF" d="M1822.264 37.019c.643.091 1.288-.079 1.807-.47.518-.395.853-.964.945-1.61.092-.645-.078-1.288-.47-1.806-.394-.522-.967-.86-1.61-.948-1.344-.195-2.567.748-2.754 2.079-.183 1.334.75 2.568 2.082 2.755m.343 2.184c-.21 0-.426-.016-.64-.046h-.002c-2.51-.35-4.267-2.679-3.922-5.187.349-2.517 2.69-4.28 5.188-3.924 1.22.167 2.298.802 3.038 1.782.743.98 1.056 2.19.889 3.408-.17 1.215-.802 2.293-1.785 3.036-.805.61-1.772.931-2.766.931"/>
                <path fill="#3AD364" d="M1400.034 182.007c1.926.267 3.705-1.075 3.973-3 .267-1.926-1.078-3.706-3.003-3.973-1.926-.267-3.703 1.075-3.97 3-.267 1.926 1.075 3.703 3 3.973M1090.913 195.12c1.334.186 2.568-.751 2.754-2.083.09-.642-.078-1.285-.472-1.806-.392-.519-.965-.856-1.61-.946-1.326-.186-2.568.748-2.754 2.08-.184 1.334.75 2.568 2.082 2.754m.337 2.185c-.208 0-.421-.016-.634-.046-2.515-.35-4.273-2.679-3.922-5.19.349-2.514 2.693-4.286 5.188-3.921 1.218.167 2.296.802 3.038 1.782.74.98 1.056 2.19.886 3.408-.321 2.298-2.295 3.967-4.556 3.967"/>
                <path fill="#FFEA30" d="M737.034 199.007c1.926.267 3.705-1.075 3.973-3 .267-1.926-1.078-3.703-3.003-3.973-1.926-.267-3.703 1.075-3.97 3-.267 1.926 1.075 3.705 3 3.973"/>
                <ellipse cx="1274.461" cy="307.5" fill="#8733FF" filter="url(#lnyrbgs6pd)" opacity=".37" rx="175.461" ry="165.5"/>
                <path fill="#FFEA30" d="M1406.104 468.717c1.925.27 3.702-1.075 3.972-3 .265-1.925-1.077-3.702-3.003-3.972-1.925-.268-3.702 1.074-3.97 3-.27 1.925 1.075 3.705 3 3.972M2342.035 48.007c1.925.27 3.702-1.075 3.972-3 .265-1.926-1.077-3.703-3.003-3.973-1.925-.267-3.702 1.075-3.97 3-.27 1.926 1.075 3.705 3 3.973"/>
                <path fill="#FFEA30" d="M1406.589 462.791c-1.196 0-2.247.884-2.417 2.104-.092.646.078 1.288.47 1.807.394.521.967.856 1.61.945h.002c.64.086 1.286-.073 1.804-.47.521-.391.856-.964.948-1.612.184-1.329-.75-2.566-2.082-2.75-.11-.015-.224-.024-.335-.024m.01 7.04c-.213 0-.429-.013-.645-.042-1.218-.17-2.295-.802-3.035-1.783-.743-.983-1.056-2.193-.886-3.41.349-2.512 2.655-4.278 5.188-3.922 2.511.351 4.27 2.68 3.924 5.19-.17 1.219-.802 2.296-1.783 3.039-.804.607-1.768.929-2.762.929"/>
                <path fill="#3AD364" d="M1651.032 24.007c1.926.267 3.705-1.075 3.973-3 .267-1.926-1.075-3.706-3-3.973-1.929-.267-3.706 1.075-3.97 3-.27 1.926 1.072 3.703 2.997 3.973"/>
                <g>
                    <path fill="#FBA85E" d="M45.247 59.077c-10.122.71-17.243-6.967-15.906-17.15 1.34-10.18 10.632-19.007 20.756-19.715C60.219 21.505 67.34 29.182 66 39.361c-1.342 10.18-10.632 19.006-20.753 19.716M52.61 3.093C31.99 4.537 13.06 22.52 10.33 43.26c-2.725 20.738 11.782 36.382 32.4 34.937 20.625-1.442 39.556-19.425 42.283-40.168 2.728-20.74-11.78-36.381-32.4-34.936" transform="translate(1187 200)"/>
                    <path fill="#EE343E" d="M41.68 56.077c-10.121.71-17.243-6.97-15.903-17.15 1.34-10.18 10.63-19.004 20.753-19.715 10.122-.71 17.243 6.97 15.904 17.149-1.34 10.18-10.63 19.009-20.754 19.716M49.045.093C28.423 1.535 9.493 19.52 6.765 40.26 4.038 61 18.545 76.642 39.166 75.2c20.624-1.445 39.552-19.43 42.28-40.17C84.173 14.291 69.666-1.353 49.045.092" transform="translate(1187 200)"/>
                    <path fill="#FBA85E" d="M125.247 145.077c-10.122.71-17.243-6.967-15.906-17.15 1.34-10.18 10.632-19.007 20.756-19.715 10.122-.707 17.243 6.97 15.903 17.149-1.342 10.18-10.632 19.006-20.753 19.716m7.364-55.984C111.99 90.537 93.06 108.52 90.33 129.26c-2.725 20.738 11.782 36.382 32.4 34.937 20.625-1.442 39.556-19.425 42.283-40.168 2.728-20.74-11.78-36.381-32.4-34.936" transform="translate(1187 200)"/>
                    <path fill="#EE343E" d="M121.043 141.656c-10.122.71-17.243-6.968-15.906-17.151 1.34-10.179 10.632-19.007 20.756-19.714 10.122-.708 17.243 6.97 15.903 17.148-1.342 10.181-10.632 19.006-20.753 19.717m7.364-55.985c-20.621 1.445-39.552 19.428-42.282 40.168-2.725 20.737 11.782 36.381 32.4 34.936 20.625-1.442 39.556-19.425 42.283-40.167 2.728-20.74-11.78-36.382-32.4-34.937" transform="translate(1187 200)"/>
                    <path fill="#345FFF" d="M155.732 1.152l2.816 3.02.184-.172 11.601 12.436L14.601 163.623l-2.817-3.02-.183.173L0 148.34 155.732 1.152z" transform="translate(1187 200)"/>
                </g>
                <path fill="#3AD364" d="M1588.284 326.602c-.893 0-1.766-.443-2.282-1.25l-6.435-10.12-10.127 6.387c-1.25.794-2.92.421-3.716-.832l-6.435-10.119-10.127 6.39c-1.25.794-2.92.419-3.719-.835l-6.435-10.118-10.127 6.386c-1.253.797-2.925.424-3.724-.842-.797-1.261-.419-2.928.845-3.724l12.4-7.824c1.257-.788 2.92-.416 3.72.835l6.435 10.116 10.124-6.387c1.253-.791 2.922-.416 3.719.835l6.435 10.119 10.127-6.39c1.256-.791 2.922-.416 3.719.835l7.88 12.387c.802 1.261.43 2.927-.83 3.73-.45.283-.95.42-1.447.42M2490.545 336.914c-.894 0-1.766-.443-2.282-1.25l-6.435-10.12-10.127 6.387c-1.25.794-2.92.422-3.716-.831l-6.436-10.12-10.127 6.39c-1.25.794-2.919.419-3.718-.834l-6.436-10.12-10.127 6.388c-1.253.796-2.924.424-3.724-.843-.796-1.261-.418-2.927.845-3.724l12.401-7.824c1.256-.788 2.92-.415 3.719.835l6.435 10.116 10.125-6.387c1.253-.79 2.922-.416 3.718.835l6.436 10.119 10.127-6.39c1.255-.791 2.922-.416 3.718.835l7.88 12.387c.803 1.261.43 2.927-.829 3.73-.45.283-.95.42-1.447.42"/>
                <path fill="#FFEA30" d="M1433.035 327.005c1.925.27 3.702-1.072 3.972-2.998.268-1.925-1.077-3.705-3.003-3.972-1.925-.27-3.702 1.072-3.97 2.997-.27 1.928 1.075 3.705 3 3.973M2018.593 337.161c-.524 0-1.037.168-1.464.492-.518.391-.853.964-.945 1.61-.183 1.33.751 2.567 2.08 2.751h.002c.646.095 1.286-.073 1.807-.467.519-.392.853-.964.943-1.612.094-.643-.076-1.286-.468-1.807-.394-.518-.966-.853-1.61-.942-.115-.017-.229-.025-.345-.025m.02 7.038c-.214 0-.43-.014-.646-.043-2.51-.349-4.267-2.677-3.924-5.19.173-1.219.805-2.299 1.788-3.036.977-.74 2.179-1.053 3.405-.886 1.215.167 2.295.802 3.035 1.782.743.98 1.056 2.19.886 3.411-.17 1.215-.802 2.293-1.785 3.033-.805.607-1.766.929-2.76.929M2440.593 387.161c-.524 0-1.037.168-1.464.492-.518.391-.853.964-.945 1.61-.183 1.33.751 2.567 2.08 2.751h.002c.646.095 1.286-.073 1.807-.467.519-.392.853-.964.943-1.612.094-.643-.076-1.286-.468-1.807-.394-.518-.966-.853-1.61-.942-.115-.017-.229-.025-.345-.025m.02 7.038c-.214 0-.43-.014-.646-.043-2.51-.349-4.267-2.677-3.924-5.19.173-1.219.805-2.299 1.788-3.036.977-.74 2.179-1.053 3.405-.886 1.215.167 2.295.802 3.035 1.782.743.98 1.056 2.19.886 3.411-.17 1.215-.802 2.293-1.785 3.033-.805.607-1.766.929-2.76.929"/>
                <path fill="#E0141F" d="M1497.532 476.007c1.928.268 3.705-1.075 3.973-3 .267-1.925-1.075-3.705-3-3.973-1.926-.27-3.706 1.075-3.97 3-.27 1.926 1.072 3.703 2.997 3.973"/>
                <path fill="#FF3652" d="M960.976 320.4c-1.264 0-2.37.935-2.55 2.22-.196 1.407.79 2.711 2.196 2.906.673.089 1.359-.081 1.907-.497.548-.413.905-1.018.996-1.699.198-1.407-.788-2.708-2.195-2.905-.119-.017-.238-.025-.354-.025m.019 10.554c-.373 0-.745-.027-1.118-.078-4.356-.608-7.408-4.645-6.8-9.001.608-4.356 4.656-7.397 8.998-6.8 4.359.607 7.408 4.645 6.8 9-.291 2.11-1.388 3.979-3.09 5.264-1.398 1.059-3.067 1.615-4.79 1.615"/>
                <path fill="#40D6FF" d="M2019.62 183.528c1.456.189 2.712-.791 2.906-2.196.095-.683-.08-1.358-.494-1.909-.416-.548-1.018-.902-1.699-1-.685-.088-1.358.085-1.906.498-.551.416-.905 1.018-1 1.698-.097.684.082 1.362.495 1.91.413.548 1.018.904 1.699.999m.359 5.425c-.365 0-.732-.024-1.102-.075v-.003c-2.112-.292-3.98-1.39-5.266-3.09-1.283-1.7-1.828-3.8-1.534-5.91.608-4.354 4.658-7.395 8.998-6.8 2.11.296 3.98 1.393 5.263 3.091 1.286 1.702 1.831 3.803 1.537 5.912-.554 3.983-3.98 6.875-7.896 6.875"/>
                <path fill="#FFEA30" d="M1184.356 56.162c-2.06 0-3.862 1.52-4.153 3.616-.319 2.293 1.285 4.415 3.575 4.734h.003c1.102.148 2.212-.132 3.106-.808.896-.675 1.471-1.658 1.625-2.768.319-2.292-1.285-4.415-3.575-4.734-.195-.027-.39-.04-.58-.04m.015 10.55c-.297 0-.594-.018-.89-.061-3.471-.48-5.904-3.7-5.42-7.17.488-3.47 3.675-5.912 7.175-5.417 3.467.48 5.9 3.7 5.417 7.17-.235 1.68-1.11 3.17-2.463 4.193-1.115.843-2.444 1.286-3.819 1.286M385.55 261.502c-2.887-.4-4.9-3.068-4.5-5.952.403-2.887 3.068-4.901 5.955-4.499 2.884.403 4.899 3.068 4.497 5.952-.4 2.887-3.068 4.902-5.952 4.5M1959.977 224.401h-.054c-.686.014-1.33.297-1.804.791-.476.497-.732 1.148-.716 1.837.03 1.42 1.167 2.622 2.628 2.522.686-.014 1.328-.294 1.804-.791.475-.497.731-1.148.715-1.834-.03-1.404-1.177-2.525-2.573-2.525m-.006 10.551c-2.068 0-4.02-.783-5.517-2.222-1.537-1.472-2.409-3.46-2.452-5.588-.046-2.13.743-4.15 2.22-5.687 1.474-1.54 3.46-2.41 5.59-2.455 4.383.046 8.05 3.416 8.14 7.813.045 2.13-.743 4.15-2.22 5.687-1.475 1.537-3.46 2.409-5.59 2.452h-.17"/>
                <path fill="#2B6FFF" d="M976.38 419.91c-.095 0-.189-.005-.284-.016-1.485-.154-2.56-1.486-2.406-2.965l1.448-13.762c.156-1.483 1.453-2.58 2.968-2.404l11.088 1.164 1.161-11.077c.157-1.486 1.491-2.577 2.968-2.401l11.089 1.161 1.163-11.072c.157-1.486 1.475-2.574 2.968-2.404l13.773 1.445c1.485.157 2.56 1.483 2.404 2.968-.157 1.483-1.491 2.555-2.968 2.4l-11.086-1.16-1.164 11.072c-.157 1.482-1.464 2.573-2.968 2.403l-11.088-1.164-1.164 11.078c-.157 1.482-1.483 2.56-2.968 2.403l-11.088-1.164-1.162 11.075c-.148 1.388-1.32 2.42-2.684 2.42M64.704 273.793c-.094 0-.189-.005-.283-.016-1.485-.154-2.56-1.485-2.406-2.965l1.447-13.762c.157-1.483 1.453-2.58 2.968-2.404l11.088 1.164 1.162-11.077c.156-1.486 1.49-2.577 2.968-2.401l11.088 1.161 1.164-11.072c.157-1.485 1.474-2.574 2.968-2.403l13.772 1.444c1.486.157 2.56 1.483 2.404 2.968-.157 1.483-1.49 2.555-2.968 2.401L98.99 235.67l-1.164 11.072c-.156 1.483-1.463 2.574-2.967 2.403l-11.089-1.164-1.164 11.078c-.156 1.483-1.482 2.56-2.968 2.404l-11.088-1.164-1.161 11.075c-.149 1.388-1.32 2.42-2.685 2.42M2173.704 276.793c-.094 0-.189-.005-.283-.016-1.485-.154-2.56-1.485-2.406-2.965l1.447-13.762c.157-1.483 1.453-2.58 2.968-2.404l11.088 1.164 1.162-11.077c.156-1.486 1.49-2.577 2.968-2.401l11.088 1.161 1.164-11.072c.157-1.485 1.474-2.574 2.968-2.403l13.773 1.444c1.485.157 2.56 1.483 2.403 2.968-.157 1.483-1.49 2.555-2.968 2.401l-11.086-1.161-1.164 11.072c-.156 1.483-1.463 2.574-2.967 2.403l-11.089-1.164-1.164 11.078c-.156 1.483-1.482 2.56-2.968 2.404l-11.088-1.164-1.161 11.075c-.149 1.388-1.32 2.42-2.685 2.42M1069.704 43.793c-.094 0-.189-.005-.283-.016-1.485-.154-2.56-1.485-2.406-2.965l1.447-13.762c.157-1.483 1.453-2.58 2.968-2.404l11.088 1.164 1.162-11.077c.156-1.486 1.49-2.577 2.968-2.401l11.088 1.161 1.164-11.072c.157-1.485 1.474-2.574 2.968-2.403l13.773 1.444c1.485.157 2.56 1.483 2.403 2.968-.157 1.483-1.49 2.555-2.968 2.401L1103.99 5.67l-1.164 11.072c-.156 1.483-1.463 2.574-2.967 2.403l-11.089-1.164-1.164 11.078c-.156 1.483-1.482 2.56-2.968 2.404l-11.088-1.164-1.161 11.075c-.149 1.388-1.32 2.42-2.685 2.42"/>
                <path fill="#3AD165" d="M1458.18 16.342c-.015-.06-.027-.122-.035-.185-.14-.979.544-1.883 1.52-2.02l9.074-1.276c.978-.136 1.89.52 2.02 1.522l1.028 7.312 7.304-1.029c.98-.137 1.894.545 2.018 1.522l1.03 7.311 7.301-1.026c.98-.137 1.89.535 2.02 1.522l1.278 9.08c.137.98-.543 1.883-1.522 2.02-.978.138-1.88-.548-2.018-1.522l-1.03-7.309-7.3 1.026c-.978.137-1.889-.528-2.02-1.522l-1.029-7.31-7.304 1.026c-.978.137-1.883-.542-2.02-1.522l-1.028-7.311-7.302 1.028c-.916.127-1.767-.46-1.985-1.337"/>
                <path fill="#2B6FFF" d="M2031.002 243.573l-47.11 39.328c-1.051.875-1.194 2.436-.317 3.486.875 1.054 2.436 1.197 3.487.322l47.11-39.328c1.051-.875 1.194-2.439.32-3.49-.876-1.05-2.437-1.193-3.49-.318M1666.389 184.563l-47.111 39.328c-.289.237-.465.575-.5.947-.035.37.079.732.316 1.021.24.287.578.462.95.497.374.033.735-.078 1.022-.318l47.108-39.326c.289-.24.464-.575.5-.948.032-.372-.082-.734-.32-1.023-.237-.286-.574-.462-.944-.497-.373-.024-.735.081-1.021.319m-46.212 43.959c-.108 0-.219-.005-.33-.016-.947-.087-1.803-.535-2.41-1.267-.611-.729-.897-1.652-.811-2.598.086-.948.537-1.804 1.27-2.411l47.107-39.325c.73-.608 1.653-.897 2.601-.81.948.086 1.801.534 2.412 1.266.607.73.893 1.653.81 2.6-.09.946-.54 1.805-1.27 2.412l-47.108 39.325c-.645.538-1.442.824-2.27.824"/>
                <path fill="#FFEA30" d="M1880.802 348.864l27.232 7.745c1.315.375 2.685-.39 3.06-1.707.373-1.318-.389-2.687-1.704-3.06l-27.232-7.748c-1.315-.372-2.687.392-3.063 1.707-.375 1.318.392 2.687 1.707 3.063"/>
                <path fill="#2B6EFE" d="M1714.06 60.402c-1.872 0-3.69.605-5.213 1.756-1.847 1.396-3.043 3.43-3.362 5.725-.318 2.295.276 4.577 1.67 6.427 1.398 1.847 3.432 3.041 5.724 3.362h.003c2.295.324 4.577-.272 6.425-1.671 1.85-1.396 3.043-3.43 3.364-5.725.32-2.296-.272-4.578-1.671-6.428-1.396-1.847-3.43-3.04-5.725-3.362-.405-.054-.813-.084-1.216-.084m.052 22.758c-.657 0-1.315-.046-1.974-.14-3.724-.516-7.024-2.455-9.287-5.456-2.269-2.997-3.233-6.7-2.712-10.424.516-3.726 2.452-7.024 5.455-9.292 3-2.266 6.708-3.233 10.427-2.709 3.724.519 7.024 2.455 9.287 5.455 2.269 3 3.23 6.703 2.714 10.427-.518 3.724-2.457 7.024-5.46 9.29-2.466 1.866-5.41 2.849-8.45 2.849M2373.06 160.402c-1.872 0-3.69.605-5.213 1.756-1.847 1.396-3.043 3.43-3.362 5.725-.318 2.295.276 4.577 1.67 6.427 1.398 1.847 3.432 3.041 5.724 3.362h.003c2.295.324 4.577-.272 6.425-1.671 1.85-1.396 3.043-3.43 3.364-5.725.32-2.296-.272-4.578-1.671-6.428-1.396-1.847-3.43-3.04-5.725-3.362-.405-.054-.813-.084-1.216-.084m.052 22.758c-.657 0-1.315-.046-1.974-.14-3.724-.516-7.024-2.455-9.288-5.456-2.268-2.997-3.232-6.7-2.71-10.424.515-3.726 2.451-7.024 5.454-9.292 3-2.266 6.708-3.233 10.427-2.709 3.724.519 7.024 2.455 9.287 5.455 2.269 3 3.23 6.703 2.714 10.427-.518 3.724-2.457 7.024-5.46 9.29-2.466 1.866-5.41 2.849-8.45 2.849" opacity=".37"/>
                <path fill="#2B6FFF" d="M1644.684 395.291c2.112.281 4.105-1.196 4.402-3.327.146-1.034-.121-2.06-.75-2.892-.63-.829-1.545-1.37-2.577-1.512-2.144-.284-4.105 1.199-4.402 3.327-.297 2.13 1.197 4.107 3.327 4.404m.54 5.44c-.424 0-.85-.03-1.282-.093h-.003c-5.08-.704-8.64-5.414-7.932-10.494.705-5.08 5.426-8.65 10.495-7.934 2.465.343 4.647 1.626 6.143 3.608 1.497 1.982 2.134 4.429 1.788 6.889-.645 4.648-4.64 8.023-9.209 8.023"/>
                <path fill="#FF3652" d="M1675.96 447.02c1.944-.042 3.489-1.646 3.445-3.59-.037-1.945-1.647-3.487-3.591-3.447-1.94.038-3.487 1.648-3.444 3.592.041 1.942 1.648 3.486 3.59 3.446"/>
                <path fill="#FF3652" d="M1675.888 441.06c-.019 0-.035 0-.051.003-.651.014-1.256.278-1.71.748-.45.47-.69 1.091-.677 1.742.027 1.326 1.118 2.39 2.438 2.39.016 0 .035 0 .051-.003 1.345-.03 2.417-1.145 2.388-2.49-.025-1.325-1.118-2.39-2.439-2.39zm0 7.04c-2.492 0-4.548-2-4.599-4.504-.024-1.228.43-2.392 1.28-3.278.85-.889 1.996-1.39 3.225-1.418 2.538.07 4.642 1.972 4.693 4.505.054 2.535-1.966 4.642-4.504 4.696h-.095z"/>
                <path fill="#3AD364" d="M1748.035 199.007c1.925.27 3.702-1.075 3.972-3 .268-1.926-1.077-3.703-3.003-3.973-1.925-.267-3.702 1.075-3.97 3-.27 1.928 1.075 3.705 3 3.973M2516.035 224.007c1.925.27 3.702-1.075 3.972-3 .268-1.926-1.077-3.703-3.003-3.973-1.925-.267-3.702 1.075-3.97 3-.27 1.928 1.075 3.705 3 3.973"/>
                <path fill="#FFEA30" d="M1737.035 124.007c1.925.267 3.702-1.075 3.97-3 .267-1.926-1.075-3.703-3-3.973-1.926-.267-3.706 1.075-3.97 3-.27 1.926 1.072 3.705 3 3.973M1927.6 73.164c-1.197 0-2.245.886-2.418 2.104-.183 1.331.75 2.565 2.082 2.752 1.324.183 2.566-.748 2.755-2.08.184-1.331-.75-2.565-2.082-2.754-.114-.016-.227-.022-.338-.022m.006 7.04c-.211 0-.424-.013-.638-.045-2.511-.349-4.27-2.677-3.924-5.19.351-2.512 2.687-4.284 5.19-3.922 2.515.351 4.273 2.679 3.922 5.19-.319 2.299-2.293 3.967-4.55 3.967M1654.55 77.502c-2.885-.4-4.9-3.065-4.5-5.952.403-2.887 3.068-4.901 5.955-4.499 2.884.403 4.902 3.068 4.497 5.955-.4 2.884-3.068 4.899-5.952 4.496M2211.346 92.163c-.907 0-1.782.291-2.52.847-.893.676-1.471 1.661-1.625 2.771-.154 1.11.135 2.215.81 3.109.675.893 1.658 1.471 2.766 1.625 1.107.149 2.214-.132 3.108-.81.894-.675 1.472-1.655 1.628-2.765.316-2.293-1.288-4.416-3.578-4.737-.194-.027-.394-.04-.589-.04m.025 10.553c-.297 0-.594-.021-.889-.062-1.682-.235-3.173-1.107-4.196-2.463-1.024-1.355-1.459-3.027-1.224-4.71.235-1.68 1.11-3.17 2.463-4.193 1.353-1.024 3.027-1.464 4.707-1.224 1.683.235 3.17 1.11 4.194 2.463 1.024 1.356 1.461 3.027 1.226 4.71-.235 1.68-1.107 3.17-2.463 4.194-1.115.842-2.444 1.285-3.818 1.285"/>
                <path fill="#2B6FFF" d="M1708.442 420.736c-.092 0-.186-.006-.283-.017-1.483-.154-2.56-1.485-2.404-2.965l1.442-13.762c.16-1.482 1.456-2.579 2.97-2.403l11.09 1.164 1.163-11.078c.154-1.485 1.488-2.576 2.965-2.4l11.092 1.16 1.163-11.072c.154-1.485 1.472-2.573 2.966-2.403l13.772 1.445c1.486.156 2.56 1.482 2.404 2.968-.154 1.482-1.488 2.554-2.968 2.4l-11.086-1.16-1.16 11.071c-.16 1.483-1.467 2.574-2.972 2.404l-11.088-1.164-1.161 11.077c-.16 1.483-1.485 2.56-2.97 2.404l-11.086-1.164-1.167 11.075c-.146 1.388-1.315 2.42-2.682 2.42"/>
                <path fill="#4F73F7" d="M1800.37 333.849c-1.488 0-2.695-1.202-2.7-2.69l-.044-11.15-11.137.043h-.01c-1.486 0-2.696-1.202-2.701-2.69l-.043-11.148-11.135.04c-.688.03-1.404-.277-1.914-.782-.508-.505-.794-1.191-.797-1.907l-.043-11.148-11.135.04h-.01c-1.488 0-2.696-1.201-2.701-2.69-.005-1.49 1.2-2.705 2.69-2.71l13.835-.052c.818-.051 1.404.278 1.914.783.508.505.794 1.191.797 1.907l.043 11.148 11.137-.04h.008c1.488 0 2.695 1.201 2.7 2.689l.047 11.148 11.134-.04h.01c1.489 0 2.696 1.201 2.701 2.689l.054 13.848c.006 1.491-1.199 2.706-2.69 2.712h-.01z"/>
                <path fill="#FFEA30" d="M1446.92 268.424c-.399 0-.81-.09-1.193-.281-1.336-.659-1.887-2.277-1.226-3.616l6.503-13.162-7.486-3.638c-.645-.313-1.142-.872-1.374-1.553-.23-.68-.184-1.428.135-2.074l7.707-15.598c.659-1.331 2.28-1.882 3.619-1.223 1.336.658 1.885 2.276 1.223 3.618l-6.5 13.163 7.483 3.635c.646.313 1.142.872 1.375 1.552.232.68.183 1.429-.135 2.074l-7.708 15.599c-.467.953-1.426 1.504-2.422 1.504"/>
                <path fill="#2B6FFF" d="M1383.6 411.163c-.016 0-.032 0-.051.003-1.345.03-2.415 1.145-2.388 2.487.027 1.328 1.116 2.392 2.439 2.392.016 0 .035 0 .051-.002.651-.014 1.259-.281 1.71-.751.45-.47.691-1.088.678-1.74-.014-.65-.279-1.258-.751-1.709-.457-.44-1.056-.68-1.688-.68zm0 7.04c-1.194 0-2.322-.453-3.184-1.28-.886-.853-1.388-1.996-1.415-3.227-.051-2.53 1.966-4.637 4.502-4.694 2.492-.083 4.645 1.972 4.696 4.508.024 1.226-.43 2.392-1.28 3.278-.85.889-1.996 1.39-3.225 1.415h-.094z"/>
                <path fill="#FCE832" d="M1664.113 289.692V278.05h-11.642c-1.361 0-2.471-1.105-2.471-2.469.003-1.363 1.11-2.47 2.471-2.47l11.642.002v-11.642c0-1.364 1.105-2.471 2.468-2.471 1.364 0 2.469 1.107 2.469 2.471v11.642h11.642c1.363 0 2.468 1.105 2.468 2.468 0 1.364-1.105 2.469-2.468 2.469h-11.642v11.642c0 1.363-1.105 2.47-2.469 2.47-1.363 0-2.468-1.107-2.468-2.47M2250.113 437.692V426.05h-11.642c-1.361 0-2.471-1.105-2.471-2.469.003-1.363 1.11-2.47 2.471-2.47l11.642.002v-11.642c0-1.364 1.105-2.471 2.468-2.471 1.364 0 2.469 1.107 2.469 2.471v11.642h11.642c1.363 0 2.468 1.105 2.468 2.468 0 1.364-1.105 2.469-2.468 2.469h-11.642v11.642c0 1.363-1.105 2.47-2.469 2.47-1.363 0-2.468-1.107-2.468-2.47"/>
                <path fill="#40D6FF" d="M1958.551 416.27c-.764 0-1.39.625-1.39 1.394 0 .762.623 1.386 1.39 1.386h12.722v12.722c0 .764.622 1.385 1.389 1.385.764 0 1.385-.621 1.385-1.385V419.05h12.722c.764 0 1.388-.624 1.388-1.389 0-.766-.624-1.39-1.388-1.39h-12.722v-12.72c0-.767-.621-1.39-1.386-1.39-.766 0-1.388.623-1.388 1.39v12.72h-12.722zm14.11 19.05c-1.957 0-3.55-1.593-3.55-3.548V421.21h-10.56c-1.96 0-3.551-1.593-3.551-3.549.005-1.957 1.596-3.55 3.551-3.55l10.56.002v-10.562c0-1.958 1.593-3.551 3.55-3.551 1.956 0 3.549 1.593 3.549 3.551v10.562h10.56c1.957 0 3.55 1.59 3.55 3.548 0 1.956-1.593 3.549-3.55 3.549h-10.56v10.562c0 1.955-1.593 3.548-3.549 3.548z"/>
                <path fill="#C43B73" d="M517.183 178.215l-8.237 8.231 8.237 8.231c.961.967.961 2.53-.003 3.495-.964.964-2.528.964-3.492 0l-8.237-8.234-8.233 8.231c-.965.967-2.53.967-3.495 0-.964-.964-.964-2.528 0-3.492l8.237-8.23-8.234-8.232c-.964-.964-.964-2.528 0-3.492s2.527-.964 3.494 0l8.234 8.231 8.237-8.23c.961-.965 2.528-.965 3.492 0 .964.963.964 2.527 0 3.49"/>
                <path fill="#2B6FFF" d="M1550.237 363.803l9.606 9.584 9.578-9.598-9.603-9.581-9.581 9.595zm9.608 16.103c-.691 0-1.38-.265-1.906-.789l-13.43-13.4c-.51-.507-.794-1.19-.794-1.909 0-.718.284-1.404.789-1.912l13.4-13.416c1.053-1.053 2.762-1.05 3.818-.003l13.43 13.397c.508.508.794 1.194.794 1.91 0 .718-.284 1.404-.789 1.912l-13.4 13.419c-.529.526-1.223.79-1.912.79zM2176.522 467.112l9.606 9.584 9.578-9.597-9.603-9.582-9.581 9.595zm9.608 16.103c-.691 0-1.38-.264-1.906-.788l-13.43-13.4c-.51-.508-.794-1.191-.794-1.91 0-.718.284-1.404.789-1.912l13.4-13.416c1.053-1.053 2.762-1.05 3.818-.002l13.43 13.397c.508.508.794 1.194.794 1.91 0 .718-.284 1.403-.789 1.911l-13.4 13.42c-.529.526-1.223.79-1.912.79z"/>
                <path fill="#3AD364" d="M776.849 158.099l-17.44 2.493-2.498-17.47c-.195-1.356-1.442-2.293-2.793-2.096-1.35.195-2.287 1.453-2.092 2.806l2.832 19.827c.003.027-.008.052-.005.076.149 1.013.894 1.79 1.828 2.036.31.084.643.106.98.057l19.9-2.844c1.354-.194 2.294-1.445 2.096-2.792-.197-1.35-1.455-2.285-2.808-2.093M1309.024 476.772c.122.508.505.905 1.01 1.034.181.052.37.06.548.035l19.906-2.846c.37-.051.697-.246.918-.543.222-.294.314-.659.262-1.023-.11-.76-.81-1.28-1.588-1.18l-18.51 2.646-2.648-18.542c-.054-.37-.246-.694-.543-.918-.297-.219-.664-.316-1.026-.26-.76.109-1.289.822-1.178 1.586l2.855 19.979-.006.032zm1.361 3.243c-.3 0-.602-.037-.899-.119-1.385-.361-2.414-1.51-2.622-2.924l-.022-.154.025-.195-2.83-19.557c-.279-1.939 1.069-3.748 3.005-4.029.932-.135 1.869.103 2.63.667.76.57 1.253 1.402 1.388 2.344l2.345 16.4 16.373-2.338c1.92-.27 3.748 1.075 4.026 3.008.138.935-.097 1.869-.667 2.628-.567.761-1.401 1.253-2.341 1.388l-19.903 2.844c-.167.024-.338.037-.508.037z"/>
                <path fill="#FF3652" d="M1576.316 435.91l8.256-15.566 15.59 8.272c1.207.637 2.703.18 3.338-1.026.637-1.205.173-2.703-1.034-3.344l-17.694-9.384c-.024-.013-.038-.038-.062-.048-.905-.476-1.972-.335-2.72.275-.248.203-.464.46-.624.762l-9.419 17.758c-.64 1.21-.184 2.703 1.026 3.34 1.205.635 2.703.17 3.343-1.039"/>
                <path fill="#D53740" d="M1667.659 144.38l8.255-15.565 15.59 8.272c1.208.637 2.704.18 3.338-1.027.638-1.204.173-2.703-1.034-3.343l-17.694-9.384c-.024-.014-.038-.038-.062-.049-.905-.475-1.971-.335-2.72.276-.248.202-.464.459-.623.761l-9.42 17.759c-.64 1.21-.183 2.703 1.027 3.34 1.204.635 2.703.17 3.343-1.04M2470.659 454.38l8.255-15.565 15.59 8.272c1.208.637 2.704.18 3.338-1.027.638-1.204.173-2.703-1.034-3.343l-17.694-9.384c-.024-.014-.038-.038-.062-.049-.905-.475-1.971-.335-2.72.276-.248.202-.464.459-.623.761l-9.42 17.759c-.64 1.21-.183 2.703 1.027 3.34 1.204.635 2.703.17 3.343-1.04"/>
                <path fill="#FF3652" d="M1583.545 415.617c-.318 0-.624.108-.875.31-.143.12-.262.262-.345.422l-9.423 17.769c-.178.33-.213.705-.102 1.061.11.354.348.64.675.816.678.354 1.523.092 1.888-.592l8.76-16.519 16.546 8.777c.327.176.708.213 1.064.1.351-.108.64-.348.813-.675.357-.678.092-1.523-.588-1.885l-17.846-9.474c-.189-.073-.38-.11-.567-.11m-9.427 22.695c-.56 0-1.124-.132-1.65-.408-.837-.44-1.453-1.183-1.731-2.09-.284-.905-.19-1.869.256-2.709l9.42-17.761c.216-.416.518-.786.89-1.091 1.113-.907 2.645-1.061 3.911-.392l.281.203 17.475 9.228c1.731.918 2.398 3.07 1.486 4.801-.44.837-1.178 1.45-2.083 1.734-.91.275-1.874.189-2.714-.257l-14.64-7.764-7.747 14.61c-.64 1.205-1.88 1.896-3.154 1.896"/>
                <path fill="#FFEA30" d="M383.967 115.398l49.004-36.938c1.094-.824 1.315-2.377.494-3.47-.824-1.094-2.376-1.316-3.47-.492l-49.007 36.938c-1.093.824-1.312 2.376-.491 3.47.823 1.094 2.376 1.313 3.47.492"/>
                <g transform="translate(264 208)">
                    <mask id="ubrvldrokf" fill="#fff">
                        <use xlink:href="#uk8zk6paje"/>
                    </mask>
                    <path fill="#FFEA30" d="M52.557 2.509c-.289 0-.586.092-.837.278L2.72 39.725c-.619.464-.743 1.342-.281 1.958.224.3.554.491.92.545.365.054.74-.043 1.035-.267L53.4 5.023c.3-.224.491-.55.545-.92.052-.37-.043-.738-.267-1.038-.275-.364-.697-.556-1.12-.556zM3.56 44.399c-1.08 0-2.15-.488-2.847-1.42-1.18-1.566-.861-3.802.705-4.98L50.421 1.061c1.575-1.18 3.802-.861 4.983.705.572.762.812 1.696.68 2.639-.132.942-.626 1.774-1.385 2.344L5.695 43.687h-.003c-.637.48-1.388.713-2.133.713z" mask="url(#ubrvldrokf)"/>
                </g>
                <path fill="#40D6FF" d="M698.642 411.619l46.492 40.051c.591.503 1.47.438 1.971-.146.505-.58.438-1.466-.143-1.968L700.47 409.5c-.583-.505-1.47-.432-1.974.146-.503.58-.438 1.467.146 1.972m47.405 42.55c-.824 0-1.653-.284-2.325-.862l-46.493-40.057c-1.482-1.283-1.647-3.533-.367-5.018 1.285-1.488 3.538-1.65 5.018-.367l46.492 40.054c.724.621 1.156 1.485 1.226 2.433.07.948-.235 1.866-.856 2.587-.702.813-1.696 1.23-2.695 1.23"/>
                <path fill="#FFEA30" d="M279.29 415.642l13.309 25.023c.643 1.207 2.144 1.666 3.351 1.026 1.21-.642 1.67-2.141 1.024-3.354l-13.306-25.02c-.645-1.21-2.144-1.67-3.354-1.026-1.207.64-1.666 2.141-1.023 3.35M432.327 444.216l13.31 25.02c.174.33.468.573.824.683.362.106.74.073 1.067-.105.327-.173.57-.464.68-.824.109-.356.071-.737-.102-1.064l-13.31-25.023c-.363-.68-1.213-.937-1.894-.578-.33.173-.57.468-.68.821-.108.36-.07.738.105 1.07m14.55 27.926c-.35 0-.702-.054-1.047-.16-.91-.278-1.656-.896-2.101-1.733l-13.311-25.02c-.446-.84-.538-1.802-.262-2.712.278-.91.894-1.655 1.733-2.1 1.729-.922 3.89-.263 4.815 1.47l13.309 25.024c.92 1.731.262 3.891-1.47 4.815-.52.276-1.09.416-1.666.416M254.881 340.676c4.756.648 9.133-2.66 9.792-7.4.66-4.736-2.66-9.127-7.397-9.789-2.287-.31-4.577.276-6.427 1.675-1.85 1.396-3.043 3.43-3.362 5.725-.319 2.295.273 4.577 1.672 6.424 1.393 1.85 3.427 3.044 5.722 3.365m1.204 5.482c-.642 0-1.293-.043-1.947-.135-3.724-.516-7.024-2.455-9.292-5.458-2.266-2.997-3.227-6.702-2.709-10.424.519-3.724 2.455-7.021 5.458-9.29 2.998-2.268 6.7-3.237 10.424-2.71 7.688 1.069 13.07 8.193 12.001 15.884-.98 7.032-7.024 12.133-13.935 12.133"/>
                <path fill="#FF3652" d="M452.55 343.5c2.884.403 5.55-1.612 5.952-4.496.402-2.884-1.613-5.553-4.497-5.952-2.887-.405-5.552 1.612-5.954 4.496-.4 2.884 1.612 5.552 4.499 5.952M834.777 406.51c2.309.348 4.418-1.289 4.736-3.576.319-2.29-1.288-4.416-3.578-4.734-2.282-.351-4.415 1.28-4.731 3.575-.157 1.11.132 2.215.807 3.109.675.893 1.658 1.471 2.766 1.625m.583 2.201c-.292 0-.583-.019-.878-.06-1.682-.234-3.173-1.11-4.196-2.462-1.024-1.356-1.459-3.027-1.224-4.71.235-1.68 1.11-3.17 2.463-4.194 1.353-1.023 3.027-1.45 4.707-1.226 3.47.486 5.904 3.705 5.423 7.173-.446 3.176-3.176 5.48-6.295 5.48M807.265 85.187h-.054c-1.347.027-2.417 1.143-2.387 2.488.027 1.344 1.035 2.414 2.49 2.39.65-.014 1.256-.279 1.707-.751.45-.47.694-1.089.678-1.74-.014-.65-.276-1.258-.748-1.709-.457-.437-1.056-.678-1.686-.678m-.005 7.038c-2.49 0-4.545-2.001-4.599-4.505-.024-1.231.43-2.392 1.283-3.28.85-.886 1.996-1.389 3.224-1.413 1.264-.022 2.393.43 3.279 1.277.888.854 1.388 1.999 1.415 3.227.051 2.536-1.969 4.64-4.507 4.694h-.095"/>
                <path fill="#40D6FF" d="M528.034 308.007c1.926.268 3.705-1.075 3.973-3 .267-1.925-1.075-3.702-3-3.973-1.929-.27-3.706 1.075-3.973 3-.267 1.926 1.075 3.703 3 3.973M680.665 296.543c1.301.172 2.565-.749 2.752-2.083.091-.642-.079-1.285-.47-1.804-.395-.52-.967-.856-1.61-.945-.65-.083-1.29.076-1.81.467-.518.392-.853.965-.944 1.613-.184 1.331.75 2.568 2.082 2.752m.335 2.184c-.208 0-.419-.013-.632-.043h-.003c-2.509-.351-4.267-2.679-3.921-5.19.17-1.218.802-2.296 1.785-3.038.975-.74 2.176-1.054 3.405-.886 1.218.167 2.296.802 3.036 1.782.742.98 1.055 2.193.888 3.41-.324 2.296-2.3 3.965-4.558 3.965"/>
                <path fill="#FFEA30" d="M767.034 487.005c1.926.27 3.703-1.072 3.973-2.998.267-1.925-1.078-3.705-3.003-3.972-1.926-.27-3.703 1.072-3.97 2.997-.267 1.928 1.075 3.705 3 3.973M376.6 167.162c-1.197 0-2.248.883-2.418 2.104-.183 1.328.751 2.565 2.082 2.751.643.092 1.288-.073 1.807-.47.518-.391.853-.964.945-1.609.092-.645-.078-1.286-.47-1.807-.394-.52-.967-.856-1.612-.945-.11-.016-.224-.024-.335-.024m.011 7.04c-.213 0-.43-.013-.645-.043-2.51-.351-4.267-2.679-3.922-5.19.349-2.515 2.66-4.275 5.188-3.924 1.22.17 2.298.804 3.038 1.782.743.98 1.056 2.19.886 3.41-.167 1.216-.8 2.293-1.782 3.036-.805.608-1.77.93-2.763.93"/>
                <path fill="#FF27FF" d="M363.264 347.019c.643.091 1.288-.076 1.807-.47.518-.392.853-.964.945-1.61.092-.645-.078-1.288-.47-1.807-.394-.52-.967-.856-1.61-.947-1.344-.192-2.567.748-2.754 2.082-.183 1.331.751 2.568 2.082 2.752m.343 2.184c-.21 0-.426-.016-.64-.046h-.002c-2.51-.35-4.267-2.676-3.922-5.187.349-2.515 2.69-4.28 5.188-3.924 1.22.17 2.298.802 3.038 1.782.743.98 1.056 2.193.889 3.408-.17 1.218-.802 2.296-1.785 3.036-.805.61-1.772.931-2.766.931"/>
                <path fill="#3AD364" d="M643.545 385.914c-.894 0-1.766-.443-2.282-1.25l-6.435-10.12-10.127 6.387c-1.25.794-2.92.422-3.716-.831l-6.436-10.12-10.127 6.39c-1.25.794-2.919.419-3.718-.834l-6.436-10.12-10.127 6.388c-1.253.796-2.924.424-3.724-.843-.796-1.261-.418-2.927.845-3.724l12.401-7.824c1.256-.788 2.92-.415 3.719.835l6.435 10.116 10.125-6.387c1.253-.79 2.922-.416 3.718.835l6.436 10.119 10.127-6.39c1.255-.791 2.922-.416 3.718.835l7.88 12.387c.803 1.261.43 2.927-.829 3.73-.45.283-.95.42-1.447.42"/>
                <path fill="#AE49FF" d="M387.596 435.161c-.526 0-1.037.17-1.466.495-.518.394-.853.966-.945 1.61-.184 1.33.75 2.565 2.08 2.754h.002c.643.092 1.285-.076 1.807-.47.518-.394.853-.967.942-1.61.095-.645-.076-1.288-.464-1.809-.395-.519-.967-.856-1.613-.945-.116-.016-.23-.025-.343-.025m.017 7.043c-.214 0-.43-.016-.646-.045-2.509-.352-4.27-2.677-3.924-5.19.173-1.219.805-2.296 1.788-3.036.975-.74 2.182-1.062 3.405-.886 1.216.167 2.296.802 3.036 1.782.743.98 1.056 2.19.886 3.408-.168 1.216-.8 2.293-1.783 3.033-.807.613-1.769.934-2.762.934"/>
                <path fill="#40D6FF" d="M659.62 183.528c1.456.186 2.712-.791 2.906-2.196.095-.683-.08-1.358-.494-1.909-.416-.548-1.018-.905-1.699-1-.685-.088-1.358.085-1.906.498-.551.416-.905 1.018-1 1.698-.097.684.082 1.362.495 1.91.413.548 1.018.904 1.699.999m.359 5.425c-.365 0-.732-.024-1.102-.075v-.003c-2.112-.292-3.98-1.39-5.266-3.09-1.283-1.7-1.828-3.802-1.534-5.91.608-4.354 4.658-7.395 8.998-6.8 2.11.296 3.98 1.393 5.263 3.091 1.286 1.702 1.831 3.803 1.537 5.912-.554 3.983-3.98 6.875-7.896 6.875"/>
                <path fill="#FFEA30" d="M877.977 179.401h-.054c-.686.014-1.33.297-1.804.791-.476.497-.732 1.148-.716 1.837.03 1.42 1.167 2.622 2.628 2.522.686-.014 1.328-.294 1.804-.791.475-.497.731-1.148.715-1.834-.03-1.404-1.177-2.525-2.573-2.525zm-.006 10.551c-2.068 0-4.02-.783-5.517-2.222-1.537-1.472-2.409-3.46-2.452-5.588-.046-2.13.743-4.15 2.22-5.687 1.474-1.54 3.46-2.41 5.59-2.455 4.383.046 8.05 3.416 8.14 7.813.045 2.13-.743 4.15-2.22 5.687-1.475 1.537-3.46 2.406-5.59 2.452h-.17zM93.977 123.401h-.054c-.686.014-1.33.297-1.804.791-.476.497-.732 1.148-.716 1.837.03 1.42 1.167 2.622 2.628 2.522.686-.014 1.328-.294 1.804-.791.475-.497.731-1.148.715-1.834-.03-1.404-1.177-2.525-2.573-2.525zm-.006 10.551c-2.068 0-4.02-.783-5.517-2.222-1.537-1.472-2.409-3.46-2.452-5.588-.046-2.13.743-4.15 2.22-5.687 1.474-1.54 3.46-2.41 5.59-2.455 4.383.046 8.05 3.416 8.14 7.813.045 2.13-.743 4.15-2.22 5.687-1.475 1.537-3.46 2.406-5.59 2.452h-.17zM737.92 292.424c-.399 0-.81-.09-1.193-.281-1.336-.659-1.887-2.277-1.226-3.616l6.503-13.162-7.486-3.638c-.645-.313-1.142-.872-1.374-1.553-.23-.68-.184-1.428.135-2.074l7.707-15.598c.659-1.331 2.28-1.882 3.619-1.223 1.336.658 1.885 2.276 1.223 3.618l-6.5 13.163 7.483 3.635c.645.313 1.142.872 1.375 1.552.232.68.183 1.429-.135 2.074l-7.708 15.599c-.467.953-1.426 1.504-2.422 1.504"/>
                <path fill="#40D6FF" d="M816.11 284.689v-11.64l-11.642-.002c-1.36 0-2.468-1.105-2.468-2.468 0-1.364 1.107-2.469 2.468-2.469h11.642v-11.642c0-1.363 1.108-2.468 2.471-2.468 1.361 0 2.469 1.105 2.469 2.468v11.642h11.639c1.364 0 2.47 1.108 2.47 2.469 0 1.363-1.106 2.47-2.47 2.47h-11.64v11.64c0 1.366-1.107 2.47-2.468 2.47-1.363 0-2.47-1.104-2.47-2.47M59.11 459.689v-11.64l-11.642-.002c-1.36 0-2.468-1.105-2.468-2.468 0-1.364 1.107-2.469 2.468-2.469H59.11v-11.642c0-1.363 1.108-2.468 2.471-2.468 1.361 0 2.469 1.105 2.469 2.468v11.642h11.639c1.364 0 2.47 1.108 2.47 2.469 0 1.363-1.106 2.47-2.47 2.47h-11.64v11.64c0 1.366-1.107 2.47-2.468 2.47-1.363 0-2.47-1.104-2.47-2.47M475.551 395.27c-.764 0-1.39.625-1.39 1.394 0 .762.623 1.386 1.39 1.386h12.722v12.72c0 .763.622 1.387 1.388 1.387.765 0 1.386-.624 1.386-1.388v-12.72h12.722c.764 0 1.388-.623 1.388-1.39 0-.767-.624-1.388-1.388-1.388h-12.722v-12.722c0-.765-.621-1.389-1.386-1.389-.766 0-1.388.624-1.388 1.389v12.722h-12.722zm14.11 19.05c-1.957 0-3.55-1.593-3.55-3.55v-10.56h-10.56c-1.96 0-3.551-1.593-3.551-3.551.005-1.958 1.596-3.549 3.551-3.549l10.56.003v-10.564c0-1.958 1.593-3.549 3.55-3.549 1.956 0 3.549 1.59 3.549 3.549v10.564h10.56c1.957 0 3.55 1.59 3.55 3.546 0 1.958-1.593 3.551-3.55 3.551h-10.56v10.56c0 1.957-1.593 3.55-3.549 3.55z"/>
                <path fill="#2B6FFF" d="M717.522 350.112l9.606 9.584 9.578-9.597-9.603-9.582-9.581 9.595zm9.608 16.103c-.691 0-1.38-.264-1.906-.788l-13.43-13.4c-.51-.508-.794-1.191-.794-1.91 0-.718.284-1.404.789-1.912l13.4-13.416c1.053-1.053 2.762-1.05 3.818-.002l13.43 13.397c.508.508.794 1.194.794 1.91 0 .718-.284 1.403-.789 1.911l-13.4 13.42c-.529.526-1.223.79-1.912.79zM161.522 437.112l9.606 9.584 9.578-9.597-9.603-9.582-9.581 9.595zm9.608 16.103c-.691 0-1.38-.264-1.906-.788l-13.43-13.4c-.51-.508-.794-1.191-.794-1.91 0-.718.284-1.404.789-1.912l13.4-13.416c1.053-1.053 2.762-1.05 3.818-.002l13.43 13.397c.508.508.794 1.194.794 1.91 0 .718-.284 1.403-.789 1.911l-13.4 13.42c-.529.526-1.223.79-1.912.79z"/>
                <path fill="#FF3652" d="M189.659 291.38l8.255-15.565 15.59 8.271c1.208.64 2.704.181 3.339-1.026.637-1.204.172-2.703-1.037-3.343l-17.694-9.384c-.022-.014-.036-.038-.06-.049-.904-.475-1.971-.335-2.72.278-.25.203-.464.457-.623.759l-9.42 17.759c-.64 1.21-.183 2.703 1.024 3.34 1.207.635 2.703.17 3.346-1.04M645.97 447.169c-.32 0-.624.108-.875.31-.144.119-.262.262-.346.421l-9.422 17.77c-.178.33-.214.705-.103 1.061.11.354.349.64.675.816.678.354 1.523.092 1.888-.592l8.76-16.519 16.547 8.777c.326.176.707.213 1.064.1.35-.108.64-.348.813-.675.356-.678.091-1.523-.59-1.885l-17.844-9.474c-.19-.073-.381-.11-.567-.11m-9.428 22.695c-.559 0-1.123-.132-1.65-.408-.837-.44-1.453-1.183-1.731-2.09-.284-.905-.19-1.869.257-2.709l9.419-17.761c.216-.416.518-.786.891-1.091 1.113-.908 2.644-1.061 3.91-.392l.281.203 17.476 9.228c1.73.918 2.398 3.07 1.485 4.801-.44.837-1.178 1.45-2.082 1.734-.91.275-1.874.189-2.714-.257l-14.64-7.764-7.748 14.61c-.64 1.205-1.88 1.896-3.154 1.896"/>
            </g>
        </g>
    </g>
</svg>
