<svg xmlns="http://www.w3.org/2000/svg" width="24" height="24" viewBox="0 0 24 24">
    <path fill="#2F3137" fill-rule="evenodd" d="M7.54 4.52l.18.185c.08.081.16.161.242.246L9.17 6.158c.418.42.418.778 0 1.197l-.129.13c-.083.083-.167.168-.253.25-.394.404-.735.743-1.107 1.077l-.039.035-.004.008c-.403.415-.332.834-.244 1.107l.017.055c.315.764.762 1.492 1.453 2.368 1.234 1.52 2.528 2.697 3.959 3.6.177.114.358.205.555.305.163.079.305.152.455.242l.036.021c.166.084.328.124.494.124.415 0 .673-.255.76-.34l1.513-1.515c.137-.134.345-.295.58-.295.25 0 .45.178.559.295l2.438 2.44c.397.391.408.764.037 1.171l-.048.002-.015.066c-.138.145-.276.282-.423.424l-.084.081c-.283.271-.584.567-.86.89-.423.455-.921.666-1.572.666-.066-.006-.13 0-.195-.005-1.295-.084-2.5-.59-3.404-1.024-2.492-1.203-4.674-2.913-6.49-5.08-1.497-1.806-2.504-3.48-3.166-5.271C3.59 8.1 3.44 7.263 3.506 6.468c.041-.487.229-.891.574-1.238l1.506-1.506c.195-.182.398-.28.587-.28.238 0 .434.149.574.289.278.26.544.532.793.787m13.7 11.729l-2.43-2.44c-.455-.471-1.003-.721-1.584-.721-.578 0-1.131.248-1.6.717l-1.335 1.329c-.046-.025-.093-.049-.139-.072l-.122-.063c-.162-.08-.305-.153-.428-.227-1.299-.826-2.48-1.904-3.61-3.29-.521-.661-.876-1.214-1.142-1.78.303-.278.587-.566.862-.845l.473-.482c.48-.479.735-1.038.735-1.617 0-.581-.254-1.14-.735-1.62L8.978 3.93c-.136-.137-.276-.277-.41-.42-.246-.254-.534-.548-.834-.825C7.281 2.237 6.737 2 6.164 2c-.573 0-1.124.237-1.602.695L3.06 4.213c-.589.588-.924 1.306-.997 2.136-.109 1.315.276 2.533.574 3.337.724 1.954 1.808 3.759 3.407 5.681 1.951 2.331 4.298 4.169 6.974 5.462 1.033.49 2.414 1.065 3.942 1.162.093.005.193.009.284.009 1.06 0 1.95-.383 2.645-1.137l.023-.028c.203-.247.438-.474.687-.715l.077-.074c.192-.183.387-.374.58-.574.459-.48.702-1.039.702-1.618 0-.585-.247-1.14-.717-1.605"/>
</svg>
