<svg id="Слой_1" data-name="Слой 1" xmlns="http://www.w3.org/2000/svg" xmlns:xlink="http://www.w3.org/1999/xlink" viewBox="0 0 815.47 581"><defs><style>.cls-1{fill:#f2be9b;opacity:0.52;}.cls-2{fill:#fb9284;}.cls-3{fill:#fecfb6;fill-opacity:0.74;}.cls-4{fill:url(#Безымянный_градиент);}.cls-5{fill:#ffe0c7;fill-opacity:0.35;}.cls-6{fill:#ed524c;}.cls-7{fill:#efa8a6;}.cls-7,.cls-8{fill-rule:evenodd;}.cls-8{fill:#7198f8;}.cls-10,.cls-11,.cls-9{fill:none;}.cls-9{stroke:#ffeeba;}.cls-10,.cls-9{stroke-linecap:square;stroke-width:3px;}.cls-10{stroke:#efc2a0;}.cls-11{stroke-opacity:0.7;stroke-width:8px;stroke:url(#Безымянный_градиент_3);}.cls-12{fill:url(#Безымянный_градиент_2);}</style><linearGradient id="Безымянный_градиент" x1="-539.03" y1="828.26" x2="-539.7" y2="827.83" gradientTransform="matrix(112.38, -9.83, -10.06, -115.04, 69636.17, 90068.8)" gradientUnits="userSpaceOnUse"><stop offset="0" stop-color="#ffd7a0"/><stop offset="1" stop-color="#ff9c7a"/></linearGradient><linearGradient id="Безымянный_градиент_3" x1="-526.02" y1="822.8" x2="-526.52" y2="821.8" gradientTransform="matrix(30, 0, 0, -30, 16358.53, 24870.5)" gradientUnits="userSpaceOnUse"><stop offset="0" stop-color="#ffc897"/><stop offset="1" stop-color="#febf8b"/></linearGradient><linearGradient id="Безымянный_градиент_2" x1="627.66" y1="530.81" x2="165.2" y2="78.17" gradientUnits="userSpaceOnUse"><stop offset="0" stop-color="#f04a4a"/><stop offset="1" stop-color="#eaaf6a"/></linearGradient></defs><title>circle</title><g id="Group-26"><polygon class="cls-1" points="807.65 576.68 763.7 553.91 771.13 516.32 736.9 501.85 746.37 469.84 712.61 455.44 719.28 439.8 766.97 460.14 757.51 492.11 790.48 506.05 782.85 544.69 815.47 561.58 807.65 576.68"/><polygon class="cls-2" points="807.65 576.68 763.7 553.91 771.13 516.32 736.9 501.85 746.37 469.84 712.61 455.44 719.28 439.8 766.97 460.14 757.51 492.11 790.48 506.05 782.85 544.69 815.47 561.58 807.65 576.68"/></g><g id="Group-25"><path id="Rectangle-Copy-2" class="cls-3" d="M566,164.08,767.43,30.57l-62.89,107.3-126.68,79Z"/><path id="Rectangle" class="cls-4" d="M619.18,130.56,720.62,63.22l1.06,60.89-103.38,64Z"/></g><g id="Group-23"><path id="Rectangle-Copy-62" class="cls-5" d="M244.58,528.48l20.81-18.73,32,19.38-34.1,20.16Z"/><path id="Rectangle-2" data-name="Rectangle" class="cls-6" d="M239,529.2l19.64-17.69,18.07,20.07L257,549.27Z"/></g><g id="Group-21"><path id="_-copy-3" data-name="%-copy-3" class="cls-7" d="M147.06,73.79l-32.16,107-13-.79,31.94-107Zm32.79,90.84a29.48,29.48,0,0,0,14-39.57A28.45,28.45,0,0,0,177,110a29.08,29.08,0,0,0-23,1.54q-11.82,5.78-15.76,17.2a30,30,0,0,0,18.38,37.68Q168,170.41,179.85,164.63Zm-15.78-18.28a8.34,8.34,0,0,0,10.68-5.3,8.34,8.34,0,0,0-.42-6.47,8.59,8.59,0,0,0-4.88-4.57,8.54,8.54,0,0,0-10.79,5.26,8.64,8.64,0,0,0,.6,6.66A8.41,8.41,0,0,0,164.07,146.35Z"/><path id="_-copy-2" data-name="%-copy-2" class="cls-8" d="M115.44,118.48a28.8,28.8,0,0,1-15.32,17Q88.45,141.15,77,137.22A29.58,29.58,0,0,1,58.63,99.54q3.94-11.43,15.62-17.13,11.52-5.61,23-1.68a28.36,28.36,0,0,1,16.84,15A28.66,28.66,0,0,1,115.44,118.48Zm-31.1-1.3a8,8,0,0,0,6.48-.41l.56-.25a7,7,0,0,0,4.32-6.8,9.61,9.61,0,0,0-3.92-8q-3.94-3-8.53-.42a8,8,0,0,0-4.31,4.85,8.42,8.42,0,0,0,.52,6.51A8.65,8.65,0,0,0,84.34,117.18Z"/></g><g id="Group-24"><path id="Line-3" class="cls-9" d="M62.45,409.5,2,433.5"/><path id="Line-3-Copy" class="cls-10" d="M63,409,4.2,433.5"/></g><path id="Oval" class="cls-11" d="M569,219.5a15,15,0,1,0-15-15A15,15,0,0,0,569,219.5Z"/><path class="cls-12" d="M223.88,581h340a327.45,327.45,0,0,0-45-581H268.84a327.44,327.44,0,0,0-45,581Z"/></svg>