<svg xmlns="http://www.w3.org/2000/svg" xmlns:xlink="http://www.w3.org/1999/xlink" width="447" height="228" viewBox="0 0 447 228">
    <defs>
        <path id="zaml13gx4a" d="M-0.005 163.718L41.775 159.653 41.775 9.45 -0.005 0.867z"/>
        <path id="ivy52sz3vc" d="M0.169 8.675L0.169 158.883 41.949 162.945 41.949 0.093z"/>
        <path id="e7skc6b6kf" d="M.79 2.489c-.727 8.42 3.592 15.338 11.544 22.525 5.13 4.63 8.621 7.936 10.455 9.7.986.948 1.648 2.181 1.895 3.526l7.011 38.112 9.434-1.573-4.658-38.924c-.144-1.19-.448-2.356-.906-3.462L22.15-.004.791 2.49z"/>
        <path id="fc0fnsg4nh" d="M5.837 3.734L5.25 8.14C5 7.02 2.947 4.526.777 6.063c-1.37.97-.72 3.173.46 4.322 1.397 1.363-.53 10.227-.53 10.227l8.301 1.771v-5.5c4.288.279 4.848.092 6.527-5.131 1.678-5.223 0-11.438 0-11.438-.1-.024-.216-.034-.349-.034-2.33 0-9.35 3.454-9.35 3.454"/>
        <path id="qtgu78fzuj" d="M5.607 1.865C-2.576 5.38.663 14.418.663 14.418l18.792-6.886C18.85 4.27 15.892.662 10.913.662c-1.57 0-3.344.36-5.306 1.203"/>
        <path id="8dzs6skx0l" d="M.95 5.445c-2.824 7.111 1.595 16.067 3.382 23.883C7.664 43.89 5.567 49.295 6.171 51.986l22.91-1.693-.313-5.848s-3.366-29.6-9.775-37.436C15.531 2.778 11.367.588 7.827.588 4.812.588 2.247 2.175.95 5.445"/>
        <path id="68l7clq9on" d="M0.103 1.686L2.657 15.227 13.651 14.407 12.195 0.864z"/>
        <path id="ddp002cg8p" d="M0.145 12.735L15.307 55.236 50.52 42.676 35.358 0.174z"/>
        <path id="g32zz2zjnr" d="M-0.001 10.805L3.124 19.568 33.288 8.807 30.161 0.044z"/>
        <path id="072omclq1t" d="M0.272 5.743L6.812 24.077 21.894 18.695 15.352 0.363z"/>
        <linearGradient id="2pgi0pr0fe" x1="-.001%" x2="99.998%" y1="50.005%" y2="50.005%">
            <stop offset="0%" stop-color="#CD8B5E"/>
            <stop offset="100%" stop-color="#E2995B"/>
        </linearGradient>
    </defs>
    <g fill="none" fill-rule="evenodd">
        <path fill="#EBF3FA" d="M247.08 35.322C164.87 85.412 89.893-14.409 25.382 65.724c-67.48 83.824 20.946 155.672 20.946 155.672h328.037s87.737-55.243 69.126-133.342C424.88 9.953 351.665-28.701 260.938 26.577"/>
        <path fill="#E6EAF3" d="M404.776 221.396c0-3.647-84.99-6.604-189.83-6.604-104.84 0-189.83 2.957-189.83 6.604 0 3.646 84.99 6.603 189.83 6.603 104.84 0 189.83-2.957 189.83-6.603"/>
        <path fill="#203482" d="M234.018 174.559L355.368 174.559 355.368 17.893 234.018 17.893z"/>
        <path fill="#415AB7" d="M354.268 24.355H235.117c-1.786 0-3.232-1.446-3.232-3.232 0-1.784 1.446-3.23 3.232-3.23h119.151c1.786 0 3.232 1.446 3.232 3.23 0 1.786-1.446 3.232-3.232 3.232"/>
        <path fill="#6076C9" d="M235.508 193.752L353.878 193.752 353.878 174.559 235.508 174.559z"/>
        <path fill="#415AB7" d="M354.395 199.964H234.99c-1.715 0-3.105-1.39-3.105-3.106 0-1.715 1.39-3.106 3.105-3.106h119.405c1.715 0 3.105 1.391 3.105 3.106 0 1.715-1.39 3.106-3.105 3.106"/>
        <g transform="translate(195.435 14.906)">
            <mask id="me8o8e7mhb" fill="#fff">
                <use xlink:href="#zaml13gx4a"/>
            </mask>
            <path fill="#4F65BA" d="M-0.005 163.718L41.775 159.653 41.775 9.45 -0.005 0.867z" mask="url(#me8o8e7mhb)"/>
        </g>
        <g transform="translate(351.566 15.925)">
            <mask id="cqxfhcgyhd" fill="#fff">
                <use xlink:href="#ivy52sz3vc"/>
            </mask>
            <path fill="#4F65BA" d="M0.169 8.675L0.169 158.883 41.949 162.945 41.949 0.093z" mask="url(#cqxfhcgyhd)"/>
        </g>
        <g>
            <path fill="#24377F" d="M.053 163.718L2.582 163.718 2.582.866.053.866zM200.089 163.718L202.618 163.718 202.618.866 200.089.866z" transform="translate(192.848 14.906)"/>
            <path fill="#E0141F" d="M50.749 173.447L57.935 173.447 57.935 166.26 50.749 166.26z" transform="translate(192.848 14.906)"/>
            <path fill="#4F65BA" d="M57.934 173.447L65.12 173.447 65.12 166.26 57.934 166.26z" transform="translate(192.848 14.906)"/>
            <path fill="#415AB7" d="M111.114 174.569H92.576c-1.11 0-2.008-.9-2.008-2.009v-5.414c0-1.11.898-2.008 2.008-2.008h18.538c1.11 0 2.009.898 2.009 2.008v5.414c0 1.11-.9 2.009-2.01 2.009l57.209 24.293M140.564 173.447L147.75 173.447 147.75 166.26 140.564 166.26z" transform="translate(192.848 14.906)"/>
            <path fill="#E0141F" d="M147.75 173.447L154.937 173.447 154.937 166.26 147.75 166.26z" transform="translate(192.848 14.906)"/>
            <path fill="#24377F" d="M68.597 203.166h-6.953c-1.772 0-3.21-1.439-3.21-3.21v-14.898h13.372v14.897c0 1.772-1.437 3.211-3.21 3.211M144.042 203.166h-6.953c-1.772 0-3.21-1.439-3.21-3.21v-14.898h13.373v14.897c0 1.772-1.438 3.211-3.21 3.211" transform="translate(192.848 14.906)"/>
        </g>
        <path fill="#CD8B5E" d="M237.21 174.323L282.334 174.323 282.334 136.936 237.21 136.936z"/>
        <path fill="#DFA075" d="M282.336 174.323L327.46 174.323 327.46 136.936 282.336 136.936z"/>
        <path fill="#CD8B5E" d="M320.241 174.323L351.735 174.323 351.735 136.936 320.241 136.936z"/>
        <path fill="#DFA075" d="M237.21 136.936L274.595 136.936 274.595 91.811 237.21 91.811z"/>
        <path fill="url(#2pgi0pr0fe)" d="M273.946 136.875L320.241 136.875 320.241 123.427 273.946 123.427z"/>
        <g>
            <g>
                <path fill="#00081A" d="M53.272 4.123c.709.905 2.018 1.064 2.924.354.905-.708 1.064-2.018.354-2.923-.709-.905-2.018-1.066-2.923-.356-.906.71-1.064 2.02-.355 2.925" transform="matrix(-1 0 0 1 181.159 57.43) translate(0 69.072)"/>
                <path fill="#00081A" d="M52.351 3.638c.11-.244.7-1.736.7-1.736l3.853 1.536-.745 1.87-3.808-1.67z" transform="matrix(-1 0 0 1 181.159 57.43) translate(0 69.072)"/>
                <path fill="#24377F" d="M4.394 76.385L.649 80.858c-.485.506-.447 1.314.087 1.77l3.566 3.05c.316.271.75.36 1.15.237l.344-.105c.446-.137.928-.002 1.234.35 1.756 2.016 7.864 8.495 12.152 6.407 5.056-2.462-6.72-8.117-6.985-9.648-.267-1.53-.08-1.798-.08-1.798l-7.723-4.736z" transform="matrix(-1 0 0 1 181.159 57.43) translate(0 69.072)"/>
                <path fill="#C9D0ED" d="M7.215 80.659c1.708 1.083 3.93.642 4.963-.988l-6.186-3.924c-1.033 1.63-.485 3.829 1.223 4.912" transform="matrix(-1 0 0 1 181.159 57.43) translate(0 69.072)"/>
                <path fill="#24377F" d="M50.088 84.577l.244 5.83c-.02.698.555 1.27 1.256 1.247l4.69-.145c.417-.013.798-.238 1.01-.597l.183-.31c.238-.402.685-.627 1.15-.573 2.654.309 11.531.986 13.296-3.445 2.083-5.224-10.432-1.477-11.66-2.429-1.227-.952-1.268-1.277-1.268-1.277l-8.901 1.699z" transform="matrix(-1 0 0 1 181.159 57.43) translate(0 69.072)"/>
                <path fill="#C9D0ED" d="M55.052 85.837c2.097-.368 3.526-2.205 3.194-4.105l-7.592 1.33c.33 1.9 2.301 3.142 4.398 2.775" transform="matrix(-1 0 0 1 181.159 57.43) translate(0 69.072)"/>
                <path fill="#2E46A3" d="M13.055 80.324L5.01 75.27l17.502-29.817c.702-1.196.968-2.601.75-3.974l-4.379-27.602 11.44-1.145 5.85 8.78 1.846 20.934c.126 1.433-.259 2.866-1.089 4.041L13.055 80.324z" transform="matrix(-1 0 0 1 181.159 57.43) translate(0 69.072)"/>
            </g>
            <g transform="matrix(-1 0 0 1 181.159 57.43) translate(17.988 75.95)">
                <mask id="tax9jis7eg" fill="#fff">
                    <use xlink:href="#e7skc6b6kf"/>
                </mask>
                <path fill="#415AB7" d="M.79 2.489c-.727 8.42 3.592 15.338 11.544 22.525 5.13 4.63 8.621 7.936 10.455 9.7.986.948 1.648 2.181 1.895 3.526l7.011 38.112 9.434-1.573-4.658-38.924c-.144-1.19-.448-2.356-.906-3.462L22.15-.004.791 2.49z" mask="url(#tax9jis7eg)"/>
            </g>
            <path fill="#442F6E" d="M17.725 20.895s-2.854-2.366-4.865-6.457c0 0 5.886-10.981 18.697-7.128L17.725 20.895z" transform="matrix(-1 0 0 1 181.159 57.43)"/>
            <g transform="matrix(-1 0 0 1 181.159 57.43) translate(16.048 6.996)">
                <mask id="f9ru6lhvvi" fill="#fff">
                    <use xlink:href="#fc0fnsg4nh"/>
                </mask>
                <path fill="#E9DBCB" d="M5.837 3.734L5.25 8.14C5 7.02 2.947 4.526.777 6.063c-1.37.97-.72 3.173.46 4.322 1.397 1.363-.53 10.227-.53 10.227l8.301 1.771v-5.5c4.288.279 4.848.092 6.527-5.131 1.678-5.223 0-11.438 0-11.438-.1-.024-.216-.034-.349-.034-2.33 0-9.35 3.454-9.35 3.454" mask="url(#f9ru6lhvvi)"/>
            </g>
            <path fill="#415AB7" d="M29.258 8.269c.03-.005.06-.01.09-.02L42.153 3.91c.232-.078.355-.327.276-.56-.078-.23-.33-.352-.56-.274L29.064 7.412c-.23.08-.354.33-.276.56.069.203.267.322.47.297" transform="matrix(-1 0 0 1 181.159 57.43)"/>
            <g transform="matrix(-1 0 0 1 181.159 57.43) translate(12.11)">
                <mask id="9af1qo7xhk" fill="#fff">
                    <use xlink:href="#qtgu78fzuj"/>
                </mask>
                <path fill="#415AB7" d="M5.607 1.865C-2.576 5.38.663 14.418.663 14.418l18.792-6.886C18.85 4.27 15.892.662 10.913.662c-1.57 0-3.344.36-5.306 1.203" mask="url(#9af1qo7xhk)"/>
            </g>
            <path fill="#D9C8B5" d="M29.119 47.363l.317 2.854c.043.39.24.742.547.983l19.613 15.435c.409.322.958.402 1.44.209l3.1-1.24c.47-.188 1.004-.12 1.408.182l2.682 1.991c.802.595 1.083 1.668.676 2.58l-.672 1.507c-.248.557-.817.898-1.424.86l-5.214-.341c-.22-.013-.438-.078-.63-.19l-27.76-15.93c-.896-.513-1.542-1.368-1.791-2.37l-1.114-4.454c-.194-.774.271-1.559 1.042-1.76l5.965-1.564c.86-.225 1.718.365 1.815 1.248" transform="matrix(-1 0 0 1 181.159 57.43)"/>
            <g transform="matrix(-1 0 0 1 181.159 57.43) translate(12.11 26.453)">
                <mask id="cgtovvu9um" fill="#fff">
                    <use xlink:href="#8dzs6skx0l"/>
                </mask>
                <path fill="#E0141F" d="M.95 5.445c-2.824 7.111 1.595 16.067 3.382 23.883C7.664 43.89 5.567 49.295 6.171 51.986l22.91-1.693-.313-5.848s-3.366-29.6-9.775-37.436C15.531 2.778 11.367.588 7.827.588 4.812.588 2.247 2.175.95 5.445" mask="url(#cgtovvu9um)"/>
            </g>
            <g>
                <path fill="#BC2060" d="M.103.568L1.876 14.982 3.882 14.982 3.123 1.77zM12.38.192L14.589 14.11 12.317 14.287 10.684.192z" transform="matrix(-1 0 0 1 181.159 57.43) translate(16.518 36.388)"/>
                <path fill="#E9DBCB" d="M12.6 12.492l.318 2.855c.043.388.24.74.547.983l19.613 15.434c.409.322.959.401 1.44.209l3.1-1.24c.47-.189 1.004-.12 1.408.182l2.682 1.991c.802.595 1.083 1.668.676 2.58l-.672 1.507c-.248.557-.817.9-1.424.86l-5.214-.341c-.22-.013-.438-.078-.63-.19l-27.76-15.93c-.896-.513-1.542-1.369-1.791-2.37l-1.114-4.454c-.194-.773.272-1.558 1.042-1.76l5.965-1.564c.86-.223 1.718.364 1.815 1.248" transform="matrix(-1 0 0 1 181.159 57.43) translate(16.518 36.388)"/>
            </g>
            <g transform="matrix(-1 0 0 1 181.159 57.43) translate(16.518 35.27)">
                <mask id="1bvv3cm35o" fill="#fff">
                    <use xlink:href="#68l7clq9on"/>
                </mask>
                <path fill="#C3151F" d="M0.103 1.686L2.657 15.227 13.651 14.407 12.195 0.864z" mask="url(#1bvv3cm35o)"/>
            </g>
            <g transform="matrix(-1 0 0 1 181.159 57.43) translate(67.602 98.112)">
                <mask id="msm03nl3kq" fill="#fff">
                    <use xlink:href="#ddp002cg8p"/>
                </mask>
                <path fill="#CD8B5E" d="M0.145 12.735L15.307 55.236 50.52 42.676 35.358 0.174z" mask="url(#msm03nl3kq)"/>
            </g>
            <g transform="matrix(-1 0 0 1 181.159 57.43) translate(64.564 91.116)">
                <mask id="2yx08jxzzs" fill="#fff">
                    <use xlink:href="#g32zz2zjnr"/>
                </mask>
                <path fill="#DFA075" d="M-0.001 10.805L3.124 19.568 33.288 8.807 30.161 0.044z" mask="url(#2yx08jxzzs)"/>
            </g>
            <g transform="matrix(-1 0 0 1 181.159 57.43) translate(57.667 77.89)">
                <mask id="hovaeucaou" fill="#fff">
                    <use xlink:href="#072omclq1t"/>
                </mask>
                <path fill="#CD8B5E" d="M0.272 5.743L6.812 24.077 21.894 18.695 15.352 0.363z" mask="url(#hovaeucaou)"/>
            </g>
            <g>
                <path fill="#24377F" d="M30.58 83.427L1.933 3.272c-.15-.416.068-.873.482-1.022.415-.148.873.07 1.022.484l28.116 78.671L71.45 67.686c.417-.144.87.078 1.014.496.144.415-.078.871-.495 1.014L30.58 83.427z" transform="matrix(-1 0 0 1 181.159 57.43) translate(51.789 70.541)"/>
                <path fill="#24377F" d="M39.042 82.348c0 4.372-3.544 7.917-7.916 7.917-4.373 0-7.917-3.545-7.917-7.917 0-4.374 3.544-7.918 7.917-7.918 4.372 0 7.916 3.544 7.916 7.918" transform="matrix(-1 0 0 1 181.159 57.43) translate(51.789 70.541)"/>
                <path fill="#415AB7" d="M33.89 82.417c0 1.525-1.237 2.764-2.764 2.764-1.527 0-2.765-1.239-2.765-2.764 0-1.527 1.238-2.766 2.765-2.766 1.527 0 2.764 1.239 2.764 2.766M.827 4.286c.71.906 2.019 1.066 2.923.356.905-.708 1.065-2.018.355-2.923C3.397.814 2.088.653 1.182 1.363.277 2.072.118 3.381.827 4.286" transform="matrix(-1 0 0 1 181.159 57.43) translate(51.789 70.541)"/>
            </g>
        </g>
    </g>
</svg>
