<svg class="sprite-icons" xmlns="http://www.w3.org/2000/svg">

    <symbol viewBox="0 0 2.52 4.32" id="arrow">
        <path d="M2.52,2.16a.39.39,0,0,0-.1-.27L.63.11a.36.36,0,0,0-.52,0,.36.36,0,0,0,0,.52L1.64,2.16.11,3.69a.36.36,0,0,0,0,.52.33.33,0,0,0,.26.11.34.34,0,0,0,.26-.11L2.42,2.43A.39.39,0,0,0,2.52,2.16Z"/>
    </symbol>

    <symbol viewBox="0 0 100 102.47" id="basket">
        <path d="M98.6,23.13c-2.06-1.58-9.39-1-13.06-1H29c-.42-1.87-1.28-4-1.94-6-.71-2.17-4.3-13.62-5.13-14.74A3.6,3.6,0,0,0,19.29,0H3.51A4,4,0,0,0,.06,3.2,3.93,3.93,0,0,0,2.47,7.41C4,8.06,13.35,7.64,16,7.64c1.1,4.74,5.36,15.21,7.11,22.43,1.9,7.74,3.63,16.51,5.57,24.24.67,2.7,1.3,5.41,1.86,8.09a24.7,24.7,0,0,0,1,3.84,4.1,4.1,0,0,0,3.06,2H87.84c1.64,0,2.9-1.58,3.31-3.29,2.17-8.71,4.23-18.78,6.3-27.59l2-8.25C99.82,27.34,100.84,24.86,98.6,23.13ZM84.26,60.65H38.16L31,30.07H91.14C91,32.26,84.32,58.8,84.26,60.65Z"/>
        <path d="M43.25,73.13c-5.42,0-10,2-12.95,6.41a15.53,15.53,0,0,0-2.59,8.11c0,7.63,6.33,14.77,14,14.77,6.67,0,11.39-2.79,14.2-8.74C60.36,84.18,52.79,73.13,43.25,73.13Zm3.89,19.68a4.51,4.51,0,0,1-2,1.37,6.9,6.9,0,0,1-9.59-6.27,6.21,6.21,0,0,1,2.1-5.06C44.13,76.55,53.89,86.05,47.14,92.81Z"/>
        <path d="M69.42,77.38a14.09,14.09,0,0,0-4.26,9.5c0,5,1,8,4.26,11.27a14.49,14.49,0,0,0,16.89,2.74,13.17,13.17,0,0,0,4-2.86A14.69,14.69,0,0,0,69.42,77.38Zm13,16.8a20,20,0,0,1-2.19.61c-4.08,0-7.4-3.25-7.4-6.88a7.06,7.06,0,0,1,11.78-5.18C87.86,85.75,87.42,92.21,82.39,94.18Z"/>
    </symbol>

    <symbol viewBox="0 0 4.45 4.45" id="catalog">
        <path d="M.6,0A.6.6,0,0,0,0,.6a.59.59,0,0,0,.6.59A.58.58,0,0,0,1.19.6.59.59,0,0,0,.6,0Z"/>
        <path d="M.6,1.63a.59.59,0,0,0-.6.59.6.6,0,0,0,.6.6.59.59,0,0,0,.59-.6A.58.58,0,0,0,.6,1.63Z"/>
        <path d="M.6,3.25a.6.6,0,0,0,0,1.2.6.6,0,0,0,0-1.2Z"/>
        <path d="M2.22,0a.59.59,0,0,0-.59.6.58.58,0,0,0,.59.59A.59.59,0,0,0,2.82.6.6.6,0,0,0,2.22,0Z"/>
        <path d="M2.22,1.63a.58.58,0,0,0-.59.59.59.59,0,0,0,.59.6.6.6,0,0,0,.6-.6A.59.59,0,0,0,2.22,1.63Z"/>
        <path d="M2.22,3.25a.6.6,0,0,0,0,1.2.6.6,0,0,0,0-1.2Z"/>
        <path d="M3.85,1.19A.59.59,0,0,0,4.45.6a.6.6,0,0,0-1.2,0A.59.59,0,0,0,3.85,1.19Z"/>
        <path d="M3.85,1.63a.59.59,0,0,0-.6.59.6.6,0,0,0,1.2,0A.59.59,0,0,0,3.85,1.63Z"/>
        <path d="M3.85,3.25a.6.6,0,1,0,.6.6A.6.6,0,0,0,3.85,3.25Z"/>
    </symbol>

    <symbol viewBox="0 0 2.31 2.8" id="compare">
        <rect y="0.49" width="0.52" height="2.31" rx="0.26"/>
        <rect x="0.89" width="0.52" height="2.8" rx="0.26"/>
        <rect x="1.79" y="1" width="0.52" height="1.8" rx="0.26"/>
    </symbol>

    <symbol viewBox="0 0 83 71.72" id="favorite">
        <path d="M76.8,6C72.7,2,67,0,59.93,0a19.56,19.56,0,0,0-6.21,1.05A24.53,24.53,0,0,0,48,3.83C46.3,4.93,44.83,6,43.6,7q-1.08.87-2.1,1.8-1-.93-2.1-1.8c-1.23-1-2.69-2-4.36-3.13a24.53,24.53,0,0,0-5.76-2.78,19.56,19.56,0,0,0-6.21-1C16,0,10.3,2,6.2,6S0,15.64,0,22.63a21.2,21.2,0,0,0,1.14,6.71,28.78,28.78,0,0,0,2.54,5.74A40.38,40.38,0,0,0,6.83,39.6c1.16,1.45,2,2.44,2.58,3s1,1,1.31,1.25L38.15,70.33a4.74,4.74,0,0,0,6.68,0L72.32,43.88C79.41,36.8,83,29.65,83,22.63S80.91,10.05,76.8,6ZM73.36,22.63c0,4.36-2.59,9.16-7.69,14.27L41.5,60.19,17.3,36.87C12.22,31.79,9.64,27,9.64,22.63A17.5,17.5,0,0,1,10.48,17a10.46,10.46,0,0,1,2-3.64,9.59,9.59,0,0,1,3-2.17A13.66,13.66,0,0,1,19.1,10a22.7,22.7,0,0,1,4-.33,10.79,10.79,0,0,1,4.16,1,20.33,20.33,0,0,1,4.44,2.57,46.73,46.73,0,0,1,3.66,3.05,32.86,32.86,0,0,1,2.46,2.51,4.89,4.89,0,0,0,7.39,0,33.84,33.84,0,0,1,2.49-2.54,47.09,47.09,0,0,1,3.66-3.05,20.57,20.57,0,0,1,4.44-2.57,10.83,10.83,0,0,1,4.16-1,22.81,22.81,0,0,1,4,.33,13.72,13.72,0,0,1,3.62,1.2,9.59,9.59,0,0,1,3,2.17,10.3,10.3,0,0,1,2,3.64A17.27,17.27,0,0,1,73.36,22.63Z"/>
    </symbol>

    <symbol viewBox="0 0 65.99 66.06" id="sale">
        <path d="M64.54,29.07c1.78-4.39,2.21-4.84-.38-6.85-.78-.6-1.32-1.11-2.06-1.7-3.11-2.45-3-1.89-3.36-4.19-.76-4.82-.36-7.63-3.22-8.08L49,7.22c-1.73-.3-2.13-1.78-3.84-3.7-.64-.72-1.06-1.34-1.68-2.08C41.61-.81,41,0,38.5.93c-7,2.54-3.69,2.71-11,0-3.69-1.36-3.06-2-8.32,4.73-.4.52-.71,1.14-1.31,1.41L10.27,8.29c-2.37.49-2,2.11-2.49,5.05-.2,1.18-.34,2-.51,3.26-.26,2-.56,1.75-3.47,4.06C2.37,21.8,0,23.34,0,24.62c0,1.63,2.93,7.18,2.93,8.58,0,.16-1.31,3.5-1.5,3.95-2,4.85-2.17,4.68,1.38,7.47C4,45.57,5,46.44,6.17,47.34s1,1.26,1.49,4.58c.2,1.32.4,4.26,1.17,5.12s.94.7,2.05.87c.9.14,1.83.26,2.73.41,2.21.37,4.19.33,4.95,1.34,6.27,8.27,5.27,6.78,10.2,5,5.12-1.81,3-2.17,8.3-.07s4.73,2.24,7.86-1.77A41.28,41.28,0,0,0,48,59l7.66-1.13c2.59-.49,2.19-2.33,2.8-6,.42-2.47.13-3.31,1.19-4.26l4.29-3.45c2.65-2.16,2.71-2,.63-7.18C62.71,32.47,62.74,33.57,64.54,29.07ZM25.2,16.83c7.84-2.19,11.06,9.45,3.52,11.79C20.75,31.09,17.2,19.07,25.2,16.83ZM23.62,49.3c-1.92.92-3.89-1.09-2.33-3.39,5.35-7.87,12.28-17.13,18-25.16.68-.95,2.37-3.58,3.18-4,2-1,3.8,1.2,2.32,3.4-1,1.44-1.95,2.7-3,4.14C39.85,27.06,24.59,48.83,23.62,49.3Zm16.88.09C32.29,51.07,30,38.86,38.07,37.28S48.25,47.8,40.5,49.39Z"/>
        <path d="M38.36,41.55a2,2,0,1,0,1.85,3.59C42.33,44,40.78,40.17,38.36,41.55Z"/>
        <path d="M27.49,24.68c2.37-.75,1.33-4.8-1.22-3.85A2,2,0,1,0,27.49,24.68Z"/>
    </symbol>

    <symbol viewBox="0 0 102.05 102.05" id="search">
        <path d="M12.75,42.51a30.15,30.15,0,0,1,4-14.63A29.58,29.58,0,0,1,49.13,13.57a30.37,30.37,0,0,1,12.43,6.17c8.31,7,12.55,18.62,9.86,29.36a30.38,30.38,0,0,1-9.86,16.19,33.11,33.11,0,0,1-6.86,4.29,37.73,37.73,0,0,1-5.59,1.84c-11.73,2.93-23.9-2.17-31-12a28.17,28.17,0,0,1-2.69-4.74,32,32,0,0,1-2.69-12.19ZM0,40.65C0,51.47,1.57,56.91,6.62,65.38c4.12,6.88,10.57,12,17.65,15.57,11.8,6,27.93,5.41,39.29-1.46.82-.49,1.51-.94,2.33-1.38C68,79.5,85.08,97.74,88.17,100.21a8.57,8.57,0,0,0,12.16-11.9C98.42,85.8,79.44,67.87,78.12,65.89,83.21,56.26,85,53.44,85,40.65a40.39,40.39,0,0,0-4-16.21c-.54-1.07-1-2.26-1.7-3.34C72.05,9.11,58.68,0,44.37,0,36.63,0,30.94.7,24.44,4c-1.07.54-2.26,1-3.34,1.7S19,7,18.06,7.7a42.88,42.88,0,0,0-5.64,4.72C5.23,19.62,0,30.34,0,40.65Z"/>
    </symbol>

    <symbol viewBox="0 0 100.86 117.75" id="user">
        <path d="M92.42,86.8a43.23,43.23,0,0,0-11-11c-.59-.42-1-.75-1.54-1.1L78,73.6c-1.18-.71-2.25-1.24-3.62-1.91-10.23-5.18-19-4.38-30.29-4.38-8,0-18.59,3.88-24.67,8.44a36.92,36.92,0,0,0-3.1,2.39c-6,5.61-8.14,8-12,15.61C2.33,97.84,0,105.45,0,111.43v2.63a4.33,4.33,0,0,0,3.69,3.69h93.5a4.32,4.32,0,0,0,3.67-3.69C100.86,102.87,98.08,95.16,92.42,86.8ZM8.66,109.33c1.52-6.46.6-6.32,4.37-13.75a35.82,35.82,0,0,1,8-10.11c8-6.41,14.53-9.76,26.49-9.76,8.12,0,13.75-.18,21.15,2.77a40.56,40.56,0,0,1,9.9,5.87c.49.4.72.72,1.2,1.14A29.74,29.74,0,0,1,84.18,90a39.33,39.33,0,0,1,6.34,11.77c.85,2.53,1.07,4.9,1.69,7.52Z"/>
        <path d="M77.06,42.18A29.46,29.46,0,0,0,29.61,8.67C24.79,13.47,21,20.78,21,28.16c0,9.18,2.31,15.84,8.6,22.14A29.48,29.48,0,0,0,77.06,42.18ZM35.64,14.7a20.15,20.15,0,0,1,6.22-4.3,20.66,20.66,0,0,1,3.92-1.35,19.84,19.84,0,0,1,9.32,0A21.18,21.18,0,0,1,70.85,24.82C74.79,41.29,57.6,55.67,42,48.66a21.36,21.36,0,0,1-12.6-19.18A21.5,21.5,0,0,1,35.64,14.7Z"/>
    </symbol>

    <symbol viewBox="0 0 14.02 14.02" id="close">
        <path d="M8.42,7l5.31-5.3A1,1,0,0,0,12.31.29L7,5.6,1.71.29A1,1,0,0,0,.29,1.71L5.6,7,.29,12.31a1,1,0,0,0,0,1.42,1,1,0,0,0,1.42,0L7,8.42l5.3,5.31a1,1,0,0,0,1.42,0,1,1,0,0,0,0-1.42Z"/>
    </symbol>

    <symbol viewBox="0 0 384 277.33" id="menu">
        <path d="m368 154.667969h-352c-8.832031 0-16-7.167969-16-16s7.167969-16 16-16h352c8.832031 0 16 7.167969 16 16s-7.167969 16-16 16zm0 0"/>
        <path d="m368 32h-352c-8.832031 0-16-7.167969-16-16s7.167969-16 16-16h352c8.832031 0 16 7.167969 16 16s-7.167969 16-16 16zm0 0"/>
        <path d="m368 277.332031h-352c-8.832031 0-16-7.167969-16-16s7.167969-16 16-16h352c8.832031 0 16 7.167969 16 16s-7.167969 16-16 16zm0 0"/>
    </symbol>

    <symbol viewBox="0 0 277 277.34" id="mobile-catalog">
        <circle cx="24" cy="24" r="24"/>
        <circle cx="138.35" cy="24" r="24"/>
        <circle cx="138.35" cy="139.22" r="24"/>
        <circle cx="24" cy="139.22" r="24"/>
        <circle cx="138.35" cy="254.43" r="24"/>
        <circle cx="24" cy="254.43" r="24"/>
        <circle cx="252.71" cy="24" r="24"/>
        <circle cx="252.71" cy="139.22" r="24"/>
        <circle cx="252.71" cy="254.43" r="24"/>
    </symbol>

    <symbol viewBox="0 0.5 511.99 490.64" id="star">
        <path d="m510.652344 185.882812c-3.371094-10.367187-12.566406-17.707031-23.402344-18.6875l-147.796875-13.417968-58.410156-136.75c-4.3125-10.046875-14.125-16.53125-25.046875-16.53125s-20.738282 6.484375-25.023438 16.53125l-58.410156 136.75-147.820312 13.417968c-10.835938 1-20.011719 8.339844-23.402344 18.6875-3.371094 10.367188-.257813 21.738282 7.9375 28.925782l111.722656 97.964844-32.941406 145.085937c-2.410156 10.667969 1.730468 21.699219 10.582031 28.097656 4.757813 3.457031 10.347656 5.183594 15.957031 5.183594 4.820313 0 9.644532-1.28125 13.953125-3.859375l127.445313-76.203125 127.421875 76.203125c9.347656 5.585938 21.101562 5.074219 29.933593-1.324219 8.851563-6.398437 12.992188-17.429687 10.582032-28.097656l-32.941406-145.085937 111.722656-97.964844c8.191406-7.1875 11.308594-18.535156 7.9375-28.925782zm-252.203125 223.722657"/>
    </symbol>

    <symbol viewBox="0 0 42.52 42.53" id="fb">
        <path d="M42.52,21.26A21.26,21.26,0,1,0,21.26,42.53h.37V26H17.07V20.65h4.56V16.73c0-4.55,2.78-7,6.83-7a36.14,36.14,0,0,1,4.1.21v4.75H29.77c-2.2,0-2.64,1-2.64,2.58v3.39h5.28L31.72,26H27.13V41.71A21.29,21.29,0,0,0,42.52,21.26Z"/>
    </symbol>

    <symbol viewBox="0 0 42.49 42.48" id="it">
        <path d="M40.52,12.25a22.53,22.53,0,0,0-2.42-4A21.32,21.32,0,0,0,30.29,2a17.21,17.21,0,0,0-1.81-.76c-.61-.22-1.27-.42-2-.6A21.34,21.34,0,0,0,22.17,0H20.4A21,21,0,0,0,9,3.86,20.83,20.83,0,0,0,3.85,9c-.18.25-.33.47-.49.74a21.28,21.28,0,0,0-2.14,4.33A20,20,0,0,0,0,20.58a20.23,20.23,0,0,0,1.22,7.83,21.87,21.87,0,0,0,5,7.87,22.15,22.15,0,0,0,6,4.22,21.08,21.08,0,0,0,8.3,2,20.67,20.67,0,0,0,9.74-2,21.32,21.32,0,0,0,8.35-7A20.76,20.76,0,0,0,42.49,22,20.67,20.67,0,0,0,40.52,12.25ZM33.44,23.73c0,.59-.08.83-.08,1.33a10.13,10.13,0,0,1-.86,4.79,5.69,5.69,0,0,1-.54.86,6.17,6.17,0,0,1-2.28,1.87c-1.78.83-3,.72-4.87.77l-9.76-.11a8,8,0,0,1-2.19-.63,6.48,6.48,0,0,1-1.68-1.14c-1.86-1.77-2-4-2-6.41,0-.5-.09-.74-.09-1.33s0-.94,0-1.41l.24-7.48a6.45,6.45,0,0,1,2.59-4.39,4.64,4.64,0,0,1,.88-.52,7.7,7.7,0,0,1,2.16-.66C16.41,9,21.55,9.05,23.4,9l4,.2a8.41,8.41,0,0,1,2.19.63A7,7,0,0,1,31.31,11c1.86,1.77,2,4,2.05,6.42,0,.49.09.74.08,1.32Z"/>
        <path d="M28.74,11.84c-1.89-.91-7.29-.64-9.57-.64-3.28,0-7.33-.17-7.8,4.23a37.73,37.73,0,0,0-.17,3.9c0,2.17-.06,5.64.16,7.64a4.34,4.34,0,0,0,2.39,3.68,6,6,0,0,0,1.53.46,93.71,93.71,0,0,0,11.85,0,4.6,4.6,0,0,0,2.77-1.3,4.68,4.68,0,0,0,1.22-2.76,92.55,92.55,0,0,0,0-11.54A4.32,4.32,0,0,0,28.74,11.84ZM21.49,27.47H21a6.23,6.23,0,0,1-6-6V21a6.22,6.22,0,0,1,6-6,6.14,6.14,0,0,1,4.66,1.8C29.56,20.74,26.69,27.47,21.49,27.47Zm4.82-12.7a1.45,1.45,0,0,1,2.9-.08A1.45,1.45,0,0,1,26.31,14.77Z"/>
        <path d="M21.58,17.18a4.08,4.08,0,0,0-4.4,3.73,3.9,3.9,0,0,0,1.18,3.22,4.08,4.08,0,0,0,5.77,0C26.8,21.46,24.58,17.18,21.58,17.18Z"/>
    </symbol>

    <symbol viewBox="0 0 42.66 42.66" id="tt">
        <path d="M18.24,33.5A7.47,7.47,0,0,1,13,31.35a7.18,7.18,0,0,1-2.31-5.69,7.56,7.56,0,0,1,4.21-6.44,8.2,8.2,0,0,1,4.28-.72c.41,0,.25,1,.25,1.83V22.5c-.85-.07-2.19-.55-3.6.81a3.62,3.62,0,0,0,2.36,6.27,3.57,3.57,0,0,0,3.74-3.67V9.17h3.92A6.11,6.11,0,0,0,27.6,13.4a6,6,0,0,0,.8.7A5.73,5.73,0,0,0,32,15.25v3.91a9.13,9.13,0,0,1-3.65-.67,11.78,11.78,0,0,1-2.51-1.41v6c0,3.65.31,6.42-3.06,8.94a7.79,7.79,0,0,1-4.53,1.48ZM20.48,0A21.08,21.08,0,0,0,9.05,3.88a21.21,21.21,0,0,0-9,16.7,20.69,20.69,0,0,0,2,9.78,21.56,21.56,0,0,0,10.28,10.3,21.1,21.1,0,0,0,8.33,2,20.69,20.69,0,0,0,9.78-2,21.34,21.34,0,0,0,8.38-7,20.87,20.87,0,0,0,3.92-11.58,20.81,20.81,0,0,0-2-9.78,22.79,22.79,0,0,0-2.44-4A21.5,21.5,0,0,0,30.41,2a16.53,16.53,0,0,0-1.82-.76C28,1,27.32.81,26.61.63A21.44,21.44,0,0,0,22.26,0Z"/>
    </symbol>

    <symbol viewBox="0 0 16 12" id="check">
        <path d="M5,12a1,1,0,0,1-.71-.29l-4-4A1,1,0,0,1,1.71,6.29L5,9.59,14.29.29a1,1,0,1,1,1.42,1.42l-10,10A1,1,0,0,1,5,12Z"/>
    </symbol>

    <symbol viewBox="0 76.8 512 358.4" id="delivery">
        <path d="M119.467,349.867c-14.138,0-25.6,11.462-25.6,25.6s11.461,25.6,25.6,25.6s25.6-11.461,25.6-25.6     C145.051,361.335,133.599,349.882,119.467,349.867z M119.467,384c-4.713,0-8.533-3.82-8.533-8.533s3.82-8.533,8.533-8.533     s8.533,3.82,8.533,8.533C127.995,380.178,124.178,383.995,119.467,384z"/>
        <path d="M392.533,349.867c-14.138,0-25.6,11.462-25.6,25.6s11.462,25.6,25.6,25.6c14.138,0,25.6-11.461,25.6-25.6     C418.118,361.335,406.665,349.882,392.533,349.867z M392.533,384c-4.713,0-8.533-3.82-8.533-8.533s3.821-8.533,8.533-8.533     c4.713,0,8.533,3.82,8.533,8.533C401.062,380.178,397.244,383.995,392.533,384z"/>
        <path d="M505.496,228.4l-58.783-66.2c-4.87-5.484-11.858-8.615-19.192-8.6h-77.654v-51.2c-0.015-14.132-11.468-25.585-25.6-25.6     H25.6C11.468,76.815,0.015,88.268,0,102.4v221.867c-0.001,2.263,0.898,4.434,2.499,6.035c1.6,1.6,3.771,2.499,6.035,2.499h8.533     v25.6c0.015,14.132,11.468,25.585,25.6,25.6h17.748c4.206,29.38,29.372,51.2,59.052,51.2s54.846-21.82,59.052-51.2h154.964     c4.206,29.38,29.372,51.2,59.052,51.2c29.68,0,54.846-21.82,59.052-51.2H486.4c14.132-0.015,25.585-11.468,25.6-25.6V245.417     C511.994,239.138,509.679,233.082,505.496,228.4z M17.067,315.733V102.4c0.005-4.711,3.822-8.529,8.533-8.533h298.667     c4.711,0.005,8.529,3.822,8.533,8.533v213.333H17.067z M60.415,366.933H42.667c-4.711-0.005-8.529-3.822-8.533-8.533v-25.6h43.61     C68.37,341.962,62.279,353.959,60.415,366.933z M119.467,418.133c-23.564,0-42.667-19.103-42.667-42.667     S95.903,332.8,119.467,332.8s42.667,19.103,42.667,42.667C162.106,399.019,143.019,418.106,119.467,418.133z M204.8,366.933     h-26.282c-1.864-12.974-7.954-24.972-17.328-34.133h43.61V366.933z M281.6,366.933h-59.733V332.8H281.6V366.933z      M333.482,366.933h-34.815V332.8h52.143C341.436,341.962,335.346,353.959,333.482,366.933z M392.533,418.133     c-23.564,0-42.667-19.103-42.667-42.667s19.102-42.667,42.667-42.667c23.564,0,42.667,19.103,42.667,42.667     C435.172,399.019,416.086,418.106,392.533,418.133z M494.933,358.4c-0.005,4.711-3.822,8.529-8.533,8.533h-34.815     c-4.255-29.353-29.391-51.147-59.052-51.2h-42.667V170.667H384V256c0.015,14.132,11.468,25.585,25.6,25.6h85.333V358.4z      M494.933,264.533H409.6c-4.711-0.005-8.529-3.822-8.533-8.533v-85.333h26.454c2.45-0.014,4.788,1.024,6.421,2.85l58.804,66.225     c1.4,1.56,2.178,3.579,2.188,5.675V264.533z"/>
    </symbol>

    <symbol viewBox="0 0 512 512" id="info">
        <g>
            <g>
                <path d="M437.019,74.981C388.667,26.629,324.38,0,256,0C196.696,0,138.885,20.747,93.213,58.417
			c-3.672,3.027-4.193,8.458-1.165,12.129c3.029,3.672,8.461,4.191,12.13,1.164C146.77,36.58,200.688,17.232,256,17.232
			c131.657,0,238.767,107.11,238.766,238.768c0,59.105-21.769,115.828-61.299,159.722c-3.183,3.536-2.899,8.984,0.638,12.168
			c1.647,1.483,3.708,2.214,5.764,2.214c2.356,0,4.704-0.962,6.405-2.851c42.385-47.062,65.727-107.882,65.727-171.254
			C511.999,187.62,485.371,123.333,437.019,74.981z"/>
            </g>
        </g>
        <g>
            <g>
                <path d="M421.677,439.89c-3.063-3.642-8.497-4.114-12.14-1.051c-42.901,36.065-97.429,55.927-153.538,55.927
			c-131.657,0-238.767-107.11-238.767-238.767c0-59.932,22.307-117.247,62.813-161.384c3.218-3.506,2.985-8.956-0.522-12.174
			c-3.507-3.218-8.959-2.982-12.174,0.523c-43.432,47.325-67.35,108.777-67.35,173.036c0,68.381,26.629,132.668,74.981,181.02
			C123.333,485.371,187.621,512,256,512c60.16,0,118.625-21.297,164.626-59.97C424.269,448.968,424.739,443.533,421.677,439.89z"/>
            </g>
        </g>
        <g>
            <g>
                <path d="M289.368,189.061h-66.735c-4.76,0-8.616,3.858-8.616,8.616v225.799c0,4.758,3.857,8.616,8.616,8.616h66.735
			c4.76,0,8.616-3.858,8.616-8.617V197.677C297.984,192.918,294.127,189.061,289.368,189.061z M280.753,414.86H231.25V206.293
			h49.503V414.86z"/>
            </g>
        </g>
        <g>
            <g>
                <path d="M256,78.701c-26.429,0-47.93,21.502-47.93,47.93c0,26.429,21.501,47.93,47.93,47.93s47.93-21.502,47.93-47.93
			C303.93,100.202,282.429,78.701,256,78.701z M256,157.329c-16.927,0-30.698-13.771-30.698-30.698
			c0-16.927,13.772-30.698,30.698-30.698c16.927,0,30.698,13.771,30.698,30.698C286.698,143.558,272.927,157.329,256,157.329z"/>
            </g>
        </g>
    </symbol>

    <symbol viewBox="0 0 456.556 456.556" id="settings">
        <path d="M97.564,79.443H13.428C6.011,79.443,0,73.428,0,66.015s6.011-13.428,13.428-13.428h84.136   c7.417,0,13.428,6.015,13.428,13.428S104.981,79.443,97.564,79.443z"/>
        <path d="M145.643,127.518c-33.916,0-61.507-27.591-61.507-61.504c0-33.92,27.591-61.511,61.507-61.511s61.507,27.591,61.507,61.511   C207.15,99.928,179.559,127.518,145.643,127.518z M145.643,31.36c-19.107,0-34.651,15.547-34.651,34.654   s15.544,34.647,34.651,34.647s34.651-15.54,34.651-34.647S164.75,31.36,145.643,31.36z"/>
        <path d="M443.128,79.443H242.433c-7.417,0-13.428-6.015-13.428-13.428s6.011-13.428,13.428-13.428h200.694   c7.417,0,13.428,6.015,13.428,13.428S450.545,79.443,443.128,79.443z"/>
        <path d="M325.936,289.782c-33.917,0-61.507-27.591-61.507-61.504s27.591-61.504,61.507-61.504s61.507,27.591,61.507,61.504   S359.853,289.782,325.936,289.782z M325.936,193.631c-19.107,0-34.651,15.54-34.651,34.647s15.544,34.647,34.651,34.647   s34.651-15.54,34.651-34.647S345.043,193.631,325.936,193.631z"/>
        <path d="M229.149,241.706H13.428C6.011,241.706,0,235.691,0,228.278s6.011-13.428,13.428-13.428h215.721   c7.417,0,13.428,6.015,13.428,13.428S236.566,241.706,229.149,241.706z"/>
        <path d="M443.128,241.706h-69.113c-7.417,0-13.428-6.015-13.428-13.428s6.011-13.428,13.428-13.428h69.113   c7.417,0,13.428,6.015,13.428,13.428S450.545,241.706,443.128,241.706z"/>
        <path d="M130.62,452.052c-33.916,0-61.507-27.591-61.507-61.511c0-33.913,27.591-61.504,61.507-61.504s61.507,27.591,61.507,61.504   C192.127,424.461,164.536,452.052,130.62,452.052z M130.62,355.894c-19.107,0-34.651,15.54-34.651,34.647   s15.544,34.654,34.651,34.654s34.651-15.547,34.651-34.654S149.727,355.894,130.62,355.894z"/>
        <path d="M443.128,403.97H227.407c-7.417,0-13.428-6.015-13.428-13.428c0-7.413,6.011-13.428,13.428-13.428h215.721   c7.417,0,13.428,6.015,13.428,13.428C456.556,397.955,450.545,403.97,443.128,403.97z"/>
        <path d="M82.541,403.97H13.428C6.011,403.97,0,397.955,0,390.541c0-7.413,6.011-13.428,13.428-13.428h69.113   c7.417,0,13.428,6.015,13.428,13.428C95.969,397.955,89.958,403.97,82.541,403.97z"/>
    </symbol>

    <symbol viewBox="30 27.38 452.15 457.63" id="bill">
        <path d="m66 448.63v-361a29.548 29.548 0 0 1 29.84-29.63h-30a29.548 29.548 0 0 0 -29.84 29.63v361c0 16.56 13.27 30.37 29.84 30.37h30c-16.57 0-29.84-13.81-29.84-30.37z"
        />
        <g>
            <path d="m335.836 485c19.851 0 36.164-16.524 36.164-36.375v-64.625h-12v64.625a24.491 24.491 0 0 1 -24.164 24.375h-270c-13.236 0-23.836-11.141-23.836-24.375v-361a23.57 23.57 0 0 1 23.836-23.625h32.164v14.388c-9 2.636-16.565 11.406-16.565 21.8a22.6 22.6 0 1 0 45.209 0 22.185 22.185 0 0 0 -16.644-21.8v-14.388h51v14.388a22.324 22.324 0 0 0 -16.8 21.8 22.634 22.634 0 0 0 45.268 0 23.2 23.2 0 0 0 -16.468-21.8v-14.388h50v14.388c-9 2.636-16.542 11.406-16.542 21.8a22.6 22.6 0 1 0 45.2 0 22.2 22.2 0 0 0 -16.658-21.8v-14.388h51v14.388a22.3 22.3 0 0 0 -16.78 21.8 22.632 22.632 0 0 0 45.263 0c0-10.39-7.483-19.16-16.483-21.8v-14.388h37.836c13.233 0 24.164 10.392 24.164 23.625v236.375h12v-236.375c0-19.85-16.313-35.625-36.164-35.625h-37.836v-18.625a6 6 0 0 0 -12 0v18.625h-51v-18.625a6 6 0 0 0 -12 0v18.625h-50v-18.625a6 6 0 0 0 -12 0v18.625h-51v-18.625a6 6 0 0 0 -12 0v18.625h-32.164a35.582 35.582 0 0 0 -35.836 35.625v361c0 19.851 15.985 36.375 35.836 36.375zm-221.136-384.816a10.611 10.611 0 1 1 -10.61-10.61 10.622 10.622 0 0 1 10.61 10.61zm62.524 0a10.61 10.61 0 1 1 -10.611-10.61 10.623 10.623 0 0 1 10.611 10.61zm62.524 0a10.611 10.611 0 1 1 -10.61-10.61 10.622 10.622 0 0 1 10.61 10.61zm62.523 0a10.61 10.61 0 1 1 -10.61-10.61 10.622 10.622 0 0 1 10.61 10.61z"/>
            <path d="m328.2 180h-150a6 6 0 0 0 0 12h150a6 6 0 0 0 0-12z"/>
            <path d="m117.614 184.889-13.331 12.745-5.407-5.407a6 6 0 1 0 -8.484 8.485l9.555 9.556a6 6 0 0 0 8.389.094l17.571-16.8a6 6 0 1 0 -8.293-8.673z"/>
            <path d="m108.2 156.9a40.722 40.722 0 1 0 40.722 40.721 40.767 40.767 0 0 0 -40.722-40.721zm0 69.443a28.722 28.722 0 1 1 28.722-28.722 28.754 28.754 0 0 1 -28.722 28.726z"/>
            <path d="m334.2 286a6 6 0 0 0 -6-6h-150a6 6 0 0 0 0 12h150a6 6 0 0 0 6-6z"/>
            <path d="m117.614 284.889-13.331 12.745-5.407-5.407a6 6 0 1 0 -8.484 8.485l9.555 9.556a6 6 0 0 0 8.389.094l17.571-16.8a6 6 0 1 0 -8.293-8.673z"/>
            <path d="m108.2 256.9a40.722 40.722 0 1 0 40.722 40.721 40.767 40.767 0 0 0 -40.722-40.721zm0 69.443a28.722 28.722 0 1 1 28.722-28.722 28.754 28.754 0 0 1 -28.722 28.726z"/>
            <path d="m279.3 386a6 6 0 0 0 -6-6h-95.1a6 6 0 0 0 0 12h95.1a6 6 0 0 0 6-6z"/>
            <path d="m117.614 384.889-13.331 12.745-5.407-5.407a6 6 0 1 0 -8.484 8.485l9.555 9.556a6 6 0 0 0 8.389.094l17.571-16.8a6 6 0 1 0 -8.293-8.673z"/>
            <path d="m108.2 356.9a40.722 40.722 0 1 0 40.722 40.721 40.767 40.767 0 0 0 -40.722-40.721zm0 69.443a28.722 28.722 0 1 1 28.722-28.722 28.754 28.754 0 0 1 -28.722 28.726z"/>
            <path d="m178.2 212h80a6 6 0 0 0 0-12h-80a6 6 0 0 0 0 12z"/>
            <path d="m178.2 312h80a6 6 0 0 0 0-12h-80a6 6 0 0 0 0 12z"/>
            <path d="m178.2 400a6 6 0 0 0 0 12h80a6 6 0 0 0 0-12z"/>
            <path d="m65 100.1a6 6 0 0 0 -12 0v6.3a6 6 0 0 0 12 0z"/>
            <path d="m59 119.391a6 6 0 0 0 -6 6v58a6 6 0 0 0 12 0v-58a6 6 0 0 0 -6-6z"/>
        </g>
        <path d="m477.033 281.128a31.218 31.218 0 0 0 -43.233-8.948l-96.339 63.266a6 6 0 0 0 -1.439 8.7 6 6 0 0 0 8.026 1.327l89.218-58.589 7.257 11.046-151.155 99.27-7.259-11.047 28.4-18.647a6 6 0 0 0 -6.587-10.031l-33.389 21.925c-.061.041-.117.092-.179.135-.152.108-.3.216-.446.338s-.246.227-.365.346c-.072.073-.145.145-.213.221s-.133.126-.189.2-.088.137-.137.2c-.1.131-.187.269-.275.409-.063.1-.131.2-.188.306-.014.025-.031.046-.044.071l-23.012 43.479a6 6 0 0 0 5.3 8.807h.158l50.707-1.329c.123 0 .244-.024.366-.034s.261-.017.391-.037c.159-.024.313-.065.467-.1.114-.027.229-.046.343-.08a5.949 5.949 0 0 0 .767-.289c.061-.027.118-.065.178-.1a6 6 0 0 0 .566-.314c.02-.013.041-.02.059-.033l163.3-107.238a31.253 31.253 0 0 0 8.946-43.23zm-216.139 140.517 13.462-25.438 16.2 24.661zm42.322-3.37-.461-.7-6.8-10.344 151.157-99.265 7.258 11.045zm161.013-106.12-20.756-31.589a19.363 19.363 0 0 1 16.073.484 17.179 17.179 0 0 1 3.973 2.649 19.275 19.275 0 0 1 .71 28.456z"
              />
    </symbol>

    <symbol viewBox="0 0 480 480" id="print">
        <g>
            <g>
                <path d="M472,160h-40v-56c0-4.418-3.582-8-8-8h-24V8c0-4.418-3.582-8-8-8H88c-4.418,0-8,3.582-8,8v88H56c-4.418,0-8,3.582-8,8v56    H8c-4.418,0-8,3.582-8,8v224c0,4.418,3.582,8,8,8h72v72c0,4.418,3.582,8,8,8h304c4.418,0,8-3.582,8-8v-72h72c4.418,0,8-3.582,8-8    V168C480,163.582,476.418,160,472,160z M400,112h16v48h-16V112z M96,16h288v144H96V16z M64,112h16v48H64V112z M80,352h-8v-24h8    V352z M384,464H96V328h288V464z M464,384h-64v-16h16c4.418,0,8-3.582,8-8v-40c0-4.418-3.582-8-8-8H64c-4.418,0-8,3.582-8,8v40    c0,4.418,3.582,8,8,8h16v16H16V176h448V384z M400,352v-24h8v24H400z"/>
            </g>
        </g>
        <g>
            <g>
                <rect x="176" y="352" width="176" height="16"/>
            </g>
        </g>
        <g>
            <g>
                <rect x="128" y="384" width="224" height="16"/>
            </g>
        </g>
        <g>
            <g>
                <rect x="128" y="416" width="176" height="16"/>
            </g>
        </g>
        <g>
            <g>
                <rect x="128" y="352" width="32" height="16"/>
            </g>
        </g>
        <g>
            <g>
                <path d="M104,192H40c-4.418,0-8,3.582-8,8v32c0,4.418,3.582,8,8,8h64c4.418,0,8-3.582,8-8v-32C112,195.582,108.418,192,104,192z     M96,224H48v-16h48V224z"/>
            </g>
        </g>
        <g>
            <g>
                <rect x="128" y="224" width="80" height="16"/>
            </g>
        </g>
        <g>
            <g>
                <rect x="224" y="224" width="16" height="16"/>
            </g>
        </g>

    </symbol>

    <symbol viewBox="16.75 4.75 94.5 118.5" id="trash">
        <path d="m109.5 16.917h-23.85v-10.417a1.75 1.75 0 0 0 -1.75-1.75h-39.8a1.751 1.751 0 0 0 -1.75 1.75v10.417h-23.85a1.75 1.75 0 0 0 -1.75 1.75v12.641a1.751 1.751 0 0 0 1.75 1.75h4.222l4.78 88.536a1.751 1.751 0 0 0 1.748 1.656h69.5a1.749 1.749 0 0 0 1.747-1.656l4.781-88.536h4.222a1.75 1.75 0 0 0 1.75-1.75v-12.641a1.749 1.749 0 0 0 -1.75-1.75zm-63.65-8.667h36.3v8.667h-36.3zm51.242 111.5h-66.184l-4.681-86.692h75.547zm10.658-90.192h-87.5v-9.141h23.816.034s.022 0 .034 0h39.733.033s.023 0 .034 0h23.816z"/>
        <path d="m46.667 96.559a1.751 1.751 0 0 0 1.75-1.75v-42.142a1.75 1.75 0 0 0 -3.5 0v42.142a1.75 1.75 0 0 0 1.75 1.75z"/>
        <path d="m64 96.559a1.751 1.751 0 0 0 1.75-1.75v-42.142a1.75 1.75 0 0 0 -3.5 0v42.142a1.751 1.751 0 0 0 1.75 1.75z"/>
        <path d="m81.333 96.559a1.75 1.75 0 0 0 1.75-1.75v-42.142a1.75 1.75 0 0 0 -3.5 0v42.142a1.75 1.75 0 0 0 1.75 1.75z"/>
    </symbol>

    <symbol viewBox="0 85.33 512 341.33" id="long-arrow">
        <g>
            <path d="M508.875,248.458l-160-160c-4.167-4.167-10.917-4.167-15.083,0c-4.167,4.167-4.167,10.917,0,15.083l141.792,141.792    H10.667C4.771,245.333,0,250.104,0,256s4.771,10.667,10.667,10.667h464.917L333.792,408.458c-4.167,4.167-4.167,10.917,0,15.083    c2.083,2.083,4.813,3.125,7.542,3.125c2.729,0,5.458-1.042,7.542-3.125l160-160C513.042,259.375,513.042,252.625,508.875,248.458z    "/>
        </g>
    </symbol>

    <symbol viewBox="16.18 2 41.64 70" id="map-pointer">
        <path d="M37,63.281a1,1,0,0,1-.8-.4c-.817-1.081-20.02-26.617-20.02-40.067a20.817,20.817,0,1,1,41.635,0c0,13.451-19.2,38.987-20.02,40.067A1,1,0,0,1,37,63.281ZM37,4A18.839,18.839,0,0,0,18.183,22.817C18.183,34.106,33.321,55.553,37,60.6c3.679-5.046,18.817-26.495,18.817-37.78A18.839,18.839,0,0,0,37,4Z"/>
        <path d="M37,37.466A14.327,14.327,0,1,1,51.327,23.139,14.343,14.343,0,0,1,37,37.466Zm0-26.653A12.327,12.327,0,1,0,49.327,23.139,12.341,12.341,0,0,0,37,10.813Z"/>
        <path d="M37,72c-11.675,0-20.82-4.612-20.82-10.5,0-4.562,5.459-8.454,13.909-9.916a1,1,0,1,1,.341,1.971C23.218,54.8,18.18,58.07,18.18,61.5,18.18,66.107,26.8,70,37,70s18.82-3.893,18.82-8.5c0-3.43-5.038-6.7-12.25-7.945a1,1,0,1,1,.341-1.971C52.36,53.046,57.82,56.938,57.82,61.5,57.82,67.388,48.675,72,37,72Z"/>
    </symbol>
</svg>