<svg class="sprite-icons" xmlns="http://www.w3.org/2000/svg">

    <symbol viewBox="0 0 2.52 4.32" id="arrow">
        <path d="M2.52,2.16a.39.39,0,0,0-.1-.27L.63.11a.36.36,0,0,0-.52,0,.36.36,0,0,0,0,.52L1.64,2.16.11,3.69a.36.36,0,0,0,0,.52.33.33,0,0,0,.26.11.34.34,0,0,0,.26-.11L2.42,2.43A.39.39,0,0,0,2.52,2.16Z"/>
    </symbol>

    <symbol viewBox="0 0 100 102.47" id="basket">
        <path d="M98.6,23.13c-2.06-1.58-9.39-1-13.06-1H29c-.42-1.87-1.28-4-1.94-6-.71-2.17-4.3-13.62-5.13-14.74A3.6,3.6,0,0,0,19.29,0H3.51A4,4,0,0,0,.06,3.2,3.93,3.93,0,0,0,2.47,7.41C4,8.06,13.35,7.64,16,7.64c1.1,4.74,5.36,15.21,7.11,22.43,1.9,7.74,3.63,16.51,5.57,24.24.67,2.7,1.3,5.41,1.86,8.09a24.7,24.7,0,0,0,1,3.84,4.1,4.1,0,0,0,3.06,2H87.84c1.64,0,2.9-1.58,3.31-3.29,2.17-8.71,4.23-18.78,6.3-27.59l2-8.25C99.82,27.34,100.84,24.86,98.6,23.13ZM84.26,60.65H38.16L31,30.07H91.14C91,32.26,84.32,58.8,84.26,60.65Z"/>
        <path d="M43.25,73.13c-5.42,0-10,2-12.95,6.41a15.53,15.53,0,0,0-2.59,8.11c0,7.63,6.33,14.77,14,14.77,6.67,0,11.39-2.79,14.2-8.74C60.36,84.18,52.79,73.13,43.25,73.13Zm3.89,19.68a4.51,4.51,0,0,1-2,1.37,6.9,6.9,0,0,1-9.59-6.27,6.21,6.21,0,0,1,2.1-5.06C44.13,76.55,53.89,86.05,47.14,92.81Z"/>
        <path d="M69.42,77.38a14.09,14.09,0,0,0-4.26,9.5c0,5,1,8,4.26,11.27a14.49,14.49,0,0,0,16.89,2.74,13.17,13.17,0,0,0,4-2.86A14.69,14.69,0,0,0,69.42,77.38Zm13,16.8a20,20,0,0,1-2.19.61c-4.08,0-7.4-3.25-7.4-6.88a7.06,7.06,0,0,1,11.78-5.18C87.86,85.75,87.42,92.21,82.39,94.18Z"/>
    </symbol>

    <symbol viewBox="0 0 4.45 4.45" id="catalog">
        <path d="M.6,0A.6.6,0,0,0,0,.6a.59.59,0,0,0,.6.59A.58.58,0,0,0,1.19.6.59.59,0,0,0,.6,0Z"/>
        <path d="M.6,1.63a.59.59,0,0,0-.6.59.6.6,0,0,0,.6.6.59.59,0,0,0,.59-.6A.58.58,0,0,0,.6,1.63Z"/>
        <path d="M.6,3.25a.6.6,0,0,0,0,1.2.6.6,0,0,0,0-1.2Z"/>
        <path d="M2.22,0a.59.59,0,0,0-.59.6.58.58,0,0,0,.59.59A.59.59,0,0,0,2.82.6.6.6,0,0,0,2.22,0Z"/>
        <path d="M2.22,1.63a.58.58,0,0,0-.59.59.59.59,0,0,0,.59.6.6.6,0,0,0,.6-.6A.59.59,0,0,0,2.22,1.63Z"/>
        <path d="M2.22,3.25a.6.6,0,0,0,0,1.2.6.6,0,0,0,0-1.2Z"/>
        <path d="M3.85,1.19A.59.59,0,0,0,4.45.6a.6.6,0,0,0-1.2,0A.59.59,0,0,0,3.85,1.19Z"/>
        <path d="M3.85,1.63a.59.59,0,0,0-.6.59.6.6,0,0,0,1.2,0A.59.59,0,0,0,3.85,1.63Z"/>
        <path d="M3.85,3.25a.6.6,0,1,0,.6.6A.6.6,0,0,0,3.85,3.25Z"/>
    </symbol>

    <symbol viewBox="0 0 2.31 2.8" id="compare">
        <rect y="0.49" width="0.52" height="2.31" rx="0.26"/>
        <rect x="0.89" width="0.52" height="2.8" rx="0.26"/>
        <rect x="1.79" y="1" width="0.52" height="1.8" rx="0.26"/>
    </symbol>

    <symbol viewBox="0 0 83 71.72" id="favorite">
        <path d="M76.8,6C72.7,2,67,0,59.93,0a19.56,19.56,0,0,0-6.21,1.05A24.53,24.53,0,0,0,48,3.83C46.3,4.93,44.83,6,43.6,7q-1.08.87-2.1,1.8-1-.93-2.1-1.8c-1.23-1-2.69-2-4.36-3.13a24.53,24.53,0,0,0-5.76-2.78,19.56,19.56,0,0,0-6.21-1C16,0,10.3,2,6.2,6S0,15.64,0,22.63a21.2,21.2,0,0,0,1.14,6.71,28.78,28.78,0,0,0,2.54,5.74A40.38,40.38,0,0,0,6.83,39.6c1.16,1.45,2,2.44,2.58,3s1,1,1.31,1.25L38.15,70.33a4.74,4.74,0,0,0,6.68,0L72.32,43.88C79.41,36.8,83,29.65,83,22.63S80.91,10.05,76.8,6ZM73.36,22.63c0,4.36-2.59,9.16-7.69,14.27L41.5,60.19,17.3,36.87C12.22,31.79,9.64,27,9.64,22.63A17.5,17.5,0,0,1,10.48,17a10.46,10.46,0,0,1,2-3.64,9.59,9.59,0,0,1,3-2.17A13.66,13.66,0,0,1,19.1,10a22.7,22.7,0,0,1,4-.33,10.79,10.79,0,0,1,4.16,1,20.33,20.33,0,0,1,4.44,2.57,46.73,46.73,0,0,1,3.66,3.05,32.86,32.86,0,0,1,2.46,2.51,4.89,4.89,0,0,0,7.39,0,33.84,33.84,0,0,1,2.49-2.54,47.09,47.09,0,0,1,3.66-3.05,20.57,20.57,0,0,1,4.44-2.57,10.83,10.83,0,0,1,4.16-1,22.81,22.81,0,0,1,4,.33,13.72,13.72,0,0,1,3.62,1.2,9.59,9.59,0,0,1,3,2.17,10.3,10.3,0,0,1,2,3.64A17.27,17.27,0,0,1,73.36,22.63Z"/>
    </symbol>

    <symbol viewBox="0 0 65.99 66.06" id="sale">
        <path d="M64.54,29.07c1.78-4.39,2.21-4.84-.38-6.85-.78-.6-1.32-1.11-2.06-1.7-3.11-2.45-3-1.89-3.36-4.19-.76-4.82-.36-7.63-3.22-8.08L49,7.22c-1.73-.3-2.13-1.78-3.84-3.7-.64-.72-1.06-1.34-1.68-2.08C41.61-.81,41,0,38.5.93c-7,2.54-3.69,2.71-11,0-3.69-1.36-3.06-2-8.32,4.73-.4.52-.71,1.14-1.31,1.41L10.27,8.29c-2.37.49-2,2.11-2.49,5.05-.2,1.18-.34,2-.51,3.26-.26,2-.56,1.75-3.47,4.06C2.37,21.8,0,23.34,0,24.62c0,1.63,2.93,7.18,2.93,8.58,0,.16-1.31,3.5-1.5,3.95-2,4.85-2.17,4.68,1.38,7.47C4,45.57,5,46.44,6.17,47.34s1,1.26,1.49,4.58c.2,1.32.4,4.26,1.17,5.12s.94.7,2.05.87c.9.14,1.83.26,2.73.41,2.21.37,4.19.33,4.95,1.34,6.27,8.27,5.27,6.78,10.2,5,5.12-1.81,3-2.17,8.3-.07s4.73,2.24,7.86-1.77A41.28,41.28,0,0,0,48,59l7.66-1.13c2.59-.49,2.19-2.33,2.8-6,.42-2.47.13-3.31,1.19-4.26l4.29-3.45c2.65-2.16,2.71-2,.63-7.18C62.71,32.47,62.74,33.57,64.54,29.07ZM25.2,16.83c7.84-2.19,11.06,9.45,3.52,11.79C20.75,31.09,17.2,19.07,25.2,16.83ZM23.62,49.3c-1.92.92-3.89-1.09-2.33-3.39,5.35-7.87,12.28-17.13,18-25.16.68-.95,2.37-3.58,3.18-4,2-1,3.8,1.2,2.32,3.4-1,1.44-1.95,2.7-3,4.14C39.85,27.06,24.59,48.83,23.62,49.3Zm16.88.09C32.29,51.07,30,38.86,38.07,37.28S48.25,47.8,40.5,49.39Z"/>
        <path d="M38.36,41.55a2,2,0,1,0,1.85,3.59C42.33,44,40.78,40.17,38.36,41.55Z"/>
        <path d="M27.49,24.68c2.37-.75,1.33-4.8-1.22-3.85A2,2,0,1,0,27.49,24.68Z"/>
    </symbol>

    <symbol viewBox="0 0 102.05 102.05" id="search">
        <path d="M12.75,42.51a30.15,30.15,0,0,1,4-14.63A29.58,29.58,0,0,1,49.13,13.57a30.37,30.37,0,0,1,12.43,6.17c8.31,7,12.55,18.62,9.86,29.36a30.38,30.38,0,0,1-9.86,16.19,33.11,33.11,0,0,1-6.86,4.29,37.73,37.73,0,0,1-5.59,1.84c-11.73,2.93-23.9-2.17-31-12a28.17,28.17,0,0,1-2.69-4.74,32,32,0,0,1-2.69-12.19ZM0,40.65C0,51.47,1.57,56.91,6.62,65.38c4.12,6.88,10.57,12,17.65,15.57,11.8,6,27.93,5.41,39.29-1.46.82-.49,1.51-.94,2.33-1.38C68,79.5,85.08,97.74,88.17,100.21a8.57,8.57,0,0,0,12.16-11.9C98.42,85.8,79.44,67.87,78.12,65.89,83.21,56.26,85,53.44,85,40.65a40.39,40.39,0,0,0-4-16.21c-.54-1.07-1-2.26-1.7-3.34C72.05,9.11,58.68,0,44.37,0,36.63,0,30.94.7,24.44,4c-1.07.54-2.26,1-3.34,1.7S19,7,18.06,7.7a42.88,42.88,0,0,0-5.64,4.72C5.23,19.62,0,30.34,0,40.65Z"/>
    </symbol>

    <symbol viewBox="0 0 100.86 117.75" id="user">
        <path d="M92.42,86.8a43.23,43.23,0,0,0-11-11c-.59-.42-1-.75-1.54-1.1L78,73.6c-1.18-.71-2.25-1.24-3.62-1.91-10.23-5.18-19-4.38-30.29-4.38-8,0-18.59,3.88-24.67,8.44a36.92,36.92,0,0,0-3.1,2.39c-6,5.61-8.14,8-12,15.61C2.33,97.84,0,105.45,0,111.43v2.63a4.33,4.33,0,0,0,3.69,3.69h93.5a4.32,4.32,0,0,0,3.67-3.69C100.86,102.87,98.08,95.16,92.42,86.8ZM8.66,109.33c1.52-6.46.6-6.32,4.37-13.75a35.82,35.82,0,0,1,8-10.11c8-6.41,14.53-9.76,26.49-9.76,8.12,0,13.75-.18,21.15,2.77a40.56,40.56,0,0,1,9.9,5.87c.49.4.72.72,1.2,1.14A29.74,29.74,0,0,1,84.18,90a39.33,39.33,0,0,1,6.34,11.77c.85,2.53,1.07,4.9,1.69,7.52Z"/>
        <path d="M77.06,42.18A29.46,29.46,0,0,0,29.61,8.67C24.79,13.47,21,20.78,21,28.16c0,9.18,2.31,15.84,8.6,22.14A29.48,29.48,0,0,0,77.06,42.18ZM35.64,14.7a20.15,20.15,0,0,1,6.22-4.3,20.66,20.66,0,0,1,3.92-1.35,19.84,19.84,0,0,1,9.32,0A21.18,21.18,0,0,1,70.85,24.82C74.79,41.29,57.6,55.67,42,48.66a21.36,21.36,0,0,1-12.6-19.18A21.5,21.5,0,0,1,35.64,14.7Z"/>
    </symbol>

    <symbol viewBox="0 0 14.02 14.02" id="close">
        <path d="M8.42,7l5.31-5.3A1,1,0,0,0,12.31.29L7,5.6,1.71.29A1,1,0,0,0,.29,1.71L5.6,7,.29,12.31a1,1,0,0,0,0,1.42,1,1,0,0,0,1.42,0L7,8.42l5.3,5.31a1,1,0,0,0,1.42,0,1,1,0,0,0,0-1.42Z"/>
    </symbol>

    <symbol viewBox="0 0 384 277.33" id="menu">
        <path d="m368 154.667969h-352c-8.832031 0-16-7.167969-16-16s7.167969-16 16-16h352c8.832031 0 16 7.167969 16 16s-7.167969 16-16 16zm0 0"/>
        <path d="m368 32h-352c-8.832031 0-16-7.167969-16-16s7.167969-16 16-16h352c8.832031 0 16 7.167969 16 16s-7.167969 16-16 16zm0 0"/>
        <path d="m368 277.332031h-352c-8.832031 0-16-7.167969-16-16s7.167969-16 16-16h352c8.832031 0 16 7.167969 16 16s-7.167969 16-16 16zm0 0"/>
    </symbol>

    <symbol viewBox="0 0 277 277.34" id="mobile-catalog">
        <circle cx="24" cy="24" r="24"/>
        <circle cx="138.35" cy="24" r="24"/>
        <circle cx="138.35" cy="139.22" r="24"/>
        <circle cx="24" cy="139.22" r="24"/>
        <circle cx="138.35" cy="254.43" r="24"/>
        <circle cx="24" cy="254.43" r="24"/>
        <circle cx="252.71" cy="24" r="24"/>
        <circle cx="252.71" cy="139.22" r="24"/>
        <circle cx="252.71" cy="254.43" r="24"/>
    </symbol>

    <symbol viewBox="0 0.5 511.99 490.64" id="star">
        <path d="m510.652344 185.882812c-3.371094-10.367187-12.566406-17.707031-23.402344-18.6875l-147.796875-13.417968-58.410156-136.75c-4.3125-10.046875-14.125-16.53125-25.046875-16.53125s-20.738282 6.484375-25.023438 16.53125l-58.410156 136.75-147.820312 13.417968c-10.835938 1-20.011719 8.339844-23.402344 18.6875-3.371094 10.367188-.257813 21.738282 7.9375 28.925782l111.722656 97.964844-32.941406 145.085937c-2.410156 10.667969 1.730468 21.699219 10.582031 28.097656 4.757813 3.457031 10.347656 5.183594 15.957031 5.183594 4.820313 0 9.644532-1.28125 13.953125-3.859375l127.445313-76.203125 127.421875 76.203125c9.347656 5.585938 21.101562 5.074219 29.933593-1.324219 8.851563-6.398437 12.992188-17.429687 10.582032-28.097656l-32.941406-145.085937 111.722656-97.964844c8.191406-7.1875 11.308594-18.535156 7.9375-28.925782zm-252.203125 223.722657"/>
    </symbol>

    <symbol viewBox="0 0 42.52 42.53" id="fb">
        <path d="M42.52,21.26A21.26,21.26,0,1,0,21.26,42.53h.37V26H17.07V20.65h4.56V16.73c0-4.55,2.78-7,6.83-7a36.14,36.14,0,0,1,4.1.21v4.75H29.77c-2.2,0-2.64,1-2.64,2.58v3.39h5.28L31.72,26H27.13V41.71A21.29,21.29,0,0,0,42.52,21.26Z"/>
    </symbol>

    <symbol viewBox="0 0 42.49 42.48" id="it">
        <path d="M40.52,12.25a22.53,22.53,0,0,0-2.42-4A21.32,21.32,0,0,0,30.29,2a17.21,17.21,0,0,0-1.81-.76c-.61-.22-1.27-.42-2-.6A21.34,21.34,0,0,0,22.17,0H20.4A21,21,0,0,0,9,3.86,20.83,20.83,0,0,0,3.85,9c-.18.25-.33.47-.49.74a21.28,21.28,0,0,0-2.14,4.33A20,20,0,0,0,0,20.58a20.23,20.23,0,0,0,1.22,7.83,21.87,21.87,0,0,0,5,7.87,22.15,22.15,0,0,0,6,4.22,21.08,21.08,0,0,0,8.3,2,20.67,20.67,0,0,0,9.74-2,21.32,21.32,0,0,0,8.35-7A20.76,20.76,0,0,0,42.49,22,20.67,20.67,0,0,0,40.52,12.25ZM33.44,23.73c0,.59-.08.83-.08,1.33a10.13,10.13,0,0,1-.86,4.79,5.69,5.69,0,0,1-.54.86,6.17,6.17,0,0,1-2.28,1.87c-1.78.83-3,.72-4.87.77l-9.76-.11a8,8,0,0,1-2.19-.63,6.48,6.48,0,0,1-1.68-1.14c-1.86-1.77-2-4-2-6.41,0-.5-.09-.74-.09-1.33s0-.94,0-1.41l.24-7.48a6.45,6.45,0,0,1,2.59-4.39,4.64,4.64,0,0,1,.88-.52,7.7,7.7,0,0,1,2.16-.66C16.41,9,21.55,9.05,23.4,9l4,.2a8.41,8.41,0,0,1,2.19.63A7,7,0,0,1,31.31,11c1.86,1.77,2,4,2.05,6.42,0,.49.09.74.08,1.32Z"/>
        <path d="M28.74,11.84c-1.89-.91-7.29-.64-9.57-.64-3.28,0-7.33-.17-7.8,4.23a37.73,37.73,0,0,0-.17,3.9c0,2.17-.06,5.64.16,7.64a4.34,4.34,0,0,0,2.39,3.68,6,6,0,0,0,1.53.46,93.71,93.71,0,0,0,11.85,0,4.6,4.6,0,0,0,2.77-1.3,4.68,4.68,0,0,0,1.22-2.76,92.55,92.55,0,0,0,0-11.54A4.32,4.32,0,0,0,28.74,11.84ZM21.49,27.47H21a6.23,6.23,0,0,1-6-6V21a6.22,6.22,0,0,1,6-6,6.14,6.14,0,0,1,4.66,1.8C29.56,20.74,26.69,27.47,21.49,27.47Zm4.82-12.7a1.45,1.45,0,0,1,2.9-.08A1.45,1.45,0,0,1,26.31,14.77Z"/>
        <path d="M21.58,17.18a4.08,4.08,0,0,0-4.4,3.73,3.9,3.9,0,0,0,1.18,3.22,4.08,4.08,0,0,0,5.77,0C26.8,21.46,24.58,17.18,21.58,17.18Z"/>
    </symbol>

    <symbol viewBox="0 0 42.66 42.66" id="tt">
        <path d="M18.24,33.5A7.47,7.47,0,0,1,13,31.35a7.18,7.18,0,0,1-2.31-5.69,7.56,7.56,0,0,1,4.21-6.44,8.2,8.2,0,0,1,4.28-.72c.41,0,.25,1,.25,1.83V22.5c-.85-.07-2.19-.55-3.6.81a3.62,3.62,0,0,0,2.36,6.27,3.57,3.57,0,0,0,3.74-3.67V9.17h3.92A6.11,6.11,0,0,0,27.6,13.4a6,6,0,0,0,.8.7A5.73,5.73,0,0,0,32,15.25v3.91a9.13,9.13,0,0,1-3.65-.67,11.78,11.78,0,0,1-2.51-1.41v6c0,3.65.31,6.42-3.06,8.94a7.79,7.79,0,0,1-4.53,1.48ZM20.48,0A21.08,21.08,0,0,0,9.05,3.88a21.21,21.21,0,0,0-9,16.7,20.69,20.69,0,0,0,2,9.78,21.56,21.56,0,0,0,10.28,10.3,21.1,21.1,0,0,0,8.33,2,20.69,20.69,0,0,0,9.78-2,21.34,21.34,0,0,0,8.38-7,20.87,20.87,0,0,0,3.92-11.58,20.81,20.81,0,0,0-2-9.78,22.79,22.79,0,0,0-2.44-4A21.5,21.5,0,0,0,30.41,2a16.53,16.53,0,0,0-1.82-.76C28,1,27.32.81,26.61.63A21.44,21.44,0,0,0,22.26,0Z"/>
    </symbol>
</svg>