<svg id="Слой_1" data-name="Слой 1" xmlns="http://www.w3.org/2000/svg" viewBox="0 0 344.82 438.89">
    <path d="M300.93,57.5H261.22V39.74c0-5.75-6.27-8.36-12-8.36H218.38C211.07,10.48,192.78,0,171.88,0a47.55,47.55,0,0,0-46.49,31.35H95.08c-5.74,0-11.49,2.61-11.49,8.36V57.5H43.88A44.4,44.4,0,0,0,0,99.82V399.18c0,23,20.89,39.71,43.88,39.71H300.93c23,0,43.88-16.72,43.88-39.71V99.82A44.4,44.4,0,0,0,300.93,57.5ZM104.49,52.28h28.73a11.49,11.49,0,0,0,9.93-9.4,30.3,30.3,0,0,1,28.73-23.52A29.79,29.79,0,0,1,200.1,42.88a11.49,11.49,0,0,0,10.44,9.4h29.78V94.07H104.49Zm219.43,346.9c0,11.5-11.5,18.81-23,18.81h-257c-11.49,0-23-7.31-23-18.81V99.82a23.52,23.52,0,0,1,23-21.42H83.59v26.65A11,11,0,0,0,95.08,115H249.2a11.49,11.49,0,0,0,12-9.92V78.4h39.71a23.5,23.5,0,0,1,23,21.42V399.18Z"
          transform="translate(0 0)"/>
    <path d="M274.77,256H70.14c-9.83,0-17.8,4.68-17.8,10.45s8,10.45,17.8,10.45H274.77c9.83,0,17.8-4.68,17.8-10.45S284.6,256,274.77,256Z" transform="translate(0 0)"/>
    <path d="M274.77,172.44H70.14c-9.83,0-17.8,4.68-17.8,10.45s8,10.45,17.8,10.45H274.77c9.83,0,17.8-4.68,17.8-10.45S284.6,172.44,274.77,172.44Z" transform="translate(0 0)"/>
    <path d="M274.77,339.63H70.14c-9.83,0-17.8,4.67-17.8,10.45s8,10.44,17.8,10.44H274.77c9.83,0,17.8-4.67,17.8-10.44S284.6,339.63,274.77,339.63Z" transform="translate(0 0)"/>
</svg>