<svg xmlns="http://www.w3.org/2000/svg" width="24" height="24" viewBox="0 0 24 24">
    <path fill="#FFF" d="M20.682 5.535l-2.22-2.218c-.493-.492-1.294-.492-1.787.001L4.809 15.19c-.371.37-.654.829-.82 1.326l-.01.032-1.031 4.504 4.508-1.03.031-.01c.498-.165.957-.448 1.328-.818L20.683 7.32c.238-.239.37-.556.37-.893 0-.338-.132-.655-.371-.893zM4.829 19.172l.421-1.84 1.42 1.419-1.84.42zm3.136-1.128L5.958 16.04l9.809-9.813 2.006 2.004-9.808 9.813zM18.773 7.231l-2.007-2.004.803-.803 2.007 2.004-.803.803z"/>
</svg>
