<svg xmlns="http://www.w3.org/2000/svg" width="24" height="24" viewBox="0 0 24 24">
    <path fill="#415AB7" fill-rule="evenodd" d="M19.746 16.738H9.583V6.576h2.45V9.98c0 .342.277.62.62.62h4.024c.342 0 .62-.278.62-.62V6.576h2.449v10.162zm-6.473-7.377h2.784V6.576h-2.784V9.36zm7.092-4.025H8.964c-.342 0-.62.278-.62.62v11.402c0 .342.278.62.62.62h11.401c.342 0 .621-.278.621-.62V5.956c0-.342-.279-.62-.62-.62zM6.281 21.433c-.768 0-1.393-.624-1.393-1.392 0-.767.625-1.391 1.393-1.391.767 0 1.392.624 1.392 1.391 0 .768-.625 1.392-1.392 1.392zm13.75-2.01H8.837l-.01-.039c-.242-.923-.967-1.647-1.889-1.889l-.038-.01V2.936c0-.257-.161-.49-.403-.579L3.814 1.352c-.06-.019-.12-.028-.18-.028-.251 0-.488.156-.581.404-.115.307.03.651.33.784l2.278.857v14.116l-.038.01c-1.249.321-2.075 1.485-1.968 2.77.107 1.284 1.118 2.295 2.403 2.402.075.006.15.01.224.01 1.192 0 2.244-.803 2.544-1.977l.01-.04h11.195c.342 0 .62-.277.62-.619 0-.341-.278-.619-.62-.619z"/>
</svg>
