<svg xmlns="http://www.w3.org/2000/svg" width="33" height="32" viewBox="0 0 33 32">
    <path fill="#2F3137" fill-rule="evenodd" d="M24.012 21.081h3.559V4.63h-3.56V21.08zm0 6.29h3.559V22.24h-3.56v5.132zM19.295 9.76h3.56V4.628h-3.56v5.13zm0 17.611h3.56V10.919h-3.56v16.454zm-5.031-6.29h3.873V4.63h-3.873V21.08zm0 6.29h3.873V22.24h-3.873v5.132zM9.547 9.76h3.559V4.628h-3.56v5.13zm0 17.611h3.559V10.919h-3.56v16.454zm-4.718-6.29h3.559V4.63h-3.56V21.08zm0 6.29h3.559V22.24h-3.56v5.132zm23.32-23.9H4.25c-.318 0-.578.26-.578.58v23.9c0 .319.26.578.579.578h23.9c.32 0 .58-.26.58-.578V4.05c0-.32-.26-.58-.58-.58z"/>
</svg>
