<svg xmlns="http://www.w3.org/2000/svg" width="32" height="32" viewBox="0 0 32 32">
    <path fill="#2F3137" fill-rule="evenodd" d="M26.02 13.072c-1.14 1.197-2.852 1.803-5.091 1.803-.463 0-.945-.024-1.433-.072l-.352-.037.18-.306c.83-1.39 1.818-2.537 2.783-3.229.245-.172.303-.514.133-.761-.084-.12-.206-.2-.343-.223-.138-.026-.279.005-.4.09-.8.574-1.625 1.434-2.38 2.487l-.542.752.138-.919c.236-1.61.88-2.95 1.863-3.875 1.5-1.41 3.827-1.978 6.905-1.698l.19.017.015.191c.087 1.123.096 3.935-1.665 5.78zm-8.69 10.674c.61.121 1.198.402 1.743.833.137.108.314.143.479.097 1.148-.346 1.906-.08 2.26.792.07.181.233.31.424.335.914.125 1.468.556 1.693 1.319l.085.29H8.52l.087-.291c.23-.763.784-1.193 1.691-1.316.194-.027.353-.153.426-.338.344-.864 1.106-1.133 2.262-.79.164.047.34.011.475-.097.554-.436 1.143-.718 1.752-.836.232-.046.48-.067.734-.067h.645c.209-.01.438.01.738.07zm-4.092-12.72C12.101 9.2 10.817 7.747 9.526 6.83c-.115-.08-.253-.11-.393-.09-.142.024-.266.103-.35.223-.17.247-.11.587.133.76 1.477 1.055 2.95 2.886 4.143 5.16l.162.306-.345.025c-.432.032-.853.048-1.252.048-2.633 0-4.607-.71-5.871-2.11-1.849-2.045-1.743-5.1-1.614-6.32l.024-.188.187-.011c3.34-.22 5.839.47 7.415 2.042 1.295 1.296 1.74 3.001 1.888 4.204l.121 1.012-.536-.866zm15.437-4.509l-.001-.017c-.039-.221-.226-.4-.461-.428-3.713-.461-6.521.183-8.355 1.912-2.235 2.105-2.358 5.266-2.307 6.526.012.276.032.522.06.733l.01.127-.025.05c-.408.862-.751 1.753-1.023 2.645l-.238.79-.195-.803c-.353-1.456-.839-2.886-1.444-4.251l-.024-.064.014-.09c.02-.142.054-.385.079-.717.097-1.34.074-4.71-2.257-7.032-1.905-1.904-4.888-2.681-8.86-2.306-.231.021-.426.2-.474.433-.04.195-.941 4.825 1.785 7.858 1.474 1.64 3.71 2.473 6.643 2.473.62 0 1.275-.037 1.942-.11l.162-.016.07.147c1.114 2.56 1.78 5.324 1.924 7.997l.015.218-.218.02c-.16.016-.329.033-.483.066-.67.127-1.312.403-1.913.824l-.08.056-.098-.023c-.303-.064-.575-.096-.83-.096-.486 0-.922.112-1.295.333-.366.216-.663.523-.886.911l-.048.086-.095.022c-1.477.348-2.314 1.467-2.357 3.15 0 .148.054.29.155.397.099.102.238.162.38.162h16.629c.14 0 .278-.059.387-.166.097-.102.152-.25.147-.39-.037-1.686-.873-2.805-2.353-3.153l-.097-.022-.049-.087c-.221-.391-.519-.697-.883-.91-.58-.339-1.301-.42-2.13-.237l-.095.023-.08-.056c-.602-.42-1.245-.697-1.91-.822-.17-.037-.334-.055-.469-.068l-.216-.023.016-.217c.15-2.172.732-4.393 1.684-6.424l.07-.149.164.021c.77.102 1.492.153 2.146.153 2.544 0 4.518-.72 5.869-2.135 2.58-2.702 1.975-6.856 1.898-7.321z"/>
</svg>
