<svg xmlns="http://www.w3.org/2000/svg" width="32" height="32" viewBox="0 0 32 32">
    <path fill="#2F3137" d="M13.568 4.1c1.085 0 2.106.509 2.76 1.374l.104-.002c1.485 0 2.794.955 3.231 2.289l.11-.002c1.613 0 2.982 1.089 3.311 2.58 1.2.526 1.985 1.685 1.985 2.974 0 .066-.003.13-.007.196h1.094l.483-5.793c.022-.271.249-.48.52-.479h3.137c.866 0 1.568.702 1.568 1.568 0 .866-.702 1.568-1.568 1.568h-2.83l-.261 3.137c.851.033 1.521.738 1.509 1.59-.013.852-.703 1.538-1.554 1.546h-.617l-1.786 9.756c-.041.245-.125.482-.249.698h4.743c.288 0 .522.234.522.523 0 .289-.234.523-.522.523H1.023c-.289 0-.523-.234-.523-.523 0-.289.234-.523.523-.523H5.26c-.718-.7-1.116-1.664-1.101-2.666.014-1.002.44-1.955 1.177-2.634l-3.563-5.182C.98 16.465.432 15.735.508 14.93c.077-.805.752-1.42 1.56-1.42.003-.066 0-.131 0-.197 0-1.29.786-2.448 1.984-2.974.33-1.491 1.698-2.58 3.311-2.58.037 0 .074 0 .11.002.437-1.334 1.746-2.289 3.231-2.289.035 0 .07 0 .105.002.653-.865 1.675-1.374 2.76-1.374zm4.372 19.078l-6.466 1.175c.002.045.003.089.003.134 0 .984-.396 1.927-1.101 2.613h10.487l-3.003-3.86.08-.062zm6.49-1.18l-5.441.989 2.886 3.711c.254.327.677.472 1.078.37.401-.101.704-.43.772-.838l.706-4.233zm-16.612-.125c-1.443 0-2.613 1.17-2.613 2.614.001 1.443 1.17 2.612 2.613 2.613 1.444 0 2.614-1.17 2.614-2.613 0-1.444-1.17-2.614-2.614-2.614zm0 1.046c.866 0 1.569.702 1.569 1.568 0 .866-.703 1.568-1.569 1.568-.865-.001-1.567-.703-1.568-1.568 0-.866.702-1.568 1.568-1.568zm0 1.045c-.288 0-.522.234-.522.523 0 .288.234.522.522.522.289 0 .523-.234.523-.522 0-.289-.234-.523-.523-.523zm17.658-7.318H3.062l3.136 4.561c.947-.469 2.05-.505 3.026-.099s1.728 1.214 2.063 2.217l13.339-2.426.85-4.253zm1.684-2.091H2.068c-.288 0-.522.234-.523.522 0 .29.235.523.523.523H27.16c.288 0 .522-.234.522-.523 0-.288-.234-.522-.522-.522zm-13.592-9.41c-.832 0-1.605.431-2.043 1.139-.106.18-.308.279-.515.253-.1-.013-.203-.02-.305-.02-1.15 0-2.145.813-2.315 1.89-.022.139-.098.262-.212.344-.114.081-.255.114-.393.09-.14-.024-.28-.036-.421-.036-1.196 0-2.196.849-2.326 1.975-.024.202-.162.372-.355.436-.939.311-1.57 1.154-1.57 2.097 0 .066.005.13.01.196h20.89c.006-.065.01-.13.01-.196 0-.943-.63-1.786-1.569-2.097-.193-.064-.331-.234-.355-.436-.13-1.126-1.13-1.975-2.326-1.975-.141 0-.282.012-.42.036-.139.024-.28-.009-.394-.09-.114-.082-.19-.205-.212-.344-.17-1.077-1.165-1.89-2.315-1.89-.102 0-.204.007-.306.02-.206.026-.408-.074-.514-.253-.438-.708-1.211-1.139-2.044-1.139zm16.728 3.137h-2.655l-.088 1.045h2.743c.289 0 .523-.234.523-.522 0-.29-.234-.523-.523-.523z"/>
</svg>
